<svg xmlns="http://www.w3.org/2000/svg" viewBox="0 0 182.83 47"><defs><style>.cls-1{fill:#23ba4f;}.cls-2,.cls-4{fill:#fff;}.cls-3,.cls-4{isolation:isolate;}.cls-4{font-size:24px;font-family:PingFangTC-Regular-B5pc-H, PingFang TC;letter-spacing:0.02em;}</style></defs><g id="圖層_2" data-name="圖層 2"><g id="圖層_1-2" data-name="圖層 1"><g id="Group_4690" data-name="Group 4690"><rect id="Rectangle_538" data-name="Rectangle 538" class="cls-1" width="182.83" height="47"/><g id="Group_4689" data-name="Group 4689"><g id="Group_1475" data-name="Group 1475"><path id="Path_4645" data-name="Path 4645" class="cls-2" d="M48,19.58h0v-.06h0l0-.25,0-.17v-.05h0a9.6,9.6,0,0,0-2.49-4.88,12.7,12.7,0,0,0-4.94-3.26A15.33,15.33,0,0,0,35.33,10a14.67,14.67,0,0,0-6.82,1.65c-3.92,2.08-6.23,5.91-5.89,9.75a10,10,0,0,0,2.26,5.47,11.92,11.92,0,0,0,4.77,3.5,18.27,18.27,0,0,0,3.55,1l.14,0c.34.06.43.16.45.19a.45.45,0,0,1,0,.28,1.94,1.94,0,0,1,0,.2,4.19,4.19,0,0,0-.16,1.69,1.19,1.19,0,0,0,1.2,1.11h0a4.38,4.38,0,0,0,2-.77l.07,0c1.24-.73,2.41-1.55,3.29-2.19a28.27,28.27,0,0,0,5.75-5A9.92,9.92,0,0,0,48,19.58Zm-17.5,3.89h-2.2a.6.6,0,0,1-.6-.6h0V18.26a.6.6,0,0,1,.6-.61h0a.6.6,0,0,1,.6.61h0v4h1.6a.6.6,0,0,1,.6.6h0a.6.6,0,0,1-.6.6Zm2.3-.62a.6.6,0,0,1-.6.6h0a.6.6,0,0,1-.6-.6h0V18.24a.6.6,0,0,1,.6-.6h0a.6.6,0,0,1,.6.6h0Zm5.44,0a.61.61,0,0,1-.42.58l-.18,0a.61.61,0,0,1-.49-.25l-2.17-3v2.63a.6.6,0,0,1-.6.6h0a.6.6,0,0,1-.6-.6h0V18.37a.6.6,0,0,1,.42-.57.57.57,0,0,1,.67.22l2.17,3V18.24a.6.6,0,0,1,.6-.6h0a.6.6,0,0,1,.6.6h0Zm4.39.51h-3a.6.6,0,0,1-.6-.6h0V18.14a.59.59,0,0,1,.59-.6h2.89a.6.6,0,0,1,.6.6h0a.6.6,0,0,1-.6.6H40.28v1.1h1.85a.6.6,0,0,1,.6.6h0a.6.6,0,0,1-.6.6H40.28v1.1h2.38a.6.6,0,0,1,.6.6h0a.61.61,0,0,1-.59.62h0Z"/></g><g id="立即串接" class="cls-3"><text class="cls-4" transform="translate(63.59 29.95)">立即串接</text></g></g></g></g></g></svg>