<svg xmlns="http://www.w3.org/2000/svg" viewBox="0 0 182.83 45.8"><defs><style>.cls-1{fill:#b73d34;}.cls-2,.cls-4{fill:#fff;}.cls-3,.cls-4{isolation:isolate;}.cls-4{font-size:23.39px;font-family:PingFangTC-Regular-B5pc-H, PingFang TC;letter-spacing:0.02em;}</style></defs><g id="圖層_2" data-name="圖層 2"><g id="圖層_1-2" data-name="圖層 1"><rect id="Rectangle_539" data-name="Rectangle 539" class="cls-1" width="182.83" height="45.8"/><g id="Group_4687" data-name="Group 4687"><g id="Group_1478" data-name="Group 1478"><path id="Path_4646" data-name="Path 4646" class="cls-2" d="M44.24,21H34.19v3.82h6.16l-.45.92a6.19,6.19,0,0,1-.85,1.3c-.17.19-.34.37-.53.55s-.39.33-.59.48a6.25,6.25,0,0,1-3.74,1.22,6.44,6.44,0,0,1-6.1-4.51,6.54,6.54,0,0,1-.27-1.86,6.36,6.36,0,0,1,6.37-6.38,6.27,6.27,0,0,1,2,.33,6.53,6.53,0,0,1,1.81.95l2.72-2.72a10.23,10.23,0,1,0,0,15.6c.28-.24.54-.49.79-.75a10.1,10.1,0,0,0,2.86-7c0-.32,0-.64,0-1S44.3,21.31,44.24,21Z"/></g><g id="立即串接" class="cls-3"><text class="cls-4" transform="translate(61.96 30.65)">立即串接</text></g></g></g></g></svg>