<svg xmlns="http://www.w3.org/2000/svg" viewBox="0 0 182.83 47"><defs><style>.cls-1{fill:#425994;}.cls-2,.cls-4{fill:#fff;}.cls-3,.cls-4{isolation:isolate;}.cls-4{font-size:24px;font-family:PingFangTC-Regular-B5pc-H, PingFang TC;letter-spacing:0.02em;}</style></defs><g id="圖層_2" data-name="圖層 2"><g id="圖層_1-2" data-name="圖層 1"><g id="Group_4691" data-name="Group 4691"><rect id="Rectangle_540" data-name="Rectangle 540" class="cls-1" width="182.83" height="47"/><g id="Group_4688" data-name="Group 4688"><path id="Path_4647" data-name="Path 4647" class="cls-2" d="M32.66,34.14V24.57H30.19A.58.58,0,0,1,29.6,24V20.91a.58.58,0,0,1,.59-.59h2.48v-3c0-3.46,2.11-5.34,5.2-5.34h2.53a.58.58,0,0,1,.58.59v2.6a.58.58,0,0,1-.58.58H38.83c-1.67,0-2,.8-2,2v2.58h3.69a.59.59,0,0,1,.59.58s0,.05,0,.07l-.36,3.09a.59.59,0,0,1-.59.51h-3.3v9.57Z"/><g id="立即串接-2" class="cls-3"><text class="cls-4" transform="translate(63.59 30.46)">立即串接</text></g></g></g></g></g></svg>