<svg xmlns="http://www.w3.org/2000/svg" viewBox="0 0 137 57"><defs><style>.cls-1{fill:#425994;}.cls-2,.cls-8{isolation:isolate;}.cls-3{fill:#fff;}.cls-4{fill:#37393d;}.cls-5{fill:#eaebf5;}.cls-6{fill:#7082ad;}.cls-7{fill:#7c8cb0;}.cls-8{fill:#d0d1d0;opacity:0.5;}</style></defs><g id="圖層_2" data-name="圖層 2"><g id="圖層_1-2" data-name="圖層 1"><rect class="cls-1" width="137" height="57" rx="7.71"/><g id="立即串接-2" class="cls-2"><g class="cls-2"><path class="cls-3" d="M49.77,29.62A51,51,0,0,1,48.15,37l-1.53-.54a47.42,47.42,0,0,0,1.65-7.3Zm0-6.11-1.38.34A56.74,56.74,0,0,0,47,18l1.5-.5A47.08,47.08,0,0,1,49.82,23.51ZM51,25.35v-10h1.92v10h3.31v.11A21.56,21.56,0,0,0,60.5,16.2l1.87.46A23.18,23.18,0,0,1,57.1,27.5l-.91-1.16v.85H52.88V41.06H51V27.19H47.45V25.35Zm5.6-8a24.44,24.44,0,0,1-1.19,6.25L54,23.2a26.68,26.68,0,0,0,1-6Zm.57,19-1.59.39c-.39-2.63-.9-5.17-1.5-7.61l1.36-.42C56,31,56.62,33.5,57.13,36.39Zm12,1.13c-.23,2.21-1.27,3.34-3.17,3.34-.54,0-1.42,0-2.63-.11l-.51-1.87c1.07.06,2,.09,2.83.09s1.44-.77,1.58-2.27a65.77,65.77,0,0,0,.37-8.35H63.3v1a16.51,16.51,0,0,1-5,11.8l-1.67-1.44A14.18,14.18,0,0,0,61.26,29.4v-1H58.6v-2H69.53A88,88,0,0,1,69.13,37.52ZM67.72,16.26a19.59,19.59,0,0,0,4.86,9.54l-1.27,1.76a22.55,22.55,0,0,1-5.1-9.46H63.87V16.26Z"/><path class="cls-3" d="M86.68,32.2l-1.7.42c-.14-.56-.28-1.13-.45-1.67a49.45,49.45,0,0,1-8,1.76L76,30.84a3,3,0,0,0,.93-.57,28.86,28.86,0,0,0,4.11-5.15c-1.56.29-3.12.57-4.7.79l-.51-1.83a2.26,2.26,0,0,0,.85-.77,39.76,39.76,0,0,0,4.21-8.1l1.93.8a41.18,41.18,0,0,1-4.53,7.9c1.3-.18,2.6-.4,3.93-.68.63-1.05,1.31-2.16,2-3.34l1.86.68a63.09,63.09,0,0,1-7,10c1.67-.29,3.34-.68,5-1.14-.29-.93-.63-1.83-1-2.68l1.59-.51A42.15,42.15,0,0,1,86.68,32.2Zm-7.78,2a34.62,34.62,0,0,1-1,6.88L76,40.52A29.87,29.87,0,0,0,77.06,34ZM83,39.5l-1.9.43c-.2-2.24-.42-4.22-.71-6l1.7-.36C82.46,35.43,82.77,37.38,83,39.5ZM86.71,37l-1.7.77a36.7,36.7,0,0,0-1.67-4.45L85,32.85A35.28,35.28,0,0,1,86.71,37Zm4.64-2.92a25.6,25.6,0,0,1-3.93,6.32l-1.16-1.5A24.34,24.34,0,0,0,90,33ZM90.84,41l-.42-1.9a16.94,16.94,0,0,0,2.06.15c.57,0,.88-.37.88-1.08V30.81c-1.87.28-3.82.54-5.83.77l-.34-1.84c1.75-.65,3.76-2.52,6-5.58-1.81.37-3.6.71-5.41,1L87.3,23.4a1.78,1.78,0,0,0,.82-.71,35.37,35.37,0,0,0,4.82-7.42l1.84.74a36,36,0,0,1-4.9,7.13c1.5-.2,3-.45,4.59-.76.82-1.25,1.67-2.61,2.57-4.08L99,19a52.87,52.87,0,0,1-8.23,10.39,53.39,53.39,0,0,0,7-1.36c-.51-1-1.08-2-1.7-3l1.47-.91a66.22,66.22,0,0,1,4,7.39L100,32.57c-.4-.94-.83-1.9-1.33-2.86-1.08.25-2.18.51-3.32.74v8.23c0,1.56-.73,2.35-2.18,2.35Zm10.62-2-1.39,1.39A40,40,0,0,0,96.65,34l1.27-1.22A44.08,44.08,0,0,1,101.46,39Z"/><path class="cls-3" d="M129,41.29h-1.92V40.07H107.83v1.22H105.9V16.43H129Zm-1.92-2.95V18.1H107.83V38.34ZM116.49,19.83V18.75h1.84v1.08h6.74v1.33h-6.74v1.16h5.52v6h0a20.24,20.24,0,0,1,1.81,2.35l-1.22.85a13.24,13.24,0,0,0-.79-1.16l-1.33.09v1.67h3.17v1.47h-3.17v1.87c0,1.21-.68,1.84-2,1.84h-2.8l-.37-1.56c.91,0,1.79.11,2.61.11.56,0,.85-.28.85-.79V33.59H109.38V32.12h11.16V30.53c-2.83.14-6.32.28-10.45.4l-.17-1.22,6.57-.14V28.32h-5.44v-6h5.44V21.16h-6.68V19.83Zm-.68,15.77L115,36.87a14.58,14.58,0,0,0-3.57-1.95l.74-1.11A17.71,17.71,0,0,1,115.81,35.6Zm.85-10.73V23.42h-3.94v1.45Zm0,.93h-3.94v1.47h3.94Zm1.5-.93h4V23.42h-4Zm4,.93h-4v1.47h4Zm-3.88,3.71,4.53-.17-.85-1h-3.68Z"/></g></g><path class="cls-4" d="M40.21,27.91c1.77-1.76,1.22-5.32-1.84-5.32H30.3c.31-1.7.75-4.54.73-4.8a17.24,17.24,0,0,0-1.85-5.74,3.41,3.41,0,0,0-3.27-1c-1.94.41-2.14,1.64-2.13,2,0,0,.09,3.38.09,4.28-.92,2-4.11,7.36-5.07,7.77A1.49,1.49,0,0,0,18,24.9H7.84a1.56,1.56,0,0,0-1.56,1.56V40.54a1.48,1.48,0,0,0,1.47,1.35H16.9a1.47,1.47,0,0,0,1.47-1.47V40a1,1,0,0,1,.49.07,4.21,4.21,0,0,0,2.27.84H34.78c5.11,0,4.56-4.53,4.09-5.15a3.49,3.49,0,0,0,.67-3.9,3.48,3.48,0,0,0,.67-3.91Z"/><path class="cls-3" d="M38.14,24.07H28.51c.37-1.48,1.06-6.18,1.06-6.18a16,16,0,0,0-1.69-5.15c-1.81-.76-2.63.28-2.63.28s.1,3.63.1,4.47S21.2,25,20.19,25.89a21.94,21.94,0,0,1-2.29,1.58V38.28h.63c.73,0,1.61,1.12,2.6,1.12H35c2.79,0,3.23-3.15,1.39-3.45l.08-.35c1.77-.19,2.84-3,.59-3.55l.08-.35c1.69-.18,2.94-2.89.59-3.56l.08-.35c2.21-.35,2.67-3.72.31-3.72Z"/><path class="cls-5" d="M37.75,28.14l.08-.35c2.21-.35,2.67-3.72.31-3.72H33.49c2.35,0,1.9,3.37-.31,3.72l0,.21c2.36.67,1.06,3.52-.63,3.7l0,.21c2.26.57,1.14,3.5-.63,3.69l0,.21c1.84.3,1.35,3.59-1.45,3.59H35c2.79,0,3.23-3.15,1.39-3.45l.08-.35c1.77-.19,2.84-3,.59-3.55l.08-.35c1.69-.18,2.94-2.89.59-3.56Z"/><path class="cls-6" d="M7.75,26.37h9.17V40.42H7.75Z"/><path class="cls-7" d="M7.75,26.37V40.42h9.17v-14Zm8.58,13.46h-8V28.19l8,0Z"/><path class="cls-8" d="M19.29,38.56v-12l-1.39.9V38.28h.63a1.58,1.58,0,0,1,.76.28Z"/><path class="cls-5" d="M26.59,12.46h0s1.14,4.2,1.14,4.8-3.42,5.7-3,6.35c.63.88,3.75.46,3.75.46.37-1.48,1.06-6.18,1.06-6.18a16,16,0,0,0-1.69-5.15A3.25,3.25,0,0,0,26.59,12.46Z"/></g></g></svg>