<svg xmlns="http://www.w3.org/2000/svg" viewBox="0 0 81.65 81.65"><defs><style>.cls-1{fill:#f14336;}.cls-2{fill:#fff;}</style></defs><g id="圖層_2" data-name="圖層 2"><g id="圖層_1-2" data-name="圖層 1"><rect class="cls-1" width="81.65" height="81.65"/><g id="Group_1478" data-name="Group 1478"><path id="Path_4646" data-name="Path 4646" class="cls-2" d="M64.8,36.27h-24v9.1H55.5l-1.06,2.19a14.1,14.1,0,0,1-2,3.09A15.71,15.71,0,0,1,51.14,52a14.22,14.22,0,0,1-1.4,1.17A15,15,0,0,1,40.82,56,15.37,15.37,0,0,1,26.27,45.26a15.82,15.82,0,0,1-.64-4.43A15.18,15.18,0,0,1,49.94,28.67l6.49-6.49a24.14,24.14,0,0,0-36.53,6.3,23.69,23.69,0,0,0,0,24.69A24.24,24.24,0,0,0,58.4,57.6a24.12,24.12,0,0,0,6.82-16.78,21.88,21.88,0,0,0-.11-2.28C65,37.78,64.94,37,64.8,36.27Z"/></g></g></g></svg>