<svg xmlns="http://www.w3.org/2000/svg" viewBox="0 0 78 78"><defs><style>.cls-1{fill:none;}.cls-2{fill:#f95570;}.cls-3{fill:#b6efe0;}.cls-4{fill:#ffb3c0;}</style></defs><g id="圖層_2" data-name="圖層 2"><g id="圖層_1-2" data-name="圖層 1"><rect class="cls-1" width="78" height="78"/><g id="Group_4539" data-name="Group 4539"><g id="Group_4124" data-name="Group 4124"><g id="Group_4123" data-name="Group 4123"><path id="Path_9797" data-name="Path 9797" class="cls-2" d="M48.33,13.35c-1,6.53-7.12,26.82,4.63,28.78l2,.34a12.2,12.2,0,0,1,10,14L64.54,59a12.21,12.21,0,0,1-14,10L23.05,64.38a12.19,12.19,0,0,1-10-14l6.7-40.19Z"/><path id="Path_9798" data-name="Path 9798" class="cls-3" d="M51,59.92c1.13-6.8,5-12.25,9.79-14.72A12.2,12.2,0,0,1,65,56.46L64.54,59A12.2,12.2,0,0,1,51.3,69.05,22.83,22.83,0,0,1,51,59.92Z"/><path id="Path_9799" data-name="Path 9799" class="cls-3" d="M14.82,39.75A15.16,15.16,0,0,1,18,40c8.74,1.45,14.57,10.2,13,19.53A18,18,0,0,1,29,65.36l-5.93-1a12.2,12.2,0,0,1-10-14Z"/></g><path id="Path_9800" data-name="Path 9800" class="cls-3" d="M17.93,21.06,19.75,8.87l29.31,3.4L46.3,24.47Z"/></g><path id="Path_9801" data-name="Path 9801" class="cls-4" d="M39.7,32.52a4.36,4.36,0,0,0-7.83-3.07,4.32,4.32,0,0,0-8.3,1.95h-.06c.55,6.73,7,10.47,7,10.47s7.14-2.46,9.08-8.76h-.06A5.41,5.41,0,0,0,39.7,32.52Z"/></g></g></g></svg>