<svg xmlns="http://www.w3.org/2000/svg" viewBox="0 0 78 78"><defs><style>.cls-1{fill:none;}.cls-2{fill:#f06280;}.cls-3{fill:#df5b76;}.cls-4{fill:#fefefe;}.cls-5{fill:#f5b7c6;}.cls-6{fill:#ebafbe;}</style></defs><g id="圖層_2" data-name="圖層 2"><g id="圖層_1-2" data-name="圖層 1"><rect class="cls-1" width="78" height="78"/><g id="Group_4544" data-name="Group 4544"><path id="Path_9806" data-name="Path 9806" class="cls-2" d="M30.07,15.1a.7.7,0,0,0-.25.05.73.73,0,0,0-.31.24.75.75,0,0,0-.3.17,89.07,89.07,0,0,0-10.94,10.6,47.78,47.78,0,0,0-4.62,6.34,26.71,26.71,0,0,0-3,6.83,19.3,19.3,0,0,0-.58,3.78,17.67,17.67,0,0,0,.22,3.63,20.91,20.91,0,0,0,2.35,6.73,32.77,32.77,0,0,0,4.28,6,60.24,60.24,0,0,0,5,5c1.81,1.62,3.63,3.12,5.43,4.47a45.6,45.6,0,0,0,6.19,4,26.05,26.05,0,0,0,6.61,2.51,15.67,15.67,0,0,0,3.48.39,13.7,13.7,0,0,0,9-3.34A13.17,13.17,0,0,0,54.9,70a12.09,12.09,0,0,0,1.48-2.91,10.6,10.6,0,0,0,0-6.77,24.37,24.37,0,0,0-2.23-4.56c-.37-.64-.74-1.27-1.08-1.92a16.9,16.9,0,0,1-.78-1.67,14.2,14.2,0,0,1-.79-3.06,12.08,12.08,0,0,1,0-2.62l0-.11a10.43,10.43,0,0,1,.63-2.33,14,14,0,0,1,1.62-2.77l.06-.08a25.45,25.45,0,0,1,3.58-3.61.64.64,0,0,0,.21-.46.73.73,0,0,0-.21-.56,1.15,1.15,0,0,0-.14-.32A56.15,56.15,0,0,0,47,24.74,51.26,51.26,0,0,0,33.9,16.47c-1.15-.49-2.34-.93-3.53-1.32a1,1,0,0,0-.3-.05"/><path id="Path_9807" data-name="Path 9807" class="cls-3" d="M29.81,15.13a.73.73,0,0,0-.31.24,1,1,0,0,0-.3.17A89.26,89.26,0,0,0,18.25,26.15a47.06,47.06,0,0,0-4.61,6.34,26.9,26.9,0,0,0-3,6.83A19.4,19.4,0,0,0,10,43.11a18.39,18.39,0,0,0,.21,3.63,21.09,21.09,0,0,0,2.37,6.74,32.63,32.63,0,0,0,4.28,6,60.38,60.38,0,0,0,5,5c1.82,1.62,3.64,3.12,5.42,4.46a46.33,46.33,0,0,0,6.2,4,26.46,26.46,0,0,0,6.61,2.52,17,17,0,0,0,3.49.39,14.37,14.37,0,0,0,3.13-.35q.66-.15,1.29-.36a21.9,21.9,0,0,1-2.56.09A21.09,21.09,0,0,1,39.06,74a24.6,24.6,0,0,1-5.83-3,28.36,28.36,0,0,1-5-4.43,29.47,29.47,0,0,1-3.88-5.47A28.5,28.5,0,0,1,21.84,55a29.66,29.66,0,0,1-.71-3.37,30.06,30.06,0,0,1-.34-3.41,36.47,36.47,0,0,1,2.12-13.73,43.43,43.43,0,0,1,6.74-12.24A42.43,42.43,0,0,1,34.41,17l.27-.25-.77-.34c-1.17-.5-2.36-.94-3.53-1.32a.81.81,0,0,0-.31-.06.75.75,0,0,0-.26,0"/><path id="Path_9808" data-name="Path 9808" class="cls-4" d="M27.66,53.4a2.62,2.62,0,0,0-.92.37,2.18,2.18,0,0,0-.54.51,3,3,0,0,0-.44.8,5.26,5.26,0,0,0-.27,1,8.36,8.36,0,0,0-.14,1.12,15,15,0,0,0,0,2.22,11.39,11.39,0,0,0,.3,1.73.19.19,0,0,0,.07.12l0,.07,1.46-.18,1.06-.19a19.42,19.42,0,0,0,2.11-.72,4.7,4.7,0,0,0,1.67-1.11,1.05,1.05,0,0,0,.2-.27,4.68,4.68,0,0,0,.3-.54,2.89,2.89,0,0,0,.26-.88,1.11,1.11,0,0,0-.48-1.11,1.68,1.68,0,0,0-.93-.24l-.37,0a4.5,4.5,0,0,0-.73.15,7.22,7.22,0,0,0-.82.29,5,5,0,0,0-.57.28,3.47,3.47,0,0,0,.11-.56,5.58,5.58,0,0,0,.07-.91A3.84,3.84,0,0,0,29,54.5a1.92,1.92,0,0,0-.25-.61,1.09,1.09,0,0,0-.48-.42,1,1,0,0,0-.42-.09l-.22,0"/><path id="Path_9809" data-name="Path 9809" class="cls-4" d="M30.47,35.62a2.55,2.55,0,0,0-.92.37,1.91,1.91,0,0,0-.55.51,3,3,0,0,0-.44.8,5.26,5.26,0,0,0-.27,1,7,7,0,0,0-.13,1.11,12.78,12.78,0,0,0,0,2.23,11.36,11.36,0,0,0,.29,1.73.19.19,0,0,0,.07.12l0,.07,1.46-.18,1.06-.19a19.42,19.42,0,0,0,2.11-.72,5,5,0,0,0,1.68-1.11,1.89,1.89,0,0,0,.2-.27,4.63,4.63,0,0,0,.29-.54,2.72,2.72,0,0,0,.27-.88,1.15,1.15,0,0,0-.48-1.11,1.74,1.74,0,0,0-.94-.24l-.36,0a4.62,4.62,0,0,0-.74.15,6.15,6.15,0,0,0-.82.29,5,5,0,0,0-.57.28,5.05,5.05,0,0,0,.12-.56,7,7,0,0,0,.06-.91,3.84,3.84,0,0,0-.09-.83,2.16,2.16,0,0,0-.24-.61,1.18,1.18,0,0,0-.49-.42.89.89,0,0,0-.32-.08h-.1l-.22,0"/><path id="Path_9810" data-name="Path 9810" class="cls-4" d="M41.92,49.34a2.55,2.55,0,0,0-.92.37,2.23,2.23,0,0,0-.55.51A2.94,2.94,0,0,0,40,51a6.23,6.23,0,0,0-.28,1,8.35,8.35,0,0,0-.13,1.12,15,15,0,0,0,0,2.22,11.36,11.36,0,0,0,.29,1.73.24.24,0,0,0,.07.12l0,.07,1.46-.18,1.06-.19a17.63,17.63,0,0,0,2.12-.72,4.81,4.81,0,0,0,1.67-1.1,2.83,2.83,0,0,0,.2-.28,3.5,3.5,0,0,0,.29-.54,2.65,2.65,0,0,0,.27-.88,1.13,1.13,0,0,0-.48-1.11,1.71,1.71,0,0,0-.94-.24l-.36,0c-.25,0-.49.09-.74.15a8,8,0,0,0-.82.29,5,5,0,0,0-.57.28,5.59,5.59,0,0,0,.12-.56,7.07,7.07,0,0,0,.06-.91,3.84,3.84,0,0,0-.09-.83,2.16,2.16,0,0,0-.24-.61,1.2,1.2,0,0,0-.49-.43,1.09,1.09,0,0,0-.31-.08h-.33"/><path id="Path_9811" data-name="Path 9811" class="cls-4" d="M16,39.78a2.56,2.56,0,0,0-.92.38,2,2,0,0,0-.55.5,3.09,3.09,0,0,0-.43.8,5.39,5.39,0,0,0-.28,1,8.39,8.39,0,0,0-.13,1.11,15,15,0,0,0,0,2.22A11.28,11.28,0,0,0,14,47.5a.24.24,0,0,0,.07.12l0,.07,1.46-.19,1.07-.18a18.16,18.16,0,0,0,2.11-.73,4.68,4.68,0,0,0,1.67-1.1l.2-.27q.17-.27.3-.54a3.07,3.07,0,0,0,.26-.88,1.15,1.15,0,0,0-.48-1.12,1.71,1.71,0,0,0-.94-.23l-.36,0a4.85,4.85,0,0,0-.74.15,7,7,0,0,0-1.39.56,2.57,2.57,0,0,0,.12-.55,7.07,7.07,0,0,0,.06-.91,3.84,3.84,0,0,0-.09-.83,1.9,1.9,0,0,0-.24-.61,1.05,1.05,0,0,0-.48-.43,1.25,1.25,0,0,0-.32-.08H16"/><path id="Path_9812" data-name="Path 9812" class="cls-4" d="M24.82,22.86a2.55,2.55,0,0,0-.91.36,2,2,0,0,0-.54.5,2.88,2.88,0,0,0-.43.79,5.39,5.39,0,0,0-.27.95,8.1,8.1,0,0,0-.13,1.09,13.35,13.35,0,0,0,0,2.19,9.86,9.86,0,0,0,.29,1.71.15.15,0,0,0,.07.12.19.19,0,0,0,0,.07l1.44-.18,1.05-.19a17,17,0,0,0,2.08-.71,4.66,4.66,0,0,0,1.65-1.09,2.69,2.69,0,0,0,.2-.27,5.45,5.45,0,0,0,.29-.53,3,3,0,0,0,.26-.87,1.15,1.15,0,0,0-.47-1.1,1.76,1.76,0,0,0-.93-.23l-.36,0a4.61,4.61,0,0,0-.72.15,6.48,6.48,0,0,0-.81.28,4.18,4.18,0,0,0-.56.28,3.57,3.57,0,0,0,.11-.55,6.82,6.82,0,0,0,.07-.9,3.81,3.81,0,0,0-.09-.82,2,2,0,0,0-.24-.59,1.08,1.08,0,0,0-.48-.42.89.89,0,0,0-.32-.08H25l-.21,0"/><path id="Path_9813" data-name="Path 9813" class="cls-4" d="M43.66,63.23a2.64,2.64,0,0,0-.9.37,1.84,1.84,0,0,0-.54.5,3.07,3.07,0,0,0-.44.79,6.41,6.41,0,0,0-.27,1,8.1,8.1,0,0,0-.13,1.09,14.56,14.56,0,0,0,0,2.19,10.91,10.91,0,0,0,.29,1.71.19.19,0,0,0,.07.12l0,.07,1.43-.18,1-.19a16.43,16.43,0,0,0,2.08-.71A4.71,4.71,0,0,0,48,68.85a1.71,1.71,0,0,0,.2-.27,3.92,3.92,0,0,0,.29-.53,2.73,2.73,0,0,0,.26-.87,1.13,1.13,0,0,0-.47-1.1,1.75,1.75,0,0,0-.92-.23l-.36,0a4.5,4.5,0,0,0-.73.15,5.84,5.84,0,0,0-.8.28,3.77,3.77,0,0,0-.57.28A5.41,5.41,0,0,0,45,66a6.8,6.8,0,0,0,.06-.9,3.75,3.75,0,0,0-.09-.82,2,2,0,0,0-.24-.59,1.05,1.05,0,0,0-.48-.43,1.09,1.09,0,0,0-.31-.08h-.1l-.22,0"/><path id="Path_9814" data-name="Path 9814" class="cls-4" d="M44.86,35.08a2.64,2.64,0,0,0-.9.37,2,2,0,0,0-.54.5,2.64,2.64,0,0,0-.43.79,6.45,6.45,0,0,0-.28.95,8.1,8.1,0,0,0-.13,1.09,14.56,14.56,0,0,0,0,2.19,10.91,10.91,0,0,0,.29,1.71.19.19,0,0,0,.07.12l0,.07,1.44-.18,1-.19a17.14,17.14,0,0,0,2.09-.71,5,5,0,0,0,1.65-1.09,1.73,1.73,0,0,0,.19-.28,3.92,3.92,0,0,0,.29-.53A2.43,2.43,0,0,0,50,39a1.09,1.09,0,0,0-.47-1.09,1.67,1.67,0,0,0-.92-.24l-.36,0a4.5,4.5,0,0,0-.73.15,6.48,6.48,0,0,0-.81.28,5.85,5.85,0,0,0-.56.28,3.57,3.57,0,0,0,.11-.55,5.46,5.46,0,0,0,.07-.9,3.81,3.81,0,0,0-.09-.82,2,2,0,0,0-.24-.59,1,1,0,0,0-.48-.42.71.71,0,0,0-.31-.08h-.11l-.21,0"/><path id="Path_9815" data-name="Path 9815" class="cls-5" d="M38.94,2.18A9.65,9.65,0,0,0,34.7,3.35a17.09,17.09,0,0,0-4.25,3.11,15.4,15.4,0,0,0-3,4.09,8.85,8.85,0,0,0-1,4.13h-.14a4.89,4.89,0,0,0-.54,0,6.56,6.56,0,0,0-2.37.7,3,3,0,0,0-1.52,1.77,3.71,3.71,0,0,0,.37,2.69,3.76,3.76,0,0,0,.73.95,3.8,3.8,0,0,0,.49.41,3.57,3.57,0,0,0,.56.33,6.63,6.63,0,0,0,2.57.68,7.56,7.56,0,0,0,.83,0,12.3,12.3,0,0,0,1.71-.13,4.25,4.25,0,0,0-.93,1.22,4.93,4.93,0,0,0-.43,1.1,3.45,3.45,0,0,0-.12,1.28A3.48,3.48,0,0,0,28,27.08a4.16,4.16,0,0,0,.76,1.1,4,4,0,0,0,1.91,1.13,5,5,0,0,0,1.16.14A5.74,5.74,0,0,0,33,29.33a8.26,8.26,0,0,0,2-.73,5.16,5.16,0,0,0-.73,2,4.65,4.65,0,0,0,.11,1.86A3.42,3.42,0,0,0,35.28,34a3.29,3.29,0,0,0,2.42,1,3.45,3.45,0,0,0,.72-.07,5.42,5.42,0,0,0,2.2-1,4.52,4.52,0,0,0-.38,1.57,4.85,4.85,0,0,0,.28,1.92,4.05,4.05,0,0,0,1.06,1.56,3.71,3.71,0,0,0,1.56.84,4.15,4.15,0,0,0,1,.14,4.91,4.91,0,0,0,.86-.08,6.5,6.5,0,0,0,3.18-1.78,7.84,7.84,0,0,0-.12,5,5.07,5.07,0,0,0,.48,1.06,4.37,4.37,0,0,0,.74,1,4,4,0,0,0,2.08,1.07,3.84,3.84,0,0,0,.76.06l.52,0a4.07,4.07,0,0,0,1.44-.43c1.85-1,2.68-3,3.2-4.76,0-.07.05-.14.07-.21a6.15,6.15,0,0,0,1.72-.59,14,14,0,0,0,2-1.22,20.08,20.08,0,0,0,3.69-3.62,16.77,16.77,0,0,0,2.53-4.3,7.64,7.64,0,0,0,.54-4.35l-.07-.15-.06-.14L67.42,26,67.33,26l-.12-.1-.16-.12-.26-.2A113.57,113.57,0,0,1,47.71,11l.08.18c-2.9-2.85-5.37-5.49-7.54-8.08l-.7-.71-.13,0a.82.82,0,0,0-.48-.12"/><path id="Path_9816" data-name="Path 9816" class="cls-6" d="M34.69,3.34a16.67,16.67,0,0,0-4.25,3.11,15.22,15.22,0,0,0-3,4.09,9,9,0,0,0-1,4.14l-.12,0-.47,0a6.78,6.78,0,0,0-2.45.71,3,3,0,0,0-1.53,1.78,3.63,3.63,0,0,0,.38,2.7,3.6,3.6,0,0,0,.72,1,4.35,4.35,0,0,0,1.06.73,6.84,6.84,0,0,0,2.58.7c.27,0,.54,0,.82,0a14.06,14.06,0,0,0,1.72-.12,3.18,3.18,0,0,0-.94,1.18,4.52,4.52,0,0,0-.44,1.1,5.1,5.1,0,0,0-.13.68c0,.2,0,.41,0,.61A3.57,3.57,0,0,0,28,27.08a4.26,4.26,0,0,0,.76,1.12,3.91,3.91,0,0,0,1.92,1.12,4.59,4.59,0,0,0,1.17.16A6.76,6.76,0,0,0,33,29.35a8.34,8.34,0,0,0,2-.73,4.56,4.56,0,0,0-.75,2,4.67,4.67,0,0,0,.11,1.86A3.43,3.43,0,0,0,35.26,34a3.3,3.3,0,0,0,2.43,1,4.37,4.37,0,0,0,.72-.06,5.62,5.62,0,0,0,2.21-1,4,4,0,0,0-.41,1.55,4.89,4.89,0,0,0,.28,1.93A4.28,4.28,0,0,0,41.55,39a3.78,3.78,0,0,0,1.57.83,3.39,3.39,0,0,0,.89.15,3.57,3.57,0,0,1-.72-.68,2.93,2.93,0,0,1-.33-.53,2.76,2.76,0,0,1-.2-.47,4.2,4.2,0,0,1-.19-1.16A8.46,8.46,0,0,1,43,34.55c.23-.75.51-1.47.79-2.2a11.25,11.25,0,0,1-2.84-.08,8.49,8.49,0,0,1-1.49-.35,5.53,5.53,0,0,1-1.22-.6,3,3,0,0,1-.82-.83,2.17,2.17,0,0,1-.31-1.07,2.83,2.83,0,0,1,.3-1.28,4.59,4.59,0,0,1,.48-.83l.1-.14a9,9,0,0,1-1,.15,7.68,7.68,0,0,1-1.79-.08,7.54,7.54,0,0,1-1.55-.41,4.75,4.75,0,0,1-1.21-.71,2.78,2.78,0,0,1-.48-.49,2.2,2.2,0,0,1-.27-.47,1.66,1.66,0,0,1-.1-.29,1.7,1.7,0,0,1-.06-.31,1.76,1.76,0,0,1,0-.56,2.81,2.81,0,0,1,.6-1.27,5.5,5.5,0,0,1,.56-.62c.17-.15.33-.29.51-.43a4.39,4.39,0,0,1-.63-.26,4.44,4.44,0,0,1-1.18-.79,3.4,3.4,0,0,1-1-2,4.74,4.74,0,0,1,0-1.13,6,6,0,0,1,.33-1.26A8.31,8.31,0,0,1,31.25,15a11,11,0,0,1,1.94-2.31,17.71,17.71,0,0,1,2.75-2.05A22.53,22.53,0,0,1,39.22,9a25.5,25.5,0,0,1,5-1.53c-1.44-1.54-2.74-3-3.93-4.42l-.69-.7-.15-.05a.81.81,0,0,0-.48-.13A9.53,9.53,0,0,0,34.7,3.35"/><path id="Path_9818" data-name="Path 9818" class="cls-4" d="M24.15,17.69a1.42,1.42,0,0,0,1.36,1.48,1.43,1.43,0,1,0-1.36-1.48"/><path id="Path_9819" data-name="Path 9819" class="cls-4" d="M31,25.61a1.43,1.43,0,1,0,1.48-1.37A1.43,1.43,0,0,0,31,25.61"/><path id="Path_9820" data-name="Path 9820" class="cls-4" d="M37.15,31.32A1.43,1.43,0,1,0,38.64,30a1.45,1.45,0,0,0-1.49,1.37"/><path id="Path_9821" data-name="Path 9821" class="cls-4" d="M43.22,36.18a1.42,1.42,0,1,0,1.48-1.36,1.42,1.42,0,0,0-1.48,1.36"/><path id="Path_9822" data-name="Path 9822" class="cls-4" d="M50.91,42a1.43,1.43,0,1,0,1.48-1.37A1.45,1.45,0,0,0,50.91,42"/></g></g></g></svg>