<svg xmlns="http://www.w3.org/2000/svg" viewBox="0 0 78 78"><defs><style>.cls-1{fill:none;}.cls-2,.cls-3{fill:#90d4f6;}.cls-3,.cls-9{opacity:0.4;}.cls-3,.cls-6,.cls-8,.cls-9{isolation:isolate;}.cls-4{fill:#50bef1;}.cls-5{fill:#0097d1;}.cls-6{fill:#38b8ef;}.cls-6,.cls-8{opacity:0.5;}.cls-7{fill:#fbb431;}.cls-8{fill:#ffb500;}.cls-9{fill:#fff9d2;}</style></defs><g id="圖層_2" data-name="圖層 2"><g id="圖層_1-2" data-name="圖層 1"><rect class="cls-1" width="78" height="78"/><g id="Group_4538" data-name="Group 4538"><path id="Path_9673" data-name="Path 9673" class="cls-2" d="M40.07,46.92a13.32,13.32,0,1,0,16.78,8.56h0A13.32,13.32,0,0,0,40.07,46.92Zm6.75,20.82a8.57,8.57,0,1,1,5.5-10.8h0a8.57,8.57,0,0,1-5.5,10.79Z"/><path id="Path_9674" data-name="Path 9674" class="cls-3" d="M40.89,49.46A10.65,10.65,0,1,0,54.31,56.3a10.66,10.66,0,0,0-13.42-6.84Zm5.93,18.28A8.56,8.56,0,1,1,52.32,57h0a8.56,8.56,0,0,1-5.5,10.79Z"/><path id="Path_9675" data-name="Path 9675" class="cls-4" d="M60.22,39.66c1.3,4-6.57,10.79-17.82,14.44s-21.61,2.8-22.91-1.22,9.41-2.06,20.65-5.72S58.92,35.64,60.22,39.66Z"/><path id="Path_9676" data-name="Path 9676" class="cls-5" d="M60.23,39.66c1.07,3.31-7.18,9-18.43,12.6s-21.23,3.93-22.31.62,7.18-8.94,18.43-12.6S59.15,36.35,60.23,39.66Z"/><path id="Path_9677" data-name="Path 9677" class="cls-6" d="M24,51.43c-1-3.09,6.11-8.2,16.2-11.84l-2.25.69c-11.24,3.65-19.5,9.29-18.42,12.6s11.06,3,22.31-.62c.76-.25,1.5-.5,2.23-.76C33.73,54.47,25,54.51,24,51.43Z"/><path id="Path_9678" data-name="Path 9678" class="cls-7" d="M43,27.47c2.62-7.59.19-13.12-.42-14.32a13,13,0,0,0-24.6,8c.21,1.32,1.5,7.23,8.07,11.83,5.08,3.56,5.74,13.11,2.9,15.53,0,0,2.41,2.19,11.28-.69s9.53-6.06,9.53-6.06C46.08,41.45,41,33.33,43,27.47Z"/><path id="Path_9679" data-name="Path 9679" class="cls-8" d="M42.61,13.15a13,13,0,0,0-16.9-7.09,11.23,11.23,0,0,0-1.06.49c1.86.6,5.45,3.63,6.63,5a20.83,20.83,0,0,1,4.47,9.8c.6,3-.29,6.13-.67,9.1a5.53,5.53,0,0,0,1.15,3.8c.67,1.12,1.74,2.2,2,3.47.5,2.64-1.38,4.78-3.47,6A17.9,17.9,0,0,1,31,45.39c-.16.06-.37.1-.59.16a5.18,5.18,0,0,1-1.46,3s2.41,2.19,11.28-.69,9.53-6.06,9.53-6.06C46.08,41.46,41,33.34,43,27.48,45.65,19.88,43.22,14.34,42.61,13.15Z"/><path id="Path_9680" data-name="Path 9680" class="cls-8" d="M49.8,41.74C46.08,41.45,41,33.33,43,27.47c2.62-7.59.19-13.12-.42-14.32a13,13,0,0,0-13-8,38.85,38.85,0,0,1,5.9,5.71c7.53,8.75,1.77,14.58,3.5,21.47.76,3,3.78,5.6,2.8,8.81-1.42,4.6-7.62,7.44-12.44,6.94a2.85,2.85,0,0,1-.41.44s2.41,2.18,11.28-.69S49.8,41.74,49.8,41.74Z"/><path id="Path_9681" data-name="Path 9681" class="cls-9" d="M19.77,16.51a10.36,10.36,0,0,0,1.53,6.21c1.89,2.65,4.82,1.86,6.48-.4a7.76,7.76,0,0,0,1-7.66c-1-2.41-3.45-4.41-6.19-3.3C20.61,12.15,19.85,14.26,19.77,16.51Z"/></g></g></g></svg>