<svg xmlns="http://www.w3.org/2000/svg" viewBox="0 0 78 78"><defs><style>.cls-1{fill:none;}.cls-2{fill:#90d4f6;}.cls-3{fill:#f9fbfe;}.cls-4{fill:#bce4fa;}.cls-5{fill:#fbb431;}.cls-6{fill:#ffb500;}.cls-6,.cls-9{opacity:0.5;}.cls-6,.cls-7,.cls-9{isolation:isolate;}.cls-7{fill:#fff9d2;opacity:0.4;}.cls-8{fill:#50bef1;}.cls-9{fill:#00afed;}.cls-10{fill:#00a1df;}.cls-11{fill:#fff;}</style></defs><g id="圖層_2" data-name="圖層 2"><g id="圖層_1-2" data-name="圖層 1"><rect class="cls-1" width="78" height="78"/><g id="Group_4534" data-name="Group 4534"><path id="Path_9772" data-name="Path 9772" class="cls-2" d="M60.39,61.63a7.71,7.71,0,0,1-4.66,9.86h0l-13.44,4.8a7.69,7.69,0,0,1-9.85-4.66h0L20,36.91a7.7,7.7,0,0,1,4.66-9.85l13.44-4.81A7.72,7.72,0,0,1,48,26.92Z"/><path id="Path_9773" data-name="Path 9773" class="cls-3" d="M41.94,29.41c-4.72,2.66-7.23,8-13,8.11a8,8,0,0,1-1.69-.09,13.38,13.38,0,0,0-4.64.82,5.81,5.81,0,0,0,.27,1L33.7,69.49a6.72,6.72,0,0,0,8.59,4.07h0L54,69.37a6.72,6.72,0,0,0,4.07-8.59h0L47.25,30.53a6.69,6.69,0,0,0-1.41-2.31A11.18,11.18,0,0,0,41.94,29.41Z"/><path id="Path_9774" data-name="Path 9774" class="cls-4" d="M42.29,76.3l13.44-4.81a7.72,7.72,0,0,0,4.67-9.86L48,26.92a7.72,7.72,0,0,0-9.86-4.67l-4,1.44c.19.36.46.8.82,1.36,3.76,5.83,9.83,15.83,12,22.47,1.43,4.34,2.19,9.47.73,13.9-1.77,5.38-7.05,7.93-12.15,9.47a19.94,19.94,0,0,1-3.05.84A7.71,7.71,0,0,0,42.29,76.3Z"/><path id="Path_9775" data-name="Path 9775" class="cls-4" d="M40.06,21.83c1.17,5.21,4.2,9.8,5.53,13.2,1.13,2.87,13.35,25.77,7.18,32C48.18,71.64,34.4,74.93,36,75.8a7.69,7.69,0,0,0,6.29.5l13.44-4.81a7.71,7.71,0,0,0,4.66-9.86L48,26.92A7.71,7.71,0,0,0,40.06,21.83Z"/><path id="Path_9776" data-name="Path 9776" class="cls-5" d="M31.72,13.57h0c-1.37-.07-3-2-2.29-4.2a6.91,6.91,0,0,0-.31-5.28,4.79,4.79,0,0,0-9,3.22,6.9,6.9,0,0,0,3.11,4.27c1.91,1.26,1.9,3.78.88,4.7-1.13.64-3,1.5-4.22,5.17l8.94-3.2.42-.15,9-3.22C35,12.82,33,13.34,31.72,13.57Z"/><path id="Path_9777" data-name="Path 9777" class="cls-6" d="M31.72,13.57h0c-1.37-.07-3-2-2.29-4.2a6.91,6.91,0,0,0-.31-5.28A4.8,4.8,0,0,0,22.8,1.66a4.88,4.88,0,0,0-2,1.63,4.67,4.67,0,0,1,3.68.56A3.61,3.61,0,0,1,26,6.39c.43,1.37,0,2.82.14,4.22a3.55,3.55,0,0,0,.7,1.93,19.16,19.16,0,0,1,1.85,2c1.72,2.82-4.14,4-5.7,4.58-.9.31-1.74.75-2.62,1.1a11.38,11.38,0,0,0-.5,1.26l8.94-3.2.43-.15,9-3.22C35,12.82,33,13.34,31.72,13.57Z"/><path id="Path_9778" data-name="Path 9778" class="cls-6" d="M31.72,13.57h0c-1.37-.07-3-2-2.29-4.2a6.91,6.91,0,0,0-.31-5.28A4.78,4.78,0,0,0,22.8,1.67a4.63,4.63,0,0,0-1.44,1A4.18,4.18,0,0,1,22,2.39a4.49,4.49,0,0,1,5.59,2.48,6.74,6.74,0,0,1,.33,5c-.62,2.07,1.59,3.4,2.55,4.24,2.24,2-2.64,4.06-2.64,4.06l-.39.14-7.33,2.62c-.07.16-.13.33-.19.5l8.94-3.19.43-.15,9-3.23C35,12.82,33,13.34,31.72,13.57Z"/><path id="Path_9779" data-name="Path 9779" class="cls-7" d="M24,8.09a3,3,0,0,0,.17-.79,3.44,3.44,0,0,0-1.72-3.06c-1.19-.64-1.77.63-1.78,1.6A3.48,3.48,0,0,0,22.33,9C23.2,9.44,23.76,8.83,24,8.09Z"/><path id="Path_9780" data-name="Path 9780" class="cls-8" d="M43.78,20.5A1.31,1.31,0,0,1,43,22.17L20.86,30.08a1.3,1.3,0,0,1-1.66-.79l-2-5.51A1.31,1.31,0,0,1,18,22.11L40.14,14.2a1.31,1.31,0,0,1,1.67.79Z"/><path id="Path_9781" data-name="Path 9781" class="cls-9" d="M40.14,14.2l-1.3.47,1.88,5.27a1.3,1.3,0,0,1-.79,1.66L19.11,29.05l.09.24a1.3,1.3,0,0,0,1.66.79L43,22.17a1.31,1.31,0,0,0,.79-1.67l-2-5.51A1.31,1.31,0,0,0,40.14,14.2Z"/><path id="Path_9782" data-name="Path 9782" class="cls-9" d="M40.14,14.2l-.14.05a1.09,1.09,0,0,1,.21.38l2,5.51a1.32,1.32,0,0,1-.79,1.67l-22,7.86a1.31,1.31,0,0,0,1.46.41L43,22.17a1.3,1.3,0,0,0,.79-1.66l-2-5.52A1.31,1.31,0,0,0,40.14,14.2Z"/><g id="Group_4112" data-name="Group 4112"><path id="Path_9783" data-name="Path 9783" class="cls-10" d="M21.44,28.24a.53.53,0,0,1-.32.68h0a.53.53,0,0,1-.68-.32h0l-1.81-5.07a.53.53,0,0,1,.32-.68h0a.53.53,0,0,1,.68.32h0Z"/><path id="Path_9784" data-name="Path 9784" class="cls-10" d="M24.93,27a.53.53,0,0,1-.32.68h0a.53.53,0,0,1-.68-.32l-1.81-5.07a.53.53,0,0,1,.32-.68h0a.53.53,0,0,1,.68.32h0Z"/><path id="Path_9785" data-name="Path 9785" class="cls-10" d="M28.43,25.74a.53.53,0,0,1-.32.68h0a.53.53,0,0,1-.68-.32h0L25.61,21a.54.54,0,0,1,.32-.68h0a.53.53,0,0,1,.68.32h0Z"/><path id="Path_9786" data-name="Path 9786" class="cls-10" d="M31.92,24.49a.53.53,0,0,1-.32.68h0a.53.53,0,0,1-.68-.32h0l-1.81-5.07a.53.53,0,0,1,.31-.68h0a.53.53,0,0,1,.68.32h0Z"/><path id="Path_9787" data-name="Path 9787" class="cls-10" d="M35.41,23.25a.52.52,0,0,1-.31.67h0a.53.53,0,0,1-.67-.32h0L32.6,18.54a.53.53,0,0,1,.32-.68h0a.53.53,0,0,1,.68.32Z"/><path id="Path_9788" data-name="Path 9788" class="cls-10" d="M38.91,22a.52.52,0,0,1-.32.67h0a.54.54,0,0,1-.68-.32h0L36.1,17.28a.52.52,0,0,1,.31-.67h0a.54.54,0,0,1,.68.32h0Z"/><path id="Path_9789" data-name="Path 9789" class="cls-10" d="M42.4,20.75a.53.53,0,0,1-.32.68h0a.54.54,0,0,1-.68-.32h0L39.59,16a.52.52,0,0,1,.32-.67h0a.55.55,0,0,1,.68.32h0Z"/></g><g id="Group_4114" data-name="Group 4114"><g id="Group_4113" data-name="Group 4113"><path id="Path_9790" data-name="Path 9790" class="cls-11" d="M23.43,31.33a3.06,3.06,0,0,0-1,1.67,5.57,5.57,0,0,0-.11,2,14.15,14.15,0,0,0,1.09,3.82c1,2.54,2,5.11,2.92,7.68s1.8,5.17,2.62,7.79,1.6,5.24,2.24,7.92c-1.2-2.47-2.27-5-3.29-7.55s-2-5.11-2.92-7.69-1.8-5.17-2.62-7.79A12.57,12.57,0,0,1,21.59,35a5.64,5.64,0,0,1,.44-2.1A3,3,0,0,1,23.43,31.33Z"/></g></g></g></g></g></svg>