<svg xmlns="http://www.w3.org/2000/svg" viewBox="0 0 80 80"><defs><style>.cls-1{fill:#22ba4f;}.cls-2{fill:#fff;}.cls-2,.cls-3{isolation:isolate;}</style></defs><g id="圖層_2" data-name="圖層 2"><g id="圖層_1-2" data-name="圖層 1"><g id="Group_4700" data-name="Group 4700"><circle id="Ellipse_326" data-name="Ellipse 326" class="cls-1" cx="40" cy="40" r="40"/></g><path class="cls-2" d="M67.43,37.12c0-12.27-12.31-22.25-27.43-22.25s-27.43,10-27.43,22.25c0,11,9.76,20.22,22.94,22,.89.2,2.11.59,2.42,1.36A5.77,5.77,0,0,1,38,62.92l-.4,2.35C37.5,66,37.07,68,40,66.74s15.8-9.3,21.55-15.92h0c4-4.36,5.88-8.78,5.88-13.7"/><g class="cls-3"><path class="cls-1" d="M34.43,31.19H32.5a.54.54,0,0,0-.53.54v12a.53.53,0,0,0,.53.53h1.93a.53.53,0,0,0,.53-.53V31.73a.54.54,0,0,0-.53-.54"/><path class="cls-1" d="M47.67,31.19H45.75a.54.54,0,0,0-.54.54v7.1l-5.48-7.4a.1.1,0,0,0,0-.05h0l0,0h0l0,0h0l0,0h0l0,0H37.37a.54.54,0,0,0-.54.54v12a.54.54,0,0,0,.54.53h1.92a.53.53,0,0,0,.53-.53v-7.1L45.31,44l.13.13h0l0,0h.13l.14,0h1.92a.53.53,0,0,0,.53-.53V31.73a.54.54,0,0,0-.53-.54"/><path class="cls-1" d="M29.79,41.22H24.56V31.73a.54.54,0,0,0-.53-.54H22.1a.54.54,0,0,0-.53.54v12h0a.56.56,0,0,0,.15.37h0a.56.56,0,0,0,.37.15h7.69a.53.53,0,0,0,.53-.53V41.75a.53.53,0,0,0-.53-.53"/><path class="cls-1" d="M58.29,34.19a.54.54,0,0,0,.54-.54V31.73a.54.54,0,0,0-.54-.54H50.61a.52.52,0,0,0-.37.15h0a.52.52,0,0,0-.15.37h0v12h0a.56.56,0,0,0,.15.37h0a.52.52,0,0,0,.37.15h7.68a.54.54,0,0,0,.54-.53V41.75a.54.54,0,0,0-.54-.53H53.07v-2h5.22a.54.54,0,0,0,.54-.54V36.74a.54.54,0,0,0-.54-.53H53.07v-2Z"/></g></g></g></svg>