<svg xmlns="http://www.w3.org/2000/svg" viewBox="0 0 205.47 205.47"><defs><style>.cls-1{fill:none;stroke:#fff;stroke-miterlimit:10;stroke-width:4px;}.cls-2{fill:#fff;}</style></defs><g id="圖層_2" data-name="圖層 2"><g id="圖層_1-2" data-name="圖層 1"><circle class="cls-1" cx="102.74" cy="102.74" r="100.74"/><path class="cls-2" d="M131.43,101.52c0-4.8,3.63-8.69,8.11-8.69h.18a8.41,8.41,0,0,1,8.11,8.66c0,15.67,0,17.21,0,40.62,0,13.14-10,23.79-22.24,23.79H99.25a22.05,22.05,0,0,1-19.42-12.22L56.35,108.56l2.45-2a11.67,11.67,0,0,1,17.14,1.29l6.58,8,0-55c0-4.79,3.64-8.68,8.12-8.68h0c4.48,0,8.11,3.89,8.11,8.69V94.09a8.4,8.4,0,0,1,8.11-8.47h.19c4.48,0,8.11,3.89,8.11,8.69v2.8c0-4.8,3.63-8.69,8.11-8.69h0c4.48,0,8.11,3.89,8.11,8.69Z"/><path class="cls-2" d="M90.64,40.38A19.2,19.2,0,0,0,71.46,59.55a2.15,2.15,0,0,0,4.3,0,14.88,14.88,0,0,1,29.76,0,2.15,2.15,0,1,0,4.29,0A19.19,19.19,0,0,0,90.64,40.38Z"/></g></g></svg>