<svg xmlns="http://www.w3.org/2000/svg" viewBox="0 0 90 90"><defs><style>.cls-1{fill:none;}.cls-2{fill:#fff;}</style></defs><g id="圖層_2" data-name="圖層 2"><g id="圖層_1-2" data-name="圖層 1"><circle class="cls-1" cx="45" cy="45" r="45"/><path class="cls-2" d="M75.2,26H14.8a1.88,1.88,0,0,0-1.88,1.88V45.93a32.08,32.08,0,0,0,64.16,0v-18A1.88,1.88,0,0,0,75.2,26ZM54.9,39.79H73.32v4.26H57a2.14,2.14,0,0,1-2.13-2.13Zm18.42-10V36H16.68V29.76Zm-56.64,10H35.1v2.13A2.14,2.14,0,0,1,33,44.05H16.68Zm2.21,17.06A18.21,18.21,0,0,1,36,72.65,28.41,28.41,0,0,1,18.89,56.85Zm20.93,16.8A22,22,0,0,0,17.93,53.07a1.66,1.66,0,0,0-.32,0,28.09,28.09,0,0,1-.87-5.29H33a5.9,5.9,0,0,0,5.89-5.89V39.79H51.14v2.13A5.9,5.9,0,0,0,57,47.81H73.26a28.09,28.09,0,0,1-.87,5.29,1.66,1.66,0,0,0-.32,0A22,22,0,0,0,50.18,73.65,28.63,28.63,0,0,1,39.82,73.65Zm14.23-1a18.21,18.21,0,0,1,17.06-15.8A28.41,28.41,0,0,1,54.05,72.65Z"/></g></g></svg>