<svg xmlns="http://www.w3.org/2000/svg" viewBox="0 0 90 90"><defs><style>.cls-1{fill:none;}.cls-2{fill:#fff;}</style></defs><g id="圖層_2" data-name="圖層 2"><g id="圖層_1-2" data-name="圖層 1"><circle id="Ellipse_337" data-name="Ellipse 337" class="cls-1" cx="45" cy="45" r="45"/><g id="Group_2297" data-name="Group 2297"><g id="Group_2296" data-name="Group 2296"><g id="Group_2273" data-name="Group 2273"><g id="Group_2272" data-name="Group 2272"><path id="Path_6696" data-name="Path 6696" class="cls-2" d="M70.57,26.19l-3.51-13a4.2,4.2,0,0,0-5.14-3l-48.75,13a4.17,4.17,0,0,0-3,5.12l7.14,26.44a1,1,0,0,0,1,.78,1.26,1.26,0,0,0,.27,0,1.05,1.05,0,0,0,.74-1.29h0L12.22,27.79a2,2,0,0,1,.2-1.56,2.07,2.07,0,0,1,1.28-1l48.75-13A2.11,2.11,0,0,1,65,13.75l3.51,13a1.05,1.05,0,1,0,2-.54Z"/></g></g><g id="Group_2275" data-name="Group 2275"><g id="Group_2274" data-name="Group 2274"><path id="Path_6697" data-name="Path 6697" class="cls-2" d="M72,25.86H21.59a4.21,4.21,0,0,0-4.2,4.21V68.9a4.21,4.21,0,0,0,4.2,4.21H72a4.21,4.21,0,0,0,4.2-4.21V30.07A4.21,4.21,0,0,0,72,25.86Zm2.1,43A2.11,2.11,0,0,1,72,71H21.59a2.11,2.11,0,0,1-2.1-2.11V30.07A2.11,2.11,0,0,1,21.59,28H72a2.11,2.11,0,0,1,2.1,2.11V68.9Z"/></g></g><g id="Group_2277" data-name="Group 2277"><g id="Group_2276" data-name="Group 2276"><path id="Path_6698" data-name="Path 6698" class="cls-2" d="M41.54,46.86H23.69a1,1,0,0,0-1.05,1v10.5a1,1,0,0,0,1.05,1.05H41.54a1,1,0,0,0,1.05-1.05V47.91A1,1,0,0,0,41.54,46.86Zm-1,10.5H24.75V49H40.5Z"/></g></g><g id="Group_2279" data-name="Group 2279"><g id="Group_2278" data-name="Group 2278"><rect id="Rectangle_836" data-name="Rectangle 836" class="cls-2" x="44.69" y="47.91" width="26.25" height="2.1"/></g></g><g id="Group_2281" data-name="Group 2281"><g id="Group_2280" data-name="Group 2280"><rect id="Rectangle_837" data-name="Rectangle 837" class="cls-2" x="44.69" y="56.31" width="26.25" height="2.1"/></g></g><g id="Group_2283" data-name="Group 2283"><g id="Group_2282" data-name="Group 2282"><rect id="Rectangle_838" data-name="Rectangle 838" class="cls-2" x="44.69" y="52.11" width="26.25" height="2.1"/></g></g><g id="Group_2285" data-name="Group 2285"><g id="Group_2284" data-name="Group 2284"><rect id="Rectangle_839" data-name="Rectangle 839" class="cls-2" x="23.69" y="60.51" width="47.25" height="2.1"/></g></g><g id="Group_2287" data-name="Group 2287"><g id="Group_2286" data-name="Group 2286"><rect id="Rectangle_840" data-name="Rectangle 840" class="cls-2" x="23.69" y="64.71" width="47.25" height="2.1"/></g></g><g id="Group_2289" data-name="Group 2289"><g id="Group_2288" data-name="Group 2288"><path id="Path_6699" data-name="Path 6699" class="cls-2" d="M30.63,33.48a.82.82,0,0,0-.12-.32.68.68,0,0,0-.29-.22,1.35,1.35,0,0,0-.52-.08,1.09,1.09,0,0,0-.47.08.56.56,0,0,0-.26.22.82.82,0,0,0-.12.32c0,.13,0,.26,0,.39v5.37h-.16l-2.06-5.58a1.56,1.56,0,0,0-.22-.4,1.54,1.54,0,0,0-.34-.28,1,1,0,0,0-.53-.12h-.85a1.07,1.07,0,0,0-.56.12.74.74,0,0,0-.29.34,1.6,1.6,0,0,0-.11.48c0,.18,0,.36,0,.55v6.57c0,.13,0,.26,0,.39a.8.8,0,0,0,.13.32.56.56,0,0,0,.29.21,1.6,1.6,0,0,0,.53.09,1.27,1.27,0,0,0,.47-.09.66.66,0,0,0,.26-.21.76.76,0,0,0,.11-.32,2.56,2.56,0,0,0,0-.39V35.54h.15l2,5.3a3.05,3.05,0,0,0,.13.31,1.31,1.31,0,0,0,.21.36,1.38,1.38,0,0,0,.34.3,1,1,0,0,0,.51.11h.85a1,1,0,0,0,.56-.12.72.72,0,0,0,.28-.34,1.53,1.53,0,0,0,.11-.47c0-.18,0-.37,0-.56V33.87A2.55,2.55,0,0,0,30.63,33.48Z"/></g></g><g id="Group_2291" data-name="Group 2291"><g id="Group_2290" data-name="Group 2290"><path id="Path_6700" data-name="Path 6700" class="cls-2" d="M37.59,37.33a2.4,2.4,0,0,0-.12-.53,2.49,2.49,0,0,0-.27-.51,1.73,1.73,0,0,0-.5-.43,2.68,2.68,0,0,0-.77-.3,4.23,4.23,0,0,0-1.12-.12l-.46,0a2.84,2.84,0,0,0-.57.1,2.49,2.49,0,0,0-.59.23,1.69,1.69,0,0,0-.52.44,2.27,2.27,0,0,0-.38.72,3,3,0,0,0-.15,1v1.52a2.55,2.55,0,0,0,.22,1.12,2.07,2.07,0,0,0,.59.75,2.53,2.53,0,0,0,.86.41,4,4,0,0,0,1,.14,6.38,6.38,0,0,0,.87-.07,4.4,4.4,0,0,0,.88-.24,2,2,0,0,0,.66-.45,1,1,0,0,0,.27-.7.72.72,0,0,0-.07-.33.61.61,0,0,0-.19-.2,1,1,0,0,0-.27-.1l-.32,0a1.6,1.6,0,0,0-.53.06.8.8,0,0,0-.29.15.86.86,0,0,0-.18.2l-.14.19a.54.54,0,0,1-.22.15,1.09,1.09,0,0,1-.4.07.85.85,0,0,1-.38-.09.72.72,0,0,1-.25-.24,1.09,1.09,0,0,1-.14-.31,1.73,1.73,0,0,1,0-.32v-.62h2.57a1.4,1.4,0,0,0,.54-.1.68.68,0,0,0,.27-.21.52.52,0,0,0,.1-.27,2.09,2.09,0,0,0,0-.24h0v-.4A4.42,4.42,0,0,0,37.59,37.33Zm-3.48.75h0v-.45a2.28,2.28,0,0,1,0-.26.68.68,0,0,1,.1-.27.58.58,0,0,1,.23-.21.84.84,0,0,1,.41-.08,1.22,1.22,0,0,1,.5.08.6.6,0,0,1,.25.25,1.07,1.07,0,0,1,.1.4c0,.15,0,.34,0,.54Z"/></g></g><g id="Group_2293" data-name="Group 2293"><g id="Group_2292" data-name="Group 2292"><path id="Path_6701" data-name="Path 6701" class="cls-2" d="M47,36.06a1,1,0,0,0-.15-.31.84.84,0,0,0-.27-.22.88.88,0,0,0-.39-.08.85.85,0,0,0-.39.08.83.83,0,0,0-.28.21,2,2,0,0,0-.2.3,2.48,2.48,0,0,0-.13.35l-.73,2.54h-.1l-.69-1.82a1.53,1.53,0,0,0-.43-.71.85.85,0,0,0-.55-.2,1,1,0,0,0-.58.2,1.37,1.37,0,0,0-.43.71l-.6,1.82H41l-.82-2.54A2.55,2.55,0,0,0,40,36a1.74,1.74,0,0,0-.2-.3,1.09,1.09,0,0,0-.26-.21.73.73,0,0,0-.33-.08,1,1,0,0,0-.43.08.65.65,0,0,0-.28.21.73.73,0,0,0-.16.3,1.46,1.46,0,0,0,0,.72,2.55,2.55,0,0,0,.11.33l1.45,3.83a3.06,3.06,0,0,0,.27.58,1.08,1.08,0,0,0,.26.3.47.47,0,0,0,.25.11l.27,0,.25,0a.45.45,0,0,0,.23-.11,1.33,1.33,0,0,0,.23-.3,4.29,4.29,0,0,0,.26-.58l.7-2.34h.11l.67,2.34a3.06,3.06,0,0,0,.27.58,1.05,1.05,0,0,0,.25.3.54.54,0,0,0,.26.11l.27,0,.24,0A.44.44,0,0,0,45,41.8a1.33,1.33,0,0,0,.23-.3,3.38,3.38,0,0,0,.27-.58l1.44-3.83.11-.33a1.27,1.27,0,0,0,0-.34A2.23,2.23,0,0,0,47,36.06Z"/></g></g><g id="Group_2295" data-name="Group 2295"><g id="Group_2294" data-name="Group 2294"><path id="Path_6702" data-name="Path 6702" class="cls-2" d="M52.44,39.3a2,2,0,0,0-.44-.56,4,4,0,0,0-.6-.42L50.75,38l-.4-.19a3.79,3.79,0,0,1-.34-.2,1.15,1.15,0,0,1-.23-.21.41.41,0,0,1-.08-.24.46.46,0,0,1,0-.23.37.37,0,0,1,.13-.15.49.49,0,0,1,.18-.08l.21,0a.79.79,0,0,1,.45.13.48.48,0,0,1,.2.38.34.34,0,0,0,0,.19.55.55,0,0,0,.14.17.74.74,0,0,0,.21.13.69.69,0,0,0,.28,0,2,2,0,0,0,.35,0,1,1,0,0,0,.3-.11.6.6,0,0,0,.22-.2.59.59,0,0,0,.08-.32c0-.08,0-.17,0-.28a1.55,1.55,0,0,0-.08-.36,1.31,1.31,0,0,0-.21-.36,1.21,1.21,0,0,0-.38-.33,2.16,2.16,0,0,0-.61-.24,4.41,4.41,0,0,0-.89-.09h-.1a6,6,0,0,0-1,.11,2.07,2.07,0,0,0-.77.3,1.31,1.31,0,0,0-.49.55,1.85,1.85,0,0,0-.16.84,1.21,1.21,0,0,0,.15.62,1.79,1.79,0,0,0,.39.48,4.26,4.26,0,0,0,.53.39l.59.33.45.25a3.94,3.94,0,0,1,.4.26,1.32,1.32,0,0,1,.28.3.6.6,0,0,1,.11.34.44.44,0,0,1-.16.34.62.62,0,0,1-.41.14l-.25,0-.24-.06a.37.37,0,0,1-.17-.13.32.32,0,0,1-.08-.21.74.74,0,0,0-.22-.56.85.85,0,0,0-.53-.18,1,1,0,0,0-.66.19.67.67,0,0,0-.22.57,1.45,1.45,0,0,0,0,.35,1.71,1.71,0,0,0,.13.38,1.46,1.46,0,0,0,.27.38,1.94,1.94,0,0,0,.44.31,2.8,2.8,0,0,0,.63.23,4.27,4.27,0,0,0,.87.08,3.27,3.27,0,0,0,.54,0,2.8,2.8,0,0,0,.56-.12,2.39,2.39,0,0,0,.52-.22,1.92,1.92,0,0,0,.44-.36,1.68,1.68,0,0,0,.3-.52,1.77,1.77,0,0,0,.11-.68A1.44,1.44,0,0,0,52.44,39.3Z"/></g></g></g></g></g></g></svg>