<svg xmlns="http://www.w3.org/2000/svg" viewBox="0 0 90 90"><defs><style>.cls-1{fill:#dbdbdb;}.cls-2{fill:#fff;}</style></defs><g id="圖層_2" data-name="圖層 2"><g id="圖層_1-2" data-name="圖層 1"><circle class="cls-1" cx="45" cy="45" r="45"/><path class="cls-2" d="M66.24,51.36c5.28-.46,9.4-4.07,9.4-8.45s-4.12-8-9.39-8.44a22.86,22.86,0,0,0-4.13-6.71V14.07a1.8,1.8,0,0,0-2.35-1.71L48.19,16.09a6.61,6.61,0,0,0-6.38,0L30.23,12.36a1.8,1.8,0,0,0-2.35,1.71V27.76a23.33,23.33,0,0,0-4.13,6.71c-5.27.46-9.39,4.07-9.39,8.44s4.12,8,9.39,8.45a22.83,22.83,0,0,0,8.49,10.53,19.7,19.7,0,0,0-6.57,9.31,1.79,1.79,0,0,0,3.41,1.12,16.19,16.19,0,0,1,6.64-8.51,22.89,22.89,0,0,0,18.89-.15,16.26,16.26,0,0,1,6.88,8.66A1.79,1.79,0,0,0,64.9,71.2a19.71,19.71,0,0,0-6.85-9.53,22.91,22.91,0,0,0,8.19-10.31Zm5.81-8.45c0,2.1-2,3.94-4.66,4.63a23,23,0,0,0,0-9.25c2.68.69,4.66,2.53,4.66,4.62ZM50.93,19l7.59-2.45v9.58l-7.25-2.27A6.58,6.58,0,0,0,50.93,19ZM48,21.85a3,3,0,1,1-3-3A3,3,0,0,1,48,21.85ZM31.48,16.53,39.07,19a6.59,6.59,0,0,0-.34,4.86l-7.25,2.27ZM18,42.91c0-2.09,2-3.93,4.66-4.62a22.87,22.87,0,0,0,0,9.25C19.93,46.85,18,45,18,42.91ZM45,62.18a19.25,19.25,0,0,1-8.57-2l-.07,0a19.28,19.28,0,0,1-5.8-30L40.84,27a6.57,6.57,0,0,0,8.32,0l10.28,3.21A19.26,19.26,0,0,1,45,62.18Z"/><path class="cls-2" d="M40.59,40.8a1.8,1.8,0,0,0,0-2.54,6.58,6.58,0,0,0-9.31,0,1.8,1.8,0,1,0,2.54,2.54,3,3,0,0,1,4.23,0A1.8,1.8,0,0,0,40.59,40.8Z"/><path class="cls-2" d="M58.79,38.26a6.58,6.58,0,0,0-9.31,0A1.79,1.79,0,1,0,52,40.8a3,3,0,0,1,4.24,0,1.8,1.8,0,0,0,2.54-2.54Z"/><path class="cls-2" d="M48.47,50.26a4.9,4.9,0,0,1-6.94,0A1.8,1.8,0,0,0,39,52.8a8.52,8.52,0,0,0,12,0,1.8,1.8,0,0,0-2.54-2.54Z"/></g></g></svg>