<svg xmlns="http://www.w3.org/2000/svg" viewBox="0 0 90 90"><defs><style>.cls-1{fill:#dbdbdb;}.cls-2{fill:#fff;}</style></defs><g id="圖層_2" data-name="圖層 2"><g id="圖層_1-2" data-name="圖層 1"><circle class="cls-1" cx="45" cy="45" r="45"/><path class="cls-2" d="M70.08,40.9h-11V17.38a1.56,1.56,0,0,0-1.56-1.56h-25A1.56,1.56,0,0,0,31,17.38V40.9h-11a1.56,1.56,0,0,0-1.56,1.56v19.6h0v5.48a1.56,1.56,0,0,0,1.56,1.56H70.08a1.56,1.56,0,0,0,1.56-1.56V42.46A1.56,1.56,0,0,0,70.08,40.9Zm-36-22H55.93v22H34.07Zm3.26,47-4-4.09L39.13,57l4.31,3.92V66Zm6.11-9.27-3.22-2.92a1.56,1.56,0,0,0-2,0l-7.09,5.91-3.29-3.32a1.56,1.56,0,0,0-2-.19l-4.33,3V53A10.69,10.69,0,0,0,34,44h9.48ZM21.48,44h9.31a7.6,7.6,0,0,1-7.43,6,7.39,7.39,0,0,1-1.88-.23Zm0,18.86,5-3.41L32.93,66H21.48Zm47,3.1h-22V44h22Z"/><path class="cls-2" d="M47.63,33.2l.86,3A1.57,1.57,0,0,0,50,37.36a1.54,1.54,0,0,0,.43-.06,1.57,1.57,0,0,0,1.08-1.93l-2.88-10a3.76,3.76,0,0,0-7.24,0l-2.88,10a1.57,1.57,0,0,0,3,.86l.86-3ZM45,25.7a.65.65,0,0,1,.62.47l1.12,3.9H43.26l1.12-3.9A.65.65,0,0,1,45,25.7Z"/><path class="cls-2" d="M51.84,49.12a1.56,1.56,0,0,0,1.56,1.56h5.69l-7.78,9.08a1.55,1.55,0,0,0,1.18,2.57h10a1.56,1.56,0,1,0,0-3.12H55.89l7.78-9.08a1.56,1.56,0,0,0-1.19-2.57H53.4A1.56,1.56,0,0,0,51.84,49.12Z"/></g></g></svg>