<svg xmlns="http://www.w3.org/2000/svg" viewBox="0 0 137 57"><defs><style>.cls-1{fill:#425994;}.cls-2{fill:#fff;}.cls-3{isolation:isolate;}</style></defs><g id="圖層_2" data-name="圖層 2"><g id="圖層_1-2" data-name="圖層 1"><rect class="cls-1" width="137" height="57" rx="7.71"/><path id="Path_4647" data-name="Path 4647" class="cls-2" d="M22.48,46l0-15.11H18.58a.93.93,0,0,1-.92-.93l0-4.87a.93.93,0,0,1,.93-.93h3.91v-4.7C22.48,14,25.82,11,30.7,11h4a.93.93,0,0,1,.93.93V16a.93.93,0,0,1-.93.93H32.25c-2.65,0-3.16,1.26-3.16,3.11v4.07h5.82a.93.93,0,0,1,.93.93s0,.07,0,.11l-.58,4.87a.92.92,0,0,1-.92.82H29.12l0,15.11Z"/><g id="立即串接-2" class="cls-3"><g class="cls-3"><path class="cls-2" d="M70.69,14.49a28.85,28.85,0,0,1-9.35,12l-1.88-1.61A25.9,25.9,0,0,0,68.51,13.6ZM64.4,27.55V25.28H84c-.1,4.11-.3,7.43-.63,10s-.86,4.28-1.61,5.26a4.54,4.54,0,0,1-3.55,1.58H72l-.65-2.33c2,.06,3.81.1,5.56.1a3.35,3.35,0,0,0,3.49-2.28c.59-1.57.95-4.9,1.11-10H73.45a25.1,25.1,0,0,1-3.29,8.55,23,23,0,0,1-7.67,6.36l-1.51-2a21.72,21.72,0,0,0,7-5.43,20.09,20.09,0,0,0,3.1-7.5Zm16-14.31a22.63,22.63,0,0,0,9.15,11.32L88,26.66a25.14,25.14,0,0,1-9.18-11.12h-4.7v-2.3Z"/><path class="cls-2" d="M107.4,34.13V32.85c2-.79,4.45-1.75,7.21-2.9H96.18V27.81h23.1v1.71c-2.76,1.29-6,2.6-9.54,4v.63H123V36.3H109.74v3.06c0,2-1,3-2.93,3h-4.64l-.62-2.18c1.84.1,3.29.17,4.34.17s1.51-.56,1.51-1.68V36.3H93V34.13ZM109.11,15h13.17v2.23H93.72V15h12.8a22.81,22.81,0,0,0-1.58-2.41l2.69-.42A21.34,21.34,0,0,1,109.11,15Zm8.76,4.21v6.65H98.16V19.16Zm-2.27,2H100.43v2.57H115.6Z"/></g></g></g></g></svg>