<svg xmlns="http://www.w3.org/2000/svg" width="422.998" height="233.403" viewBox="0 0 422.998 233.403">
  <g id="Group_4083" data-name="Group 4083" transform="translate(-1334.915 -188.215)">
    <g id="Group_4047" data-name="Group 4047" transform="translate(1400.26 244.088)">
      <g id="Group_4046" data-name="Group 4046">
        <g id="Group_4042" data-name="Group 4042" transform="translate(9.7 9.7)">
          <g id="Group_4040" data-name="Group 4040" transform="translate(163.864 65.841)">
            <path id="Path_9629" data-name="Path 9629" d="M1636.98,296.325s-80.175-33.857-169.932-3.826l-3.482,74.818s116.767-7.644,173.414,14.748c0,0-20.042-42.463-19.169-50.993S1636.98,296.325,1636.98,296.325Z" transform="translate(-1452.891 -280.077)" fill="#f2eeeb"/>
            <path id="Path_9630" data-name="Path 9630" d="M1585.073,314.986s-103.263,34.4-116.334,34.4-10.463-50.238-10.463-50.238Z" transform="translate(-1458.064 -262.147)" fill="#f2eeeb"/>
          </g>
          <g id="Group_4041" data-name="Group 4041">
            <path id="Path_9631" data-name="Path 9631" d="M1518.953,246.313S1418.118,241.944,1373.6,276.9v87.921s60.5-3.277,145.355-3.277,145.357,3.277,145.357,3.277V276.9C1619.793,241.944,1518.953,246.313,1518.953,246.313Z" transform="translate(-1373.598 -246.138)" fill="#f2eeeb"/>
          </g>
        </g>
        <g id="Group_4045" data-name="Group 4045">
          <g id="Group_4043" data-name="Group 4043" transform="translate(163.864 65.841)">
            <path id="Path_9632" data-name="Path 9632" d="M1631.98,291.325s-80.175-33.857-169.932-3.826l-3.482,74.818s116.767-7.644,173.414,14.748c0,0-20.042-42.463-19.169-50.993S1631.98,291.325,1631.98,291.325Z" transform="translate(-1447.891 -275.077)" fill="#ffd7e0"/>
            <path id="Path_9633" data-name="Path 9633" d="M1580.073,309.986s-103.263,34.4-116.335,34.4-10.463-50.238-10.463-50.238Z" transform="translate(-1453.064 -257.147)" fill="#ff8a98"/>
          </g>
          <g id="Group_4044" data-name="Group 4044">
            <path id="Path_9634" data-name="Path 9634" d="M1513.953,241.313S1413.117,236.944,1368.6,271.9v87.921s60.5-3.277,145.355-3.277,145.357,3.277,145.357,3.277V271.9C1614.793,236.944,1513.953,241.313,1513.953,241.313Z" transform="translate(-1368.598 -241.138)" fill="#ffb3c0"/>
          </g>
        </g>
        <text id="孕媽咪專屬活動" transform="translate(165.101 65.74)" fill="#fff" font-size="28" font-family="DFNYuan-W9-WINP-BF, DFPNYuanXBold-B5" letter-spacing="0.12em"><tspan x="-108.08" y="0">孕媽咪專屬活動</tspan></text>
      </g>
    </g>
    <g id="Group_4082" data-name="Group 4082" transform="translate(1334.915 188.215)">
      <g id="Group_4048" data-name="Group 4048" transform="translate(0)">
        <path id="Path_9635" data-name="Path 9635" d="M1399.36,300.832V238.008c-.227,0-.451-.008-.678-.008a63.774,63.774,0,0,0-63.767,62.832Z" transform="translate(-1334.915 -238)" fill="#f9df8b"/>
      </g>
      <g id="Group_4052" data-name="Group 4052" transform="translate(1.125 2.703)">
        <g id="Group_4049" data-name="Group 4049" transform="translate(0 25.157)">
          <path id="Path_9636" data-name="Path 9636" d="M1345.293,248.933c-6.467,5.206-10.433,13.6-9.887,23.635l63.115,11.256-.071-.1Z" transform="translate(-1335.356 -248.933)" fill="#b58805"/>
        </g>
        <g id="Group_4050" data-name="Group 4050" transform="translate(22.023)">
          <path id="Path_9637" data-name="Path 9637" d="M1366.189,239.062c-8.3-.079-16.243,3.8-22.19,11.9l41.141,48.144.01-.125Z" transform="translate(-1343.999 -239.061)" fill="#b58805"/>
        </g>
        <g id="Group_4051" data-name="Group 4051" transform="translate(63.099 59.94)">
          <path id="Path_9638" data-name="Path 9638" d="M1360.118,262.583l.048.117.114.047Z" transform="translate(-1360.118 -262.583)" fill="#ffdeff"/>
        </g>
      </g>
      <g id="Group_4053" data-name="Group 4053" transform="translate(121.597 39.779)">
        <path id="Path_9639" data-name="Path 9639" d="M1385.439,296.208a2.852,2.852,0,0,1-.844-.13,2.8,2.8,0,0,1-1.832-3.514c.8-2.533,7.971-24.929,14.5-31.252,3.415-3.305,15.124-6.9,17.437-7.586a2.8,2.8,0,0,1,1.6,5.374c-6.162,1.83-13.508,4.663-15.132,6.238-4.668,4.521-11,22.4-13.052,28.907A2.8,2.8,0,0,1,1385.439,296.208Z" transform="translate(-1382.633 -253.611)" fill="#658fdc"/>
      </g>
      <g id="Group_4054" data-name="Group 4054" transform="translate(40.167 103.256)">
        <rect id="Rectangle_1192" data-name="Rectangle 1192" width="3.646" height="73.465" transform="translate(0 2.556) rotate(-44.512)" fill="#658fdc"/>
      </g>
      <g id="Group_4055" data-name="Group 4055" transform="translate(46.627 103.678)">
        <rect id="Rectangle_1193" data-name="Rectangle 1193" width="73.464" height="3.646" transform="matrix(0.713, -0.701, 0.701, 0.713, 0, 51.501)" fill="#658fdc"/>
      </g>
      <g id="Group_4059" data-name="Group 4059" transform="translate(5.591 65.989)">
        <g id="Group_4056" data-name="Group 4056">
          <path id="Path_9640" data-name="Path 9640" d="M1439.449,312.726c-7.749,4.457-68.043,4.457-75.793,0-16.053-9.227-26.547-48.829-26.547-48.829H1466S1455.5,303.5,1439.449,312.726Z" transform="translate(-1337.109 -263.896)" fill="#f9df8b"/>
        </g>
        <g id="Group_4057" data-name="Group 4057" transform="translate(9.179)" opacity="0.5" style="mix-blend-mode: multiply;isolation: isolate">
          <path id="Path_9641" data-name="Path 9641" d="M1444.267,263.9c-4.641,11.88-11.842,26.385-20.761,31.512-7.752,4.459-68.046,4.459-75.8,0a27.061,27.061,0,0,1-7-6.169c4.469,9.737,10.394,19.479,17.369,23.487,7.749,4.457,68.043,4.457,75.792,0,16.051-9.227,26.548-48.829,26.548-48.829Z" transform="translate(-1340.711 -263.896)" fill="#f9df8b"/>
        </g>
        <g id="Group_4058" data-name="Group 4058" transform="translate(12.132)" opacity="0.5" style="mix-blend-mode: multiply;isolation: isolate">
          <path id="Path_9642" data-name="Path 9642" d="M1451.062,263.9c-4.021,12.125-12.621,34.012-24.027,40.568-7.749,4.457-68.043,4.457-75.8,0-3.384-1.944-6.523-5.244-9.37-9.237,4.011,7.53,8.88,14.319,14.415,17.5,7.75,4.457,68.044,4.457,75.793,0,16.051-9.227,26.548-48.829,26.548-48.829Z" transform="translate(-1341.87 -263.896)" fill="#f9df8b"/>
        </g>
      </g>
      <g id="Group_4060" data-name="Group 4060" transform="translate(0 62.459)">
        <path id="Path_9643" data-name="Path 9643" d="M1471.715,269.572H1338.991l-4.076-7.061H1475.79Z" transform="translate(-1334.915 -262.511)" fill="#f6ce58"/>
      </g>
      <g id="Group_4061" data-name="Group 4061" transform="translate(2.038 62.459)" opacity="0.5" style="mix-blend-mode: multiply;isolation: isolate">
        <path id="Path_9644" data-name="Path 9644" d="M1468.653,262.511l-2.038,3.531h-130.9l2.038,3.531h132.724l4.075-7.061Z" transform="translate(-1335.715 -262.511)" fill="#f6ce58"/>
      </g>
      <g id="Group_4062" data-name="Group 4062" transform="translate(2.854 62.46)" opacity="0.5" style="mix-blend-mode: multiply;isolation: isolate">
        <path id="Path_9645" data-name="Path 9645" d="M1470.717,262.511s-1.427,4.949-2.854,4.944c-20.427-.059-131.828,0-131.828,0l1.223,2.118h132.723l4.074-7.061Z" transform="translate(-1336.035 -262.511)" fill="#f6ce58"/>
      </g>
      <g id="Group_4081" data-name="Group 4081" transform="translate(33.956 142.972)">
        <g id="Group_4071" data-name="Group 4071" transform="translate(45.063)">
          <g id="Group_4063" data-name="Group 4063" transform="translate(1.205 1.205)">
            <path id="Path_9646" data-name="Path 9646" d="M1391.89,306.181h-9.99l7.064-7.061-1.615-1.616-7.064,7.061v-9.986H1378v9.987l-7.063-7.062-1.615,1.616,7.064,7.061H1366.4v2.286h9.988l-7.064,7.063,1.615,1.616,7.063-7.063v9.988h2.284v-9.988l7.064,7.063,1.615-1.616-7.063-7.063h9.99Z" transform="translate(-1366.397 -294.579)" fill="#658fdc"/>
          </g>
          <g id="Group_4064" data-name="Group 4064" transform="translate(7.512 7.512)">
            <path id="Path_9647" data-name="Path 9647" d="M1381.751,303.491a6.44,6.44,0,1,1-6.44-6.437A6.442,6.442,0,0,1,1381.751,303.491Z" transform="translate(-1368.872 -297.054)" fill="#eae8e5"/>
          </g>
          <g id="Group_4065" data-name="Group 4065" transform="translate(8.662 8.659)">
            <path id="Path_9648" data-name="Path 9648" d="M1379.9,302.794a5.29,5.29,0,1,1-5.29-5.29A5.291,5.291,0,0,1,1379.9,302.794Z" transform="translate(-1369.323 -297.504)" fill="#cbcbc7"/>
          </g>
          <g id="Group_4068" data-name="Group 4068" transform="translate(20.758 12.807)">
            <g id="Group_4066" data-name="Group 4066" transform="translate(3.833)" opacity="0.5" style="mix-blend-mode: multiply;isolation: isolate">
              <path id="Path_9649" data-name="Path 9649" d="M1375.666,299.132c.013.219.018.438.018.66a12.157,12.157,0,0,1-.11,1.626h2.108v-2.286Z" transform="translate(-1375.574 -299.132)" fill="#dfdeda"/>
            </g>
            <g id="Group_4067" data-name="Group 4067" transform="translate(0 7.874)" opacity="0.5" style="mix-blend-mode: multiply;isolation: isolate">
              <path id="Path_9650" data-name="Path 9650" d="M1374.07,303.914l1.4,1.4,1.616-1.616-1.476-1.475A11.93,11.93,0,0,1,1374.07,303.914Z" transform="translate(-1374.07 -302.222)" fill="#dfdeda"/>
            </g>
          </g>
          <g id="Group_4069" data-name="Group 4069">
            <path id="Path_9651" data-name="Path 9651" d="M1379.875,294.106a13.95,13.95,0,1,0,13.949,13.949A13.95,13.95,0,0,0,1379.875,294.106Zm0,25.375a11.425,11.425,0,1,1,11.424-11.426A11.426,11.426,0,0,1,1379.875,319.481Z" transform="translate(-1365.924 -294.106)" fill="#eae8e5"/>
          </g>
          <g id="Group_4070" data-name="Group 4070" transform="translate(13.223 4.768)" opacity="0.5" style="mix-blend-mode: multiply;isolation: isolate">
            <path id="Path_9652" data-name="Path 9652" d="M1382.343,295.977a14.67,14.67,0,0,1-11.23,23.115c.24.013.484.018.729.018a13.951,13.951,0,0,0,10.5-23.133Z" transform="translate(-1371.113 -295.977)" fill="#dfdeda"/>
          </g>
        </g>
        <g id="Group_4080" data-name="Group 4080">
          <g id="Group_4072" data-name="Group 4072" transform="translate(1.204 1.205)">
            <path id="Path_9653" data-name="Path 9653" d="M1374.205,306.181h-9.99l7.064-7.061-1.616-1.616-7.063,7.061v-9.986h-2.285v9.987l-7.063-7.062-1.615,1.616,7.063,7.061h-9.989v2.286h9.989l-7.063,7.063,1.615,1.616,7.063-7.063v9.988h2.285v-9.988l7.063,7.063,1.614-1.616-7.062-7.063h9.99Z" transform="translate(-1348.712 -294.579)" fill="#658fdc"/>
          </g>
          <g id="Group_4073" data-name="Group 4073" transform="translate(7.51 7.512)">
            <path id="Path_9654" data-name="Path 9654" d="M1364.066,303.491a6.439,6.439,0,1,1-6.437-6.437A6.44,6.44,0,0,1,1364.066,303.491Z" transform="translate(-1351.187 -297.054)" fill="#eae8e5"/>
          </g>
          <g id="Group_4074" data-name="Group 4074" transform="translate(8.659 8.659)">
            <path id="Path_9655" data-name="Path 9655" d="M1362.221,302.794a5.292,5.292,0,1,1-5.29-5.29A5.293,5.293,0,0,1,1362.221,302.794Z" transform="translate(-1351.638 -297.504)" fill="#cbcbc7"/>
          </g>
          <g id="Group_4077" data-name="Group 4077" transform="translate(20.758 12.807)">
            <g id="Group_4075" data-name="Group 4075" transform="translate(3.833)" opacity="0.5" style="mix-blend-mode: multiply;isolation: isolate">
              <path id="Path_9656" data-name="Path 9656" d="M1357.982,299.132c.01.219.018.438.018.66a12.28,12.28,0,0,1-.11,1.626h2.1v-2.286Z" transform="translate(-1357.89 -299.132)" fill="#dfdeda"/>
            </g>
            <g id="Group_4076" data-name="Group 4076" transform="translate(0 7.874)" opacity="0.5" style="mix-blend-mode: multiply;isolation: isolate">
              <path id="Path_9657" data-name="Path 9657" d="M1356.386,303.914l1.4,1.4,1.616-1.616-1.473-1.475A11.952,11.952,0,0,1,1356.386,303.914Z" transform="translate(-1356.386 -302.222)" fill="#dfdeda"/>
            </g>
          </g>
          <g id="Group_4078" data-name="Group 4078">
            <path id="Path_9658" data-name="Path 9658" d="M1362.189,294.106a13.95,13.95,0,1,0,13.952,13.949A13.95,13.95,0,0,0,1362.189,294.106Zm0,25.375a11.425,11.425,0,1,1,11.427-11.426A11.424,11.424,0,0,1,1362.189,319.481Z" transform="translate(-1348.24 -294.106)" fill="#eae8e5"/>
          </g>
          <g id="Group_4079" data-name="Group 4079" transform="translate(13.22 4.768)" opacity="0.5" style="mix-blend-mode: multiply;isolation: isolate">
            <path id="Path_9659" data-name="Path 9659" d="M1364.658,295.977a14.667,14.667,0,0,1-11.23,23.115c.242.013.487.018.729.018a13.949,13.949,0,0,0,10.5-23.133Z" transform="translate(-1353.428 -295.977)" fill="#dfdeda"/>
          </g>
        </g>
      </g>
    </g>
  </g>
</svg>
