<svg xmlns="http://www.w3.org/2000/svg" viewBox="0 0 78 78"><defs><style>.cls-1{fill:none;}.cls-2{fill:#b9e3f9;}.cls-3{fill:#0097d1;}.cls-4{fill:#d4d5d5;}.cls-12,.cls-4{opacity:0.5;}.cls-12,.cls-13,.cls-4{isolation:isolate;}.cls-5{fill:#0089bd;}.cls-6{fill:#cbeafb;}.cls-12,.cls-7{fill:#90d4f6;}.cls-8{fill:#65c4f2;}.cls-9{fill:#fff;}.cls-10{fill:#0086b9;}.cls-11{fill:#f6f6f6;}.cls-13{fill:#e7f3fb;opacity:0.3;}</style></defs><g id="圖層_2" data-name="圖層 2"><g id="圖層_1-2" data-name="圖層 1"><rect class="cls-1" width="78" height="78"/><g id="Group_4535" data-name="Group 4535"><path id="Path_9682" data-name="Path 9682" class="cls-2" d="M38.19,2.69A49.5,49.5,0,0,0,27.74,6.74c-3.83,2.2-13.78,11-13.78,11a78.6,78.6,0,0,0,5.35,23.71c6.46,16.68,13.92,26.07,13.92,26.07s9.38-1,13.13,0c3.36.89,9.07,10,9.07,10l9.9-3.83s-1.67-10.81.47-14.12c1.85-2.87,9.25-8.19,9.25-8.19s-.53-11.23-7.27-28.65a85.11,85.11,0,0,0-12-21.13S42.49,1.74,38.19,2.69Z"/><g id="Group_4092" data-name="Group 4092"><path id="Path_9683" data-name="Path 9683" class="cls-3" d="M65.11,57.74c-2.27,3-1.81,13.11-1.81,13.11L55.05,74s-6.16-7.81-9.41-8.41c-2.73-.5-10.24-.2-13.81,0,.88,1.26,1.39,1.9,1.39,1.9s9.38-1,13.13,0c3.37.9,9.08,10,9.08,10l9.9-3.83s-1.67-10.8.47-14.11c1.86-2.88,9.25-8.2,9.25-8.2s0-.82-.23-2.36C72.14,51.16,66.59,55.8,65.11,57.74Z"/></g><path id="Path_9684" data-name="Path 9684" class="cls-4" d="M49.66,6.69c1.45,3.73,4,16,1.68,19-1.92,2.59-12-2.75-12-2.75s-2.9,10.63-5.76,10.3C29.24,32.78,22.37,22,20.76,17.87,18.11,11,24.28,7.73,32.26,4.64S47-.17,49.66,6.69Z"/><path id="Path_9685" data-name="Path 9685" class="cls-3" d="M49.14,5.33c1.44,3.73,4,16,1.67,19-1.92,2.59-12-2.75-12-2.75s-2.89,10.62-5.76,10.3c-4.36-.5-11.23-11.27-12.83-15.41C17.58,9.65,23.75,6.37,31.73,3.28S46.48-1.53,49.14,5.33Z"/><path id="Path_9686" data-name="Path 9686" class="cls-5" d="M46.77,1.93A9,9,0,0,1,48,4.16c1.44,3.73,4,16,1.67,19-1.92,2.59-12-2.75-12-2.75s-2.89,10.63-5.76,10.3a7.84,7.84,0,0,1-4-2.36c1.79,1.94,3.61,3.35,5.12,3.52,2.86.33,5.75-10.29,5.75-10.29s10.07,5.34,12,2.75c2.29-3.09-.23-15.31-1.68-19A7.68,7.68,0,0,0,46.77,1.93Z"/><path id="Path_9687" data-name="Path 9687" class="cls-6" d="M28,6.65c-1.23.72-3.6,1.71-5.09,3.81-1.28,1.79-.89,4.28-.11,6.31,2,5.27,9.22,7.41,16,4.77s10.68-9,8.64-14.32c-.87-2.26-2.57-4.51-5-4.92a11,11,0,0,0-4.49.5A44.87,44.87,0,0,0,28,6.65Z"/><path id="Path_9688" data-name="Path 9688" class="cls-7" d="M28.53,7.65c-1.18.69-3.46,1.65-4.92,3.63-1.24,1.69-.89,4-.15,5.93,1.9,4.93,8.77,6.87,15.34,4.33S49.13,12.94,47.23,8c-.82-2.12-2.43-4.21-4.79-4.58A10.91,10.91,0,0,0,38.12,4,44.46,44.46,0,0,0,28.53,7.65Z"/><path id="Path_9689" data-name="Path 9689" class="cls-8" d="M30.28,10.93A14.27,14.27,0,0,0,25.77,14a4.61,4.61,0,0,0-.39,4.72c1.49,3.84,7.49,5.09,13.42,2.8s9.51-7.27,8-11.1A5,5,0,0,0,42.77,7a11,11,0,0,0-3.85.6A46.23,46.23,0,0,0,30.28,10.93Z"/><g id="Group_4093" data-name="Group 4093"><path id="Path_9690" data-name="Path 9690" class="cls-2" d="M15.45,16.43,4.87,25l9.92,17.7,9.58-5.95Z"/><path id="Path_9691" data-name="Path 9691" class="cls-3" d="M4.86,25c-.84.68-2.61,1.42-1.62,2.9.45.68,1.3.69,2.26.43-.46.9-1.07,1.46-.45,2.68s1.36,1.19,2.51,1A2.17,2.17,0,0,0,7,34.64c.58,1.22,1.35.86,2.32,1a2.72,2.72,0,0,0-.09,2.25,2.67,2.67,0,0,0,2.27,1.45,2.51,2.51,0,0,0,.13,2.79c.92,1.36,2.21.79,3.13.47Z"/><path id="Path_9692" data-name="Path 9692" class="cls-3" d="M15.4,42.27l1.11-.69-9.92-18-1,.83Z"/></g><g id="Group_4094" data-name="Group 4094"><path id="Path_9693" data-name="Path 9693" class="cls-2" d="M54,1.5,67.58.69l4.57,19.76L61.06,22.5Z"/><path id="Path_9694" data-name="Path 9694" class="cls-3" d="M67.58.68c1.08-.06,2.89-.71,3.15,1,.13.82-.49,1.4-1.38,1.84,1,.36,1.77.36,2.14,1.68S71.28,7,70.28,7.66a2.16,2.16,0,0,1,2.21,1.63c.39,1.29-.42,1.55-1,2.35a2.7,2.7,0,0,1,1.58,1.59,2.64,2.64,0,0,1-.7,2.6A2.52,2.52,0,0,1,74.14,18c.23,1.62-1.1,2.07-2,2.45Z"/><path id="Path_9695" data-name="Path 9695" class="cls-3" d="M71.44,20.58l-1.28.23L65.37.82,66.69.74Z"/></g><g id="Group_4096" data-name="Group 4096"><g id="Group_4095" data-name="Group 4095"><path id="Path_9696" data-name="Path 9696" class="cls-9" d="M38.83,21.61c1.09,2.08,2.06,4.2,3,6.34s1.81,4.29,2.66,6.46,1.65,4.36,2.39,6.57,1.46,4.43,2,6.7c-1.09-2.08-2.06-4.2-3-6.33s-1.81-4.3-2.66-6.47-1.64-4.36-2.38-6.57S39.41,23.89,38.83,21.61Z"/></g></g><g id="Group_4097" data-name="Group 4097"><path id="Path_9697" data-name="Path 9697" class="cls-10" d="M48.19,28.18A2.48,2.48,0,1,1,45,26.76a2.47,2.47,0,0,1,3.2,1.42Z"/><path id="Path_9698" data-name="Path 9698" class="cls-3" d="M47.83,28.32a2.09,2.09,0,1,1-2.7-1.19h0A2.09,2.09,0,0,1,47.83,28.32Z"/><path id="Path_9699" data-name="Path 9699" class="cls-10" d="M45.73,29.13a.77.77,0,0,1-1.43.56.77.77,0,0,1,.44-1h0A.76.76,0,0,1,45.73,29.13Z"/><path id="Path_9700" data-name="Path 9700" class="cls-10" d="M47.46,28.46a.76.76,0,1,1-1-.43h0A.76.76,0,0,1,47.46,28.46Z"/><path id="Path_9701" data-name="Path 9701" class="cls-11" d="M45.56,29.2a.59.59,0,0,1-.33.76.6.6,0,0,1-.76-.34.58.58,0,1,1,1.09-.42Z"/><path id="Path_9702" data-name="Path 9702" class="cls-11" d="M47.3,28.53a.59.59,0,1,1-.76-.34.58.58,0,0,1,.76.34Z"/></g><g id="Group_4098" data-name="Group 4098"><path id="Path_9703" data-name="Path 9703" class="cls-10" d="M51.26,36.09a2.48,2.48,0,1,1-3.21-1.41h0A2.48,2.48,0,0,1,51.26,36.09Z"/><path id="Path_9704" data-name="Path 9704" class="cls-3" d="M50.89,36.23A2.09,2.09,0,1,1,48.19,35a2.08,2.08,0,0,1,2.7,1.19Z"/><path id="Path_9705" data-name="Path 9705" class="cls-10" d="M48.79,37a.76.76,0,1,1-1-.43A.76.76,0,0,1,48.79,37Z"/><path id="Path_9706" data-name="Path 9706" class="cls-10" d="M50.53,36.37a.77.77,0,0,1-.44,1,.76.76,0,0,1-1-.43.77.77,0,0,1,1.43-.56Z"/><path id="Path_9707" data-name="Path 9707" class="cls-11" d="M48.63,37.11a.59.59,0,1,1-.76-.34.58.58,0,0,1,.75.33Z"/><path id="Path_9708" data-name="Path 9708" class="cls-11" d="M50.36,36.44a.58.58,0,0,1-.34.76.58.58,0,0,1-.75-.34.59.59,0,0,1,.33-.76h0A.6.6,0,0,1,50.36,36.44Z"/></g><path id="Path_9709" data-name="Path 9709" class="cls-12" d="M68.68,25.05a45.91,45.91,0,0,1,.43,10.21c-.32,3.1-1.76,6.24-3.11,9.05-1.5,3.09-3.57,5.65-5.37,8.53a13.13,13.13,0,0,0-2.11,4.9c-.26,1.75.93,3,.81,4.74-.3,4-1.93,6.81-5.9,8.13-.84.28-1.68.48-2.51.67a60.9,60.9,0,0,1,4.51,6.2l9.9-3.83s-1.67-10.8.47-14.11c1.86-2.88,9.25-8.2,9.25-8.2S74.58,41.12,68.68,25.05Z"/><path id="Path_9710" data-name="Path 9710" class="cls-12" d="M72.83,38.51c-1,3.53-2.91,6.62-4.8,9.71C66.33,51,63,54,62.22,57.16a15.87,15.87,0,0,0,.16,5.19,15.9,15.9,0,0,1,.17,4.82,5.6,5.6,0,0,1-1,2.33,12.49,12.49,0,0,1-5.71,3.87c-.73.28-1.69.5-2.65.8,1.33,1.82,2.26,3.31,2.26,3.31l9.9-3.83s-1.66-10.81.48-14.12c1.85-2.87,9.25-8.19,9.25-8.19A74.41,74.41,0,0,0,72.83,38.51Z"/><path id="Path_9711" data-name="Path 9711" class="cls-13" d="M29.89,28.62c.93.67,2.17,1.31,3.11.42.54-.5,1.75-3.34,1.43-3.91-.21-.37-.8-.31-1.14-.23-3.34.68-6.12-1.49-6.88-1.39s-.43,1.31-.14,1.72a14.32,14.32,0,0,0,3.08,3Z"/><path id="Path_9712" data-name="Path 9712" class="cls-13" d="M43,21.71c.16.55,4.45,1.91,5.29.87s.67-5-.59-5.16S42.9,21.21,43,21.71Z"/></g></g></g></svg>