<svg xmlns="http://www.w3.org/2000/svg" viewBox="0 0 78 78"><defs><style>.cls-1{fill:none;}.cls-2{fill:#f06280;}.cls-3{fill:#f5a0b8;}.cls-4{fill:#ea99b0;}.cls-5{fill:#fefefe;opacity:0.3;isolation:isolate;}</style></defs><g id="圖層_2" data-name="圖層 2"><g id="圖層_1-2" data-name="圖層 1"><rect class="cls-1" width="78" height="78"/><g id="Group_4546" data-name="Group 4546"><path id="Path_9905" data-name="Path 9905" class="cls-2" d="M36.15,40.37a.46.46,0,0,0,0,.66l.41.45a9,9,0,0,1,1.17,1.92,13.43,13.43,0,0,1,.93,3.29,56.2,56.2,0,0,1,.47,6.62c0,1.08.11,2.17.23,3.25a16.33,16.33,0,0,0,.61,3,17.51,17.51,0,0,0,1.25,3,9.49,9.49,0,0,0,1.87,2.45A7.67,7.67,0,0,0,49,67a8.7,8.7,0,0,0,2.4-.59A6.08,6.08,0,0,0,53,67a14.08,14.08,0,0,0,3,.25h.48c.83,0,1.66,0,2.49.07a14,14,0,0,1,3.39.79,11.23,11.23,0,0,1,2.37,1.26,9.58,9.58,0,0,1,1.66,1.52,8.36,8.36,0,0,1,1.08,1.73l0-.12a11.72,11.72,0,0,1,.83,2.78.42.42,0,0,0,.24.28.45.45,0,0,0,.36,0,.49.49,0,0,0,.28-.23.5.5,0,0,0,0-.36,11,11,0,0,0-1.39-3.83,8.79,8.79,0,0,0-1.22-1.5,9.69,9.69,0,0,0-1.44-1.19A11.92,11.92,0,0,0,61.83,67a14.91,14.91,0,0,0-3.57-.61c-.58,0-1.17,0-1.75,0-.81,0-1.62,0-2.42-.07a7.54,7.54,0,0,1-1.63-.36,6.46,6.46,0,0,0,1.84-1.61,5.2,5.2,0,0,0,1-2.08,7.55,7.55,0,0,0,.13-.83,4.78,4.78,0,0,0-.24-2.25,2.54,2.54,0,0,0-.45-.8,2.87,2.87,0,0,0-.68-.62,2.8,2.8,0,0,0-1.57-.38,3.87,3.87,0,0,0-1.67.47,4.29,4.29,0,0,0-1.35,1.15,4.45,4.45,0,0,0-.81,1.8A5,5,0,0,0,48.79,63a6.52,6.52,0,0,0,.53,1.25,5.42,5.42,0,0,0,1,1.37,1.14,1.14,0,0,0,.11.11,9.47,9.47,0,0,1-1,.25,7.33,7.33,0,0,1-1.87.06,7.92,7.92,0,0,1-1.73-.41,6.84,6.84,0,0,1-1.46-.78,7.35,7.35,0,0,1-1.25-1.18l0,.05-.05-.06,0,0,0,0a11.46,11.46,0,0,1-1.43-2.34h0a19.18,19.18,0,0,1-.73-2,13.15,13.15,0,0,1-.46-1.95,54.32,54.32,0,0,1-.45-6.5,26.21,26.21,0,0,0-.88-6.53,10.4,10.4,0,0,0-.9-2.15,8.53,8.53,0,0,0-1.41-1.9.42.42,0,0,0-.31-.13.48.48,0,0,0-.36.15m1.55,2.92,0,.12a.61.61,0,0,0,0-.12m1,3.44s0,0,0,.05v-.05m1.76,10.61v0m12.38,1a1.82,1.82,0,0,1,.46.11,2,2,0,0,1,.36.18,2.81,2.81,0,0,1,.31.29,2.6,2.6,0,0,1,.28.45,3,3,0,0,1,.21.72,5.74,5.74,0,0,1,0,1.31,4.46,4.46,0,0,1-.79,2.18,6,6,0,0,1-.94,1,6.7,6.7,0,0,1-1.29.82,4.58,4.58,0,0,1-.76-.7A6.34,6.34,0,0,1,50,63.48a5.6,5.6,0,0,1-.4-1.26,4.42,4.42,0,0,1,0-1,3.76,3.76,0,0,1,.19-.82,4,4,0,0,1,.41-.76,3.9,3.9,0,0,1,.59-.63,4.35,4.35,0,0,1,.74-.46,3.83,3.83,0,0,1,.75-.23,3.1,3.1,0,0,1,.61,0m-1.37.25-.06,0,.06,0m2.52.36,0,0,0,0m-4.23,1.42v0m4.72,1a.34.34,0,0,0,0,.1.34.34,0,0,1,0-.1m-.81,2.18,0,.06,0-.06m-.87,1,0,0,0,0m-.06.06,0,0,0,0m-8.37.34.08.06-.08-.06M49.48,66h0M64.75,69.4l.06,0-.06,0M66.43,71l0,.05,0-.05M43.09,63.67v0l0,0h0"/><path id="Path_9906" data-name="Path 9906" class="cls-3" d="M36.89,36.91h-.17a4.3,4.3,0,0,0-3.51,2,5.87,5.87,0,0,0-.46.65,6.4,6.4,0,0,0-.59,1.24,4.15,4.15,0,0,0-.2,1.26,2.57,2.57,0,0,0,.32,1.18,1.53,1.53,0,0,0,.73.67,1.44,1.44,0,0,0,.46.08,1.75,1.75,0,0,0,.4,0,2.23,2.23,0,0,0,.84-.46,2.88,2.88,0,0,0,.7-.89,1.42,1.42,0,0,0,.12-.25.57.57,0,0,0,.08.13,2.68,2.68,0,0,0,.65.65,1.75,1.75,0,0,0,1,.33,1.58,1.58,0,0,0,.38-.05,1.37,1.37,0,0,0,1-.92,2.11,2.11,0,0,0,0-.83,3,3,0,0,0,.84.31,2.86,2.86,0,0,0,.58.06,2,2,0,0,0,1.15-.34,1.57,1.57,0,0,0,.32-.31,1.59,1.59,0,0,0,.21-.41,1.86,1.86,0,0,0,.09-.47,2.43,2.43,0,0,0,0-.6,2.31,2.31,0,0,0-.46-1,3.58,3.58,0,0,0-.87-.82,6.17,6.17,0,0,0-1.84-.85,5.86,5.86,0,0,0-1.76-.3"/><path id="Path_9907" data-name="Path 9907" class="cls-4" d="M33.2,38.92a5.79,5.79,0,0,0-.45.65,5.87,5.87,0,0,0-.59,1.24A3.92,3.92,0,0,0,32,42.07a2.72,2.72,0,0,0,.33,1.19,1.3,1.3,0,0,0,1.19.75,1.84,1.84,0,0,0,.41,0,2.23,2.23,0,0,0,.84-.46,2.88,2.88,0,0,0,.7-.89c0-.09.08-.17.12-.26a.37.37,0,0,0,.07.14,2.63,2.63,0,0,0,.64.65,1.8,1.8,0,0,0,1,.33,1.74,1.74,0,0,0,.39,0,1.31,1.31,0,0,0,.59-.32,1.38,1.38,0,0,0,.37-.61,1.89,1.89,0,0,0,.06-.82,2.59,2.59,0,0,0,.83.31,2.86,2.86,0,0,0,.58.06,2,2,0,0,0,1.15-.33,1.51,1.51,0,0,0,.54-.73,1.86,1.86,0,0,0,.09-.47V40.4l-.12.22a2.38,2.38,0,0,1-.49.56l-.27.19a2.75,2.75,0,0,1-.3.14,2,2,0,0,1-.69.15,2.07,2.07,0,0,1-.7-.09,2.43,2.43,0,0,1-.73-.34,4.08,4.08,0,0,1-.33-.25L38,40.77c0,.14,0,.29-.08.43a3.66,3.66,0,0,1-.17.65,2.33,2.33,0,0,1-.11.28,1.77,1.77,0,0,1-.16.22.72.72,0,0,1-.32.2l-.1,0H37l-.13,0a.66.66,0,0,1-.24-.11,1,1,0,0,1-.21-.21,1.64,1.64,0,0,1-.2-.26,4.22,4.22,0,0,1-.36-.66,3.54,3.54,0,0,1-.16-.34l-.25.38c-.11.16-.22.33-.34.48a3.62,3.62,0,0,1-.36.42l-.21.18a1,1,0,0,1-.19.12.77.77,0,0,1-.19.08.63.63,0,0,1-.19,0,.85.85,0,0,1-.23,0,.66.66,0,0,1-.19-.09,1.37,1.37,0,0,1-.18-.16,1.24,1.24,0,0,1-.18-.22L33.06,42l-.05-.1a1.18,1.18,0,0,1-.07-.2,2.42,2.42,0,0,1-.07-.47,3.72,3.72,0,0,1,.13-1.1A6.62,6.62,0,0,1,33.43,39,6.49,6.49,0,0,1,34,38a3.44,3.44,0,0,0-.81,1"/><path id="Path_9908" data-name="Path 9908" class="cls-3" d="M37.27,2.35h-.12A9.39,9.39,0,0,0,32.34,3.7a8.33,8.33,0,0,0-1,.7A10.4,10.4,0,0,0,28.56,8a12.87,12.87,0,0,0-.95,2.91,11.9,11.9,0,0,0-.19,1.46,11.54,11.54,0,0,0-1.08-1,12,12,0,0,0-2.57-1.66,10.28,10.28,0,0,0-4.43-1,9.14,9.14,0,0,0-5.78,2.06,12.07,12.07,0,0,0-3.19,4,14.59,14.59,0,0,0,.22,13.55,17.27,17.27,0,0,0,2.52,3.5,23.18,23.18,0,0,0,7.28,5.19,28.59,28.59,0,0,0,8.78,2.5,26,26,0,0,0,2.92.16c.35,0,.69,0,1,0a19.37,19.37,0,0,0,3.56-.45h.06a.47.47,0,0,0,.16,0,21.9,21.9,0,0,0,3.23-2,26.2,26.2,0,0,0,3-2.6A28.59,28.59,0,0,0,48.35,27a23.26,23.26,0,0,0,2.38-8.63,16.73,16.73,0,0,0-.25-4.3A14.55,14.55,0,0,0,42.12,3.43a12.15,12.15,0,0,0-4.85-1.08M14.08,31.9h0v0l.15.16-.1-.11h0Z"/><path id="Path_9909" data-name="Path 9909" class="cls-4" d="M18.14,8.71a9.3,9.3,0,0,0-4.59,2,12.1,12.1,0,0,0-3.18,4,14.58,14.58,0,0,0,.22,13.56,17,17,0,0,0,2.51,3.5,23.21,23.21,0,0,0,7.29,5.2,27.31,27.31,0,0,0,4.29,1.6,28.56,28.56,0,0,0,4.49.9,26,26,0,0,0,2.93.16c.34,0,.68,0,1,0a21.52,21.52,0,0,0,3.57-.45h.05a.43.43,0,0,0,.16,0l.41-.2a29.72,29.72,0,0,1-3.4-.12,27,27,0,0,1-5-.94,23.64,23.64,0,0,1-4.67-1.88,20.25,20.25,0,0,1-4.07-2.85,17.4,17.4,0,0,1-3.2-3.85,15.22,15.22,0,0,1-2-4.9,17,17,0,0,1-.34-2.74,16,16,0,0,1,.13-2.77,14.24,14.24,0,0,1,.65-2.65,11.52,11.52,0,0,1,1.22-2.43,10.73,10.73,0,0,1,.78-1,8.83,8.83,0,0,1,.88-.85,12.39,12.39,0,0,1,2.29-1.57,9.52,9.52,0,0,1,1.26-.57,8.18,8.18,0,0,1,1.28-.38,10.19,10.19,0,0,0-3.78-.75,9.55,9.55,0,0,0-1.2.08"/><path id="Path_9910" data-name="Path 9910" class="cls-5" d="M45.78,13.09c1.57-2,.57-5.38-2.23-7.61S37.21,3.05,35.64,5s-.58,5.38,2.22,7.61,6.35,2.44,7.92.47"/><path id="Path_9911" data-name="Path 9911" class="cls-5" d="M48.79,18.06a2.17,2.17,0,1,0-3,.34,2.16,2.16,0,0,0,3-.34"/></g></g></g></svg>