<svg xmlns="http://www.w3.org/2000/svg" viewBox="0 0 78 78"><defs><style>.cls-1{fill:none;}.cls-2{fill:#ffd431;}.cls-3{fill:#fff5ab;}.cls-10,.cls-3{opacity:0.8;}.cls-10,.cls-3,.cls-6,.cls-7{isolation:isolate;}.cls-4{fill:#1a5612;}.cls-5{fill:#00709a;}.cls-6{fill:#0097d1;}.cls-6,.cls-7{opacity:0.3;}.cls-7,.cls-9{fill:#fff;}.cls-8{fill:#65c4f2;}.cls-10{fill:#ebebeb;}</style></defs><g id="圖層_2" data-name="圖層 2"><g id="圖層_1-2" data-name="圖層 1"><rect class="cls-1" width="78" height="78"/><g id="Group_4537" data-name="Group 4537"><g id="Group_4106" data-name="Group 4106"><path id="Path_9738" data-name="Path 9738" class="cls-2" d="M24.57,60.93C24.6,60,36,43.2,36,43.2l-3.33-2.3S21,57.58,20.21,57.92C18,58.85,7.57,72.84,11.36,75.45S24.49,63.32,24.57,60.93Z"/><path id="Path_9739" data-name="Path 9739" class="cls-3" d="M24.57,60.93C24.6,60,36,43.2,36,43.2l-2.34-1.61C30.46,46.38,23,57.9,23,58.57c-.08,2.36-8.14,14.79-12,12.67-.63,1.92-.66,3.49.38,4.2C15.11,78,24.49,63.32,24.57,60.93Z"/><path id="Path_9740" data-name="Path 9740" class="cls-3" d="M24.57,60.93C24.6,60,36,43.2,36,43.2l-1-.67C33.08,45.42,24,58.91,24,59.71c-.08,2.4-9.46,17.11-13.22,14.52l-.17-.13a1.93,1.93,0,0,0,.78,1.35C15.11,78,24.49,63.33,24.57,60.93Z"/><path id="Path_9741" data-name="Path 9741" class="cls-4" d="M39.44,42.72c-1.72,2.5-4.8,3.38-6.89,1.94s-2.36-4.62-.63-7.12,4.8-3.38,6.88-1.95S41.17,40.21,39.44,42.72Z"/><path id="Path_9742" data-name="Path 9742" class="cls-5" d="M39.44,42.72c-1.72,2.5-4.8,3.38-6.89,1.94s-2.36-4.62-.63-7.12,4.8-3.38,6.88-1.95S41.17,40.21,39.44,42.72Z"/><path id="Path_9743" data-name="Path 9743" class="cls-6" d="M39.5,36.22a6,6,0,0,1-1.08,4.13c-1.73,2.51-4.81,3.38-6.89,1.95a3.8,3.8,0,0,1-.7-.63,4.14,4.14,0,0,0,1.72,3c2.08,1.43,5.16.56,6.89-1.94C41,40.53,40.92,37.82,39.5,36.22Z"/><path id="Path_9744" data-name="Path 9744" class="cls-7" d="M15.72,63.77a11.24,11.24,0,0,0-2.15,3.45c-.08.32,0,.9.52.9,1.52,0,2.3-1.28,3.09-2.22a25.26,25.26,0,0,0,2.29-3.24c.42-.7,1.26-1.85.64-2.79-.35-.54-.93-.15-1.2.11C19,59.85,16.81,62.31,15.72,63.77Z"/></g><g id="Group_4107" data-name="Group 4107"><path id="Path_9745" data-name="Path 9745" class="cls-8" d="M63.24,34.3c-6.82,9.91-19.51,13-28.33,6.94s-10.45-19-3.62-28.94S50.8-.72,59.62,5.36,70.07,24.39,63.24,34.3Z"/><path id="Path_9746" data-name="Path 9746" class="cls-6" d="M64.93,11.16a23.64,23.64,0,0,1-4.19,12.19c-6.83,9.91-19.52,13-28.34,6.94a17.55,17.55,0,0,1-5.31-5.8c-.32,6.65,2.38,13,7.82,16.75,8.82,6.08,21.51,3,28.33-6.94C68.33,26.91,68.72,17.82,64.93,11.16Z"/><path id="Path_9747" data-name="Path 9747" class="cls-6" d="M66.56,14.91a23.38,23.38,0,0,1-4.2,14.28c-6.82,9.91-19.51,13-28.34,6.94a17.9,17.9,0,0,1-6.93-9.56,18.58,18.58,0,0,0,7.82,14.67c8.83,6.08,21.51,3,28.34-6.94A22.7,22.7,0,0,0,66.56,14.91Z"/><path id="Path_9748" data-name="Path 9748" class="cls-7" d="M36.49,13.23a6.66,6.66,0,0,0,2.72,3.14c1.83,1.32,3.62,1.13,5.54.9,3.73-.44,7.34-2.21,9.11-5.38.81-1.44,1.63-4.16.39-5.76C50,.71,34.54,6.47,36.49,13.23Z"/></g><path id="Path_9749" data-name="Path 9749" class="cls-9" d="M60.75,37.37A152.35,152.35,0,0,1,29.31,15.72s-.44-.93.61-2.45A2.94,2.94,0,0,1,31.53,12,145.32,145.32,0,0,0,63.48,34a3.39,3.39,0,0,1-.65,2A3,3,0,0,1,60.75,37.37Z"/><path id="Path_9750" data-name="Path 9750" class="cls-10" d="M62.09,35.42A152,152,0,0,1,30.65,13.78a2,2,0,0,1,.05-1.37,4.3,4.3,0,0,0-.79.86c-1,1.52-.6,2.45-.6,2.45A152.28,152.28,0,0,0,60.74,37.37a3,3,0,0,0,2.08-1.44,3.78,3.78,0,0,0,.51-1A2.48,2.48,0,0,1,62.09,35.42Z"/><path id="Path_9751" data-name="Path 9751" class="cls-10" d="M61.37,36.47A152.28,152.28,0,0,1,29.94,14.82a2.33,2.33,0,0,1,.3-2,4.63,4.63,0,0,0-.32.42c-1.05,1.52-.61,2.45-.61,2.45A152.08,152.08,0,0,0,60.75,37.37a3,3,0,0,0,2.07-1.44,3.35,3.35,0,0,0,.27-.45A2.78,2.78,0,0,1,61.37,36.47Z"/></g></g></g></svg>