<svg xmlns="http://www.w3.org/2000/svg" viewBox="0 0 78 78"><defs><style>.cls-1{fill:none;}.cls-2{fill:#f5a0b8;}.cls-3{fill:#ea99b0;}.cls-4{fill:#fefefe;opacity:0.3;isolation:isolate;}.cls-5{fill:#ffcc94;}.cls-6{fill:#ffbd7d;}.cls-7{fill:#ffc9d5;}.cls-8{fill:#f06280;}.cls-9{fill:#df5b76;}</style></defs><g id="圖層_2" data-name="圖層 2"><g id="圖層_1-2" data-name="圖層 1"><rect class="cls-1" width="78" height="78"/><g id="Group_4545" data-name="Group 4545"><path id="Path_9843" data-name="Path 9843" class="cls-2" d="M35.26,22.79a.49.49,0,0,0-.23.08A15.92,15.92,0,0,0,31.9,25.2a20.11,20.11,0,0,0-2.48,2.9,37.21,37.21,0,0,0-2.06,3.3c-.72,1.27-1.39,2.55-2,3.8a84.26,84.26,0,0,0-6.16,17.23c-.55,2.22-.92,3.94-1.18,5.57a37.4,37.4,0,0,0-.5,5.79.45.45,0,0,0,.07.28.19.19,0,0,0,0,.1,14.45,14.45,0,0,0,2.44,2.91,23.49,23.49,0,0,0,3.16,2.46,32.91,32.91,0,0,0,3.36,1.94,36.54,36.54,0,0,0,3.89,1.73,27.8,27.8,0,0,0,6.89,1.7,25,25,0,0,0,2.6.14c.33,0,.66,0,1,0a13.86,13.86,0,0,0,1.82-.19,9,9,0,0,0,1.77-.53l.08,0a.53.53,0,0,0,.13-.13,36.05,36.05,0,0,0,3.38-4.74c.85-1.4,1.69-2.94,2.71-5A84.42,84.42,0,0,0,57.31,47.3c.36-1.42.67-2.83.94-4.2a35.73,35.73,0,0,0,.57-3.85,20.1,20.1,0,0,0,0-3.8,16.1,16.1,0,0,0-.88-3.81.36.36,0,0,0-.13-.21.39.39,0,0,0-.14-.08.3.3,0,0,0-.06-.34A10.84,10.84,0,0,0,56,29.68a12.79,12.79,0,0,0-1.77-1c-.63-.32-1.3-.6-2-.89l-2.2-.91c-1.49-.59-3-1.12-4.46-1.59-.68-.22-1.43-.44-2.28-.68l-.58-.16-1.15-.32-.5-.16a30,30,0,0,0-3.22-.87,9.64,9.64,0,0,0-1.6-.16H36l-.46,0a.34.34,0,0,0-.27-.18h-.05"/><path id="Path_9844" data-name="Path 9844" class="cls-3" d="M53,30.24c.08,1,.12,2.05.12,3.08s0,1.91-.07,2.87a50.47,50.47,0,0,1-.68,5.74,50.94,50.94,0,0,1-1.31,5.59,50.57,50.57,0,0,1-2,5.49,46.4,46.4,0,0,1-2.62,5.17c-.48.8-1,1.59-1.5,2.36-.41.59-.84,1.17-1.31,1.73a27.28,27.28,0,0,1-3.21,3.24,28.12,28.12,0,0,1-3.94,2.84,23.73,23.73,0,0,1-4.33,2,16.88,16.88,0,0,1-4.5,1,13.08,13.08,0,0,1-1.4,0l.26.13a34.69,34.69,0,0,0,3.89,1.74,28.25,28.25,0,0,0,6.89,1.7,25.37,25.37,0,0,0,2.61.15l1,0a16.07,16.07,0,0,0,1.82-.2,10,10,0,0,0,1.77-.53l.08,0a.53.53,0,0,0,.13-.13,36.8,36.8,0,0,0,3.39-4.74c.85-1.41,1.69-3,2.71-5a84.34,84.34,0,0,0,6.49-17.1c.36-1.46.68-2.87.94-4.21a38.41,38.41,0,0,0,.57-3.85,21,21,0,0,0,0-3.8A16.1,16.1,0,0,0,58,31.64a.45.45,0,0,0-.13-.22.46.46,0,0,0-.14-.07.31.31,0,0,0-.07-.35A10.78,10.78,0,0,0,56,29.68a13.35,13.35,0,0,0-1.76-1c-.48-.23-1-.45-1.45-.66.1.74.18,1.49.24,2.24"/><path id="Path_9845" data-name="Path 9845" class="cls-4" d="M34.81,38.76c2.39-5.57,2.72-10.78.73-11.64s-5.55,3-7.94,8.55-2.71,10.79-.72,11.65,5.54-3,7.93-8.56"/><path id="Path_9846" data-name="Path 9846" class="cls-4" d="M27.66,52.62A2.69,2.69,0,1,0,24.12,54a2.69,2.69,0,0,0,3.54-1.42h0"/><path id="Path_9847" data-name="Path 9847" class="cls-5" d="M53.78,2.94a5.51,5.51,0,0,0-.9.1,5,5,0,0,0-2.17,1,4.41,4.41,0,0,0-1.4,1.87A4.7,4.7,0,0,0,49,7.11a7.83,7.83,0,0,0,0,1.37c0,.18,0,.37.05.56a12.77,12.77,0,0,1,0,2.05,4.16,4.16,0,0,1-.21,1,4.65,4.65,0,0,1-.32.63,13.69,13.69,0,0,0-2.71-.27c-3.43,0-6.14,1.33-7.24,3.51a.53.53,0,0,1,.17.08l.09.07.06,0,.06,0,.12.08.28.2.09.06.06,0,0,0,0,0,.58.37A35.29,35.29,0,0,0,44,19l.71.32,0,0,.08,0,.06,0,.88.36c.58.23,1.17.45,1.76.66l1.45.48,1.08.33,1.08.3.41.1.77.19h.06l.93.2.94.18c1,.16,1.88.28,2.77.35l.26,0,.31,0v0h1.5C59.27,20,57.49,17.1,54.35,15c0-.1,0-.2,0-.3a5.65,5.65,0,0,1,.32-1.35,7.33,7.33,0,0,1,.86-1.58c.32-.42.66-.79,1-1.15A11.87,11.87,0,0,0,57.7,9.26a4.41,4.41,0,0,0,.67-1.54,4.23,4.23,0,0,0,0-1.84,3.55,3.55,0,0,0-.77-1.46,4,4,0,0,0-1.29-1A4.73,4.73,0,0,0,54.65,3c-.22,0-.43,0-.64,0h-.23"/><path id="Path_9848" data-name="Path 9848" class="cls-5" d="M57.82,23.85a.29.29,0,0,0-.07.25,7.37,7.37,0,0,1,.06,1.41s0,.1,0,.16a5,5,0,0,0,.74-1,5.61,5.61,0,0,0-.06-.59.39.39,0,0,0-.12-.25.38.38,0,0,0-.27-.09.38.38,0,0,0-.27.14"/><path id="Path_9849" data-name="Path 9849" class="cls-5" d="M38.53,17.38a3.89,3.89,0,0,0-.36.34,5.78,5.78,0,0,0,0,1.1,8,8,0,0,1,.89-.95.33.33,0,0,0,.09-.27.35.35,0,0,0-.12-.25.37.37,0,0,0-.27-.09.42.42,0,0,0-.25.12"/><path id="Path_9850" data-name="Path 9850" class="cls-5" d="M42,19.54l0,.06c-.42.73-1,1.64-1.38,2.54-.14.3-.27.59-.38.88a7.92,7.92,0,0,0,.56.61,24,24,0,0,1,1.89-3.76.36.36,0,0,0,0-.27.41.41,0,0,0-.18-.23.51.51,0,0,0-.17,0,.38.38,0,0,0-.33.2"/><path id="Path_9851" data-name="Path 9851" class="cls-5" d="M46.25,21.52a22.54,22.54,0,0,0-1.46,3.61l-.26.78,0,.05-.11.3.67.32.45-1.32.25-.75a17.9,17.9,0,0,1,1.14-2.66.39.39,0,0,0,0-.26.39.39,0,0,0-.19-.23.32.32,0,0,0-.16,0,.42.42,0,0,0-.34.2"/><path id="Path_9852" data-name="Path 9852" class="cls-5" d="M51.13,23.16c-.21.76-.46,1.56-.8,2.53l0,0c-.15.46-.32.92-.49,1.38l-.27.75c.25,0,.5.06.75.08l.07-.2c.5-1.37,1.06-2.92,1.49-4.45a.32.32,0,0,0,0-.25.35.35,0,0,0-.24-.17h-.08a.38.38,0,0,0-.36.29"/><path id="Path_9853" data-name="Path 9853" class="cls-5" d="M55.2,23.64a.34.34,0,0,0-.08.26,6,6,0,0,1,0,.85,8.36,8.36,0,0,1-.5,2.2h0a.11.11,0,0,0,0,0l-.24.63c.3-.09.6-.19.89-.3.07-.2.14-.4.2-.6a7.75,7.75,0,0,0,.37-2.87.37.37,0,0,0-.39-.34.31.31,0,0,0-.25.13"/><path id="Path_9854" data-name="Path 9854" class="cls-6" d="M55.93,3.53a2.85,2.85,0,0,1,.52,1.18,3.62,3.62,0,0,1,0,1.43,4.52,4.52,0,0,1-.25.79,4.47,4.47,0,0,1-.35.69,11.82,11.82,0,0,1-1,1.43c-.39.5-.79,1-1.18,1.5a13.4,13.4,0,0,0-1,1.54h0a6.08,6.08,0,0,0-.33.68,4.61,4.61,0,0,0-.2.63,3.48,3.48,0,0,0-.09.79v0c0,.12,0,.24,0,.36a2.86,2.86,0,0,0,.07.28,2.61,2.61,0,0,0,.16.42c.07.13.13.25.21.38l0,0a10.69,10.69,0,0,0,1.32,1.6c.25.25.49.51.73.77a6.82,6.82,0,0,1,.63.79l.24.39c.07.13.13.27.19.41a7.55,7.55,0,0,1,.29.84,8.54,8.54,0,0,1,.29,1.81,2,2,0,0,0,0,.25l.9.09h.26l.31,0v0l.81,0,.7,0c.13-2.58-1.65-5.45-4.79-7.52l0-.16v-.13a6.11,6.11,0,0,1,.33-1.34,7.14,7.14,0,0,1,.85-1.59c.3-.39.62-.74.93-1.08l.06-.06A12.75,12.75,0,0,0,57.7,9.27a4.22,4.22,0,0,0,.68-1.55,4.08,4.08,0,0,0,0-1.84,3.05,3.05,0,0,0-.29-.76,3.69,3.69,0,0,0-.48-.71,4,4,0,0,0-1.29-1,4.48,4.48,0,0,0-.72-.28,2,2,0,0,1,.36.4"/><path id="Path_9855" data-name="Path 9855" class="cls-6" d="M57.82,23.85a.29.29,0,0,0-.07.25,7.37,7.37,0,0,1,.06,1.41v.17a4.92,4.92,0,0,0,.74-1,6,6,0,0,0-.06-.61.42.42,0,0,0-.12-.25.38.38,0,0,0-.27-.09.38.38,0,0,0-.27.14"/><path id="Path_9856" data-name="Path 9856" class="cls-2" d="M38.53,17.38A9,9,0,0,0,35.74,23a.42.42,0,0,0,0,.27.36.36,0,0,0,.24.16h.07a.36.36,0,0,0,.36-.29,9.62,9.62,0,0,1,.44-1.91,9.28,9.28,0,0,1,1-2,7.8,7.8,0,0,1,1.17-1.33.37.37,0,0,0,0-.52.32.32,0,0,0-.26-.09.37.37,0,0,0-.25.12"/><path id="Path_9857" data-name="Path 9857" class="cls-2" d="M42,19.54l0,.06c-.42.73-1,1.64-1.38,2.54a12.78,12.78,0,0,0-1,2.81.37.37,0,0,0,.05.27.4.4,0,0,0,.24.16H40a.37.37,0,0,0,.36-.29,11.33,11.33,0,0,1,.34-1.27,24.21,24.21,0,0,1,2-3.95.3.3,0,0,0,0-.26.39.39,0,0,0-.19-.23.29.29,0,0,0-.16,0,.37.37,0,0,0-.33.2"/><path id="Path_9858" data-name="Path 9858" class="cls-2" d="M46.25,21.52a22.54,22.54,0,0,0-1.46,3.61l-.26.78,0,.05c-.07.2-.14.41-.22.61a.39.39,0,0,0,0,.28.37.37,0,0,0,.18.21.35.35,0,0,0,.17,0h.11A.38.38,0,0,0,45,26.9q.3-.81.57-1.65l.25-.75a18.24,18.24,0,0,1,1.14-2.65.36.36,0,0,0,0-.27.33.33,0,0,0-.18-.22.32.32,0,0,0-.16,0,.4.4,0,0,0-.34.2"/><path id="Path_9859" data-name="Path 9859" class="cls-2" d="M55.21,23.64a.31.31,0,0,0-.09.26,8,8,0,0,1,0,.85,8.38,8.38,0,0,1-.51,2.2h0a.43.43,0,0,1,0,0,15.91,15.91,0,0,1-.71,1.64l-.05,0h0a3.91,3.91,0,0,1-.18.35.36.36,0,0,0,.17.49.29.29,0,0,0,.16,0,.37.37,0,0,0,.33-.2,16.83,16.83,0,0,0,.77-1.67h0c.12-.32.23-.63.32-.94a7.75,7.75,0,0,0,.37-2.87.37.37,0,0,0-.39-.34.31.31,0,0,0-.25.13"/><path id="Path_9860" data-name="Path 9860" class="cls-2" d="M57.82,23.85a.29.29,0,0,0-.07.25,7.37,7.37,0,0,1,.06,1.41,8.37,8.37,0,0,1-.45,2.1,11,11,0,0,1-.79,1.75.42.42,0,0,0,0,.27.39.39,0,0,0,.19.23.47.47,0,0,0,.16,0,.42.42,0,0,0,.34-.2,9,9,0,0,0,1.25-5.65.42.42,0,0,0-.12-.25.36.36,0,0,0-.27-.09.35.35,0,0,0-.27.14"/><path id="Path_9861" data-name="Path 9861" class="cls-2" d="M51.13,23.16c-.21.76-.46,1.56-.8,2.53l0,0c-.15.46-.32.92-.49,1.38l-.34,1a.44.44,0,0,0,0,.28.36.36,0,0,0,.19.21.33.33,0,0,0,.17,0l.11,0a.34.34,0,0,0,.21-.18l.24-.67c.5-1.37,1.06-2.92,1.49-4.45a.33.33,0,0,0,0-.25.35.35,0,0,0-.24-.17h-.08a.39.39,0,0,0-.36.3"/><path id="Path_9862" data-name="Path 9862" class="cls-3" d="M57.82,23.85a.29.29,0,0,0-.07.25,7.37,7.37,0,0,1,.06,1.41,8.37,8.37,0,0,1-.45,2.1,11,11,0,0,1-.79,1.75.42.42,0,0,0,0,.27.39.39,0,0,0,.19.23.47.47,0,0,0,.16,0,.42.42,0,0,0,.34-.2,9,9,0,0,0,1.25-5.65.42.42,0,0,0-.12-.25.36.36,0,0,0-.27-.09.35.35,0,0,0-.27.14"/><path id="Path_9863" data-name="Path 9863" class="cls-3" d="M54.94,27.87a10.56,10.56,0,0,1-1,.75h0l-.05,0h0l-.18.35a.39.39,0,0,0,0,.28.41.41,0,0,0,.19.22.41.41,0,0,0,.16,0,.38.38,0,0,0,.33-.2c.28-.53.53-1.09.76-1.65l-.21.19"/><path id="Path_9864" data-name="Path 9864" class="cls-7" d="M38.53,17.38A9,9,0,0,0,35.74,23a.42.42,0,0,0,0,.27.36.36,0,0,0,.24.16h.07a.36.36,0,0,0,.36-.29,9.62,9.62,0,0,1,.44-1.91,9.28,9.28,0,0,1,1-2,7.8,7.8,0,0,1,1.17-1.33.37.37,0,0,0,0-.52.32.32,0,0,0-.26-.09.37.37,0,0,0-.25.12"/><path id="Path_9865" data-name="Path 9865" class="cls-7" d="M57.82,23.85a.29.29,0,0,0-.07.25,7.37,7.37,0,0,1,.06,1.41,8.37,8.37,0,0,1-.45,2.1,11,11,0,0,1-.79,1.75.42.42,0,0,0,0,.27.39.39,0,0,0,.19.23.47.47,0,0,0,.16,0,.42.42,0,0,0,.34-.2,9,9,0,0,0,1.25-5.65.42.42,0,0,0-.12-.25.36.36,0,0,0-.27-.09.35.35,0,0,0-.27.14"/><path id="Path_9866" data-name="Path 9866" class="cls-7" d="M42,19.54l0,.06c-.42.73-1,1.64-1.38,2.54a12.78,12.78,0,0,0-1,2.81.37.37,0,0,0,.05.27.4.4,0,0,0,.24.16H40a.37.37,0,0,0,.36-.29,11.33,11.33,0,0,1,.34-1.27,24.21,24.21,0,0,1,2-3.95.3.3,0,0,0,0-.26.39.39,0,0,0-.19-.23.29.29,0,0,0-.16,0,.37.37,0,0,0-.33.2"/><path id="Path_9867" data-name="Path 9867" class="cls-7" d="M46.25,21.52a22.54,22.54,0,0,0-1.46,3.61l-.26.78,0,.05c-.07.2-.14.41-.22.61a.39.39,0,0,0,0,.28.37.37,0,0,0,.18.21.35.35,0,0,0,.17,0h.11A.38.38,0,0,0,45,26.9q.3-.81.57-1.65l.25-.75a18.24,18.24,0,0,1,1.14-2.65.36.36,0,0,0,0-.27.33.33,0,0,0-.18-.22.32.32,0,0,0-.16,0,.4.4,0,0,0-.34.2"/><path id="Path_9868" data-name="Path 9868" class="cls-7" d="M51.13,23.16c-.21.76-.46,1.56-.8,2.53l0,0c-.15.46-.32.92-.49,1.38l-.34,1a.44.44,0,0,0,0,.28.36.36,0,0,0,.19.21.33.33,0,0,0,.17,0l.11,0a.34.34,0,0,0,.21-.18l.24-.67c.5-1.37,1.06-2.92,1.49-4.45a.33.33,0,0,0,0-.25.35.35,0,0,0-.24-.17h-.08a.39.39,0,0,0-.36.3"/><path id="Path_9869" data-name="Path 9869" class="cls-7" d="M55.21,23.64a.31.31,0,0,0-.09.26,8,8,0,0,1,0,.85,8.57,8.57,0,0,1-.38,1.81c0,.13-.08.26-.12.38l0,0,0,0h0a.13.13,0,0,1,0,.06,13.79,13.79,0,0,1-.7,1.63h0l-.18.35a.39.39,0,0,0,0,.28.43.43,0,0,0,.18.22.47.47,0,0,0,.17,0,.38.38,0,0,0,.33-.2,16.75,16.75,0,0,0,.76-1.67h0c.13-.31.23-.63.33-.94a7.74,7.74,0,0,0,.36-2.87.36.36,0,0,0-.38-.34.38.38,0,0,0-.26.13"/><path id="Path_9870" data-name="Path 9870" class="cls-8" d="M38.25,15.89a5.81,5.81,0,0,0-2,1.08,7.51,7.51,0,0,0-1.64,1.87,5.85,5.85,0,0,0-.87,4.4.4.4,0,0,0,.13.32A17,17,0,0,0,37,26l.1.06L37,26a33,33,0,0,0,3.76,1.89l.12.05A27.42,27.42,0,0,0,45,29.29l.26.06c.57.13,1.21.25,1.88.35.33.05.65.09,1,.12s.7.06,1,.07h.23a9,9,0,0,0,3-.51,7.9,7.9,0,0,0,1.38-.65l.15-.07,0,0A14,14,0,0,0,54.62,27v0h0a8.38,8.38,0,0,0,.51-2.2,8.23,8.23,0,0,0,0-.86.32.32,0,0,1,.09-.26.34.34,0,0,1,.25-.13.39.39,0,0,1,.39.35,7.78,7.78,0,0,1-.37,2.87c-.09.31-.2.62-.32.94h0l.32-.33a7.61,7.61,0,0,0,1.3-1.83,7.81,7.81,0,0,0,.56-1.41,8.9,8.9,0,0,0,.29-1.54l-.31,0-.26,0c-.89-.07-1.82-.19-2.77-.36L53.34,22l-.93-.2h-.06l-.77-.19-.41-.1-1.09-.3L49,20.85c-.52-.17-1-.32-1.45-.49s-1.18-.43-1.76-.66l-.87-.36-.07,0-.08,0-.05,0L44,18.94a33.54,33.54,0,0,1-3.76-2l-.58-.36,0,0-.05,0-.06,0-.09-.06-.29-.19L39,16.17l-.05,0-.07,0L38.82,16a.41.41,0,0,0-.21-.1.2.2,0,0,0-.08,0,.33.33,0,0,0-.14,0,.4.4,0,0,0-.15,0M36,23.37a.33.33,0,0,1-.24-.15.39.39,0,0,1-.05-.28,9,9,0,0,1,2.78-5.57.42.42,0,0,1,.25-.12.36.36,0,0,1,.39.34.33.33,0,0,1-.09.27,8.2,8.2,0,0,0-1.17,1.33,8.84,8.84,0,0,0-1,2,9.62,9.62,0,0,0-.44,1.91.38.38,0,0,1-.37.29H36m3.87,2a.36.36,0,0,1-.28-.43h0a12,12,0,0,1,1-2.8c.43-.91,1-1.82,1.38-2.55l0-.05a.37.37,0,0,1,.49-.16.39.39,0,0,1,.19.23.33.33,0,0,1,0,.26,24.66,24.66,0,0,0-2,3.95,11.33,11.33,0,0,0-.34,1.27.37.37,0,0,1-.36.29h-.07m4.54,1.68a.4.4,0,0,1-.18-.22.39.39,0,0,1,0-.28c.08-.2.15-.4.22-.61l0-.05c.09-.26.17-.52.26-.77a21.81,21.81,0,0,1,1.46-3.61.4.4,0,0,1,.34-.2.34.34,0,0,1,.34.26.36.36,0,0,1,0,.27,17.78,17.78,0,0,0-1.14,2.65l-.25.75c-.19.55-.37,1.1-.57,1.65a.4.4,0,0,1-.22.18h-.11a.34.34,0,0,1-.17,0m5.19,1.52a.38.38,0,0,1-.16-.5l.35-1c.16-.46.33-.91.49-1.37v0c.34-1,.59-1.78.81-2.53a.38.38,0,0,1,.36-.3h.07a.39.39,0,0,1,.25.17.34.34,0,0,1,0,.26c-.43,1.52-1,3.08-1.49,4.45l-.23.66a.36.36,0,0,1-.22.18l-.11,0a.35.35,0,0,1-.17,0"/><path id="Path_9871" data-name="Path 9871" class="cls-9" d="M59.22,22.53h0c-.27,0-.53,0-.78,0h-.81a9.31,9.31,0,0,1-.29,1.56,7.81,7.81,0,0,1-.56,1.41,7.55,7.55,0,0,1-1.3,1.82c-.1.12-.21.22-.32.33-.23.57-.49,1.13-.77,1.68a.41.41,0,0,1-.33.2.38.38,0,0,1-.35-.26.39.39,0,0,1,0-.28l.18-.35a.82.82,0,0,0-.19.09,7.53,7.53,0,0,1-1.38.64,8.7,8.7,0,0,1-3,.51h-.23c-.31,0-.65,0-1-.06l-1-.12q-1-.16-1.89-.36L45,29.29a27.17,27.17,0,0,1-4.14-1.38l-.12-.05A32.89,32.89,0,0,1,37,26l.21.16A33.33,33.33,0,0,0,40.65,28a42.79,42.79,0,0,0,4.06,1.64c1.18.42,2.43.8,3.7,1.13a34.57,34.57,0,0,0,5,.94h0c.27,0,.55.07.82.09h.06l.92,0h1c.21,0,.4,0,.58,0H57l.4,0,.14,0,.08,0h.07a.5.5,0,0,0,.33-.1,5.89,5.89,0,0,0,1.41-1.73,8.82,8.82,0,0,0,.89-2.37,11.43,11.43,0,0,0,.18-1.29,8.7,8.7,0,0,0,0-1.25,5.6,5.6,0,0,0-.26-1.13,4.11,4.11,0,0,0-.25-.57,4.59,4.59,0,0,0-.33-.52.24.24,0,0,0-.11-.09.36.36,0,0,0-.28-.12m-2.33,7.36a.32.32,0,0,1-.16,0,.35.35,0,0,1-.19-.22.36.36,0,0,1,0-.27,11.44,11.44,0,0,0,.79-1.75,8.47,8.47,0,0,0,.45-2.1,7.47,7.47,0,0,0-.07-1.42.34.34,0,0,1,.07-.24.43.43,0,0,1,.27-.15.38.38,0,0,1,.27.1.33.33,0,0,1,.12.25,8.92,8.92,0,0,1-1.25,5.64.35.35,0,0,1-.33.2"/></g></g></g></svg>