<svg xmlns="http://www.w3.org/2000/svg" viewBox="0 0 78 78"><defs><style>.cls-1{fill:#e8c11a;}.cls-2{fill:#e74e3f;}.cls-3{fill:#ff8a98;}.cls-4{fill:#8bd5c4;}.cls-5{fill:#fff;opacity:0.2;isolation:isolate;}.cls-6{fill:none;}</style></defs><g id="圖層_2" data-name="圖層 2"><g id="圖層_1-2" data-name="圖層 1"><g id="Group_4394" data-name="Group 4394"><path id="Path_9802" data-name="Path 9802" class="cls-1" d="M71.2,66.68c0,1.95-14.42,3.53-32.2,3.53S6.8,68.63,6.8,66.68,21.22,63.14,39,63.14,71.2,64.72,71.2,66.68Z"/><g id="Group_4127" data-name="Group 4127"><g id="Group_4126" data-name="Group 4126"><path id="Rectangle_1196" data-name="Rectangle 1196" class="cls-2" d="M23.85,46.85h31.7a9.76,9.76,0,0,1,9.76,9.76h0a9.77,9.77,0,0,1-9.76,9.77H23.85a9.77,9.77,0,0,1-9.76-9.77h0A9.76,9.76,0,0,1,23.85,46.85Z"/><path id="Rectangle_1197" data-name="Rectangle 1197" class="cls-3" d="M28.65,27.32H50.74a9.76,9.76,0,0,1,9.77,9.76h0a9.77,9.77,0,0,1-9.77,9.77H28.65a9.77,9.77,0,0,1-9.76-9.77h0A9.76,9.76,0,0,1,28.65,27.32Z"/><path id="Rectangle_1198" data-name="Rectangle 1198" class="cls-4" d="M33.45,7.79H45.94a9.77,9.77,0,0,1,9.77,9.76h0a9.77,9.77,0,0,1-9.77,9.77H33.45a9.76,9.76,0,0,1-9.76-9.77h0A9.76,9.76,0,0,1,33.45,7.79Z"/></g><path id="Path_9803" data-name="Path 9803" class="cls-5" d="M42.48,51.61a1.8,1.8,0,0,1-1.8,1.8H22.53a1.82,1.82,0,0,1-1.8-1.8h0a1.81,1.81,0,0,1,1.8-1.81H40.68A1.8,1.8,0,0,1,42.48,51.61Z"/><path id="Path_9804" data-name="Path 9804" class="cls-5" d="M47.67,31.83a1.8,1.8,0,0,1-1.8,1.8H27.72a1.8,1.8,0,0,1-1.8-1.8h0a1.81,1.81,0,0,1,1.8-1.8H45.87a1.81,1.81,0,0,1,1.8,1.8Z"/><path id="Path_9805" data-name="Path 9805" class="cls-5" d="M42.89,12.51a1.8,1.8,0,0,1-1.8,1.8H30.62a1.8,1.8,0,0,1-1.8-1.8h0a1.81,1.81,0,0,1,1.8-1.8H41.09a1.8,1.8,0,0,1,1.8,1.8Z"/></g></g><rect class="cls-6" width="78" height="78"/></g></g></svg>