<svg xmlns="http://www.w3.org/2000/svg" viewBox="0 0 83 83"><defs><style>.cls-1{fill:none;stroke:#f14336;stroke-miterlimit:10;stroke-width:3px;}.cls-2{fill:#f14336;}.cls-3{fill:#d32e2a;}</style></defs><g id="圖層_2" data-name="圖層 2"><g id="圖層_1-2" data-name="圖層 1"><circle class="cls-1" cx="41.5" cy="41.5" r="40"/><g id="圖層_2-2" data-name="圖層 2"><g id="圖層_1-2-2" data-name="圖層 1-2"><path class="cls-2" d="M23.25,32.15V59.63H19.94a2.24,2.24,0,0,1-2.24-2.24h0V28.11l3.62.1Z"/><path class="cls-3" d="M65.3,28.11V57.39a2.24,2.24,0,0,1-2.24,2.24H59.75V32.15l1.83-4.32Z"/><path class="cls-2" d="M65.3,25.61v2.5l-5.55,4L41.5,45.46,23.25,32.15l-5.55-4v-2.5a2.24,2.24,0,0,1,2.24-2.24h1.3L41.5,38.13,61.76,23.37h1.3A2.24,2.24,0,0,1,65.3,25.61Z"/><polygon class="cls-3" points="23.25 32.15 17.7 31.29 17.7 28.11 23.25 32.15"/></g></g></g></g></svg>