<svg xmlns="http://www.w3.org/2000/svg" viewBox="0 0 48.31 45.13"><defs><style>.cls-1{fill:#e85d84;stroke:#fff;stroke-miterlimit:10;stroke-width:0.5px;}</style></defs><g id="圖層_2" data-name="圖層 2"><g id="圖層_1-2" data-name="圖層 1"><path id="Path_6749" data-name="Path 6749" class="cls-1" d="M17.53,9.39a1.4,1.4,0,0,0,2.75-.54h0a1.4,1.4,0,0,0-1.65-1.09l-.13,0A1.4,1.4,0,0,0,17.53,9.39Z"/><path id="Path_6750" data-name="Path 6750" class="cls-1" d="M47.71,29C40.08,6.77,40.61,8.29,40.58,8.21A7.19,7.19,0,0,0,36.35,4.3C36.08,4.21,20.74.62,20.3.46a4.73,4.73,0,0,0-4.58,1L2.58,13.58A7.18,7.18,0,0,0,.25,18.89V40.31A4.56,4.56,0,0,0,4.8,44.88H32.93a4.55,4.55,0,0,0,4.55-4.57V38.24l7.84-3.36A4.55,4.55,0,0,0,47.71,29ZM32.93,42.08H4.8A1.77,1.77,0,0,1,3.05,40.3V18.88a4.46,4.46,0,0,1,1.42-3.25c11.26-10.36,4.3-3.9,13.19-12.1a1.79,1.79,0,0,1,1.74-.4c.57.17-.43-.65,13.86,12.5a4.42,4.42,0,0,1,1.42,3.25V40.3a1.77,1.77,0,0,1-1.75,1.78ZM44.21,32.3l-6.73,2.88V18.88a7.21,7.21,0,0,0-2.32-5.3l-9.79-9L35.5,7A4.3,4.3,0,0,1,38,9.28c7.61,22.14,7.1,20.66,7.13,20.73a1.74,1.74,0,0,1-.9,2.29Z"/><path id="Path_6751" data-name="Path 6751" class="cls-1" d="M22.84,17.55A1.39,1.39,0,0,0,21,18.3h0L14.19,34.55a1.4,1.4,0,0,0,.75,1.83,1.45,1.45,0,0,0,.54.11,1.41,1.41,0,0,0,1.3-.86l6.81-16.25a1.4,1.4,0,0,0-.74-1.83Z"/><path id="Path_6752" data-name="Path 6752" class="cls-1" d="M16.28,21.58a4.69,4.69,0,0,0-4.41-4.9,4.7,4.7,0,0,0-4.42,4.9,4.68,4.68,0,0,0,4.42,4.9,4.68,4.68,0,0,0,4.41-4.9Zm-4.41,2.1a1.93,1.93,0,0,1-1.62-2.1,2,2,0,0,1,1.62-2.1,2,2,0,0,1,1.61,2.1,1.94,1.94,0,0,1-1.61,2.11Z"/><path id="Path_6753" data-name="Path 6753" class="cls-1" d="M26,27.79a4.68,4.68,0,0,0-4.41,4.9A4.67,4.67,0,0,0,26,37.59a4.67,4.67,0,0,0,4.41-4.9A4.68,4.68,0,0,0,26,27.79Zm0,7a1.93,1.93,0,0,1-1.61-2.1A1.94,1.94,0,0,1,26,30.59a1.94,1.94,0,0,1,1.61,2.1A1.94,1.94,0,0,1,26,34.8Z"/></g></g></svg>