<svg xmlns="http://www.w3.org/2000/svg" viewBox="0 0 37.13 44.95"><defs><style>.cls-1{fill:#5b5b5b;}</style></defs><g id="圖層_2" data-name="圖層 2"><g id="圖層_1-2" data-name="圖層 1"><g id="Group_2674" data-name="Group 2674"><path id="Path_7557" data-name="Path 7557" class="cls-1" d="M36.85,10.06,27.07.29A.94.94,0,0,0,26.38,0H2.93A2.93,2.93,0,0,0,0,2.93V42A2.93,2.93,0,0,0,2.93,45H34.2A2.93,2.93,0,0,0,37.13,42V10.75A1,1,0,0,0,36.85,10.06Zm-29,1.66V7.82H23.45v3.9ZM35.18,42a1,1,0,0,1-1,1H2.93a1,1,0,0,1-1-1V2.93a1,1,0,0,1,1-1H23.45V5.86H6.84a1,1,0,0,0-1,1V12.7a1,1,0,0,0,1,1H35.18V42Zm0-30.3H25.41V2H26l9.2,9.2v.57Z"/><path id="Path_7558" data-name="Path 7558" class="cls-1" d="M6.84,19.55H18.57a1,1,0,0,0,1-1,1,1,0,0,0-1-1H6.84a1,1,0,0,0,0,2Z"/><path id="Path_7559" data-name="Path 7559" class="cls-1" d="M6.84,31.27H18.57a1,1,0,0,0,0-1.95H6.84a1,1,0,1,0,0,1.95Z"/><path id="Path_7560" data-name="Path 7560" class="cls-1" d="M5.86,24.43a1,1,0,0,0,1,1H30.29a1,1,0,0,0,1-1,1,1,0,0,0-1-1H6.84a1,1,0,0,0-1,1Z"/><path id="Path_7561" data-name="Path 7561" class="cls-1" d="M30.29,35.18H6.84a1,1,0,0,0,0,2H30.29a1,1,0,1,0,0-2Z"/></g></g></g></svg>