<svg xmlns="http://www.w3.org/2000/svg" viewBox="0 0 116 116"><defs><style>.cls-1{fill:#c0c4cc;}.cls-2{fill:none;}</style></defs><g id="圖層_2" data-name="圖層 2"><g id="圖層_1-2" data-name="圖層 1"><path class="cls-1" d="M103.2,12.8H90.88V4.58a4.11,4.11,0,1,0-8.22,0V12.8H33.34V4.58a4.11,4.11,0,0,0-8.22,0V12.8H12.8A12.32,12.32,0,0,0,.47,25.12V103.2A12.33,12.33,0,0,0,12.8,115.53h90.4a12.33,12.33,0,0,0,12.33-12.33V25.12A12.32,12.32,0,0,0,103.2,12.8Zm4.11,90.4a4.11,4.11,0,0,1-4.11,4.11H12.8a4.11,4.11,0,0,1-4.11-4.11V49.78h98.62Zm0-61.64H8.69V25.12A4.11,4.11,0,0,1,12.8,21H25.12v8.22a4.11,4.11,0,0,0,8.22,0V21H82.66v8.22a4.11,4.11,0,1,0,8.22,0V21H103.2a4.11,4.11,0,0,1,4.11,4.11V41.56Z"/><path class="cls-1" d="M33.34,58H25.12a4.11,4.11,0,1,0,0,8.22h8.22a4.11,4.11,0,0,0,0-8.22Z"/><path class="cls-1" d="M62.11,58H53.89a4.11,4.11,0,0,0,0,8.22h8.22a4.11,4.11,0,0,0,0-8.22Z"/><path class="cls-1" d="M90.88,58H82.66a4.11,4.11,0,1,0,0,8.22h8.22a4.11,4.11,0,1,0,0-8.22Z"/><path class="cls-1" d="M33.34,74.44H25.12a4.11,4.11,0,1,0,0,8.22h8.22a4.11,4.11,0,1,0,0-8.22Z"/><path class="cls-1" d="M62.11,74.44H53.89a4.11,4.11,0,0,0,0,8.22h8.22a4.11,4.11,0,0,0,0-8.22Z"/><path class="cls-1" d="M90.88,74.44H82.66a4.11,4.11,0,1,0,0,8.22h8.22a4.11,4.11,0,1,0,0-8.22Z"/><path class="cls-1" d="M33.34,90.88H25.12a4.11,4.11,0,1,0,0,8.22h8.22a4.11,4.11,0,1,0,0-8.22Z"/><path class="cls-1" d="M62.11,90.88H53.89a4.11,4.11,0,0,0,0,8.22h8.22a4.11,4.11,0,0,0,0-8.22Z"/><path class="cls-1" d="M90.88,90.88H82.66a4.11,4.11,0,1,0,0,8.22h8.22a4.11,4.11,0,1,0,0-8.22Z"/><rect class="cls-2" width="116" height="116"/></g></g></svg>