<svg xmlns="http://www.w3.org/2000/svg" viewBox="0 0 116 116"><defs><style>.cls-1{fill:none;}.cls-2{fill:#c0c4cc;}</style></defs><g id="圖層_2" data-name="圖層 2"><g id="圖層_1-2" data-name="圖層 1"><rect class="cls-1" width="116" height="116"/><path class="cls-2" d="M10.9,114.56a5.21,5.21,0,0,1-3.68-8.89L53.71,59.18,4.85,10.33A5.2,5.2,0,0,1,12.21,3L68.43,59.18,14.58,113A5.19,5.19,0,0,1,10.9,114.56Z"/><path class="cls-2" d="M55.14,114.56a5.21,5.21,0,0,1-3.68-8.89L98,59.18,49.1,10.33A5.2,5.2,0,0,1,56.46,3l56.21,56.21L58.82,113A5.17,5.17,0,0,1,55.14,114.56Z"/></g></g></svg>