<svg xmlns="http://www.w3.org/2000/svg" viewBox="0 0 78 78"><defs><style>.cls-1{fill:none;}.cls-2{fill:#ffd431;}.cls-11,.cls-13,.cls-3,.cls-9{fill:#feb700;}.cls-3{opacity:0.5;}.cls-10,.cls-11,.cls-13,.cls-3{isolation:isolate;}.cls-4{fill:#6c4023;}.cls-5{fill:#fff;}.cls-6{fill:#e989ae;}.cls-7{fill:#d86f00;}.cls-8{fill:#ed7900;}.cls-10{fill:#fff9d2;}.cls-10,.cls-13{opacity:0.4;}.cls-11{opacity:0.3;}.cls-12{fill:gold;}</style></defs><g id="圖層_2" data-name="圖層 2"><g id="圖層_1-2" data-name="圖層 1"><rect class="cls-1" width="78" height="78"/><g id="Group_4551" data-name="Group 4551"><path id="Path_9752" data-name="Path 9752" class="cls-2" d="M54.87,35.25c.35-1.36,4.13-4.76,4.87-6.09h0a13.65,13.65,0,0,0-1-16.85,13.92,13.92,0,0,0-3.79-3,11.65,11.65,0,0,0-2.21-.94c-1.06-.3.15-1.42.32-1.25-.92-.88-3.08.17-3.08.17s-.78-.42.25-1.42a25.77,25.77,0,0,0-8.08,3.42A13.62,13.62,0,0,0,35,23c.14,3.2,1.62,6.88,2.54,10.34,1.25,4.72,1.45,9-4.17,11.21-5,1.92-11.58.92-16.12-1.64a14.66,14.66,0,0,1-5.13-4.71,18.29,18.29,0,0,1-2.42-6.71C-2.06,52.31,7.79,72.12,33.15,72.13c40.1,0,24.38-28.67,24.38-28.67S54.13,38.15,54.87,35.25Z"/><path id="Path_9753" data-name="Path 9753" class="cls-3" d="M61.65,17.63C61.41,24,56.83,28,56.89,28.85c.08,1.08,1.11.9,2.24,1.15a6.1,6.1,0,0,0,.61-.83,0,0,0,0,1,0,0,13.62,13.62,0,0,0,1.9-11.52Z"/><g id="Group_4109" data-name="Group 4109"><path id="Path_9754" data-name="Path 9754" class="cls-4" d="M57,19.33a2,2,0,1,1-1.93-2.51A2.28,2.28,0,0,1,57,19.33Z"/><path id="Path_9755" data-name="Path 9755" class="cls-5" d="M55.07,18.62a.75.75,0,1,1-.72-.93A.84.84,0,0,1,55.07,18.62Z"/></g><path id="Path_9756" data-name="Path 9756" class="cls-6" d="M56.53,23.36c0,.33-.8.6-1.79.6S53,23.69,53,23.36s.8-.6,1.79-.6S56.53,23,56.53,23.36Z"/><path id="Path_9757" data-name="Path 9757" class="cls-7" d="M73,23.36a15.17,15.17,0,0,1-5.45.42,7,7,0,0,1-2.72-1.17A15.1,15.1,0,0,0,61.41,24a5.46,5.46,0,0,1-.68,1.14,13.38,13.38,0,0,1-2.09,2.23c-.65.51-1.69.57-1.75,1.45C56.73,31.26,61,32,62.45,32,73.92,31.4,73.66,24.86,73,23.36Z"/><path id="Path_9758" data-name="Path 9758" class="cls-8" d="M61.82,18.27c.58,1.08.66,2.18,1.69,2.87a7.34,7.34,0,0,0,3.64,1.32,15,15,0,0,0,5.38-.37c.88,1.42.54,4.06-.34,5.4-1.7,2.59-6.49,3.5-9.33,3.63-1.51.08-5.87.27-6-2.14,0-.88,1-1.38,1.59-2a13.45,13.45,0,0,0,1.88-2.44C61.58,22.74,61.82,18.27,61.82,18.27Z"/><path id="Path_9759" data-name="Path 9759" class="cls-9" d="M33.15,72.13c40.1,0,24.38-28.66,24.38-28.66s-3.4-5.32-2.66-8.22a3,3,0,0,1,.34-.7h0c-2,2.69-1.14,5.83,0,8.66.38.92.79,1.83,1.14,2.69,1.16,2.78,2.29,6.86.68,9.61C51.92,64.25,26.28,71,9,55.35a24,24,0,0,1-3.34-4.1c-.2-.29-.51-.79-.87-1.31C5.5,62.66,15.62,72.13,33.15,72.13Z"/><g id="Group_4110" data-name="Group 4110"><path id="Path_9760" data-name="Path 9760" class="cls-9" d="M32.39,68.57C17.46,68.57,7.91,61.69,5,51.78,6.51,63.57,16.48,72.13,33.15,72.13c29.09,0,28.8-15.08,26.45-23.37C60.76,57.19,57.66,68.57,32.39,68.57Z"/></g><path id="Path_9761" data-name="Path 9761" class="cls-9" d="M51.88,8.53c.21,0,.27-.07.46-.13a1.29,1.29,0,0,1,.39,0c-1.06-.31.15-1.42.33-1.25l-.05,0a1.66,1.66,0,0,0-1.15.5C51.6,7.87,51.38,8.44,51.88,8.53Z"/><path id="Path_9762" data-name="Path 9762" class="cls-9" d="M49.16,7.84c.19.11.6-.35.8-.55,0,0-.75-.44.26-1.42h0a3.38,3.38,0,0,0-.77.83C49.33,6.88,48.9,7.68,49.16,7.84Z"/><path id="Path_9763" data-name="Path 9763" class="cls-10" d="M36.26,20.49A3.66,3.66,0,0,0,37.43,23c1.48,1.34,2.68.06,3.34-1.32,1.06-2.24,1.48-3.83,2.88-5.67,3.61-4.75,1.61-5.34.26-5.39-2.56-.09-5.11,2.52-6.36,4.75A9.56,9.56,0,0,0,36.26,20.49Z"/><path id="Path_9764" data-name="Path 9764" class="cls-11" d="M40.41,46a9.71,9.71,0,0,0-2.81,1.3c-6.81,4-16.78,2.44-20.36.59-.19,1.06,1.37,3.65,4.66,3.66,0,.47-3.61.17-4.67-.45-.64,2.76,4.08,4.61,5.8,4.67-.83.42-3.16-.2-4.35-.94-.13.86.12,3.71,3.7,5.65,6.1,3.3,14.34,3.13,19.46-1.71a14,14,0,0,0,3.28-4.46,8.59,8.59,0,0,0,.3-5.21,4.47,4.47,0,0,0-3.3-3A3.67,3.67,0,0,0,40.41,46Z"/><path id="Path_9765" data-name="Path 9765" class="cls-12" d="M39.74,45a10.35,10.35,0,0,0-2.8,1.3c-6.82,4-16.78,2.44-20.37.6-.18,1,1.37,3.64,4.66,3.65,0,.47-3.6.17-4.67-.45-.64,2.77,4.09,4.61,5.8,4.68-.82.42-3.15-.2-4.34-.95-.13.86.12,3.72,3.7,5.66,6.1,3.3,14.33,3.12,19.45-1.72a13.83,13.83,0,0,0,3.28-4.45,8.55,8.55,0,0,0,.3-5.22,4.44,4.44,0,0,0-3.3-3A3.66,3.66,0,0,0,39.74,45Z"/><path id="Path_9767" data-name="Path 9767" class="cls-13" d="M44.76,48.12a4.47,4.47,0,0,0-3.3-3,3.7,3.7,0,0,0-1.72,0,10.21,10.21,0,0,0-2.8,1.3c-.47.27-.94.52-1.43.74a4.91,4.91,0,0,0,.08.86c.2,1,.86,2,.7,3.09a5.77,5.77,0,0,1-1.75,2.9,13.67,13.67,0,0,1-8.14,3.54,12,12,0,0,1-5.8-.84A6.71,6.71,0,0,1,18,53.91c-.12.92.2,3.7,3.71,5.6,6.1,3.3,14.33,3.13,19.45-1.71a13.87,13.87,0,0,0,3.28-4.46A8.55,8.55,0,0,0,44.76,48.12Z"/><path id="Path_9768" data-name="Path 9768" class="cls-13" d="M41.46,45.07a3.7,3.7,0,0,0-1.72,0c-1,.21,2.49,7.7-3.88,11.35A14.15,14.15,0,0,1,25.7,59.09a12.49,12.49,0,0,1-4.87-.9c-.47-.19-1.13-.66-1.78-1a7.7,7.7,0,0,0,2.67,2.27c6.1,3.3,14.34,3.13,19.46-1.71a14,14,0,0,0,3.28-4.46,8.59,8.59,0,0,0,.3-5.21A4.47,4.47,0,0,0,41.46,45.07Z"/><path id="Path_9769" data-name="Path 9769" class="cls-13" d="M22.32,54.79a.21.21,0,0,1,0-.06c0-.13-4.78-2.55-5.74-4.47C16.09,52.92,20.6,54.7,22.32,54.79Z"/><path id="Path_9770" data-name="Path 9770" class="cls-13" d="M21.23,50.57c-.11-.13-.36-.15-.54-.19a7.31,7.31,0,0,1-4.08-3.45h0C16.38,48,17.94,50.56,21.23,50.57Z"/><path id="Path_9771" data-name="Path 9771" class="cls-10" d="M27.9,50c1.18,0,2.76-1.25,3.84-1,2,.49-.71,2.92-1.33,3.39a11.09,11.09,0,0,1-4.81,1.74c-.91.14-5,.09-3.7-2,.46-.73.7-.56.56-1.43-.06-.37-.64-.6-.15-1,.28-.25,1,0,1.35,0A35.36,35.36,0,0,0,27.9,50Z"/></g></g></g></svg>