<svg xmlns="http://www.w3.org/2000/svg" viewBox="0 0 80 80"><defs><style>.cls-1{fill:#f14336;}.cls-2{fill:#fff;}</style></defs><g id="圖層_2" data-name="圖層 2"><g id="圖層_1-2" data-name="圖層 1"><circle class="cls-1" cx="40" cy="40" r="40"/><g id="圖層_2-2" data-name="圖層 2"><g id="圖層_1-2-2" data-name="圖層 1-2"><path class="cls-2" d="M21.75,30.65V58.13H18.44a2.24,2.24,0,0,1-2.24-2.24h0V26.61l3.62.1Z"/><path class="cls-2" d="M63.8,26.61V55.89a2.24,2.24,0,0,1-2.24,2.24H58.25V30.65l1.83-4.32Z"/><path class="cls-2" d="M63.8,24.11v2.5l-5.55,4L40,44,21.75,30.65l-5.55-4v-2.5a2.24,2.24,0,0,1,2.24-2.24h1.3L40,36.63,60.26,21.87h1.3A2.24,2.24,0,0,1,63.8,24.11Z"/><polygon class="cls-2" points="21.75 30.65 16.2 29.79 16.2 26.61 21.75 30.65"/></g></g></g></g></svg>