<svg xmlns="http://www.w3.org/2000/svg" viewBox="0 0 78 78"><defs><style>.cls-1{fill:#ffd431;}.cls-2{fill:#fff5ab;}.cls-3{fill:#ec99b8;}.cls-4{fill:#50bef1;}.cls-5{fill:#0097d1;}.cls-6{fill:#fff;}.cls-7{fill:none;}</style></defs><g id="圖層_2" data-name="圖層 2"><g id="圖層_1-2" data-name="圖層 1"><g id="Group_4393" data-name="Group 4393"><g id="Group_4100" data-name="Group 4100"><path id="Path_9713" data-name="Path 9713" class="cls-1" d="M21.93,39a4.76,4.76,0,1,1-3.24-5.9A4.77,4.77,0,0,1,21.93,39Z"/><path id="Path_9714" data-name="Path 9714" class="cls-1" d="M20.07,48.4a4.76,4.76,0,1,1-3.24-5.9,4.77,4.77,0,0,1,3.24,5.9Z"/><path id="Path_9715" data-name="Path 9715" class="cls-1" d="M22.37,57.51a4.76,4.76,0,1,1-3.24-5.89,4.75,4.75,0,0,1,3.24,5.89Z"/><path id="Path_9716" data-name="Path 9716" class="cls-1" d="M29.77,63a4.75,4.75,0,1,1-3.23-5.9A4.76,4.76,0,0,1,29.77,63Z"/><path id="Path_9717" data-name="Path 9717" class="cls-1" d="M57.93,49.52a4.76,4.76,0,1,0,5.9-3.24,4.77,4.77,0,0,0-5.9,3.24Z"/><path id="Path_9718" data-name="Path 9718" class="cls-1" d="M54.48,58.42a4.75,4.75,0,1,0,5.9-3.23,4.75,4.75,0,0,0-5.9,3.23Z"/><path id="Path_9719" data-name="Path 9719" class="cls-1" d="M47.65,64.87a4.75,4.75,0,1,0,5.89-3.23,4.75,4.75,0,0,0-5.89,3.23Z"/><path id="Path_9720" data-name="Path 9720" class="cls-1" d="M38.44,65.55a4.76,4.76,0,1,0,5.9-3.24,4.76,4.76,0,0,0-5.9,3.24Z"/><path id="Path_9721" data-name="Path 9721" class="cls-1" d="M38.68,66.45a4.75,4.75,0,1,1-3.23-5.9,4.76,4.76,0,0,1,3.23,5.9Z"/></g><g id="Group_4101" data-name="Group 4101"><path id="Path_9722" data-name="Path 9722" class="cls-2" d="M22.88,39.2a4.52,4.52,0,1,1-3.1-5.59h0A4.51,4.51,0,0,1,22.88,39.2Z"/><path id="Path_9723" data-name="Path 9723" class="cls-2" d="M21.12,48.05A4.52,4.52,0,1,1,18,42.47h0A4.51,4.51,0,0,1,21.12,48.05Z"/><path id="Path_9724" data-name="Path 9724" class="cls-2" d="M23.31,56.67a4.51,4.51,0,1,1-3.1-5.58h0A4.51,4.51,0,0,1,23.31,56.67Z"/><path id="Path_9725" data-name="Path 9725" class="cls-2" d="M30.34,61.89a4.52,4.52,0,1,1-3.1-5.58h0A4.51,4.51,0,0,1,30.34,61.89Z"/><path id="Path_9726" data-name="Path 9726" class="cls-2" d="M57.05,49.15a4.52,4.52,0,1,0,5.61-3h0A4.5,4.5,0,0,0,57.05,49.15Z"/><path id="Path_9727" data-name="Path 9727" class="cls-2" d="M53.78,57.57a4.52,4.52,0,1,0,5.61-3.06h0A4.51,4.51,0,0,0,53.78,57.57Z"/><path id="Path_9728" data-name="Path 9728" class="cls-2" d="M47.3,63.66a4.52,4.52,0,1,0,5.61-3h0A4.51,4.51,0,0,0,47.3,63.66Z"/><path id="Path_9729" data-name="Path 9729" class="cls-2" d="M38.57,64.28a4.52,4.52,0,1,0,5.61-3.05h0A4.51,4.51,0,0,0,38.57,64.28Z"/><path id="Path_9730" data-name="Path 9730" class="cls-2" d="M38.8,65.14a4.52,4.52,0,1,1-3.1-5.59h0A4.51,4.51,0,0,1,38.8,65.14Z"/></g><path id="Path_9731" data-name="Path 9731" class="cls-3" d="M63.83,42.1c4.64-15.91-1.21-31.6-13-35.06S25.57,13.7,20.94,29.61,9.73,57.61,34,64.68,59.2,58,63.83,42.1ZM41.92,37.46C26.64,33,29.16,30.94,31.78,22S42.57,7.43,50,9.6,61.42,20.83,58.8,29.82s-1.6,12.09-16.88,7.64Z"/><path id="Path_9732" data-name="Path 9732" class="cls-4" d="M63.83,42.1c4.64-15.91-1.21-31.6-13-35.06S25.57,13.7,20.94,29.61,9.73,57.61,34,64.68,59.2,58,63.83,42.1ZM41.92,37.46C26.64,33,29.16,30.94,31.78,22S42.57,7.43,50,9.6,61.42,20.83,58.8,29.82s-1.6,12.09-16.88,7.64Z"/><g id="Group_4102" data-name="Group 4102"><path id="Path_9733" data-name="Path 9733" class="cls-5" d="M35.13,60.76C16.44,55.31,16.05,46.88,19,36,15.07,48.79,13.1,58.59,34,64.67S58.48,61.43,62,48.56C58.68,59.3,53.83,66.2,35.13,60.76Z"/></g><g id="Group_4103" data-name="Group 4103"><path id="Path_9734" data-name="Path 9734" class="cls-5" d="M50.31,8.64c-7.12-2.07-14.7,2.3-17.55,10.65C36.07,11.9,43.34,7.65,50,9.6S60.57,19,59.4,27.05C61.47,18.47,57.43,10.72,50.31,8.64Z"/><path id="Path_9735" data-name="Path 9735" class="cls-5" d="M63.83,42.1a39.35,39.35,0,0,0,1.32-6.44,42.38,42.38,0,0,1-1,4.43C59.55,55.8,58.61,69.35,34.66,62.37S17.19,43.47,21.77,27.75a39.45,39.45,0,0,1,1.51-4.28,39.22,39.22,0,0,0-2.34,6.14C16.3,45.52,9.73,57.6,34,64.67S59.2,58,63.83,42.1Z"/></g><g id="Group_4104" data-name="Group 4104"><path id="Path_9736" data-name="Path 9736" class="cls-2" d="M42.67,49.12c.16-.29,1.24-.8,1.49-1h0a3.22,3.22,0,0,0,.22-4.79,2.51,2.51,0,0,0-.44-.35c-.21-.14.13-.31.16-.26-.15-.26-.71-.17-.71-.17s-.14-.14.15-.3a5.86,5.86,0,0,0-2,.24,3.08,3.08,0,0,0-1.06.43,3.15,3.15,0,0,0-1.37,1.81,2.49,2.49,0,0,0-.09.37,13.08,13.08,0,0,0-.1,2.5c0,1.14-.27,2.13-1.68,2.25a4.71,4.71,0,0,1-3.52-1.43A3.51,3.51,0,0,1,32.83,47a4.28,4.28,0,0,1-.1-1.67c-4,3.92-3.09,9,2.62,10.69,9,2.63,7.37-4.85,7.37-4.85S42.31,49.72,42.67,49.12Z"/><path id="Path_9737" data-name="Path 9737" class="cls-6" d="M45.34,45.75c.06.28,0,.53.19.75a1.77,1.77,0,0,0,.73.54,3.83,3.83,0,0,0,1.24.27,1.37,1.37,0,0,1-.43,1.19,3,3,0,0,1-2.34.21c-.34-.08-1.34-.32-1.2-.88,0-.2.31-.24.48-.33a3.56,3.56,0,0,0,.59-.43A4,4,0,0,0,45.34,45.75Z"/></g></g><rect class="cls-7" width="78" height="78"/></g></g></svg>