<svg xmlns="http://www.w3.org/2000/svg" viewBox="0 0 78 78"><defs><style>.cls-1{fill:none;}.cls-2{fill:#ffbd7d;}.cls-3{fill:#ffcc94;}.cls-4{fill:#f06280;}.cls-5{fill:#f5a0b8;}.cls-6{fill:#f5b7c6;}</style></defs><g id="圖層_2" data-name="圖層 2"><g id="圖層_1-2" data-name="圖層 1"><rect class="cls-1" width="78" height="78"/><g id="Group_4543" data-name="Group 4543"><path id="Path_9872" data-name="Path 9872" class="cls-2" d="M22.5,24.4a9.88,9.88,0,0,0-5,1.14,4.92,4.92,0,0,0-2.15,2.54A5.52,5.52,0,0,0,15,30.21a6.24,6.24,0,0,0,.07,1c0,.11,0,.22,0,.32,0,.27.1.54.17.8a13.35,13.35,0,0,0,.83,2.4l.06.13.06.13c.24.51.5,1,.79,1.55l0,.07c.41.74.84,1.45,1.34,2.18l.06.07c.5.75,1,1.45,1.57,2.16.12.15.23.3.35.44.91,1.15,1.89,2.27,3,3.42a74,74,0,0,0,7.6,7l.09.07c2,1.6,4.09,3.18,6.28,4.68s4.18,2.74,6.36,4A74.38,74.38,0,0,0,57,66.82a40.57,40.57,0,0,0,7.19,1.84,21.39,21.39,0,0,0,3.3.26h.3a10.73,10.73,0,0,0,3.46-.57,5.77,5.77,0,0,0,2.53-1.67,5.21,5.21,0,0,0,1.17-3,9.39,9.39,0,0,0-.5-3.53A19,19,0,0,0,73,56.77a36,36,0,0,0-4.25-6,65.39,65.39,0,0,0-5.22-5.44A96.63,96.63,0,0,0,38.6,28.75a63.58,63.58,0,0,0-7-2.69,33.51,33.51,0,0,0-7.28-1.56c-.62-.06-1.23-.09-1.82-.09m3.19,6.19h0a10.4,10.4,0,0,1,1.93-.16h.72a26.88,26.88,0,0,1,6.34,1.31l.14,0-.09-.08a61.83,61.83,0,0,1,7.46,3.17A70.91,70.91,0,0,1,49.36,39,76.26,76.26,0,0,1,56.5,44.3a57.08,57.08,0,0,1,6.35,6.09l0-.09a29.73,29.73,0,0,1,4.18,6A11.57,11.57,0,0,1,68,59a7,7,0,0,1,.12,1.29,4.86,4.86,0,0,1-.16.94,4.37,4.37,0,0,1-.33.69,5,5,0,0,1-.48.55,4.26,4.26,0,0,1-2,.91,10.69,10.69,0,0,1-1.95.16h-.55a26.08,26.08,0,0,1-6.48-1.31l-.09,0a56.68,56.68,0,0,1-7.38-3.09l-1.14-.59c-2-1.07-4.07-2.27-6.08-3.57l-.07,0a78.9,78.9,0,0,1-7-5.13c-1-.87-2-1.73-2.9-2.55l-.07-.06-.1-.1L31.24,47l-.1-.09L31,46.8c-1.09-1-2-2-2.85-2.92l-.06-.06a.12.12,0,0,0-.07-.07,35.08,35.08,0,0,1-3.17-4.13l-.09-.13,0-.07-.12-.2-.05-.07L24.51,39l-.06-.08-.06-.12-.06-.1-.06-.1-.07-.12,0-.09-.08-.11,0-.08,0-.1L24,38.05a1.51,1.51,0,0,0-.09-.18l-.05-.07a.5.5,0,0,0,0-.13l-.19-.4a11.76,11.76,0,0,1-.78-2.3c0-.18-.06-.38-.08-.57v-.77c0-.17,0-.34.07-.52a2.58,2.58,0,0,1,.09-.35,3.6,3.6,0,0,1,.32-.69,3.5,3.5,0,0,1,.47-.54,5,5,0,0,1,.78-.52,6,6,0,0,1,1.18-.39l.07,0h0"/><path id="Path_9873" data-name="Path 9873" class="cls-3" d="M30.79,32.59a5.77,5.77,0,0,0-2.9.66,2.88,2.88,0,0,0-1.25,1.48,3.29,3.29,0,0,0-.2,1.24,3.64,3.64,0,0,0,0,.57,1.23,1.23,0,0,0,0,.19c0,.16.06.31.1.47a7.75,7.75,0,0,0,.49,1.4l0,.07,0,.08c.14.29.29.59.46.9.27.47.52.89.81,1.31s.63.9.95,1.3l.2.26c.52.66,1.1,1.31,1.75,2a44.88,44.88,0,0,0,4.42,4.08q1.78,1.44,3.72,2.77c1.18.81,2.42,1.59,3.7,2.33a43.24,43.24,0,0,0,7.77,3.62,23.34,23.34,0,0,0,4.18,1.08,12.45,12.45,0,0,0,1.93.15h.18a6.88,6.88,0,0,0,2-.33,3.44,3.44,0,0,0,1.48-1,3,3,0,0,0,.67-1.73,5.29,5.29,0,0,0-.29-2,9.92,9.92,0,0,0-.89-2A20.2,20.2,0,0,0,57.72,48a39.41,39.41,0,0,0-3-3.17,56.3,56.3,0,0,0-14.51-9.67,37.31,37.31,0,0,0-4.08-1.57,19.41,19.41,0,0,0-4.25-.91,9.63,9.63,0,0,0-1.06,0"/><path id="Path_9874" data-name="Path 9874" class="cls-4" d="M29.42,9.08a7,7,0,0,0-1.12.1A9.13,9.13,0,0,0,26,9.94a13.36,13.36,0,0,0-2.25,1.39,20.65,20.65,0,0,0-2.18,1.89,22.64,22.64,0,0,0-1.77,2A16.31,16.31,0,0,0,18.62,17l-.32-.09c-.68-.16-1.36-.33-2-.46-.92-.19-1.69-.33-2.4-.43a21.49,21.49,0,0,0-3.1-.26A12.78,12.78,0,0,0,8.62,16a8,8,0,0,0-2.4.77,6.52,6.52,0,0,0-2,1.61,5.13,5.13,0,0,0-1,2A8,8,0,0,0,3,22.62a13.44,13.44,0,0,0,.57,3.2A20.24,20.24,0,0,0,4.78,29a22.47,22.47,0,0,0,1.6,2.88A15.8,15.8,0,0,0,7.57,33.5c-.36.61-.74,1.21-1.12,1.82-.51.8-1,1.63-1.5,2.48a17,17,0,0,0-1.11,2.55,7.87,7.87,0,0,0-.42,2.54,5.28,5.28,0,0,0,.69,2.45A5.54,5.54,0,0,0,6,47.25a7.1,7.1,0,0,0,2.38.94,12.49,12.49,0,0,0,2.72.27,21.87,21.87,0,0,0,3.7-.35,22.52,22.52,0,0,0,3.71-.89,26.53,26.53,0,0,0,3.16,3.69A13.29,13.29,0,0,0,26.22,54a8.13,8.13,0,0,0,1.22.34,7.08,7.08,0,0,0,1.13.1h.2a5.61,5.61,0,0,0,2.4-.67,6.6,6.6,0,0,0,1.89-1.51,8.52,8.52,0,0,0,1.28-2,12.87,12.87,0,0,0,.74-2.11,18.55,18.55,0,0,0,.45-2.36A31.53,31.53,0,0,0,35.71,41a24.5,24.5,0,0,0,4.59-1.89,13,13,0,0,0,4.16-3.33A6.74,6.74,0,0,0,46,31a5.48,5.48,0,0,0-.74-2.19A7.72,7.72,0,0,0,43.79,27,13.32,13.32,0,0,0,42,25.71c-.66-.41-1.33-.79-2-1.14-1.22-.61-2.47-1.13-3.64-1.6l0-.81c-.07-1.57-.13-3.2-.35-4.78a13.37,13.37,0,0,0-1.57-5.08,6.32,6.32,0,0,0-3.83-3.07,4.69,4.69,0,0,0-1.18-.13"/><path id="Path_9875" data-name="Path 9875" class="cls-5" d="M28,15.77a5.12,5.12,0,0,0-.77.07,5.87,5.87,0,0,0-1.56.53,8.83,8.83,0,0,0-1.55.95,15.24,15.24,0,0,0-1.49,1.3A14.4,14.4,0,0,0,21.41,20a10.19,10.19,0,0,0-.83,1.23l-.21-.07-.11,0L19,20.84c-.65-.13-1.17-.22-1.65-.29a13.68,13.68,0,0,0-2.12-.18,9.11,9.11,0,0,0-1.47.12,5.4,5.4,0,0,0-1.65.53,4.48,4.48,0,0,0-1.38,1.1A3.68,3.68,0,0,0,10,23.46a5.41,5.41,0,0,0-.15,1.61,9.24,9.24,0,0,0,.39,2.2,14.22,14.22,0,0,0,.82,2.17,15.88,15.88,0,0,0,1.1,2A11.07,11.07,0,0,0,13,32.54l-.77,1.23,0,.06,0,.06c-.32.51-.65,1-.94,1.58a10.45,10.45,0,0,0-.77,1.75A5.44,5.44,0,0,0,10.16,39a3.66,3.66,0,0,0,.47,1.68A3.76,3.76,0,0,0,11.91,42a4.84,4.84,0,0,0,1.64.64,8.9,8.9,0,0,0,1.86.19A15.49,15.49,0,0,0,18,42.56,16.91,16.91,0,0,0,20.5,42a16.65,16.65,0,0,0,2.15,2.52,9,9,0,0,0,3.15,2.12,5.8,5.8,0,0,0,.84.24,5.12,5.12,0,0,0,.78.06h.14a3.82,3.82,0,0,0,1.65-.46,4.49,4.49,0,0,0,1.3-1A5.7,5.7,0,0,0,31.38,44a8.78,8.78,0,0,0,.51-1.44,12.52,12.52,0,0,0,.31-1.62,19.84,19.84,0,0,0,.12-3.27,16.91,16.91,0,0,0,3.15-1.28,8.93,8.93,0,0,0,2.85-2.29,4.66,4.66,0,0,0,1.07-3.28,4,4,0,0,0-.51-1.5,5.48,5.48,0,0,0-1-1.23,8.9,8.9,0,0,0-1.21-.91,12.65,12.65,0,0,0-1.39-.78,26.85,26.85,0,0,0-2.5-1.1v-.55c0-1.07-.09-2.18-.24-3.28A9.16,9.16,0,0,0,31.43,18a4.32,4.32,0,0,0-2.63-2.1,3.15,3.15,0,0,0-.81-.1"/><path id="Path_9876" data-name="Path 9876" class="cls-6" d="M11.27,39.53a.6.6,0,0,0,.6.6.6.6,0,1,0,0-1.2.6.6,0,0,0-.6.6h0"/><path id="Path_9877" data-name="Path 9877" class="cls-6" d="M14.22,40.71a.6.6,0,0,0,.6.6.6.6,0,0,0,0-1.2.6.6,0,0,0-.6.6h0"/><path id="Path_9878" data-name="Path 9878" class="cls-6" d="M18,40.56a.6.6,0,0,0,.6.6.6.6,0,1,0,0-1.2.6.6,0,0,0-.6.6h0"/><path id="Path_9879" data-name="Path 9879" class="cls-6" d="M21.18,40.31a.6.6,0,0,0,.6.6.6.6,0,0,0,0-1.2.6.6,0,0,0-.6.6h0"/><path id="Path_9880" data-name="Path 9880" class="cls-6" d="M22.75,42.51a.6.6,0,1,0,.6-.6.6.6,0,0,0-.6.6h0"/><path id="Path_9881" data-name="Path 9881" class="cls-6" d="M24.61,44.07a.6.6,0,0,0,1.2,0,.6.6,0,1,0-1.2,0h0"/><path id="Path_9882" data-name="Path 9882" class="cls-6" d="M27.55,45.21a.6.6,0,1,0,.6-.6.6.6,0,0,0-.6.6h0"/><path id="Path_9883" data-name="Path 9883" class="cls-6" d="M29.35,41.8a.6.6,0,1,0,.6-.6.6.6,0,0,0-.6.6h0"/><path id="Path_9884" data-name="Path 9884" class="cls-6" d="M29.9,37.85a.6.6,0,1,0,.6-.6.6.6,0,0,0-.6.6h0"/><path id="Path_9885" data-name="Path 9885" class="cls-6" d="M32.09,35.68a.6.6,0,0,0,.6.6.6.6,0,0,0,0-1.2.6.6,0,0,0-.6.6h0"/><path id="Path_9886" data-name="Path 9886" class="cls-6" d="M35,33.71a.6.6,0,0,0,.6.6.6.6,0,1,0,0-1.2.6.6,0,0,0-.6.6h0"/><path id="Path_9887" data-name="Path 9887" class="cls-6" d="M36.88,31.16a.6.6,0,1,0,.6-.6.6.6,0,0,0-.6.6h0"/><path id="Path_9888" data-name="Path 9888" class="cls-6" d="M35.38,28.91a.6.6,0,1,0,.6-.6.6.6,0,0,0-.6.6h0"/><path id="Path_9889" data-name="Path 9889" class="cls-6" d="M32,27.31a.6.6,0,1,0,.6-.6.6.6,0,0,0-.6.6h0"/><path id="Path_9890" data-name="Path 9890" class="cls-6" d="M30.74,25.49a.6.6,0,1,0,.6-.6.6.6,0,0,0-.6.6h0"/><path id="Path_9891" data-name="Path 9891" class="cls-6" d="M30,21.91a.6.6,0,1,0,1.2,0,.6.6,0,0,0-1.2,0h0"/><path id="Path_9892" data-name="Path 9892" class="cls-6" d="M28.82,18.54a.6.6,0,0,0,.6.6.6.6,0,0,0,0-1.2.6.6,0,0,0-.6.6h0"/><path id="Path_9893" data-name="Path 9893" class="cls-6" d="M26.52,17.25a.6.6,0,1,0,.6-.6.6.6,0,0,0-.6.6h0"/><path id="Path_9894" data-name="Path 9894" class="cls-6" d="M24.32,18.83a.6.6,0,0,0,1.2,0,.6.6,0,0,0-1.2,0h0"/><path id="Path_9895" data-name="Path 9895" class="cls-6" d="M21.86,21.65a.6.6,0,0,0,.6.6.59.59,0,0,0,.6-.6.6.6,0,0,0-.6-.6.6.6,0,0,0-.6.6h0"/><path id="Path_9896" data-name="Path 9896" class="cls-6" d="M19.05,23a.6.6,0,1,0,.6-.6.6.6,0,0,0-.6.6h0"/><path id="Path_9897" data-name="Path 9897" class="cls-6" d="M15,22.29a.6.6,0,0,0,1.2,0,.6.6,0,0,0-1.2,0h0"/><path id="Path_9898" data-name="Path 9898" class="cls-6" d="M12.1,22a.6.6,0,0,0,.6.6.6.6,0,0,0,0-1.2.6.6,0,0,0-.6.6h0"/><path id="Path_9899" data-name="Path 9899" class="cls-6" d="M10.94,24.47a.6.6,0,1,0,.6-.6.6.6,0,0,0-.6.6h0"/><path id="Path_9900" data-name="Path 9900" class="cls-6" d="M11.87,28a.6.6,0,1,0,.6-.6.6.6,0,0,0-.6.6h0"/><path id="Path_9901" data-name="Path 9901" class="cls-6" d="M13.43,30.48a.6.6,0,0,0,.6.6.6.6,0,0,0,0-1.2.6.6,0,0,0-.6.6h0"/><path id="Path_9902" data-name="Path 9902" class="cls-6" d="M14,32.93a.6.6,0,1,0,.6-.6.6.6,0,0,0-.6.6h0"/><path id="Path_9903" data-name="Path 9903" class="cls-6" d="M13,34.52a.6.6,0,1,0,.6-.6.6.6,0,0,0-.6.6h0"/><path id="Path_9904" data-name="Path 9904" class="cls-6" d="M11.46,37a.6.6,0,1,0,.6-.6.6.6,0,0,0-.6.6h0"/></g></g></g></svg>