<?xml version="1.0" encoding="utf-8"?>
<!-- Generator: Adobe Illustrator 25.0.1, SVG Export Plug-In . SVG Version: 6.00 Build 0)  -->
<svg version="1.1" id="圖層_1" xmlns="http://www.w3.org/2000/svg" xmlns:xlink="http://www.w3.org/1999/xlink" x="0px" y="0px"
	 viewBox="0 0 523.3 704.4" style="enable-background:new 0 0 523.3 704.4;" xml:space="preserve">
<style type="text/css">
	.st0{clip-path:url(#SVGID_2_);}
	.st1{fill:#F3E4EF;}
	.st2{fill:#EFC7CE;}
	.st3{fill:#FFFFFF;}
	.st4{fill:#F2F2F2;}
	.st5{fill:#EEF7FB;}
	.st6{fill:#E6EBEF;}
	.st7{fill:none;stroke:#D1ACBD;stroke-width:8.93;stroke-linecap:round;stroke-linejoin:round;stroke-dasharray:4.46,26.78;}
	.st8{fill:#795548;}
	.st9{clip-path:url(#SVGID_4_);}
	.st10{opacity:0.2;fill:#795548;enable-background:new    ;}
	.st11{fill:#FFCCBC;}
	.st12{clip-path:url(#SVGID_6_);}
	.st13{fill:#FFAB91;}
	.st14{clip-path:url(#SVGID_8_);}
	.st15{fill:none;stroke:#1D1D1B;stroke-width:0.68;stroke-linecap:round;stroke-linejoin:round;}
	.st16{fill:none;stroke:#1D1D1B;stroke-width:2.03;stroke-linecap:round;stroke-miterlimit:10;}
	.st17{fill:none;stroke:#FFAB91;stroke-width:1.35;stroke-miterlimit:10;}
	.st18{fill:none;stroke:#FFAB91;stroke-width:0.68;stroke-miterlimit:10;}
	.st19{clip-path:url(#SVGID_10_);}
	.st20{fill:#4DB6AC;}
	.st21{clip-path:url(#SVGID_12_);}
	.st22{opacity:0.2;fill:#56BAB0;enable-background:new    ;}
	.st23{fill:none;stroke:#1D1D1B;stroke-width:0.88;stroke-linecap:round;stroke-linejoin:round;}
	.st24{fill:none;stroke:#FFAB91;stroke-width:0.29;stroke-miterlimit:10;}
	.st25{fill:none;stroke:#FFAB91;stroke-width:0.58;stroke-miterlimit:10;}
	.st26{clip-path:url(#SVGID_14_);}
	.st27{fill:#805E51;}
</style>
<g id="圖層_2_1_">
	<g id="圖層_1-2">
		<g>
			<defs>
				<rect id="SVGID_1_" x="0.2" y="0.2" width="522" height="704.3"/>
			</defs>
			<clipPath id="SVGID_2_">
				<use xlink:href="#SVGID_1_"  style="overflow:visible;"/>
			</clipPath>
			<g class="st0">
				<g id="Group_3983">
					<g id="Group_3982">
						<g id="Group_3351">
							<rect id="Rectangle_1107" x="-351" class="st1" width="879.8" height="704.3"/>
							<g id="Group_3331">
								<rect id="Rectangle_1108" x="-351" class="st2" width="879.8" height="79.1"/>
							</g>
							<g id="Group_3332">
								<rect id="Rectangle_1109" x="-351" y="225.3" class="st2" width="879.8" height="79.1"/>
							</g>
							<g id="Group_3333">
								<rect id="Rectangle_1110" x="-351" y="437.3" class="st2" width="879.8" height="79.1"/>
							</g>
							<g id="Group_3334">
								<rect id="Rectangle_1111" x="-351" y="625.3" class="st2" width="879.8" height="79.1"/>
							</g>
							<g id="Group_3335">
								<path id="Path_9319" class="st3" d="M-64.9,55.4L-80.4,41c-3.9-3.6-4.1-9.7-0.5-13.7l0,0c3.6-3.9,9.7-4.1,13.6-0.5
									c0,0,0,0,0,0l2.2,2.1l2.1-2c3.9-3.7,10-3.5,13.7,0.3c0,0,0,0,0,0l0,0c3.7,3.9,3.5,10-0.3,13.7c0,0,0,0,0,0l0,0L-64.9,55.4z"
									/>
							</g>
							<g id="Group_3336">
								<path id="Path_9320" class="st3" d="M128.9,44.8l-15.6-14.5c-3.9-3.6-4.1-9.7-0.5-13.6l0,0c3.6-3.9,9.7-4.1,13.7-0.5l0,0
									l2.2,2.1l2.1-2c3.9-3.7,10-3.5,13.7,0.3s3.5,10-0.3,13.7l0,0l0,0L128.9,44.8z"/>
							</g>
							<g id="Group_3337">
								<path id="Path_9321" class="st3" d="M408.2,44.8l-15.5-14.5c-3.9-3.6-4.1-9.7-0.5-13.7c3.6-3.9,9.7-4.1,13.7-0.5l0,0
									l2.2,2.1l2.1-2c3.9-3.7,10-3.5,13.7,0.3c3.7,3.9,3.5,10-0.3,13.7l0,0L408.2,44.8z"/>
							</g>
							<g id="Group_3338">
								<path id="Path_9322" class="st3" d="M-65.3,279.9l-15.6-14.5c-3.9-3.6-4.1-9.7-0.5-13.7l0,0c3.6-3.9,9.7-4.1,13.7-0.5l0,0
									l2.2,2.1l2.1-2c3.9-3.7,10-3.5,13.7,0.3c3.7,3.9,3.5,10-0.3,13.7L-65.3,279.9z"/>
							</g>
							<g id="Group_3339">
								<path id="Path_9323" class="st3" d="M128.5,283.2l-15.6-14.5c-3.9-3.6-4.1-9.7-0.5-13.7c3.6-3.9,9.7-4.1,13.7-0.5l0,0l0,0
									l2.2,2.1l2.1-2c3.9-3.7,10-3.5,13.7,0.3s3.5,10-0.3,13.7L128.5,283.2z"/>
							</g>
							<g id="Group_3340">
								<path id="Path_9324" class="st3" d="M407.9,283.2l-15.6-14.5c-3.8-3.8-3.8-9.9-0.1-13.7c3.6-3.6,9.4-3.9,13.2-0.5l0,0
									l2.2,2.1l2.1-2c3.9-3.7,10-3.5,13.7,0.3c3.7,3.9,3.5,10-0.3,13.7l0,0L407.9,283.2z"/>
							</g>
							<g id="Group_3341">
								<path id="Path_9325" class="st3" d="M-65.3,497.4L-80.8,483c-3.9-3.6-4.1-9.7-0.5-13.7l0,0c3.6-3.9,9.7-4.1,13.7-0.5l0,0
									l2.2,2.1l2.1-2c3.9-3.7,9.9-3.5,13.6,0.3l0,0c3.7,3.9,3.5,10-0.3,13.7c0,0,0,0,0,0L-65.3,497.4z"/>
							</g>
							<g id="Group_3342">
								<path id="Path_9326" class="st3" d="M128.5,500.8l-15.6-14.5c-3.9-3.6-4.1-9.7-0.5-13.6l0,0c3.6-3.9,9.7-4.1,13.7-0.5l0,0
									l2.2,2.1l2.1-2c3.9-3.7,10-3.5,13.7,0.3c3.7,3.9,3.5,10-0.3,13.7l0,0L128.5,500.8z"/>
							</g>
							<g id="Group_3343">
								<path id="Path_9327" class="st3" d="M407.9,500.8l-15.6-14.5c-3.8-3.8-3.7-9.9,0.1-13.7c3.6-3.5,9.3-3.7,13.1-0.5l0,0
									l2.2,2.1l2.1-2c3.9-3.7,10-3.5,13.7,0.3s3.5,10-0.3,13.7l0,0L407.9,500.8z"/>
							</g>
							<g id="Group_3344">
								<path id="Path_9328" class="st3" d="M-65.3,687.4l-15.6-14.5c-3.9-3.6-4.1-9.7-0.5-13.7l0,0c3.6-3.9,9.7-4.1,13.7-0.5l0,0
									l2.2,2.1l2.1-2c3.9-3.7,10-3.5,13.7,0.3c0,0,0,0,0,0c3.7,3.9,3.5,10-0.3,13.7c0,0,0,0,0,0L-65.3,687.4z"/>
							</g>
							<g id="Group_3345">
								<path id="Path_9329" class="st3" d="M-271.1,60.4l-15.6-14.5c-3.9-3.6-4.1-9.7-0.5-13.7l0,0c3.6-3.9,9.7-4.1,13.6-0.5l0,0
									l2.2,2.1l2.1-2c3.9-3.7,10-3.5,13.7,0.3l0,0c3.7,3.9,3.5,10-0.3,13.7c0,0,0,0,0,0l0,0L-271.1,60.4z"/>
							</g>
							<g id="Group_3346">
								<path id="Path_9330" class="st3" d="M-271.5,284.8l-15.6-14.5c-3.9-3.6-4.1-9.7-0.5-13.7c0,0,0,0,0,0l0,0
									c3.6-3.9,9.7-4.1,13.7-0.5l2.2,2.1l2.1-2c3.9-3.7,10-3.5,13.7,0.3c0,0,0,0,0,0c3.7,3.9,3.5,10-0.3,13.7c0,0,0,0,0,0l0,0
									L-271.5,284.8z"/>
							</g>
							<g id="Group_3347">
								<path id="Path_9331" class="st3" d="M-271.5,502.4l-15.6-14.5c-3.9-3.6-4.1-9.7-0.5-13.7c0,0,0,0,0,0l0,0
									c3.6-3.9,9.7-4.1,13.6-0.5l0,0l2.2,2.1l2.1-2c3.9-3.7,10-3.6,13.7,0.3l0,0c3.7,3.9,3.5,10-0.3,13.7c0,0,0,0,0,0l0,0
									L-271.5,502.4z"/>
							</g>
							<g id="Group_3348">
								<path id="Path_9332" class="st3" d="M-271.5,692.3l-15.6-14.5c-3.9-3.6-4.1-9.7-0.5-13.7l0,0c3.6-3.9,9.7-4.1,13.6-0.5l0,0
									l2.2,2.1l2.1-2c3.9-3.7,10-3.5,13.7,0.3c0,0,0,0,0,0c3.7,3.9,3.6,10-0.3,13.7l0,0L-271.5,692.3z"/>
							</g>
							<g id="Group_3349">
								<path id="Path_9333" class="st3" d="M128.5,690.7l-15.6-14.5c-3.9-3.6-4.1-9.7-0.5-13.7c3.6-3.9,9.7-4.1,13.7-0.5l0,0
									l2.2,2.1l2.1-2c3.9-3.7,10-3.5,13.7,0.3c3.7,3.9,3.5,10-0.3,13.7L128.5,690.7z"/>
							</g>
							<g id="Group_3350">
								<path id="Path_9334" class="st3" d="M407.9,690.7l-15.6-14.5c-4-3.5-4.4-9.6-0.9-13.6c3.5-4,9.6-4.4,13.6-0.9
									c0.1,0.1,0.3,0.3,0.4,0.4l0,0l2.2,2.1l2.1-2c3.9-3.7,10-3.5,13.7,0.3s3.5,10-0.3,13.7l0,0L407.9,690.7z"/>
							</g>
						</g>
						<g id="Group_3356">
							<g id="Group_3352">
								<path id="Path_9335" class="st4" d="M118.1,517.5c0.2-1.2,0.3-2.3,0.3-3.5c0-13.7-11.1-24.8-24.8-24.8c-3.3,0-6.6,0.7-9.7,2
									c-4.1-9.6-14.7-16.5-27.2-16.5c-10.2,0-19.1,4.6-24.3,11.5c-13.5-5.2-28.7,1.4-34.2,14.8v67.4c2.4,0.9,4.9,1.3,7.4,1.3
									c4.3,0,8.6-1.3,12.2-3.7c4.6,8.6,14.7,14.5,26.2,14.5c8.7,0.1,17-3.4,22.9-9.8c9.7,11.1,26.5,12.2,37.5,2.6
									c4.7-4.1,7.8-9.8,8.8-15.9c11.8-1.2,20.9-9.9,20.9-20.4C134.1,527.9,127.4,520.3,118.1,517.5z"/>
								<path id="Path_9336" class="st5" d="M114.8,522.8c2-13.5-7.4-26.1-20.9-28.1c-4.5-0.7-9.1-0.1-13.3,1.7
									c-4.1-9.6-14.7-16.5-27.2-16.5c-10.2,0-19.1,4.6-24.3,11.5c-3.1-1.2-6.3-1.8-9.6-1.8c-8.4,0-16.3,4-21.3,10.7v74.2
									c5.6,1.1,11.4-0.1,16.2-3.3c4.7,8.6,14.7,14.5,26.3,14.5c8.7,0.1,17-3.4,22.9-9.8c9.6,11.1,26.5,12.3,37.5,2.6
									c4.7-4.1,7.9-9.8,8.8-16c11.7-1.2,20.9-9.9,20.9-20.4C130.8,533.2,124.1,525.5,114.8,522.8z"/>
							</g>
							<g id="Group_3353">
								<path id="Path_9337" class="st4" d="M425.7,548.6c0-9-6.7-16.7-16-19.5c0.2-1.2,0.3-2.3,0.3-3.5c0-13.7-11.1-24.8-24.8-24.8
									c-3.3,0-6.6,0.7-9.7,2c-4.1-9.6-14.7-16.5-27.2-16.5c-10.1,0-19.1,4.6-24.3,11.5c-13.7-5.3-29.1,1.5-34.4,15.2
									c-0.7,1.8-1.2,3.7-1.5,5.6c-1.1-0.1-2.2-0.2-3.3-0.2c-13,0-23.6,9.2-23.6,20.6c0,8.4,5.8,15.6,14,18.8c0,0.5-0.1,1-0.1,1.5
									c0,12.2,9.9,22.1,22.1,22.1l0,0c4.3,0,8.6-1.3,12.2-3.7c4.6,8.6,14.7,14.5,26.2,14.5c8.7,0.1,17-3.4,22.9-9.8
									c9.6,11.1,26.4,12.3,37.5,2.6c4.7-4.1,7.9-9.8,8.8-16C416.6,567.8,425.7,559.2,425.7,548.6z"/>
								<path id="Path_9338" class="st5" d="M422.4,553.8c0-9-6.7-16.7-16-19.5c0.2-1.2,0.3-2.3,0.3-3.5c0-13.7-11.1-24.8-24.8-24.8
									c0,0,0,0,0,0c-3.3,0-6.6,0.7-9.7,2c-4.1-9.6-14.7-16.5-27.2-16.5c-10.1,0-19.1,4.6-24.3,11.5c-13.7-5.3-29.1,1.5-34.4,15.2
									c-0.7,1.8-1.2,3.7-1.5,5.6c-1.1-0.1-2.2-0.2-3.3-0.2c-13,0-23.6,9.2-23.6,20.6c0,8.4,5.8,15.6,14,18.8c0,0.5-0.1,1-0.1,1.5
									c0,12.2,9.9,22.1,22.1,22.1c4.3,0,8.6-1.3,12.2-3.7c4.6,8.6,14.7,14.5,26.2,14.5c8.7,0.1,17-3.4,22.9-9.8
									c9.6,11.1,26.4,12.3,37.5,2.6c4.7-4.1,7.9-9.8,8.8-16C413.2,573.1,422.4,564.4,422.4,553.8z"/>
							</g>
							<g id="Group_3354">
								<path id="Path_9339" class="st4" d="M394.2,647c0-8.3-6.2-15.3-14.7-17.9c0.2-1.1,0.2-2.2,0.2-3.2
									c0-12.6-10.1-22.8-22.7-22.8c-3.1,0-6.1,0.6-9,1.8c-3.8-8.8-13.5-15.1-25-15.1c-9.3,0-17.5,4.2-22.3,10.5
									c-12.6-4.9-26.7,1.3-31.6,13.9c-0.6,1.7-1.1,3.4-1.4,5.2c-1-0.1-2-0.2-3-0.2c-12,0-21.7,8.5-21.7,18.9
									c0,7.7,5.3,14.3,12.9,17.2c0,0.5-0.1,0.9-0.1,1.4c0,11.2,9.1,20.3,20.3,20.3c4,0,7.9-1.2,11.2-3.4
									c4.3,7.9,13.5,13.4,24.1,13.4c8,0.1,15.6-3.2,21-9c8.9,10.2,24.3,11.3,34.5,2.4c4.4-3.8,7.2-9,8.1-14.7
									C385.8,664.7,394.2,656.7,394.2,647z"/>
								<path id="Path_9340" class="st5" d="M391.1,651.8c0-8.3-6.2-15.3-14.7-17.9c0.2-1.1,0.2-2.2,0.2-3.2
									c0-12.6-10.2-22.8-22.7-22.8c0,0,0,0,0,0l0,0c-3.1,0-6.1,0.6-8.9,1.8c-3.8-8.8-13.5-15.1-25-15.1c-9.3,0-17.5,4.2-22.3,10.5
									c-12.6-4.9-26.8,1.4-31.6,14c-0.6,1.7-1.1,3.4-1.4,5.1c-1-0.1-2-0.2-3-0.2c-12,0-21.7,8.5-21.7,18.9
									c0,7.7,5.3,14.3,12.8,17.2c0,0.5-0.1,0.9-0.1,1.4c0,11.2,9.1,20.3,20.2,20.3c0,0,0,0,0,0l0,0c4,0,7.9-1.2,11.2-3.4
									c4.3,7.9,13.5,13.4,24.1,13.4c8,0.1,15.6-3.2,21-9c8.9,10.2,24.3,11.3,34.5,2.4c4.4-3.8,7.2-9,8.1-14.7
									C382.7,669.5,391.1,661.5,391.1,651.8z"/>
							</g>
							<g id="Group_3355">
								<path id="Path_9341" class="st4" d="M100.3,567.8c0.2-1.1,0.3-2.2,0.3-3.2c0-12.6-10.2-22.8-22.7-22.8
									c-3.1,0-6.1,0.6-8.9,1.8c-3.8-8.8-13.5-15.1-25-15.1c-9.3,0-17.5,4.2-22.3,10.5c-7.8-3-16.7-1.8-23.4,3.3v73.4
									c3.6-0.2,7-1.3,10-3.3c4.3,7.9,13.5,13.4,24.1,13.4c8,0.1,15.6-3.2,21-9c8.9,10.2,24.3,11.3,34.5,2.4
									c4.4-3.8,7.2-9,8.1-14.7c10.8-1.1,19.2-9,19.2-18.8C115,577.4,108.9,570.4,100.3,567.8z"/>
								<path id="Path_9342" class="st5" d="M97.2,572.7c0.2-1.1,0.2-2.2,0.2-3.2c0-12.6-10.2-22.8-22.7-22.8
									c-3.1,0-6.1,0.6-8.9,1.8c-3.8-8.8-13.5-15.1-25-15.1c-9.3,0-17.5,4.2-22.3,10.5c-6.6-2.5-14-2-20.3,1.3v74.9
									c2.4-0.5,4.8-1.5,6.8-2.9c4.3,7.9,13.5,13.4,24.1,13.4c8,0.1,15.6-3.2,21-9c8.9,10.2,24.3,11.3,34.5,2.4
									c4.4-3.8,7.2-9,8.1-14.7c10.8-1.1,19.2-9.1,19.2-18.8C111.9,582.2,105.8,575.2,97.2,572.7z"/>
							</g>
						</g>
						<g id="Group_3357">
							<path id="Path_9343" class="st4" d="M127.7,704.3c0.1-0.4,0.2-0.9,0.3-1.3c16.3-1.6,28.9-13.7,28.9-28.3
								c0-12.5-9.3-23.1-22.2-27c0.2-1.6,0.4-3.2,0.4-4.9c0-19-15.4-34.4-34.4-34.4c-4.6,0-9.2,0.9-13.4,2.7
								c-5.7-13.3-20.4-22.8-37.7-22.8c-14.1,0-26.4,6.3-33.6,15.9c-4.2-1.6-8.8-2.5-13.3-2.5c-1.5,0-3,0.2-4.5,0.4v102.2H127.7z"/>
							<path id="Path_9344" class="st5" d="M139.9,704.3c7.5-5.2,12.4-13.3,12.4-22.3c0-12.5-9.3-23.1-22.2-27
								c0.2-1.6,0.4-3.2,0.4-4.9c0-19-15.4-34.4-34.3-34.4c0,0,0,0,0,0l0,0c-4.6,0-9.2,0.9-13.4,2.7C77,605.2,62.2,595.7,45,595.7
								c-14.1,0-26.4,6.3-33.6,15.9c-4.2-1.6-8.7-2.4-13.2-2.5v95.2L139.9,704.3z"/>
						</g>
						<g id="Group_3358">
							<path id="Path_9345" class="st4" d="M509.7,704.3c-1.1-11.5-10-21-22-24.5c0.2-1.6,0.4-3.3,0.4-4.9c0-19-15.4-34.3-34.3-34.3
								c0,0,0,0,0,0l0,0c-4.6,0-9.2,0.9-13.4,2.7c-5.7-13.3-20.4-22.8-37.7-22.8c-14.1,0-26.4,6.3-33.6,15.9
								c-19-7.3-40.4,2.1-47.7,21.2c-1,2.5-1.6,5-2,7.7c-1.5-0.2-3.1-0.3-4.6-0.3c-18,0-32.7,12.8-32.7,28.5c0,3.8,0.9,7.6,2.5,11
								L509.7,704.3z"/>
							<path id="Path_9346" class="st5" d="M503.2,704.3c-3.4-8.1-10.8-14.5-20.2-17.2c0.2-1.6,0.4-3.3,0.4-4.9
								c0-19-15.4-34.3-34.4-34.3l0,0c-4.6,0-9.2,0.9-13.4,2.7c-5.7-13.3-20.4-22.8-37.7-22.8c-14.1,0-26.4,6.3-33.6,15.9
								c-19-7.3-40.4,2.1-47.7,21.1c-1,2.5-1.7,5.1-2.1,7.7c-1.5-0.2-3.1-0.3-4.6-0.3c-18,0-32.7,12.8-32.7,28.5
								c0,1.2,0.1,2.5,0.3,3.7H503.2z"/>
						</g>
						<g id="Group_3359">
							<path id="Path_9347" class="st4" d="M-153.3,172.5c0-9-6.7-16.7-16-19.4c0.2-1.2,0.3-2.3,0.3-3.5c0-13.7-11.1-24.8-24.8-24.8
								l0,0c-3.3,0-6.6,0.7-9.7,2c-4.1-9.6-14.7-16.5-27.2-16.5c-10.1,0-19.1,4.6-24.3,11.5c-3.1-1.2-6.3-1.8-9.6-1.8
								c-13.1,0-24.3,9.6-26.3,22.6c-1.1-0.1-2.2-0.2-3.3-0.2c-13,0-23.6,9.2-23.6,20.6c0,8.4,5.7,15.6,14,18.8c0,0.5-0.1,1-0.1,1.5
								c0,12.2,9.9,22,22.1,22l0,0c4.3,0,8.6-1.3,12.2-3.6c4.6,8.6,14.6,14.5,26.2,14.5c8.7,0.1,17-3.4,22.9-9.8
								c5,5.8,12.4,9.2,20.1,9.1c13.1,0,24.3-9.6,26.3-22.5C-162.4,191.8-153.3,183.1-153.3,172.5z"/>
							<path id="Path_9348" class="st5" d="M-156.6,177.8c0-9-6.7-16.7-16-19.5c0.2-1.2,0.3-2.3,0.3-3.5c0-13.7-11.1-24.8-24.8-24.8
								l0,0c-3.3,0-6.6,0.7-9.7,2c-4.1-9.6-14.7-16.5-27.2-16.5c-10.1,0-19.1,4.6-24.3,11.5c-3.1-1.2-6.3-1.8-9.6-1.8
								c-13.1,0-24.3,9.6-26.3,22.6c-1.1-0.1-2.2-0.2-3.3-0.2c-13,0-23.6,9.2-23.6,20.6c0,8.4,5.8,15.6,14,18.8c0,0.5-0.1,1-0.1,1.5
								c0,12.2,9.9,22.1,22.1,22.1l0,0l0,0c4.3,0,8.6-1.3,12.1-3.7c4.7,8.6,14.7,14.6,26.2,14.6c8.7,0.1,17-3.4,22.9-9.8
								c5.1,5.8,12.4,9.1,20.1,9.1c13.1,0,24.3-9.6,26.3-22.5C-165.8,197.1-156.6,188.4-156.6,177.8z"/>
						</g>
						<g id="Group_3360">
							<path id="Path_9349" class="st4" d="M-193,351.5c0-6.3-4.6-11.6-11.1-13.5c0.1-0.8,0.2-1.6,0.2-2.4c0-9.5-7.7-17.2-17.2-17.2
								c-2.3,0-4.6,0.5-6.7,1.4c-2.9-6.7-10.2-11.5-18.9-11.5c-6.6-0.1-12.8,2.9-16.8,8c-2.1-0.8-4.4-1.2-6.7-1.2
								c-9.1,0-16.9,6.7-18.3,15.7c-0.8-0.1-1.5-0.2-2.3-0.2c-9,0-16.4,6.4-16.4,14.3c0,5.8,4,10.8,9.7,13c0,0.3,0,0.7,0,1
								c0,8.5,6.8,15.3,15.3,15.4c0,0,0,0,0,0c3,0,5.9-0.9,8.4-2.5c3.2,6,10.2,10.1,18.2,10.1c6,0.1,11.8-2.4,15.9-6.8
								c3.5,4,8.6,6.3,13.9,6.3c9.1,0,16.9-6.6,18.2-15.6C-199.4,364.8-193,358.8-193,351.5z"/>
							<path id="Path_9350" class="st5" d="M-195.3,355.2c0-6.3-4.6-11.6-11.1-13.5c0.1-0.8,0.2-1.6,0.2-2.5
								c0-9.5-7.7-17.2-17.2-17.2c-2.3,0-4.6,0.5-6.7,1.4c-2.9-6.7-10.2-11.4-18.9-11.4c-6.6-0.1-12.8,2.8-16.8,8
								c-2.1-0.8-4.4-1.2-6.7-1.2c-9.1,0-16.9,6.7-18.3,15.7c-0.8-0.1-1.5-0.2-2.3-0.2c-9,0-16.4,6.4-16.4,14.3c0,5.8,4,10.8,9.7,13
								c0,0.4,0,0.7,0,1c0,8.5,6.9,15.3,15.3,15.3l0,0l0,0c3,0,5.9-0.9,8.4-2.5c3.2,6,10.2,10.1,18.2,10.1c6,0.1,11.8-2.4,15.9-6.8
								c3.5,4,8.6,6.4,13.9,6.4c9.1,0,16.9-6.6,18.2-15.6C-201.7,368.5-195.3,362.5-195.3,355.2z"/>
						</g>
						<g id="Group_3361">
							<path id="Path_9351" class="st4" d="M-19.1,209c0-6.3-4.6-11.6-11.1-13.5c0.1-0.8,0.2-1.6,0.2-2.4c0-9.5-7.7-17.2-17.2-17.2
								c0,0,0,0,0,0l0,0c-2.3,0-4.6,0.5-6.7,1.4c-2.8-6.7-10.2-11.4-18.8-11.4c-6.6-0.1-12.8,2.9-16.8,8c-2.1-0.8-4.4-1.2-6.7-1.2
								c-9.1,0-16.9,6.6-18.3,15.6c-0.8-0.1-1.5-0.2-2.3-0.2c-9,0-16.4,6.4-16.4,14.3c0,5.8,4,10.8,9.7,13c0,0.3,0,0.7,0,1
								c0,8.5,6.9,15.3,15.3,15.3c3,0,5.9-0.9,8.4-2.5c3.2,6,10.2,10.1,18.2,10.1c6,0.1,11.7-2.3,15.8-6.7c3.5,4,8.6,6.4,13.9,6.4
								c9.1,0,16.9-6.6,18.3-15.6C-25.4,222.4-19.1,216.3-19.1,209z"/>
							<path id="Path_9352" class="st5" d="M-21.4,212.7c0-6.3-4.6-11.6-11.1-13.5c0.1-0.8,0.2-1.6,0.2-2.4
								c0-9.5-7.7-17.2-17.2-17.2l0,0c-2.3,0-4.6,0.5-6.7,1.4c-2.9-6.7-10.2-11.4-18.9-11.4c-6.6-0.1-12.8,2.9-16.8,8
								c-2.1-0.8-4.4-1.3-6.7-1.3c-9.1,0-16.9,6.7-18.3,15.7c-0.8-0.1-1.5-0.2-2.3-0.2c-9,0-16.4,6.4-16.4,14.3c0,5.8,4,10.8,9.7,13
								c0,0.3,0,0.7,0,1c0,8.5,6.9,15.3,15.3,15.3l0,0c3,0,5.9-0.9,8.4-2.5c3.2,6,10.2,10.1,18.2,10.1c6,0.1,11.7-2.3,15.8-6.7
								c3.5,4,8.6,6.4,13.9,6.4c9.1,0,16.9-6.6,18.2-15.6C-27.8,226-21.4,220-21.4,212.7z"/>
						</g>
						<g id="Group_3362">
							<path id="Path_9353" class="st6" d="M528.5,354.5c-0.6,1.5-2.1,2.6-3.8,2.6c-30.9,32.9-23.2,118.4-18.1,175.1
								c1.1,12.8,2.2,25,2.7,34.8c0.8,15.2-2.6,26.7-9.9,34.3c-6.5,6.7-15.6,10-27.3,10c-4.7,0-9.3-0.5-13.9-1.5
								c0.3,13.8-3.5,25.2-11.5,33.8C429.1,662.6,395.4,665,368,665c-10,0-19.7-0.4-29-0.7c-7.9-0.3-15.2-0.6-21.7-0.6
								c-32.9,0-37.6,17.9-41.1,31l-1.6,6.4c-0.5,2-2.4,3.3-4.5,3.1c-2.1-0.2-3.6-1.9-3.7-4c0-1-0.1-1.9-0.2-2.9
								c-0.2-1.2-0.3-1.8-0.3-1.8c-2-11.9-10.3-31.9-42.7-31.9c-6.4,0-13.8,0.3-21.7,0.6c-9.4,0.3-19,0.7-29.1,0.7
								c-27.4,0-61.1-2.4-78.6-21.3c-8-8.6-11.8-20-11.5-33.8c-4.6,1-9.2,1.5-13.9,1.5c-11.7,0-20.9-3.4-27.3-10
								c-7.3-7.6-10.7-19.1-9.9-34.3c0.5-9.8,1.6-21.9,2.7-34.8c5.1-56.8,12.7-142.2-18.1-175.1c-1.7,0-3.2-1-3.8-2.6
								c-0.3-1.5-0.3-3.1,0-4.6c0.6-1.5,2.1-2.6,3.8-2.6C46.6,314.5,39,229,33.9,172.2c-1.2-12.8-2.2-25-2.7-34.8
								c-0.8-15.2,2.6-26.7,9.9-34.3c6.5-6.7,15.6-10,27.3-10c4.7,0,9.3,0.5,13.9,1.5C82,80.8,85.9,69.4,93.9,60.8
								c17.5-18.9,51.2-21.3,78.6-21.3c10,0,19.7,0.4,29.1,0.7c7.8,0.3,15.2,0.6,21.7,0.6c24,0,38-10.5,41.5-31.4l1.2-6
								c0.4-1.9,2.1-3.3,4-3.3h0.1c1.9,0,3.6,1.3,4,3.2l1.4,6.1c0,0.1,0,0.1,0,0.2c2.4,14.2,11.6,31.2,41.9,31.2
								c6.4,0,13.8-0.3,21.7-0.6c9.4-0.3,19-0.7,29-0.7c27.4,0,61.1,2.4,78.6,21.4c8,8.6,11.8,20,11.5,33.8c4.6-1,9.2-1.5,13.9-1.5
								c11.7,0,20.9,3.4,27.3,10c7.3,7.6,10.7,19.1,9.9,34.3c-0.5,9.8-1.6,21.9-2.7,34.8c-5.1,56.8-12.7,142.2,18.2,175.1
								c1.7,0,3.2,1,3.8,2.6c0.3,0.7,0.4,1.5,0.2,2.3C528.8,353,528.7,353.8,528.5,354.5z"/>
							<path id="Path_9354" class="st3" d="M513.7,349.8H512c-40.9,40.6-20.6,159.9-17.8,214.4c2.8,55.2-51.6,37.3-51.6,37.3
								c7,69.8-89.2,55.2-136.6,55.2c-36.7,0-41.9,21.6-45.4,34.7l-1.5,5.9c0-1.2-0.1-2.3-0.3-3.5c-0.2-1.4-0.3-1.8-0.3-1.8
								c-1.9-11-10.1-35.3-46.8-35.3c-47.4,0-143.5,14.6-136.6-55.2c0,0-54.3,17.9-51.6-37.3C26.5,509.7,46.9,390.4,6,349.8H4.2
								c0.3-0.3,0.6-0.5,0.8-0.8c-0.3-0.3-0.6-0.5-0.8-0.8h1.7c41-40.6,20.6-159.9,17.8-214.4C21,78.6,75.3,96.5,75.3,96.5
								c-7-69.8,89.2-55.2,136.6-55.2c36.7,0,43.8-23.7,45.7-34.7l1.2-6l1.4,6.1c1.9,11,9.3,34.7,46,34.7
								c47.4,0,143.5-14.6,136.6,55.2c0,0,54.3-17.9,51.6,37.3c-2.8,54.5-23.1,173.7,17.8,214.4h1.7c-0.3,0.3-0.6,0.5-0.8,0.8
								C513.2,349.2,513.4,349.5,513.7,349.8z"/>
							<path id="Path_9355" class="st7" d="M498.6,349.7H497c-38.5,38.2-19.3,150.2-16.8,201.4c2.6,51.9-48.5,35.1-48.5,35.1
								c6.5,65.6-83.9,51.9-128.5,51.9c-34.5,0-39.4,20.3-42.7,32.6l-1.4,5.5c0-1.1-0.1-2.2-0.3-3.2l-0.3-1.7
								c-1.8-10.3-9.6-33.2-44-33.2c-44.6,0-135,13.7-128.5-51.9c0,0-51.1,16.8-48.5-35.1C40.3,500,59.5,387.9,21,349.7h-1.6
								l0.8-0.8l-0.8-0.8H21C59.5,310.1,40.3,198,37.7,146.8c-2.6-51.9,48.5-35.1,48.5-35.1c-6.6-65.6,83.9-51.9,128.5-51.9
								c34.5,0,41.2-22.3,43-32.6l1.1-5.7l1.3,5.7c1.8,10.3,8.8,32.5,43.3,32.5c44.6,0,135-13.7,128.5,51.9c0,0,51.1-16.8,48.5,35.1
								c-2.6,51.2-21.8,163.2,16.7,201.4h1.6l-0.8,0.8L498.6,349.7z"/>
						</g>
						<g id="Group_3981">
							<path id="Path_9585" class="st4" d="M349.5,704.3c0.1-1,0.2-2.1,0.2-3.1c0-12.5-9.3-23.1-22.2-27c0.2-1.6,0.4-3.3,0.4-4.9
								c0-19-15.4-34.3-34.4-34.3l0,0c-4.6,0-9.2,0.9-13.4,2.7c-5.7-13.3-20.4-22.8-37.7-22.8c-14.1,0-26.4,6.3-33.6,15.9
								c-19-7.4-40.3,2.1-47.7,21.1c-1,2.5-1.7,5.1-2.1,7.8c-1.5-0.2-3.1-0.3-4.6-0.3c-18.1,0-32.7,12.8-32.7,28.5
								c0,6,2.2,11.9,6.1,16.5L349.5,704.3z"/>
							<path id="Path_9586" class="st5" d="M344.7,704.3c-1.8-10.7-10.4-19.4-21.8-22.8c0.2-1.6,0.4-3.3,0.4-4.9
								c0-19-15.4-34.3-34.4-34.3l0,0c-4.6,0-9.2,0.9-13.4,2.7c-5.7-13.3-20.4-22.8-37.7-22.8c-14.1,0-26.4,6.3-33.6,15.9
								c-19-7.4-40.3,2.1-47.7,21c-1,2.5-1.7,5.1-2.1,7.8c-1.5-0.2-3.1-0.3-4.6-0.3c-18,0-32.7,12.8-32.7,28.5
								c0,3.2,0.6,6.3,1.8,9.2H344.7z"/>
						</g>
						<g id="Group_4010">
							<g id="Group_4009">
								<g id="Group_4008">
									<g id="Group_4007">
										<g id="Group_4006">
											<g id="Group_3997">
												<g id="Group_3988">
													<path id="Path_9587" class="st8" d="M461.2,513.2l-25.8-11.6c-0.9-0.4-1.7-0.7-2.6-1c-6-1.5-11.5,1.1-16.4,5.2
														c-12.4,10.3-28.2,38.1-15,56.3c8.9,12.2-3.1,21.2-6.3,25.1c-17.9,21.9-12.7,51.1,11.5,37.8l6.2-20.4H447
														c13-1.2,19.6-10.9,15.4-22l6.5-23.5c0,0,18.6-12.8,7.8-32.1C473.1,520.9,467.7,516,461.2,513.2z"/>
													<g>
														<defs>
															<path id="SVGID_3_" d="M461.2,513.2l-25.8-11.6c-0.9-0.4-1.7-0.7-2.6-1c-6-1.5-11.5,1.1-16.4,5.2
																c-12.4,10.3-28.2,38.1-15,56.3c8.9,12.2-3.1,21.2-6.3,25.1c-17.9,21.9-12.7,51.1,11.5,37.8l6.2-20.4H447
																c13-1.2,19.6-10.9,15.4-22l6.5-23.5c0,0,18.6-12.8,7.8-32.1C473.1,520.9,467.7,516,461.2,513.2z"/>
														</defs>
														<clipPath id="SVGID_4_">
															<use xlink:href="#SVGID_3_"  style="overflow:visible;"/>
														</clipPath>
														<g class="st9">
															<g id="Group_3987">
																<path id="Path_9588" class="st10" d="M454.1,530.2c0,0,20.9-6,21.8,9.5c0.9,15.1-6.1,18.5-6.1,18.5L454.1,530.2z"/>
															</g>
														</g>
													</g>
												</g>
												<g id="Group_3990">
													<path id="Path_9590" class="st11" d="M447,604.6l-28.5,0.1v-34.8H447V604.6z"/>
													<g>
														<defs>
															<polygon id="SVGID_5_" points="447,604.6 418.5,604.7 418.5,569.9 447,569.9 															"/>
														</defs>
														<clipPath id="SVGID_6_">
															<use xlink:href="#SVGID_5_"  style="overflow:visible;"/>
														</clipPath>
														<g class="st12">
															<g id="Group_3989">
																<path id="Path_9591" class="st13" d="M417.3,565.5c0,0,0.2,33,33.3,35.6l-0.4-44.6L417.3,565.5z"/>
															</g>
														</g>
													</g>
												</g>
												<g id="Group_3992">
													<path id="Path_9593" class="st11" d="M416.3,561.2c3.6,26.5,27.4,31.6,30.7,31.1c2.4-0.3,5-1.8,7.1-2.9
														c11.3-6,16.1-12.8,16.1-27.1c0-23-7.7-30.5-15.9-32.1c0,0-10.1-10.7-21.7-4.2C416.3,535,416.3,561.2,416.3,561.2z"/>
													<g>
														<defs>
															<path id="SVGID_7_" d="M416.3,561.2c3.6,26.5,27.4,31.6,30.7,31.1c2.4-0.3,5-1.8,7.1-2.9c11.3-6,16.1-12.8,16.1-27.1
																c0-23-7.7-30.5-15.9-32.1c0,0-10.1-10.7-21.7-4.2C416.3,535,416.3,561.2,416.3,561.2z"/>
														</defs>
														<clipPath id="SVGID_8_">
															<use xlink:href="#SVGID_7_"  style="overflow:visible;"/>
														</clipPath>
														<g class="st14">
															<g id="Group_3991">
																<path id="Path_9594" class="st13" d="M471.6,572.7c0,0-9.7,1.1-13.4,14.3l0,0l20.7-1.4l-8.7-12.8"/>
															</g>
														</g>
													</g>
												</g>
												<path id="Path_9596" class="st15" d="M457.8,544.3c2.1-3.1,9.1-2.6,10.7,2"/>
												<path id="Path_9597" class="st15" d="M447,543.9c0,0-8.4-5.1-16.1,1.9"/>
												<g id="Group_3993">
													<path id="Path_9598" class="st15" d="M432.8,558.8c2.2,1.6,7.9,3.4,11.6,0.1"/>
													<path id="Path_9599" class="st16" d="M426.9,558.2c0,0,2.9,3,5.9,0.6"/>
												</g>
												<g id="Group_3994">
													<path id="Path_9600" class="st15" d="M466.7,559.5c-1.9,1.1-6.6,2.3-9.6,0"/>
													<path id="Path_9601" class="st16" d="M471.6,559.2c0,0-2.4,2-4.9,0.4"/>
												</g>
												<path id="Path_9602" class="st11" d="M419.1,573.3L419.1,573.3c-4.9,0-8.8-3.9-8.8-8.8l0,0l0,0v-10c0-2,1.6-3.6,3.6-3.6
													l0,0h12.8v14.8C426.7,570,423.3,573.3,419.1,573.3L419.1,573.3z"/>
												<path id="Path_9603" class="st8" d="M454.3,530.2c0,0-5.1-3.9-11.6,1.3c0,0,0.2-9.2,5.3-8.8S454.3,530.2,454.3,530.2z"
													/>
												<path id="Path_9604" class="st10" d="M454.3,530.2c0,0-5.1-3.9-11.6,1.3c0,0,0.2-9.2,5.3-8.8S454.3,530.2,454.3,530.2z"
													/>
												<path id="Path_9605" class="st8" d="M408.7,559.7c20.2,3.5,32.6-26.7,35.9-31.5c3.5-5,9.6,2,9.6,2v-14.7l-44.2-3.2
													L408.7,559.7z"/>
												<path id="Path_9606" class="st17" d="M454.1,554.8l0.2,14h-4.1"/>
												<path id="Path_9607" class="st18" d="M445.2,574.4c0,0,6.8,4.9,12.7,0"/>
												<path id="Path_9608" class="st11" d="M418.5,604.7l25.9,18.8l2.6-21l-17.2-0.6L418.5,604.7z"/>
												<g id="Group_3996">
													<path id="Path_9609" class="st11" d="M478.9,600.9l11.7,62.7c1.8,9.5-4.5,18.7-14.1,20.5c-1.5,0.3-3,0.4-4.5,0.2
														c-11.8-0.8-26.1-6.9-36.6-27.7l39.7-1.2L478.9,600.9z"/>
													<g>
														<defs>
															<path id="SVGID_9_" d="M478.9,600.9l11.7,62.7c1.8,9.5-4.5,18.7-14.1,20.5c-1.5,0.3-3,0.4-4.5,0.2
																c-11.8-0.8-26.1-6.9-36.6-27.7l39.7-1.2L478.9,600.9z"/>
														</defs>
														<clipPath id="SVGID_10_">
															<use xlink:href="#SVGID_9_"  style="overflow:visible;"/>
														</clipPath>
														<g class="st19">
															<g id="Group_3995">
																<path id="Path_9610" class="st13" d="M488.2,638.2c0,0-3.6,37.8-30.8,50.4c-32.8,15.2-2.9-0.8-2.9-0.8l12.3-47.7
																	L488.2,638.2z"/>
															</g>
														</g>
													</g>
												</g>
											</g>
											<g id="Group_4000">
												<g id="Group_3999">
													<path id="Path_9612" class="st20" d="M480.2,637.8c-8.7,16.7-29.8,34.3-41.6,28.5s-9.5-32.6-1.2-49.6
														s24.7-26,36.5-20.2S492.7,613.8,480.2,637.8z"/>
													<g>
														<defs>
															<path id="SVGID_11_" d="M480.2,637.8c-8.7,16.7-29.8,34.3-41.6,28.5s-9.5-32.6-1.2-49.6s24.7-26,36.5-20.2
																S492.7,613.8,480.2,637.8z"/>
														</defs>
														<clipPath id="SVGID_12_">
															<use xlink:href="#SVGID_11_"  style="overflow:visible;"/>
														</clipPath>
														<g class="st21">
															<g id="Group_3998">
																<path id="Path_9613" class="st22" d="M462.7,612.7c0,0,8.2,7,19.5,0.3c0,0-4.6,38.3-44.1,55.8
																	c0,0,23,12.9,36.4-13.4s24-39.1,11.5-50.7S462.7,612.7,462.7,612.7z"/>
															</g>
														</g>
													</g>
												</g>
												<path id="Path_9615" class="st13" d="M456.9,602.6l2.6,12.1l14.7-1.2l-2-4.2L456.9,602.6z"/>
												<path id="Path_9616" class="st11" d="M487.8,603.5c-4,10.2-15.1,13.8-24.5,9.2s-12.2-13.3-4.5-24.7
													c4.5-13.6,13.5-20,25.6-14.1C496.3,579.7,497,589.2,487.8,603.5z"/>
											</g>
											<g id="Group_4001">
												<path id="Path_9617" class="st23" d="M477.6,599.9c-2.6,2.1-6.5,0.6-6.7-2.1"/>
											</g>
											<g id="Group_4002">
												<path id="Path_9618" class="st23" d="M459.9,590.7c-0.5,1.9,0.8,3.9,2.7,4.3c0.7,0.2,1.4,0.1,2-0.1"/>
											</g>
											<path id="Path_9619" class="st24" d="M459.5,599.3c0,0,1.5,5.4,8.6,5.3"/>
											<path id="Path_9620" class="st11" d="M484,609.8L484,609.8c2.3,1.1,5,0.1,6.1-2.2c0,0,0,0,0,0l0,0l1.3-2.7
												c1-2,0.1-4.4-1.9-5.3c0,0,0,0-0.1,0l0,0l-4-1.9l-3.3,6.9C481.2,606.5,482,608.9,484,609.8z"/>
											<path id="Path_9621" class="st25" d="M463,598.3c0,0,1.2,1.5,2.2,1.6"/>
											<path id="Path_9622" class="st8" d="M477.4,576.2c0-3-3-4.3-5.3-3.9c-3.9,0.7-6.8,3.8-6.3,8c0.5,4.4,3.8,6,6.3,6.7
												c0.7,0.2,1.4-0.2,1.6-1c0,0,0,0,0,0c0.1-0.3,0.1-0.6-0.1-0.9c-0.9-2-1.6-4.7,0.8-5.4C476,579.2,477.2,577.8,477.4,576.2z
												"/>
											<g id="Group_4004">
												<path id="Path_9623" class="st11" d="M433.2,627.8c0,0-10.6,4.7-6.8,19.6c0,0-0.9,11.2,4.5,16.6l4-11.3l-0.4-7.8
													c-0.1-1.2-0.3-2.4-0.9-3.6C432.7,639.2,431.2,634.4,433.2,627.8z"/>
												<g>
													<defs>
														<path id="SVGID_13_" d="M433.2,627.8c0,0-10.6,4.7-6.8,19.6c0,0-0.9,11.2,4.5,16.6l4-11.3l-0.4-7.8
															c-0.1-1.2-0.3-2.4-0.9-3.6C432.7,639.2,431.2,634.4,433.2,627.8z"/>
													</defs>
													<clipPath id="SVGID_14_">
														<use xlink:href="#SVGID_13_"  style="overflow:visible;"/>
													</clipPath>
													<g class="st26">
														<g id="Group_4003">
															<path id="Path_9624" class="st13" d="M424.6,630.2c0,0,6.5,29.2,14,36.2l0,0L412.7,639L424.6,630.2z"/>
														</g>
													</g>
												</g>
											</g>
											<g id="Group_4005">
												<path id="Path_9626" class="st11" d="M443.4,691.5c-0.3,0-0.7,0-1,0c-12-1.5-46-13.2-49.3-69.8
													c-0.5-9.4,5.9-19.1,14.8-18.3c9.5,0.8,11.5,8.6,12.7,17.9c0,0.3,1.3,6.3,6.1,20.9c7,21.2,13.1,24.7,18.4,25.3
													c11.8-7.9,20-5.7,35.1-29.6c2.9-4.7,6.6-21.8,6.6-21.8c7.2,5.6,4.2,16.3,1.3,24.1c-7.1,19-11.6,27.3-19,35.3
													C464.6,680.3,453.2,691.5,443.4,691.5z"/>
											</g>
										</g>
										<path id="Path_9627" class="st27" d="M438.9,526c0,0-8.1,26.8-34,31.2c0,0,18.5-4.1,26.6-27.8c0,0-11.3,18.7-26.6,19.5
											c0,0,16.6-7.2,21.8-20.6c0,0,0,6-2.8,8.8c0,0,9.2-9.3,11.5-16.1c-1.8,7.7-4.7,15.2-8.5,22.1
											C426.9,543.1,436.1,533,438.9,526z"/>
										<path id="Path_9628" class="st20" d="M419,571.3c0,0.8-0.6,1.4-1.4,1.4l0,0c-0.8,0-1.4-0.6-1.4-1.4l0,0
											c0-0.8,0.6-1.4,1.4-1.4l0,0C418.4,569.9,419,570.5,419,571.3L419,571.3z"/>
									</g>
								</g>
							</g>
						</g>
					</g>
				</g>
			</g>
		</g>
	</g>
</g>
</svg>
