<?xml version="1.0" encoding="utf-8"?>
<!-- Generator: Adobe Illustrator 25.0.1, SVG Export Plug-In . SVG Version: 6.00 Build 0)  -->
<svg version="1.1" id="圖層_1" xmlns="http://www.w3.org/2000/svg" xmlns:xlink="http://www.w3.org/1999/xlink" x="0px" y="0px"
	 viewBox="0 0 522.2 704.4" style="enable-background:new 0 0 522.2 704.4;" xml:space="preserve">
<style type="text/css">
	.st0{clip-path:url(#SVGID_2_);}
	.st1{fill:#B8E6E2;}
	.st2{fill:#9DBFE2;}
	.st3{fill:#FFFFFF;}
	.st4{fill:#F2F2F2;}
	.st5{fill:#EEF7FB;}
	.st6{fill:#E6EBEF;}
	.st7{fill:none;stroke:#B5C6D1;stroke-width:8.93;stroke-linecap:round;stroke-linejoin:round;stroke-dasharray:4.46,26.78;}
	.st8{fill:#E5A4A8;}
	.st9{fill:#E28E9C;}
	.st10{fill:#B78D7B;}
	.st11{fill:#BC8F67;}
	.st12{fill:#5B3724;}
	.st13{fill:#94CCEA;}
	.st14{fill:#C4DEEE;}
	.st15{fill:#68BFE6;}
	.st16{fill:#526277;}
	.st17{fill:#FBD491;}
	.st18{fill:#F8C48B;}
	.st19{fill:#BC9C82;}
	.st20{fill:#A28671;}
	.st21{fill:#987E6A;}
	.st22{fill:#BA9A80;}
	.st23{fill:#F7BC75;}
	.st24{fill:#F8C78C;}
	.st25{fill:#F9CA8D;}
	.st26{fill:#F6BA87;}
	.st27{fill:#E7AF80;}
	.st28{fill:#FFEBBC;}
	.st29{fill:#AF917A;}
	.st30{fill:#E8A990;}
	.st31{fill:#443A2D;}
	.st32{fill:#9B806C;}
	.st33{fill:#826C5A;}
	.st34{fill:#655244;}
	.st35{fill:#D6AE95;}
	.st36{fill:#846E5C;}
	.st37{fill:#766150;}
	.st38{fill:#8F705A;}
	.st39{fill:#816450;}
	.st40{fill:#AE9380;}
	.st41{fill:#F3A880;}
	.st42{fill:#937A66;}
	.st43{fill:#AA9175;}
	.st44{fill:#927D65;}
	.st45{fill:#8F7361;}
	.st46{fill:#7B6151;}
	.st47{fill:#A98874;}
	.st48{fill:#8D7160;}
	.st49{fill:#CEB792;}
	.st50{fill:#C0AC89;}
	.st51{fill:#A77F5A;}
	.st52{fill:#CA9D87;}
</style>
<g id="圖層_2_1_">
	<g id="圖層_1-2">
		<g id="Group_3984">
			<g>
				<defs>
					<rect id="SVGID_1_" x="0.4" y="0.2" width="522" height="704.3"/>
				</defs>
				<clipPath id="SVGID_2_">
					<use xlink:href="#SVGID_1_"  style="overflow:visible;"/>
				</clipPath>
				<g class="st0">
					<g id="Group_3983">
						<g id="Group_3982">
							<g id="Group_3351">
								<rect id="Rectangle_1107" x="-350.8" class="st1" width="879.8" height="704.3"/>
								<g id="Group_3331">
									<rect id="Rectangle_1108" x="-350.8" class="st2" width="879.8" height="79.1"/>
								</g>
								<g id="Group_3332">
									<rect id="Rectangle_1109" x="-350.8" y="225.3" class="st2" width="879.8" height="79.1"/>
								</g>
								<g id="Group_3333">
									<rect id="Rectangle_1110" x="-350.8" y="437.3" class="st2" width="879.8" height="79.1"/>
								</g>
								<g id="Group_3334">
									<rect id="Rectangle_1111" x="-350.8" y="625.3" class="st2" width="879.8" height="79.1"/>
								</g>
								<g id="Group_3335">
									<path id="Path_9319" class="st3" d="M-64.7,55.4L-80.2,41c-3.9-3.6-4.1-9.7-0.5-13.7l0,0c3.6-3.9,9.7-4.1,13.6-0.5
										c0,0,0,0,0,0l2.2,2.1l2.1-2c3.9-3.7,10-3.5,13.7,0.3c0,0,0,0,0,0l0,0c3.7,3.9,3.5,10-0.3,13.7c0,0,0,0,0,0l0,0L-64.7,55.4z
										"/>
								</g>
								<g id="Group_3336">
									<path id="Path_9320" class="st3" d="M129.1,44.8l-15.6-14.5c-3.9-3.6-4.1-9.7-0.5-13.6l0,0c3.6-3.9,9.7-4.1,13.7-0.5l0,0
										l2.2,2.1l2.1-2c3.9-3.7,10-3.5,13.7,0.3s3.5,10-0.3,13.7l0,0l0,0L129.1,44.8z"/>
								</g>
								<g id="Group_3337">
									<path id="Path_9321" class="st3" d="M408.4,44.8l-15.5-14.5c-3.9-3.6-4.1-9.7-0.5-13.7c3.6-3.9,9.7-4.1,13.7-0.5l0,0
										l2.2,2.1l2.1-2c3.9-3.7,10-3.5,13.7,0.3c3.7,3.9,3.5,10-0.3,13.7l0,0L408.4,44.8z"/>
								</g>
								<g id="Group_3338">
									<path id="Path_9322" class="st3" d="M-65.1,279.9l-15.6-14.5c-3.9-3.6-4.1-9.7-0.5-13.7l0,0c3.6-3.9,9.7-4.1,13.7-0.5l0,0
										l2.2,2.1l2.1-2c3.9-3.7,10-3.5,13.7,0.3c3.7,3.9,3.5,10-0.3,13.7L-65.1,279.9z"/>
								</g>
								<g id="Group_3339">
									<path id="Path_9323" class="st3" d="M128.7,283.2l-15.6-14.5c-3.9-3.6-4.1-9.7-0.5-13.7c3.6-3.9,9.7-4.1,13.7-0.5l0,0l0,0
										l2.2,2.1l2.1-2c3.9-3.7,10-3.5,13.7,0.3s3.5,10-0.3,13.7L128.7,283.2z"/>
								</g>
								<g id="Group_3340">
									<path id="Path_9324" class="st3" d="M408.1,283.2l-15.6-14.5c-3.8-3.8-3.8-9.9-0.1-13.7c3.6-3.6,9.4-3.9,13.2-0.5l0,0
										l2.2,2.1l2.1-2c3.9-3.7,10-3.5,13.7,0.3c3.7,3.9,3.5,10-0.3,13.7l0,0L408.1,283.2z"/>
								</g>
								<g id="Group_3341">
									<path id="Path_9325" class="st3" d="M-65.1,497.4L-80.6,483c-3.9-3.6-4.1-9.7-0.5-13.7l0,0c3.6-3.9,9.7-4.1,13.7-0.5l0,0
										l2.2,2.1l2.1-2c3.9-3.7,9.9-3.5,13.6,0.3l0,0c3.7,3.9,3.5,10-0.3,13.7c0,0,0,0,0,0L-65.1,497.4z"/>
								</g>
								<g id="Group_3342">
									<path id="Path_9326" class="st3" d="M128.7,500.8l-15.6-14.5c-3.9-3.6-4.1-9.7-0.5-13.6l0,0c3.6-3.9,9.7-4.1,13.7-0.5l0,0
										l2.2,2.1l2.1-2c3.9-3.7,10-3.5,13.7,0.3c3.7,3.9,3.5,10-0.3,13.7l0,0L128.7,500.8z"/>
								</g>
								<g id="Group_3343">
									<path id="Path_9327" class="st3" d="M408.1,500.8l-15.6-14.5c-3.8-3.8-3.7-9.9,0.1-13.7c3.6-3.5,9.3-3.7,13.1-0.5l0,0
										l2.2,2.1l2.1-2c3.9-3.7,10-3.5,13.7,0.3s3.5,10-0.3,13.7l0,0L408.1,500.8z"/>
								</g>
								<g id="Group_3344">
									<path id="Path_9328" class="st3" d="M-65.1,687.4l-15.6-14.5c-3.9-3.6-4.1-9.7-0.5-13.7l0,0c3.6-3.9,9.7-4.1,13.7-0.5l0,0
										l2.2,2.1l2.1-2c3.9-3.7,10-3.5,13.7,0.3c0,0,0,0,0,0c3.7,3.9,3.5,10-0.3,13.7c0,0,0,0,0,0L-65.1,687.4z"/>
								</g>
								<g id="Group_3345">
									<path id="Path_9329" class="st3" d="M-270.9,60.4l-15.6-14.5c-3.9-3.6-4.1-9.7-0.5-13.7l0,0c3.6-3.9,9.7-4.1,13.6-0.5l0,0
										l2.2,2.1l2.1-2c3.9-3.7,10-3.5,13.7,0.3l0,0c3.7,3.9,3.5,10-0.3,13.7c0,0,0,0,0,0l0,0L-270.9,60.4z"/>
								</g>
								<g id="Group_3346">
									<path id="Path_9330" class="st3" d="M-271.3,284.8l-15.6-14.5c-3.9-3.6-4.1-9.7-0.5-13.7c0,0,0,0,0,0l0,0
										c3.6-3.9,9.7-4.1,13.7-0.5l2.2,2.1l2.1-2c3.9-3.7,10-3.5,13.7,0.3c0,0,0,0,0,0c3.7,3.9,3.5,10-0.3,13.7c0,0,0,0,0,0l0,0
										L-271.3,284.8z"/>
								</g>
								<g id="Group_3347">
									<path id="Path_9331" class="st3" d="M-271.3,502.4l-15.6-14.5c-3.9-3.6-4.1-9.7-0.5-13.7c0,0,0,0,0,0l0,0
										c3.6-3.9,9.7-4.1,13.6-0.5l0,0l2.2,2.1l2.1-2c3.9-3.7,10-3.6,13.7,0.3l0,0c3.7,3.9,3.5,10-0.3,13.7c0,0,0,0,0,0l0,0
										L-271.3,502.4z"/>
								</g>
								<g id="Group_3348">
									<path id="Path_9332" class="st3" d="M-271.3,692.3l-15.6-14.5c-3.9-3.6-4.1-9.7-0.5-13.7l0,0c3.6-3.9,9.7-4.1,13.6-0.5l0,0
										l2.2,2.1l2.1-2c3.9-3.7,10-3.5,13.7,0.3c0,0,0,0,0,0c3.7,3.9,3.6,10-0.3,13.7l0,0L-271.3,692.3z"/>
								</g>
								<g id="Group_3349">
									<path id="Path_9333" class="st3" d="M128.7,690.7l-15.6-14.5c-3.9-3.6-4.1-9.7-0.5-13.7c3.6-3.9,9.7-4.1,13.7-0.5l0,0
										l2.2,2.1l2.1-2c3.9-3.7,10-3.5,13.7,0.3c3.7,3.9,3.5,10-0.3,13.7L128.7,690.7z"/>
								</g>
								<g id="Group_3350">
									<path id="Path_9334" class="st3" d="M408.1,690.7l-15.6-14.5c-4-3.5-4.4-9.6-0.9-13.6c3.5-4,9.6-4.4,13.6-0.9
										c0.1,0.1,0.3,0.3,0.4,0.4l0,0l2.2,2.1l2.1-2c3.9-3.7,10-3.5,13.7,0.3s3.5,10-0.3,13.7l0,0L408.1,690.7z"/>
								</g>
							</g>
							<g id="Group_3356">
								<g id="Group_3352">
									<path id="Path_9335" class="st4" d="M118.3,517.5c0.2-1.2,0.3-2.3,0.3-3.5c0-13.7-11.1-24.8-24.8-24.8
										c-3.3,0-6.6,0.7-9.7,2c-4.1-9.6-14.7-16.5-27.2-16.5c-10.2,0-19.1,4.6-24.3,11.5c-13.5-5.2-28.7,1.4-34.2,14.8v67.4
										c2.4,0.9,4.9,1.3,7.4,1.3c4.3,0,8.6-1.3,12.2-3.7c4.6,8.6,14.7,14.5,26.2,14.5c8.7,0.1,17-3.4,22.9-9.8
										c9.7,11.1,26.5,12.2,37.5,2.6c4.7-4.1,7.8-9.8,8.8-15.9c11.8-1.2,20.9-9.9,20.9-20.4C134.3,527.9,127.6,520.3,118.3,517.5z
										"/>
									<path id="Path_9336" class="st5" d="M115,522.8c2-13.5-7.4-26.1-20.9-28.1c-4.5-0.7-9.1-0.1-13.3,1.7
										C76.6,486.8,66,480,53.6,480c-10.2,0-19.1,4.6-24.3,11.5c-3.1-1.2-6.3-1.8-9.6-1.8c-8.4,0-16.3,4-21.3,10.7v74.2
										c5.6,1.1,11.4-0.1,16.2-3.3c4.7,8.6,14.7,14.5,26.3,14.5c8.7,0.1,17-3.4,22.9-9.8c9.6,11.1,26.5,12.3,37.5,2.6
										c4.7-4.1,7.9-9.8,8.8-16c11.7-1.2,20.9-9.9,20.9-20.4C131,533.2,124.3,525.5,115,522.8z"/>
								</g>
								<g id="Group_3353">
									<path id="Path_9337" class="st4" d="M425.9,548.6c0-9-6.7-16.7-16-19.5c0.2-1.2,0.3-2.3,0.3-3.5
										c0-13.7-11.1-24.8-24.8-24.8c-3.3,0-6.6,0.7-9.7,2c-4.1-9.6-14.7-16.5-27.2-16.5c-10.1,0-19.1,4.6-24.3,11.5
										c-13.7-5.3-29.1,1.5-34.4,15.2c-0.7,1.8-1.2,3.7-1.5,5.6c-1.1-0.1-2.2-0.2-3.3-0.2c-13,0-23.6,9.2-23.6,20.6
										c0,8.4,5.8,15.6,14,18.8c0,0.5-0.1,1-0.1,1.5c0,12.2,9.9,22.1,22.1,22.1l0,0c4.3,0,8.6-1.3,12.2-3.7
										c4.6,8.6,14.7,14.5,26.2,14.5c8.7,0.1,17-3.4,22.9-9.8c9.6,11.1,26.4,12.3,37.5,2.6c4.7-4.1,7.9-9.8,8.8-16
										C416.8,567.8,425.9,559.2,425.9,548.6z"/>
									<path id="Path_9338" class="st5" d="M422.6,553.8c0-9-6.7-16.7-16-19.5c0.2-1.2,0.3-2.3,0.3-3.5
										c0-13.7-11.1-24.8-24.8-24.8c0,0,0,0,0,0c-3.3,0-6.6,0.7-9.7,2c-4.1-9.6-14.7-16.5-27.2-16.5c-10.1,0-19.1,4.6-24.3,11.5
										c-13.7-5.3-29.1,1.5-34.4,15.2c-0.7,1.8-1.2,3.7-1.5,5.6c-1.1-0.1-2.2-0.2-3.3-0.2c-13,0-23.6,9.2-23.6,20.6
										c0,8.4,5.8,15.6,14,18.8c0,0.5-0.1,1-0.1,1.5c0,12.2,9.9,22.1,22.1,22.1c4.3,0,8.6-1.3,12.2-3.7
										c4.6,8.6,14.7,14.5,26.2,14.5c8.7,0.1,17-3.4,22.9-9.8c9.6,11.1,26.4,12.3,37.5,2.6c4.7-4.1,7.9-9.8,8.8-16
										C413.4,573.1,422.6,564.4,422.6,553.8z"/>
								</g>
								<g id="Group_3354">
									<path id="Path_9339" class="st4" d="M394.4,647c0-8.3-6.2-15.3-14.7-17.9c0.2-1.1,0.2-2.2,0.2-3.2
										c0-12.6-10.1-22.8-22.7-22.8c-3.1,0-6.1,0.6-9,1.8c-3.8-8.8-13.5-15.1-25-15.1c-9.3,0-17.5,4.2-22.3,10.5
										c-12.6-4.9-26.7,1.3-31.6,13.9c-0.6,1.7-1.1,3.4-1.4,5.2c-1-0.1-2-0.2-3-0.2c-12,0-21.7,8.5-21.7,18.9
										c0,7.7,5.3,14.3,12.9,17.2c0,0.5-0.1,0.9-0.1,1.4c0,11.2,9.1,20.3,20.3,20.3c4,0,7.9-1.2,11.2-3.4
										c4.3,7.9,13.5,13.4,24.1,13.4c8,0.1,15.6-3.2,21-9c8.9,10.2,24.3,11.3,34.5,2.4c4.4-3.8,7.2-9,8.1-14.7
										C386,664.7,394.4,656.7,394.4,647z"/>
									<path id="Path_9340" class="st5" d="M391.3,651.8c0-8.3-6.2-15.3-14.7-17.9c0.2-1.1,0.2-2.2,0.2-3.2
										c0-12.6-10.2-22.8-22.7-22.8c0,0,0,0,0,0l0,0c-3.1,0-6.1,0.6-8.9,1.8c-3.8-8.8-13.5-15.1-25-15.1
										c-9.3,0-17.5,4.2-22.3,10.5c-12.6-4.9-26.8,1.4-31.6,14c-0.6,1.7-1.1,3.4-1.4,5.1c-1-0.1-2-0.2-3-0.2
										c-12,0-21.7,8.5-21.7,18.9c0,7.7,5.3,14.3,12.8,17.2c0,0.5-0.1,0.9-0.1,1.4c0,11.2,9.1,20.3,20.2,20.3c0,0,0,0,0,0l0,0
										c4,0,7.9-1.2,11.2-3.4c4.3,7.9,13.5,13.4,24.1,13.4c8,0.1,15.6-3.2,21-9c8.9,10.2,24.3,11.3,34.5,2.4
										c4.4-3.8,7.2-9,8.1-14.7C382.9,669.5,391.3,661.5,391.3,651.8z"/>
								</g>
								<g id="Group_3355">
									<path id="Path_9341" class="st4" d="M100.5,567.8c0.2-1.1,0.3-2.2,0.3-3.2c0-12.6-10.2-22.8-22.7-22.8
										c-3.1,0-6.1,0.6-8.9,1.8c-3.8-8.8-13.5-15.1-25-15.1c-9.3,0-17.5,4.2-22.3,10.5c-7.8-3-16.7-1.8-23.4,3.3v73.4
										c3.6-0.2,7-1.3,10-3.3c4.3,7.9,13.5,13.4,24.1,13.4c8,0.1,15.6-3.2,21-9c8.9,10.2,24.3,11.3,34.5,2.4
										c4.4-3.8,7.2-9,8.1-14.7c10.8-1.1,19.2-9,19.2-18.8C115.2,577.4,109,570.4,100.5,567.8z"/>
									<path id="Path_9342" class="st5" d="M97.4,572.7c0.2-1.1,0.2-2.2,0.2-3.2c0-12.6-10.2-22.8-22.7-22.8
										c-3.1,0-6.1,0.6-8.9,1.8c-3.8-8.8-13.5-15.1-25-15.1c-9.3,0-17.5,4.2-22.3,10.5c-6.6-2.5-14-2-20.3,1.3v74.9
										c2.4-0.5,4.8-1.5,6.8-2.9c4.3,7.9,13.5,13.4,24.1,13.4c8,0.1,15.6-3.2,21-9c8.9,10.2,24.3,11.3,34.5,2.4
										c4.4-3.8,7.2-9,8.1-14.7c10.8-1.1,19.2-9.1,19.2-18.8C112.1,582.2,106,575.2,97.4,572.7z"/>
								</g>
							</g>
							<g id="Group_3357">
								<path id="Path_9343" class="st4" d="M127.9,704.3c0.1-0.4,0.2-0.9,0.3-1.3c16.3-1.6,28.9-13.7,28.9-28.3
									c0-12.5-9.3-23.1-22.2-27c0.2-1.6,0.4-3.2,0.4-4.9c0-19-15.4-34.4-34.4-34.4c-4.6,0-9.2,0.9-13.4,2.7
									c-5.7-13.3-20.4-22.8-37.7-22.8c-14.1,0-26.4,6.3-33.6,15.9c-4.2-1.6-8.8-2.5-13.3-2.5c-1.5,0-3,0.2-4.5,0.4v102.2H127.9z"
									/>
								<path id="Path_9344" class="st5" d="M140.1,704.3c7.5-5.2,12.4-13.3,12.4-22.3c0-12.5-9.3-23.1-22.2-27
									c0.2-1.6,0.4-3.2,0.4-4.9c0-19-15.4-34.4-34.3-34.4c0,0,0,0,0,0l0,0c-4.6,0-9.2,0.9-13.4,2.7c-5.7-13.3-20.4-22.8-37.6-22.8
									c-14.1,0-26.4,6.3-33.6,15.9c-4.2-1.6-8.7-2.4-13.2-2.5v95.2L140.1,704.3z"/>
							</g>
							<g id="Group_3358">
								<path id="Path_9345" class="st4" d="M509.9,704.3c-1.1-11.5-10-21-22-24.5c0.2-1.6,0.4-3.3,0.4-4.9
									c0-19-15.4-34.3-34.3-34.3c0,0,0,0,0,0l0,0c-4.6,0-9.2,0.9-13.4,2.7c-5.7-13.3-20.4-22.8-37.7-22.8
									c-14.1,0-26.4,6.3-33.6,15.9c-19-7.3-40.4,2.1-47.7,21.2c-1,2.5-1.6,5-2,7.7c-1.5-0.2-3.1-0.3-4.6-0.3
									c-18,0-32.7,12.8-32.7,28.5c0,3.8,0.9,7.6,2.5,11L509.9,704.3z"/>
								<path id="Path_9346" class="st5" d="M503.4,704.3c-3.4-8.1-10.8-14.5-20.2-17.2c0.2-1.6,0.4-3.3,0.4-4.9
									c0-19-15.4-34.3-34.4-34.3l0,0c-4.6,0-9.2,0.9-13.4,2.7c-5.7-13.3-20.4-22.8-37.7-22.8c-14.1,0-26.4,6.3-33.6,15.9
									c-19-7.3-40.4,2.1-47.7,21.1c-1,2.5-1.7,5.1-2.1,7.7c-1.5-0.2-3.1-0.3-4.6-0.3c-18,0-32.7,12.8-32.7,28.5
									c0,1.2,0.1,2.5,0.3,3.7H503.4z"/>
							</g>
							<g id="Group_3359">
								<path id="Path_9347" class="st4" d="M-153.1,172.5c0-9-6.7-16.7-16-19.4c0.2-1.2,0.3-2.3,0.3-3.5
									c0-13.7-11.1-24.8-24.8-24.8l0,0c-3.3,0-6.6,0.7-9.7,2c-4.1-9.6-14.7-16.5-27.2-16.5c-10.1,0-19.1,4.6-24.3,11.5
									c-3.1-1.2-6.3-1.8-9.6-1.8c-13.1,0-24.3,9.6-26.3,22.6c-1.1-0.1-2.2-0.2-3.3-0.2c-13,0-23.6,9.2-23.6,20.6
									c0,8.4,5.7,15.6,14,18.8c0,0.5-0.1,1-0.1,1.5c0,12.2,9.9,22,22.1,22l0,0c4.3,0,8.6-1.3,12.2-3.6
									c4.6,8.6,14.6,14.5,26.2,14.5c8.7,0.1,17-3.4,22.9-9.8c5,5.8,12.4,9.2,20.1,9.1c13.1,0,24.3-9.6,26.3-22.5
									C-162.2,191.8-153.1,183.1-153.1,172.5z"/>
								<path id="Path_9348" class="st5" d="M-156.4,177.8c0-9-6.7-16.7-16-19.5c0.2-1.2,0.3-2.3,0.3-3.5
									c0-13.7-11.1-24.8-24.8-24.8l0,0c-3.3,0-6.6,0.7-9.7,2c-4.1-9.6-14.7-16.5-27.2-16.5c-10.1,0-19.1,4.6-24.3,11.5
									c-3.1-1.2-6.3-1.8-9.6-1.8c-13.1,0-24.3,9.6-26.3,22.6c-1.1-0.1-2.2-0.2-3.3-0.2c-13,0-23.6,9.2-23.6,20.6
									c0,8.4,5.8,15.6,14,18.8c0,0.5-0.1,1-0.1,1.5c0,12.2,9.9,22.1,22.1,22.1l0,0l0,0c4.3,0,8.6-1.3,12.1-3.7
									c4.7,8.6,14.7,14.6,26.2,14.6c8.7,0.1,17-3.4,22.9-9.8c5.1,5.8,12.4,9.1,20.1,9.1c13.1,0,24.3-9.6,26.3-22.5
									C-165.6,197.1-156.4,188.4-156.4,177.8z"/>
							</g>
							<g id="Group_3360">
								<path id="Path_9349" class="st4" d="M-192.8,351.5c0-6.3-4.6-11.6-11.1-13.5c0.1-0.8,0.2-1.6,0.2-2.4
									c0-9.5-7.7-17.2-17.2-17.2c-2.3,0-4.6,0.5-6.7,1.4c-2.9-6.7-10.2-11.5-18.9-11.5c-6.6-0.1-12.8,2.9-16.8,8
									c-2.1-0.8-4.4-1.2-6.7-1.2c-9.1,0-16.9,6.7-18.3,15.7c-0.8-0.1-1.5-0.2-2.3-0.2c-9,0-16.4,6.4-16.4,14.3
									c0,5.8,4,10.8,9.7,13c0,0.3,0,0.7,0,1c0,8.5,6.8,15.3,15.3,15.4c0,0,0,0,0,0c3,0,5.9-0.9,8.4-2.5c3.2,6,10.2,10.1,18.2,10.1
									c6,0.1,11.8-2.4,15.9-6.8c3.5,4,8.6,6.3,13.9,6.3c9.1,0,16.9-6.6,18.2-15.6C-199.2,364.8-192.8,358.8-192.8,351.5z"/>
								<path id="Path_9350" class="st5" d="M-195.2,355.2c0-6.3-4.6-11.6-11.1-13.5c0.1-0.8,0.2-1.6,0.2-2.5
									c0-9.5-7.7-17.2-17.2-17.2c-2.3,0-4.6,0.5-6.7,1.4c-2.9-6.7-10.2-11.4-18.9-11.4c-6.6-0.1-12.8,2.8-16.8,8
									c-2.1-0.8-4.4-1.2-6.7-1.2c-9.1,0-16.9,6.7-18.3,15.7c-0.8-0.1-1.5-0.2-2.3-0.2c-9,0-16.4,6.4-16.4,14.3
									c0,5.8,4,10.8,9.7,13c0,0.4,0,0.7,0,1c0,8.5,6.9,15.3,15.3,15.3l0,0l0,0c3,0,5.9-0.9,8.4-2.5c3.2,6,10.2,10.1,18.2,10.1
									c6,0.1,11.8-2.4,15.9-6.8c3.5,4,8.6,6.4,13.9,6.4c9.1,0,16.9-6.6,18.2-15.6C-201.5,368.5-195.2,362.5-195.2,355.2z"/>
							</g>
							<g id="Group_3361">
								<path id="Path_9351" class="st4" d="M-18.9,209c0-6.3-4.6-11.6-11.1-13.5c0.1-0.8,0.2-1.6,0.2-2.4c0-9.5-7.7-17.2-17.2-17.2
									c0,0,0,0,0,0l0,0c-2.3,0-4.6,0.5-6.7,1.4c-2.8-6.7-10.2-11.4-18.8-11.4c-6.6-0.1-12.8,2.9-16.8,8c-2.1-0.8-4.4-1.2-6.7-1.2
									c-9.1,0-16.9,6.6-18.3,15.6c-0.8-0.1-1.5-0.2-2.3-0.2c-9,0-16.4,6.4-16.4,14.3c0,5.8,4,10.8,9.7,13c0,0.3,0,0.7,0,1
									c0,8.5,6.9,15.3,15.3,15.3c3,0,5.9-0.9,8.4-2.5c3.2,6,10.2,10.1,18.2,10.1c6,0.1,11.7-2.3,15.8-6.7c3.5,4,8.6,6.4,13.9,6.4
									c9.1,0,16.9-6.6,18.3-15.6C-25.2,222.4-18.9,216.3-18.9,209z"/>
								<path id="Path_9352" class="st5" d="M-21.2,212.7c0-6.3-4.6-11.6-11.1-13.5c0.1-0.8,0.2-1.6,0.2-2.4
									c0-9.5-7.7-17.2-17.2-17.2l0,0c-2.3,0-4.6,0.5-6.7,1.4c-2.9-6.7-10.2-11.4-18.9-11.4c-6.6-0.1-12.8,2.9-16.8,8
									c-2.1-0.8-4.4-1.3-6.7-1.3c-9.1,0-16.9,6.7-18.3,15.7c-0.8-0.1-1.5-0.2-2.3-0.2c-9,0-16.4,6.4-16.4,14.3
									c0,5.8,4,10.8,9.7,13c0,0.3,0,0.7,0,1c0,8.5,6.9,15.3,15.3,15.3l0,0c3,0,5.9-0.9,8.4-2.5c3.2,6,10.2,10.1,18.2,10.1
									c6,0.1,11.7-2.3,15.8-6.7c3.5,4,8.6,6.4,13.9,6.4c9.1,0,16.9-6.6,18.2-15.6C-27.6,226-21.2,220-21.2,212.7z"/>
							</g>
							<g id="Group_3362">
								<path id="Path_9353" class="st6" d="M528.7,354.5c-0.6,1.5-2.1,2.6-3.8,2.6c-30.9,32.9-23.2,118.4-18.1,175.1
									c1.1,12.8,2.2,25,2.7,34.8c0.8,15.2-2.6,26.7-9.9,34.3c-6.5,6.7-15.6,10-27.3,10c-4.7,0-9.3-0.5-13.9-1.5
									c0.3,13.8-3.5,25.2-11.5,33.8c-17.5,18.9-51.2,21.3-78.6,21.3c-10,0-19.7-0.4-29-0.7c-7.9-0.3-15.2-0.6-21.7-0.6
									c-32.9,0-37.6,17.9-41.1,31l-1.6,6.4c-0.5,2-2.4,3.3-4.5,3.1c-2.1-0.2-3.6-1.9-3.7-4c0-1-0.1-1.9-0.2-2.9
									c-0.2-1.2-0.3-1.8-0.3-1.8c-2-11.9-10.3-31.9-42.7-31.9c-6.4,0-13.8,0.3-21.7,0.6c-9.4,0.3-19,0.7-29.1,0.7
									c-27.4,0-61.1-2.4-78.6-21.3c-8-8.6-11.8-20-11.5-33.8c-4.6,1-9.2,1.5-13.9,1.5c-11.7,0-20.9-3.4-27.3-10
									c-7.3-7.6-10.7-19.1-9.9-34.3c0.5-9.8,1.6-21.9,2.7-34.8C39.2,475.5,46.9,390,16,357.1c-1.7,0-3.2-1-3.8-2.6
									c-0.3-1.5-0.3-3.1,0-4.6c0.6-1.5,2.1-2.6,3.8-2.6C46.8,314.5,39.2,229,34.1,172.2c-1.2-12.8-2.2-25-2.7-34.8
									c-0.8-15.2,2.6-26.7,9.9-34.3c6.5-6.7,15.6-10,27.3-10c4.7,0,9.3,0.5,13.9,1.5c-0.3-13.8,3.6-25.2,11.5-33.8
									c17.5-18.9,51.2-21.3,78.6-21.3c10,0,19.7,0.4,29.1,0.7c7.8,0.3,15.2,0.6,21.7,0.6c24,0,38-10.5,41.5-31.4l1.2-6
									c0.4-1.9,2.1-3.3,4-3.3h0.1c1.9,0,3.6,1.3,4,3.2l1.4,6.1c0,0.1,0,0.1,0,0.2c2.4,14.2,11.6,31.2,41.9,31.2
									c6.4,0,13.8-0.3,21.7-0.6c9.4-0.3,19-0.7,29-0.7c27.4,0,61.1,2.4,78.6,21.4c8,8.6,11.8,20,11.5,33.8c4.6-1,9.2-1.5,13.9-1.5
									c11.7,0,20.9,3.4,27.3,10c7.3,7.6,10.7,19.1,9.9,34.3c-0.5,9.8-1.6,21.9-2.7,34.8c-5.1,56.8-12.7,142.2,18.2,175.1
									c1.7,0,3.2,1,3.8,2.6c0.3,0.7,0.4,1.5,0.2,2.3C529,353,528.9,353.8,528.7,354.5z"/>
								<path id="Path_9354" class="st3" d="M513.9,349.8h-1.7c-40.9,40.6-20.5,159.9-17.8,214.4c2.8,55.2-51.6,37.3-51.6,37.3
									c7,69.8-89.2,55.2-136.6,55.2c-36.7,0-41.9,21.6-45.4,34.7l-1.5,5.9c0-1.2-0.1-2.3-0.3-3.5c-0.2-1.4-0.3-1.8-0.3-1.8
									c-1.9-11-10.1-35.3-46.8-35.3c-47.4,0-143.5,14.6-136.6-55.2c0,0-54.3,17.9-51.6-37.3c2.8-54.5,23.1-173.8-17.8-214.4H4.4
									c0.3-0.3,0.6-0.5,0.8-0.8c-0.3-0.3-0.6-0.5-0.8-0.8h1.7c41-40.6,20.6-159.9,17.8-214.4c-2.8-55.2,51.6-37.3,51.6-37.3
									c-7-69.8,89.2-55.2,136.6-55.2c36.7,0,43.8-23.7,45.7-34.7l1.2-6l1.4,6.1c1.9,11,9.3,34.7,46,34.7
									c47.4,0,143.5-14.6,136.6,55.2c0,0,54.3-17.9,51.6,37.3c-2.8,54.5-23.1,173.7,17.8,214.4h1.7c-0.3,0.3-0.6,0.5-0.8,0.8
									C513.4,349.2,513.6,349.5,513.9,349.8z"/>
								<path id="Path_9355" class="st7" d="M498.8,349.7h-1.6c-38.5,38.2-19.3,150.2-16.8,201.4c2.6,51.9-48.5,35.1-48.5,35.1
									c6.5,65.6-83.9,51.9-128.5,51.9c-34.5,0-39.4,20.3-42.7,32.6l-1.4,5.5c0-1.1-0.1-2.2-0.3-3.2l-0.3-1.7
									c-1.8-10.3-9.6-33.2-44-33.2c-44.6,0-135,13.7-128.5-51.9c0,0-51.1,16.8-48.5-35.1c2.6-51.2,21.8-163.2-16.8-201.4h-1.6
									l0.8-0.8l-0.8-0.8h1.6C59.7,310.1,40.5,198,37.9,146.8c-2.6-51.9,48.5-35.1,48.5-35.1c-6.6-65.6,83.9-51.9,128.5-51.9
									c34.5,0,41.2-22.3,43-32.6l1.1-5.7l1.3,5.7c1.8,10.3,8.8,32.5,43.3,32.5c44.6,0,135-13.7,128.5,51.9
									c0,0,51.1-16.8,48.5,35.1c-2.6,51.2-21.8,163.2,16.7,201.4h1.6l-0.8,0.8L498.8,349.7z"/>
							</g>
							<g id="Group_3980">
								<g id="Group_3364">
									<g id="Group_3363">
										<path id="Path_9356" class="st8" d="M428.8,534.1c0,0,7.7,5.1,20.3,3.2s21.6,6.7,21.6,6.7s-14.9,0.8-23.7,3.7
											s-17.6-3.2-17.6-3.2L428.8,534.1z"/>
									</g>
								</g>
								<g id="Group_3366">
									<g id="Group_3365">
										<path id="Path_9357" class="st9" d="M433.8,536.2c-1.8-0.5-3.4-1.2-5-2.2l0.5,10.4c3.5,2.3,7.6,3.7,11.8,4
											C437.1,545.6,434.4,541.2,433.8,536.2z"/>
									</g>
								</g>
								<g id="Group_3368">
									<g id="Group_3367">
										<path id="Path_9358" class="st10" d="M496.2,640.7L496.2,640.7c-0.8-4.4-27.1-8-59.6-8s-58.8,3.6-59.6,8l0,0v0.2
											c0,21.3,12.4,40.1,34.4,47.5c6.8,2.3,17.4,3.1,25.2,3.1s17.1-1.1,23.9-3.3c22.1-7.4,35.7-25.8,35.7-47.3
											C496.2,640.8,496.2,640.8,496.2,640.7z"/>
									</g>
								</g>
								<g id="Group_3370">
									<g id="Group_3369">
										<path id="Path_9359" class="st11" d="M489.7,641.3c-2.2,2.6-25.1,4.6-53,4.6s-50.9-2-53-4.6h-6.6c0,2.5,0.3,4.9,0.7,7.3
											c2.4,0.7,4.8,1.3,7.3,1.8c22.6,4.9,61.9,6.8,106.7-0.2c1.2-0.2,2.4-0.3,3.6-0.5c0.6-2.8,0.9-5.6,0.9-8.5H489.7z"/>
									</g>
								</g>
								<g id="Group_3372">
									<g id="Group_3371">
										<path id="Path_9360" class="st12" d="M489.8,640.9c0,2.8-23.8,5-53.2,5s-53.2-2.2-53.2-5s23.8-5,53.2-5
											S489.8,638.2,489.8,640.9z"/>
									</g>
								</g>
								<g id="Group_3374">
									<g id="Group_3373">
										<path id="Path_9361" class="st13" d="M428.6,546.9c0,0-24,71.3-39.2,92.7c0,0,7.2,8.6,42.4,7.9s68.8-17.3,68.8-17.3
											S463.4,561.2,428.6,546.9z"/>
									</g>
								</g>
								<g id="Group_3376">
									<g id="Group_3375">
										<path id="Path_9362" class="st14" d="M429.7,548.9c-0.4,0.3-0.6,0.8-0.8,1.3c-1.2,3.4,4.8,6.2,7,8
											c9,7.4,17.4,15.6,25,24.5c3.3,4,6.9,7.8,10.7,11.3c2.1,1.9,4.3,3.6,6.6,5.3c1.1,0.8,4.5,2,5,2.7
											c-8.9-13.1-18.5-25.9-29.9-37.1c-5.2-5.3-11-10-17.2-14C434.4,549.7,431.4,547.4,429.7,548.9z"/>
									</g>
								</g>
								<g id="Group_3378">
									<g id="Group_3377">
										<path id="Path_9363" class="st15" d="M485.8,605.9c-5.7,8.1-12.4,15.9-20.7,21.5c-4.8,3.2-10.3,5.9-16.2,6.3
											c-5.3,0.3-10.5-1.4-14.5-4.8c-12.4-10-15.5-26.6-14.5-41.2c0.7-10.9,3.4-22.6,9.1-32.4v-8.2l-0.4-0.2
											c0,0-24,71.3-39.2,92.7c0,0,7.2,8.6,42.4,7.9s68.8-17.3,68.8-17.3S494.9,619.6,485.8,605.9z"/>
									</g>
								</g>
								<g id="Group_3380">
									<g id="Group_3379">
										<path id="Path_9364" class="st16" d="M428.6,659.7c-0.7,0-1.3-0.6-1.3-1.3l0,0V533.2c-0.1-0.7,0.5-1.4,1.2-1.5
											c0.7-0.1,1.4,0.5,1.5,1.2c0,0.1,0,0.2,0,0.2l0,0v125.2C430,659.1,429.4,659.7,428.6,659.7
											C428.6,659.7,428.6,659.7,428.6,659.7z"/>
									</g>
								</g>
								<g id="Group_3929">
									<g id="Group_3432">
										<g id="Group_3395">
											<g id="Group_3382">
												<g id="Group_3381">
													<path id="Path_9365" class="st17" d="M425.9,629.5c0,0-2.1-0.6-7.5-4.7c-4.2-3.2-8.3-5.8-11.8-9.8
														c-0.8-0.9-1.8-1.9-3.1-1.7c-1.2,0.3-2.3,1.1-3,2.2c-0.9,1.1-1.9,2.6-1.6,4.1c0.4,1.5,1.4,2.8,2.6,3.7
														c1.4,1,2.8,2,4,3.1c2.3,2,4.4,4.1,6.5,6.2c0.5,0.5,9.7,8.7,10.2,9.2"/>
												</g>
											</g>
											<g id="Group_3384">
												<g id="Group_3383">
													<path id="Path_9366" class="st18" d="M418.8,625.1c0.3,1.9,0.2,3.8-0.1,5.6c-0.4,1.7-1.3,3.2-1.7,4.9
														c-0.1,0.3-0.1,0.7-0.2,1.1c2.6,2.3,5.3,4.7,5.5,5l3.6-12.2C425.9,629.5,423.9,628.9,418.8,625.1z"/>
												</g>
											</g>
											<g id="Group_3386">
												<g id="Group_3385">
													<path id="Path_9367" class="st19" d="M412.7,624.6c1.6,0.8,4.2,1.2,6,0.3l-0.2-0.2c-2.7-2-5.4-3.9-7.9-6
														C410.1,621,410.4,623.6,412.7,624.6z"/>
												</g>
											</g>
											<g id="Group_3388">
												<g id="Group_3387">
													<path id="Path_9368" class="st19" d="M407.7,628.2c0.3-1.9,0.2-4.8-2.4-4.8c-0.9,0-1.8,0.3-2.5,0.7
														c1,0.7,1.9,1.4,2.9,2.2C406.4,626.9,407.1,627.5,407.7,628.2z"/>
												</g>
											</g>
											<g id="Group_3390">
												<g id="Group_3389">
													<path id="Path_9369" class="st20" d="M403.9,619.8c1-1.5,2.3-2.7,3.8-3.7c-0.3-0.4-0.7-1-1.1-1.4
														c-0.8-0.9-1.8-1.8-3.1-1.7s-2.2,1.5-2.9,2.4c-0.9,1.1-2.2,2.5-1.9,4s1.7,2.8,3,3.8l0.5,0.4
														C402.5,622.2,403.1,621,403.9,619.8z"/>
												</g>
											</g>
											<g id="Group_3392">
												<g id="Group_3391">
													<path id="Path_9370" class="st21" d="M401.9,623.3c0,0,0-0.1,0-0.1c-0.1,0-0.2-0.1-0.2-0.2c-1.6-3.4-0.7-7.5,2.2-10
														h-0.3c-1.2,0.1-2.2,1.5-2.9,2.4c-0.9,1.1-2.2,2.5-1.9,4s1.7,2.8,2.9,3.8L401.9,623.3
														C401.9,623.4,401.9,623.3,401.9,623.3z"/>
												</g>
											</g>
											<g id="Group_3394">
												<g id="Group_3393">
													<path id="Path_9371" class="st22" d="M404.2,613.5c-0.3,0-0.8,0.1-0.7,0.5s0.7,0.4,1,0.5c0.5,0.3,0.7,1,1,1.6
														c0.2,0.3,0.5-0.1,0.6-0.2C406.8,614.8,405.1,613.4,404.2,613.5z"/>
												</g>
											</g>
										</g>
										<g id="Group_3398">
											<g id="Group_3397">
												<g id="Group_3396">
													<path id="Path_9372" class="st23" d="M420.5,626.6c-0.3-0.2-0.6-0.5-0.8-0.8c-0.3-0.3-0.7,0.1-0.4,0.4
														c0.3,0.3,0.5,0.5,0.8,0.8C420.4,627.3,420.8,626.9,420.5,626.6z"/>
												</g>
											</g>
										</g>
										<g id="Group_3401">
											<g id="Group_3400">
												<g id="Group_3399">
													<path id="Path_9373" class="st23" d="M410,618.5c-0.2-0.2-0.5-0.4-0.7-0.6s-0.7,0.2-0.4,0.4s0.5,0.4,0.7,0.6
														S410.3,618.8,410,618.5z"/>
												</g>
											</g>
										</g>
										<g id="Group_3404">
											<g id="Group_3403">
												<g id="Group_3402">
													<path id="Path_9374" class="st23" d="M408.2,617.5l-0.8-0.8c-0.1-0.1-0.3-0.1-0.4,0c-0.1,0.1-0.1,0.3,0,0.4
														c0.3,0.3,0.6,0.5,0.8,0.8c0.1,0.1,0.3,0.1,0.4,0c0,0,0,0,0,0C408.3,617.8,408.3,617.6,408.2,617.5L408.2,617.5z"/>
												</g>
											</g>
										</g>
										<g id="Group_3407">
											<g id="Group_3406">
												<g id="Group_3405">
													<path id="Path_9375" class="st23" d="M408.9,619.1c-0.2-0.2-0.5-0.4-0.8-0.6c-0.3-0.2-0.6,0.3-0.3,0.5
														c0.2,0.2,0.4,0.3,0.6,0.5C408.8,619.7,409.2,619.3,408.9,619.1L408.9,619.1z"/>
												</g>
											</g>
										</g>
										<g id="Group_3410">
											<g id="Group_3409">
												<g id="Group_3408">
													<path id="Path_9376" class="st23" d="M410.1,621.5c-0.4-0.4-0.8-0.7-1.1-1.1s-0.6,0.1-0.4,0.4s0.8,0.8,1.1,1.1
														S410.3,621.7,410.1,621.5L410.1,621.5z"/>
												</g>
											</g>
										</g>
										<g id="Group_3413">
											<g id="Group_3412">
												<g id="Group_3411">
													<path id="Path_9377" class="st23" d="M417.7,626.7c-0.3-0.2-0.7-0.5-1-0.7s-0.6,0.3-0.3,0.5s0.7,0.5,1,0.7
														S418,626.9,417.7,626.7z"/>
												</g>
											</g>
										</g>
										<g id="Group_3416">
											<g id="Group_3415">
												<g id="Group_3414">
													<path id="Path_9378" class="st23" d="M414.9,626.3c-0.4-0.3-0.8-0.5-1.2-0.8s-0.6,0.3-0.3,0.5s0.8,0.5,1.2,0.8
														S415.2,626.5,414.9,626.3z"/>
												</g>
											</g>
										</g>
										<g id="Group_3419">
											<g id="Group_3418">
												<g id="Group_3417">
													<path id="Path_9379" class="st23" d="M412.3,630.9c-0.6-0.6-1.2-1.2-1.8-1.8c-0.2-0.3-0.6,0.1-0.4,0.4
														c0.6,0.6,1.2,1.2,1.8,1.8C412.1,631.5,412.5,631.1,412.3,630.9z"/>
												</g>
											</g>
										</g>
										<g id="Group_3422">
											<g id="Group_3421">
												<g id="Group_3420">
													<path id="Path_9380" class="st23" d="M408.9,628l-0.3-0.2c-0.3-0.2-0.6,0.3-0.3,0.5l0.3,0.2
														C408.9,628.7,409.2,628.2,408.9,628z"/>
												</g>
											</g>
										</g>
										<g id="Group_3425">
											<g id="Group_3424">
												<g id="Group_3423">
													<path id="Path_9381" class="st23" d="M409.6,627.5c-0.3-0.3-0.6-0.7-0.9-1c-0.3-0.2-0.6,0.1-0.4,0.4s0.6,0.7,0.9,1
														S409.8,627.8,409.6,627.5L409.6,627.5z"/>
												</g>
											</g>
										</g>
										<g id="Group_3428">
											<g id="Group_3427">
												<g id="Group_3426">
													<path id="Path_9382" class="st23" d="M405.2,622.3c-0.2-0.2-0.4-0.4-0.7-0.6c-0.3-0.2-0.6,0.3-0.3,0.5
														c0.2,0.1,0.4,0.3,0.6,0.5C405.1,623,405.5,622.6,405.2,622.3L405.2,622.3z"/>
												</g>
											</g>
										</g>
										<g id="Group_3431">
											<g id="Group_3430">
												<g id="Group_3429">
													<path id="Path_9383" class="st23" d="M403.7,623.2c0.2,0,0.3-0.1,0.3-0.3c0-0.2-0.1-0.3-0.3-0.3s-0.3,0.1-0.3,0.3
														C403.4,623.1,403.5,623.2,403.7,623.2C403.6,623.2,403.6,623.2,403.7,623.2z"/>
												</g>
											</g>
										</g>
									</g>
									<g id="Group_3435">
										<g id="Group_3434">
											<g id="Group_3433">
												<path id="Path_9384" class="st24" d="M452.9,653.3c4.7,1.3,10.2,1.1,13.7-2.7c3.7-4,2.6-9.6,0.7-14.1
													c-0.4-0.9-1.7-0.1-1.3,0.8c1.7,4,2.6,8.6-0.5,12.3s-8.2,3.5-12.2,2.3c-0.4-0.1-0.8,0.1-0.9,0.5c0,0,0,0,0,0
													C452.3,652.8,452.5,653.2,452.9,653.3L452.9,653.3z"/>
											</g>
										</g>
									</g>
									<g id="Group_3437">
										<g id="Group_3436">
											<path id="Path_9385" class="st17" d="M425.6,601.6c0,0-0.9,9.2-1.8,17.7c0,0-5.5,15.1-5,27.9
												c0.1,2.1-13.1,10.9-13.1,10.9l4.5,9.1l17-8.6c0,0,11.4,2.6,19.9,0.5c-1.2,2.5-2.5,4.8-4,7.1c-2,2.7,5.4,8.2,5.4,8.2
												s7.3-1.4,11.6-13.6c1.7-4.9,2.6-10,1.1-15c-2.2-6.7-6.1-12.6-11.4-17.2c-4.1-3.6-9.3-5.8-12.2-10.5
												c-3.4-5.5-2.8-16.6-2.8-16.6L425.6,601.6z"/>
										</g>
									</g>
									<g id="Group_3439">
										<g id="Group_3438">
											<path id="Path_9386" class="st19" d="M415.9,654.1c1.1,0,2.2-0.5,2.9-1.3c0.8-0.8,1.1-1.8,1-2.9c-0.2-0.8-0.7-1.5-1.4-2
												c-1.5,1.8-3.3,3.4-5.2,4.8C413.9,653.5,414.9,654,415.9,654.1z"/>
										</g>
									</g>
									<g id="Group_3441">
										<g id="Group_3440">
											<path id="Path_9387" class="st19" d="M421.3,639c-0.5-0.7-1.1-1.2-1.9-1.6c-0.3,2-0.5,4-0.6,6.1
												C420.9,642.8,422.9,641.2,421.3,639z"/>
										</g>
									</g>
									<g id="Group_3443">
										<g id="Group_3442">
											<path id="Path_9388" class="st19" d="M446.5,626.5c-5.2,1.9-2.1,8.1,2.1,8.9c2.4,0.5,4-1.1,5-3.1
												c-1.2-1.3-2.4-2.6-3.7-3.7c-1-0.9-2.1-1.7-3.2-2.5C446.7,626.3,446.6,626.4,446.5,626.5z"/>
										</g>
									</g>
									<g id="Group_3445">
										<g id="Group_3444">
											<path id="Path_9389" class="st19" d="M435.7,625.4l-1,0.4c-0.9,0.4-1.7,0.9-2.4,1.6c-1.4,1.3-2.3,3-1.4,4.9
												c1.4,2.6,5.4,2.5,7.3,0.6c1.4-1.4,2-3.4,1.6-5.4c-0.2-1.2-1.1-2.1-2.3-2.4C437,625.1,436.3,625.1,435.7,625.4z"/>
										</g>
									</g>
									<g id="Group_3447">
										<g id="Group_3446">
											<path id="Path_9390" class="st19" d="M427.7,612.2c0.3-1.9-0.7-4.5-2.7-4.8c-0.2,2.3-0.5,5.1-0.8,7.9
												C425.7,614.8,427.4,613.8,427.7,612.2z"/>
										</g>
									</g>
									<g id="Group_3449">
										<g id="Group_3448">
											<path id="Path_9391" class="st19" d="M426,629.7c-1.3-0.6-2.9-0.1-3.6,1.2c-0.7,1-1.6,2.7-0.4,3.7
												c1.6,1.3,4.5,0.8,5.3-1.1C427.9,632,427.3,630.4,426,629.7z"/>
										</g>
									</g>
									<g id="Group_3451">
										<g id="Group_3450">
											<path id="Path_9392" class="st19" d="M443.6,639.5c-1.9-0.3-5,0.5-3.6,2.5c1.2,1.6,3,2.7,4.9,3c0.8,0.1,2.9,0.4,3.3-0.5
												c0.3-0.8-0.4-1.8-0.9-2.3c-0.8-0.9-1.8-1.7-2.8-2.4C444.2,639.6,443.9,639.5,443.6,639.5z"/>
										</g>
									</g>
									<g id="Group_3453">
										<g id="Group_3452">
											<path id="Path_9393" class="st19" d="M430.7,639.4c-0.3,0.3-0.5,0.6-0.6,1c-0.3,0.9-0.4,2-0.1,2.9c0.7,2,3.5,1.6,4.6,0.2
												s0.3-3.1-0.7-4.1c-0.8-0.9-2.2-1-3.1-0.2c0,0,0,0,0,0L430.7,639.4z"/>
										</g>
									</g>
									<g id="Group_3455">
										<g id="Group_3454">
											<path id="Path_9394" class="st19" d="M430.5,619.4c-0.5-0.8-1.5-1.8-2.5-1.2c-1.1,0.6-2,1.6-2.4,2.8
												c-0.6,1.2-0.9,2.6,0.2,3.6c1.3,1.2,3.3,1.2,4.6-0.1c0.2-0.2,0.4-0.5,0.5-0.8C431.5,622.3,431.4,620.7,430.5,619.4z"/>
										</g>
									</g>
									<g id="Group_3457">
										<g id="Group_3456">
											<path id="Path_9395" class="st19" d="M457.6,656.2c-1.1,0.5-2,1.5-2.3,2.8c-1,2.6,0.2,5.5,2.8,6.6c0.8-1.5,1.5-3.1,2-4.7
												c0.3-0.8,0.5-1.5,0.7-2.3C460.3,657.3,459.1,655.6,457.6,656.2z"/>
										</g>
									</g>
									<g id="Group_3459">
										<g id="Group_3458">
											<path id="Path_9396" class="st19" d="M455.7,642.5c-0.1,1.3,0.3,2.6,1.3,3.5c1.1,1.4,3,2,4.7,1.5
												c-0.1-0.6-0.2-1.1-0.4-1.7c-0.6-2.2-1.5-4.2-2.6-6.2C457.3,640,455.9,640.9,455.7,642.5z"/>
										</g>
									</g>
									<g id="Group_3461">
										<g id="Group_3460">
											<path id="Path_9397" class="st19" d="M437.4,617.6c-0.9,0.4-1.8,1-1.7,2c0.2,1,0.8,1.8,1.7,2.2c1,0.6,2.2,0.7,3.2,0.3
												c0.1-0.1,0.2-0.1,0.4-0.2c-1.3-1.1-2.4-2.4-3.3-3.8L437.4,617.6z"/>
										</g>
									</g>
									<g id="Group_3463">
										<g id="Group_3462">
											<path id="Path_9398" class="st18" d="M446.7,657.5c1-2.9,0.4-6.1-1.5-8.5c0.3,0.3-0.3,2.1-0.3,2.6c0,0.7-0.1,1.3-0.5,1.8
												c-1.5,1.9-4.2,1.6-6.2,2.2c-3.6,1-7.8-0.8-10.5-3c-0.9-0.8-5.6-5.1-4.1-6.5c-0.4,0.5-0.7,1.1-0.8,1.7
												c-1.6,3.5-2.2,7.1-4.9,9.9c-0.7,0.7-9.1,6.8-9.6,5.7l1.9,3.8l17-8.6c0,0,10.2,2.6,18.7,0.7
												C446.2,658.8,446.5,658.2,446.7,657.5z"/>
										</g>
									</g>
									<g id="Group_3465">
										<g id="Group_3464">
											<path id="Path_9399" class="st20" d="M409.2,655.7c-2,1.4-3.6,2.5-3.6,2.5l4.5,9.1l5.3-2.7c1.1-2.2,0.8-5-0.8-6.9
												C413.3,655.8,411.2,655,409.2,655.7z"/>
										</g>
									</g>
									<g id="Group_3777">
										<g id="Group_3474">
											<g id="Group_3467">
												<g id="Group_3466">
													<path id="Path_9400" class="st25" d="M419.7,569c-1.7-1.4-3.2-3.1-4.4-4.9c-1.7-2.6-4-3.7-6.1-1.8s-2.5,7.9,6,12.8"/>
												</g>
											</g>
											<g id="Group_3469">
												<g id="Group_3468">
													<path id="Path_9401" class="st26" d="M413.9,569.6c-2-0.1-3.9-1.1-5.1-2.7c-0.4-0.6-0.7-1.2-0.9-1.8
														c-0.2,2.7,1.4,6.7,7.2,10l4.6-6.1c0,0-0.5-0.4-1.1-1C417.4,569.2,415.7,569.8,413.9,569.6z"/>
												</g>
											</g>
											<g id="Group_3471">
												<g id="Group_3470">
													<path id="Path_9402" class="st27" d="M411,565.2c0.1,0.1,0.1,0.2,0.2,0.3l0.4,0.8c0.1,0.2,0.2,0.3,0.3,0.5l0.3,0.6
														c0.1,0.2,0.2,0.4,0.4,0.6l0.4,0.6c0.1,0.2,0.3,0.3,0.4,0.5l0.5,0.5c0.2,0.1,0.3,0.3,0.5,0.4l0.2,0.2l0.2,0.1l0.4,0.2
														l0.4,0.1l0.3,0.1c-0.1,0-0.2,0-0.4,0h-0.2h-0.2c-0.2,0-0.4,0-0.5-0.1l-0.3-0.1l-0.3-0.1c-0.2-0.1-0.4-0.2-0.6-0.3
														c-0.2-0.1-0.4-0.3-0.6-0.5c-0.2-0.2-0.4-0.4-0.5-0.6c-0.2-0.2-0.3-0.4-0.4-0.7c-0.1-0.2-0.2-0.5-0.3-0.7
														c-0.1-0.2-0.2-0.4-0.2-0.7c-0.1-0.2-0.1-0.4-0.1-0.6c0-0.2,0-0.3-0.1-0.5c0-0.1,0-0.3,0-0.4
														C411,565.4,411,565.3,411,565.2z"/>
												</g>
											</g>
											<g id="Group_3473">
												<g id="Group_3472">
													<path id="Path_9403" class="st28" d="M411.9,563.2c-0.3,0-0.7,0-1,0s-0.8,0-1-0.3c-0.1-0.2,0-0.4,0.1-0.5
														c0.7-0.6,1.6-0.7,2.4-0.4c0.6,0.3,1.8,1,1.7,1.8c-0.1,0.5-0.7,0-0.9-0.2C412.8,563.3,412.4,563.2,411.9,563.2z"/>
												</g>
											</g>
										</g>
										<g id="Group_3483">
											<g id="Group_3476">
												<g id="Group_3475">
													<path id="Path_9404" class="st25" d="M442.2,569c1.7-1.4,3.2-3.1,4.4-4.9c1.7-2.6,4-3.7,6.1-1.8s2.4,7.9-6,12.8"/>
												</g>
											</g>
											<g id="Group_3478">
												<g id="Group_3477">
													<path id="Path_9405" class="st26" d="M447.9,569.6c2-0.1,3.9-1.1,5.1-2.7c0.4-0.6,0.7-1.2,0.9-1.8
														c0.2,2.7-1.4,6.7-7.2,10l-4.6-6.1c0,0,0.5-0.4,1.1-1C444.5,569.2,446.2,569.8,447.9,569.6z"/>
												</g>
											</g>
											<g id="Group_3480">
												<g id="Group_3479">
													<path id="Path_9406" class="st27" d="M450.9,565.2c-0.1,0.1-0.1,0.2-0.2,0.3l-0.4,0.8c-0.1,0.2-0.2,0.3-0.3,0.5
														l-0.3,0.6c-0.1,0.2-0.2,0.4-0.4,0.6l-0.4,0.6c-0.1,0.2-0.3,0.3-0.4,0.5l-0.5,0.5c-0.2,0.1-0.3,0.3-0.5,0.4l-0.2,0.2
														l-0.2,0.1l-0.4,0.2c-0.1,0.1-0.2,0.1-0.4,0.1l-0.3,0.1c0.1,0,0.2,0,0.4,0h0.2h0.2c0.2,0,0.4,0,0.5-0.1l0.3-0.1l0.3-0.1
														c0.2-0.1,0.4-0.2,0.6-0.3c0.2-0.1,0.4-0.3,0.6-0.5c0.2-0.2,0.4-0.4,0.5-0.6c0.2-0.2,0.3-0.4,0.4-0.7
														c0.1-0.2,0.2-0.5,0.3-0.7c0.1-0.2,0.2-0.4,0.2-0.7c0.1-0.2,0.1-0.4,0.1-0.6c0-0.2,0-0.3,0.1-0.5c0-0.1,0-0.3,0-0.4
														C450.9,565.2,450.9,565.2,450.9,565.2z"/>
												</g>
											</g>
											<g id="Group_3482">
												<g id="Group_3481">
													<path id="Path_9407" class="st28" d="M450,563.2c0.3,0,0.7,0,1,0s0.8,0,1-0.3c0.1-0.2,0-0.4-0.1-0.5
														c-0.7-0.6-1.6-0.7-2.4-0.4c-0.6,0.3-1.8,1-1.7,1.8c0.1,0.5,0.7,0,0.9-0.2C449,563.3,449.5,563.2,450,563.2z"/>
												</g>
											</g>
										</g>
										<g id="Group_3491">
											<g id="Group_3490">
												<path id="Path_9409" class="st17" d="M449.7,586.9c0-7.6-2.5-15.4-8.8-20.1c-2.9-2.1-6.3-3.3-9.9-3.3
													c-7.2,0.1-13.2,4.7-16.3,11c-1,2-1.7,4.2-2.1,6.4c-0.9,5-1,11,1.3,15.7c1.2,2.6,3.1,4.9,5.4,6.6
													c3.1,2.2,7.8,3.1,11.5,3.1c2.1,0,4.2-0.3,6.3-0.9C445.2,602.9,449.6,595.5,449.7,586.9z"/>
											</g>
										</g>
										<g id="Group_3493">
											<g id="Group_3492">
												<path id="Path_9410" class="st18" d="M448.3,587.8c-2-1.6-4.4-2.5-7-2.7c-3.8-0.5-7.3,0.1-11.1,0.8
													c-4.9,0.9-10.5,1.2-13.2-3.9c-3-5.9,1.3-11.5,6-14.9c2.4-1.7,5.1-3.2,8.1-3.3c2.8-0.1,5.5,0.8,7.8,2.4
													c4.4,3,7.5,7.7,9.6,12.6c-1.1-4.8-3.9-9-7.8-12.1c-2.9-2.1-6.3-3.3-9.9-3.3c-7.2,0.1-13.2,4.7-16.3,11
													c-1,2-1.7,4.2-2.1,6.4c-0.9,5-1,11,1.3,15.7c1.2,2.6,3.1,4.9,5.4,6.6c3.1,2.2,7.8,3.1,11.5,3.1c2.1,0,4.2-0.3,6.3-0.9
													c7.4-2.3,11.8-8.6,12.5-16.3C449.1,588.7,448.7,588.2,448.3,587.8z"/>
											</g>
										</g>
										<g id="Group_3495">
											<g id="Group_3494">
												<path id="Path_9411" class="st19" d="M433.2,586.2c-4.4-0.1-8.8,0.4-13.1,1.3c-2.4,0.5-4.8,1.2-7.1,2.2l-0.9,0.4
													c0.2,2.3,0.8,4.5,1.7,6.5c1.3,2.6,3.1,4.9,5.4,6.6c3.1,2.2,7.8,3.1,11.5,3.1c2.1,0,4.2-0.3,6.3-0.9
													c7-2.2,11.2-7.9,12.3-15C444.7,587.3,438.9,586.2,433.2,586.2z"/>
											</g>
										</g>
										<g id="Group_3497">
											<g id="Group_3496">
												<path id="Path_9412" class="st29" d="M432.6,604.8c-2.9-0.3-5.7-1.1-8.2-2.4c-2.5-1.4-5.2-3.4-6.7-5.9
													c-3.8-6.5,7.7-9.3,12-9.8c6.8-0.9,13.8,0.6,19.7,4.1c0-0.1,0-0.3,0.1-0.4c-4.7-3.1-10.5-4.3-16.2-4.3
													c-4.4-0.1-8.8,0.4-13.1,1.3c-2.4,0.5-4.8,1.2-7.1,2.2l-0.9,0.4c0.2,2.3,0.8,4.5,1.8,6.5c1.2,2.6,3.1,4.9,5.4,6.6
													c3.1,2.2,7.8,3.1,11.5,3.1c2.1,0,4.2-0.3,6.3-0.9c0.7-0.2,1.4-0.5,2.1-0.8C437,605,434.8,605.1,432.6,604.8z"/>
											</g>
										</g>
										<g id="Group_3503">
											<g id="Group_3502">
												<g id="Group_3501">
													<g id="Group_3500">
														<g id="Group_3499">
															<g id="Group_3498">
																<path id="Path_9413" class="st30" d="M444.2,585c0,0.9-1.6,1.6-3.6,1.6s-3.6-0.7-3.6-1.6s1.6-1.6,3.6-1.6
																	S444.2,584.1,444.2,585z"/>
															</g>
														</g>
													</g>
												</g>
											</g>
										</g>
										<g id="Group_3509">
											<g id="Group_3508">
												<g id="Group_3507">
													<g id="Group_3506">
														<g id="Group_3505">
															<g id="Group_3504">
																<ellipse id="Ellipse_490" class="st30" cx="421.3" cy="585.1" rx="3.6" ry="1.6"/>
															</g>
														</g>
													</g>
												</g>
											</g>
										</g>
										<g id="Group_3516">
											<g id="Group_3511">
												<g id="Group_3510">
													<path id="Path_9414" class="st31" d="M426.5,581c-0.3,1.3-1.5,2.1-2.8,1.8c-1.3-0.3-2.1-1.5-1.8-2.8
														c0.2-1.1,1.2-1.8,2.3-1.8C425.6,578.3,426.6,579.6,426.5,581z"/>
												</g>
											</g>
											<g id="Group_3513">
												<g id="Group_3512">
													<path id="Path_9415" class="st3" d="M426.6,580.8c0,0.6-0.4,1-1,1s-1-0.4-1-1s0.4-1,1-1S426.6,580.3,426.6,580.8z"/>
												</g>
											</g>
											<g id="Group_3515">
												<g id="Group_3514">
													<path id="Path_9416" class="st3" d="M424.5,579.6c0,0.3-0.1,0.5-0.4,0.5s-0.5-0.1-0.5-0.4c0,0,0-0.1,0-0.1
														c0-0.3,0.3-0.4,0.5-0.4C424.4,579.2,424.5,579.4,424.5,579.6z"/>
												</g>
											</g>
										</g>
										<g id="Group_3523">
											<g id="Group_3518">
												<g id="Group_3517">
													<path id="Path_9417" class="st31" d="M439.5,581c-0.3,1.3-1.5,2.1-2.8,1.8c-1.3-0.3-2.1-1.5-1.8-2.8
														c0.2-1.1,1.2-1.9,2.3-1.9C438.6,578.3,439.6,579.6,439.5,581z"/>
												</g>
											</g>
											<g id="Group_3520">
												<g id="Group_3519">
													<path id="Path_9418" class="st3" d="M439.6,580.8c0,0.6-0.4,1-1,1s-1-0.4-1-1s0.4-1,1-1S439.6,580.3,439.6,580.8z"/>
												</g>
											</g>
											<g id="Group_3522">
												<g id="Group_3521">
													<path id="Path_9419" class="st3" d="M437.6,579.6c0,0.3-0.2,0.5-0.5,0.5s-0.5-0.2-0.5-0.5s0.2-0.5,0.5-0.5
														S437.6,579.3,437.6,579.6L437.6,579.6z"/>
												</g>
											</g>
										</g>
										<g id="Group_3526">
											<g id="Group_3525">
												<g id="Group_3524">
													<path id="Path_9420" class="st32" d="M418.1,595.8c0.5,1.5,1.3,2.8,2.4,4c1.1,1.1,2.5,1.8,4,2.2c0.7,0.2,1-0.8,0.3-1.1
														c-1.3-0.4-2.5-1.1-3.5-2c-0.9-1-1.6-2.2-2.1-3.5C418.9,594.8,417.9,595.1,418.1,595.8L418.1,595.8z"/>
												</g>
											</g>
										</g>
										<g id="Group_3534">
											<g id="Group_3531">
												<g id="Group_3528">
													<g id="Group_3527">
														<path id="Path_9421" class="st33" d="M424.1,590.8c0,1,0.6,1.8,1.3,1.8s1.3-0.8,1.3-1.8s-0.6-1.8-1.3-1.8
															S424.1,589.8,424.1,590.8z"/>
													</g>
												</g>
												<g id="Group_3530">
													<g id="Group_3529">
														<path id="Path_9422" class="st34" d="M424.3,589.8c0.2-0.4,0.6-0.8,1.1-0.8c0.7,0,1.3,0.8,1.3,1.8
															c0,0.3-0.1,0.6-0.2,0.9C426.3,590.2,425.7,589.7,424.3,589.8z"/>
													</g>
												</g>
											</g>
											<g id="Group_3533">
												<g id="Group_3532">
													<path id="Path_9423" class="st35" d="M428.1,588.4h-0.3l-0.7-0.1c-0.3,0-0.6-0.1-1-0.1c-0.2,0-0.3,0-0.5,0H425
														c-0.2,0-0.3,0-0.5,0.1l-0.5,0.1c-0.1,0.1-0.3,0.1-0.5,0.2c-0.1,0-0.3,0.1-0.4,0.2c-0.1,0-0.3,0.1-0.4,0.2l-0.3,0.2
														l-0.3,0.2c0-0.1,0-0.2,0.1-0.3c0-0.1,0.1-0.2,0.1-0.3c0.1-0.1,0.1-0.3,0.2-0.4c0.1-0.2,0.2-0.3,0.4-0.4
														c0.2-0.1,0.3-0.3,0.5-0.4c0.2-0.1,0.4-0.2,0.6-0.3c0.5-0.1,0.9-0.2,1.4-0.1c0.1,0,0.2,0,0.3,0.1l0.3,0.1
														c0.4,0.1,0.7,0.3,1,0.6c0.1,0.1,0.2,0.2,0.4,0.3c0.1,0.1,0.2,0.2,0.2,0.3L428.1,588.4z"/>
												</g>
											</g>
										</g>
										<g id="Group_3542">
											<g id="Group_3539">
												<g id="Group_3536">
													<g id="Group_3535">
														<path id="Path_9424" class="st33" d="M438.5,590.8c0,1-0.6,1.8-1.3,1.8s-1.3-0.8-1.3-1.8s0.6-1.8,1.3-1.8
															S438.5,589.8,438.5,590.8z"/>
													</g>
												</g>
												<g id="Group_3538">
													<g id="Group_3537">
														<path id="Path_9425" class="st34" d="M438.3,589.8c-0.2-0.4-0.6-0.8-1.1-0.8c-0.7,0-1.3,0.8-1.3,1.8
															c0,0.3,0.1,0.6,0.2,0.9C436.3,590.2,436.9,589.7,438.3,589.8z"/>
													</g>
												</g>
											</g>
											<g id="Group_3541">
												<g id="Group_3540">
													<path id="Path_9426" class="st35" d="M434.5,588.4c0.1-0.1,0.1-0.2,0.2-0.3c0.1-0.1,0.1-0.2,0.2-0.3
														c0.1-0.1,0.2-0.2,0.3-0.3c0.3-0.2,0.6-0.4,1-0.6l0.3-0.1c0.1,0,0.2,0,0.3-0.1c0.2,0,0.5,0,0.7,0c0.2,0,0.5,0.1,0.7,0.2
														c0.2,0.1,0.4,0.2,0.6,0.3c0.2,0.1,0.4,0.2,0.5,0.4c0.1,0.1,0.3,0.3,0.4,0.4c0.1,0.1,0.2,0.3,0.2,0.4
														c0.1,0.1,0.1,0.2,0.1,0.3c0,0.1,0.1,0.2,0.1,0.3c-0.1,0-0.2-0.1-0.3-0.2l-0.3-0.2l-0.4-0.2c-0.1-0.1-0.3-0.1-0.4-0.2
														c-0.1-0.1-0.3-0.1-0.5-0.2s-0.3-0.1-0.5-0.1l-0.5-0.1c-0.2,0-0.3,0-0.5,0h-0.5l-1,0.1c-0.3,0-0.5,0.1-0.7,0.1
														L434.5,588.4z"/>
												</g>
											</g>
										</g>
										<g id="Group_3545">
											<g id="Group_3544">
												<g id="Group_3543">
													<path id="Path_9427" class="st32" d="M417.5,596.3c1.3-0.3,2.4-1.3,2.7-2.6c0.1-0.7-0.9-1-1.1-0.3c-0.2,1-1,1.7-2,1.8
														C416.5,595.3,416.8,596.4,417.5,596.3L417.5,596.3z"/>
												</g>
											</g>
										</g>
										<g id="Group_3654">
											<g id="Group_3548">
												<g id="Group_3547">
													<g id="Group_3546">
														<path id="Path_9428" class="st36" d="M430.8,587.6c0.2,0,0.4-0.2,0.4-0.4c0-0.2-0.2-0.4-0.4-0.4
															c-0.2,0-0.4,0.2-0.4,0.4c0,0,0,0,0,0C430.5,587.4,430.6,587.6,430.8,587.6z"/>
													</g>
												</g>
											</g>
											<g id="Group_3551">
												<g id="Group_3550">
													<g id="Group_3549">
														<path id="Path_9429" class="st36" d="M431.3,590c0.2,0,0.4-0.2,0.4-0.4c0-0.2-0.2-0.3-0.4-0.3c-0.2,0-0.3,0.2-0.3,0.4
															C431,589.8,431.1,590,431.3,590z"/>
													</g>
												</g>
											</g>
											<g id="Group_3554">
												<g id="Group_3553">
													<g id="Group_3552">
														<path id="Path_9430" class="st36" d="M432.6,588c0.2,0,0.4-0.2,0.4-0.4c0-0.2-0.2-0.4-0.4-0.4c-0.2,0-0.4,0.2-0.4,0.4
															c0,0,0,0,0,0C432.2,587.8,432.4,588,432.6,588L432.6,588z"/>
													</g>
												</g>
											</g>
											<g id="Group_3557">
												<g id="Group_3556">
													<g id="Group_3555">
														<path id="Path_9431" class="st36" d="M434.6,590c0.2,0,0.4-0.2,0.4-0.4c0,0,0,0,0,0c0-0.2-0.2-0.4-0.4-0.4
															c-0.2,0-0.4,0.2-0.4,0.4c0,0,0,0,0,0C434.2,589.9,434.4,590,434.6,590z"/>
													</g>
												</g>
											</g>
											<g id="Group_3560">
												<g id="Group_3559">
													<g id="Group_3558">
														<path id="Path_9432" class="st36" d="M428.7,590.6c0.2,0,0.4-0.2,0.4-0.4c0-0.2-0.1-0.4-0.3-0.4
															c-0.2,0-0.4,0.1-0.4,0.3c0,0,0,0.1,0,0.1C428.3,590.4,428.4,590.6,428.7,590.6z"/>
													</g>
												</g>
											</g>
											<g id="Group_3563">
												<g id="Group_3562">
													<g id="Group_3561">
														<path id="Path_9433" class="st36" d="M429.8,589.1c0.2,0,0.4-0.2,0.4-0.4c0,0,0,0,0,0c0-0.2-0.2-0.4-0.4-0.4
															c-0.2,0-0.4,0.2-0.4,0.4C429.5,588.9,429.6,589.1,429.8,589.1z"/>
													</g>
												</g>
											</g>
											<g id="Group_3566">
												<g id="Group_3565">
													<g id="Group_3564">
														<path id="Path_9434" class="st36" d="M430.3,592.1c0.2,0,0.4-0.2,0.4-0.4c0,0,0,0,0,0c0-0.2-0.2-0.4-0.4-0.4
															c-0.2,0-0.4,0.2-0.4,0.4C429.9,591.9,430.1,592.1,430.3,592.1z"/>
													</g>
												</g>
											</g>
											<g id="Group_3569">
												<g id="Group_3568">
													<g id="Group_3567">
														<path id="Path_9435" class="st36" d="M434.5,591.5c0.2,0,0.4-0.2,0.4-0.4c0,0,0,0,0,0c0-0.2-0.2-0.4-0.4-0.4
															c-0.2,0-0.4,0.2-0.4,0.4C434.2,591.4,434.3,591.5,434.5,591.5z"/>
													</g>
												</g>
											</g>
											<g id="Group_3572">
												<g id="Group_3571">
													<g id="Group_3570">
														<path id="Path_9436" class="st36" d="M433.9,587.8c0.2,0,0.4-0.2,0.4-0.4s-0.2-0.4-0.4-0.4c-0.2,0-0.4,0.2-0.4,0.4
															c0,0,0,0,0,0C433.6,587.6,433.7,587.8,433.9,587.8z"/>
													</g>
												</g>
											</g>
											<g id="Group_3575">
												<g id="Group_3574">
													<g id="Group_3573">
														<path id="Path_9437" class="st36" d="M432.7,591.5c0.2,0,0.4-0.2,0.4-0.4c0,0,0,0,0,0c0-0.2-0.2-0.4-0.4-0.4
															c-0.2,0-0.4,0.2-0.4,0.4C432.3,591.3,432.5,591.5,432.7,591.5z"/>
													</g>
												</g>
											</g>
											<g id="Group_3578">
												<g id="Group_3577">
													<g id="Group_3576">
														<path id="Path_9438" class="st36" d="M427.3,592.6c0.2,0,0.4-0.2,0.4-0.4c0,0,0,0,0,0c0-0.2-0.2-0.4-0.4-0.4
															c-0.2,0-0.4,0.2-0.4,0.4C426.9,592.4,427.1,592.6,427.3,592.6z"/>
													</g>
												</g>
											</g>
											<g id="Group_3581">
												<g id="Group_3580">
													<g id="Group_3579">
														<path id="Path_9439" class="st36" d="M427.4,589.3c0.2,0,0.4-0.2,0.4-0.4c0,0,0,0,0,0c0-0.2-0.2-0.4-0.4-0.4
															c-0.2,0-0.4,0.2-0.4,0.4c0,0,0,0,0,0C427.1,589.1,427.2,589.3,427.4,589.3z"/>
													</g>
												</g>
											</g>
											<g id="Group_3584">
												<g id="Group_3583">
													<g id="Group_3582">
														<path id="Path_9440" class="st36" d="M421.2,590.7c0.2,0,0.4-0.2,0.4-0.4c0-0.2-0.2-0.4-0.4-0.4
															c-0.2,0-0.4,0.2-0.4,0.4c0,0,0,0,0,0C420.8,590.6,421,590.7,421.2,590.7z"/>
													</g>
												</g>
											</g>
											<g id="Group_3587">
												<g id="Group_3586">
													<g id="Group_3585">
														<path id="Path_9441" class="st36" d="M421,588.3c0.2,0,0.4-0.2,0.4-0.4s-0.2-0.4-0.4-0.4c-0.2,0-0.4,0.2-0.4,0.4
															c0,0,0,0,0,0C420.6,588.1,420.8,588.3,421,588.3z"/>
													</g>
												</g>
											</g>
											<g id="Group_3590">
												<g id="Group_3589">
													<g id="Group_3588">
														<path id="Path_9442" class="st36" d="M418.4,589.6c0.2,0,0.4-0.2,0.4-0.4l0,0c0-0.2-0.2-0.4-0.4-0.4
															c-0.2,0-0.4,0.2-0.4,0.4C418,589.4,418.2,589.6,418.4,589.6z"/>
													</g>
												</g>
											</g>
											<g id="Group_3593">
												<g id="Group_3592">
													<g id="Group_3591">
														<path id="Path_9443" class="st36" d="M422.4,592.3c0.2,0,0.4-0.2,0.4-0.4c0-0.2-0.2-0.3-0.4-0.3
															c-0.2,0-0.3,0.2-0.3,0.4C422.1,592.1,422.2,592.3,422.4,592.3z"/>
													</g>
												</g>
											</g>
											<g id="Group_3596">
												<g id="Group_3595">
													<g id="Group_3594">
														<path id="Path_9444" class="st36" d="M440.2,592.6c0.2,0,0.4-0.2,0.4-0.4s-0.2-0.4-0.4-0.4c-0.2,0-0.4,0.2-0.4,0.4
															C439.9,592.4,440,592.6,440.2,592.6z"/>
													</g>
												</g>
											</g>
											<g id="Group_3599">
												<g id="Group_3598">
													<g id="Group_3597">
														<path id="Path_9445" class="st36" d="M440,590.9c0.2,0,0.4-0.2,0.4-0.4s-0.2-0.4-0.4-0.4c-0.2,0-0.4,0.2-0.4,0.4
															c0,0,0,0,0,0C439.7,590.7,439.8,590.9,440,590.9z"/>
													</g>
												</g>
											</g>
											<g id="Group_3602">
												<g id="Group_3601">
													<g id="Group_3600">
														<path id="Path_9446" class="st36" d="M441.9,590c0.2,0,0.4-0.2,0.4-0.4c0-0.2-0.2-0.3-0.4-0.3c-0.2,0-0.3,0.2-0.3,0.4
															C441.6,589.8,441.7,590,441.9,590z"/>
													</g>
												</g>
											</g>
											<g id="Group_3605">
												<g id="Group_3604">
													<g id="Group_3603">
														<path id="Path_9447" class="st36" d="M441.8,588.5c0.2,0,0.4-0.2,0.4-0.4c0-0.2-0.2-0.4-0.4-0.4s-0.4,0.2-0.4,0.4
															c0,0,0,0,0,0C441.4,588.4,441.6,588.5,441.8,588.5z"/>
													</g>
												</g>
											</g>
											<g id="Group_3608">
												<g id="Group_3607">
													<g id="Group_3606">
														<path id="Path_9448" class="st36" d="M442,591.9c0.2,0,0.4-0.2,0.4-0.4c0,0,0,0,0,0c0-0.2-0.2-0.4-0.4-0.4
															c-0.2,0-0.4,0.2-0.4,0.4C441.6,591.7,441.8,591.9,442,591.9z"/>
													</g>
												</g>
											</g>
											<g id="Group_3611">
												<g id="Group_3610">
													<g id="Group_3609">
														<path id="Path_9449" class="st36" d="M444.1,589.4c0.2,0,0.4-0.2,0.4-0.4c0-0.2-0.2-0.3-0.4-0.4
															c-0.2,0-0.4,0.2-0.4,0.4c0,0,0,0,0,0C443.7,589.3,443.9,589.4,444.1,589.4z"/>
													</g>
												</g>
											</g>
											<g id="Group_3614">
												<g id="Group_3613">
													<g id="Group_3612">
														<path id="Path_9450" class="st36" d="M428.2,587.5c0.2,0,0.4-0.2,0.4-0.4c0-0.2-0.2-0.4-0.4-0.4h0
															c-0.2,0-0.4,0.2-0.4,0.4c0,0,0,0,0,0C427.9,587.4,428,587.5,428.2,587.5L428.2,587.5z"/>
													</g>
												</g>
											</g>
											<g id="Group_3617">
												<g id="Group_3616">
													<g id="Group_3615">
														<path id="Path_9451" class="st36" d="M433.1,589.8c0.2,0,0.4-0.2,0.4-0.4s-0.2-0.4-0.4-0.4c-0.2,0-0.4,0.2-0.4,0.4
															c0,0,0,0,0,0C432.7,589.6,432.9,589.8,433.1,589.8z"/>
													</g>
												</g>
											</g>
											<g id="Group_3620">
												<g id="Group_3619">
													<g id="Group_3618">
														<path id="Path_9452" class="st36" d="M443.5,591c0.2,0,0.4-0.2,0.4-0.4c0,0,0,0,0,0c0-0.2-0.2-0.4-0.4-0.4
															c-0.2,0-0.4,0.2-0.4,0.4c0,0,0,0,0,0C443.1,590.8,443.3,591,443.5,591L443.5,591z"/>
													</g>
												</g>
											</g>
											<g id="Group_3623">
												<g id="Group_3622">
													<g id="Group_3621">
														<path id="Path_9453" class="st36" d="M419,591c0.2,0,0.4-0.2,0.4-0.4c0,0,0,0,0,0c0-0.2-0.2-0.4-0.4-0.4l0,0
															c-0.2,0-0.4,0.2-0.4,0.4c0,0,0,0,0,0C418.6,590.8,418.8,591,419,591z"/>
													</g>
												</g>
											</g>
											<g id="Group_3626">
												<g id="Group_3625">
													<g id="Group_3624">
														<path id="Path_9454" class="st36" d="M420.2,589.4c0.2,0,0.4-0.2,0.4-0.4c0,0,0,0,0,0c0-0.2-0.2-0.4-0.4-0.4
															c-0.2,0-0.4,0.2-0.4,0.4c0,0,0,0,0,0C419.8,589.3,419.9,589.4,420.2,589.4L420.2,589.4z"/>
													</g>
												</g>
											</g>
											<g id="Group_3629">
												<g id="Group_3628">
													<g id="Group_3627">
														<path id="Path_9455" class="st36" d="M422.7,590.4c0.2,0,0.4-0.2,0.3-0.5c0-0.2-0.2-0.3-0.3-0.3
															c-0.2,0-0.4,0.2-0.3,0.5C422.4,590.3,422.5,590.4,422.7,590.4z"/>
													</g>
												</g>
											</g>
											<g id="Group_3632">
												<g id="Group_3631">
													<g id="Group_3630">
														<path id="Path_9456" class="st36" d="M429.1,588c0.2,0,0.4-0.2,0.4-0.4c0-0.2-0.2-0.4-0.4-0.4c-0.2,0-0.4,0.2-0.4,0.4
															c0,0,0,0,0,0C428.7,587.8,428.9,588,429.1,588L429.1,588z"/>
													</g>
												</g>
											</g>
											<g id="Group_3635">
												<g id="Group_3634">
													<g id="Group_3633">
														<path id="Path_9457" class="st36" d="M440.7,588.5c0.2,0,0.4-0.2,0.4-0.4c0,0,0,0,0,0c0-0.2-0.2-0.4-0.4-0.4
															c-0.2,0-0.4,0.2-0.4,0.4c0,0,0,0,0,0C440.3,588.3,440.5,588.4,440.7,588.5z"/>
													</g>
												</g>
											</g>
											<g id="Group_3638">
												<g id="Group_3637">
													<g id="Group_3636">
														<path id="Path_9458" class="st36" d="M443,589.2c0.2,0,0.4-0.2,0.4-0.4s-0.2-0.4-0.4-0.4l0,0c-0.2,0-0.4,0.2-0.4,0.4
															C442.7,589,442.8,589.2,443,589.2z"/>
													</g>
												</g>
											</g>
											<g id="Group_3641">
												<g id="Group_3640">
													<g id="Group_3639">
														<path id="Path_9459" class="st36" d="M445.4,590.2c0.2,0,0.4-0.2,0.4-0.4c0-0.2-0.2-0.4-0.4-0.3
															c-0.2,0-0.3,0.2-0.3,0.3C445,590,445.2,590.2,445.4,590.2z"/>
													</g>
												</g>
											</g>
											<g id="Group_3644">
												<g id="Group_3643">
													<g id="Group_3642">
														<path id="Path_9460" class="st36" d="M434.8,593c0.2,0,0.4-0.2,0.4-0.4s-0.2-0.4-0.4-0.4c-0.2,0-0.4,0.2-0.4,0.4
															c0,0,0,0,0,0C434.4,592.8,434.6,592.9,434.8,593z"/>
													</g>
												</g>
											</g>
											<g id="Group_3647">
												<g id="Group_3646">
													<g id="Group_3645">
														<path id="Path_9461" class="st36" d="M432.1,593c0.2,0,0.4-0.2,0.4-0.4c0-0.2-0.2-0.4-0.4-0.4c-0.2,0-0.4,0.2-0.4,0.4
															c0,0,0,0,0,0C431.8,592.9,431.9,593,432.1,593z"/>
													</g>
												</g>
											</g>
											<g id="Group_3650">
												<g id="Group_3649">
													<g id="Group_3648">
														<path id="Path_9462" class="st36" d="M428.9,593.6c0.2,0,0.4-0.2,0.4-0.4c0,0,0,0,0,0c0-0.2-0.2-0.4-0.4-0.4
															c-0.2,0-0.4,0.2-0.4,0.4C428.5,593.4,428.7,593.6,428.9,593.6z"/>
													</g>
												</g>
											</g>
											<g id="Group_3653">
												<g id="Group_3652">
													<g id="Group_3651">
														<path id="Path_9463" class="st36" d="M428.9,593.6c0.2,0,0.4-0.2,0.4-0.4c0,0,0,0,0,0c0-0.2-0.2-0.4-0.4-0.4
															c-0.2,0-0.4,0.2-0.4,0.4C428.5,593.4,428.7,593.6,428.9,593.6z"/>
													</g>
												</g>
											</g>
										</g>
										<g id="Group_3656">
											<g id="Group_3655">
												<path id="Path_9464" class="st18" d="M424.7,564.8c0.7-1.7,1.7-3.3,2.9-4.7c0.3-0.3,1.3-1.2,1.8-0.8
													c0.9,0.6-0.7,1.8,0.2,2.3s1.7-1.2,2.8-0.9c1.2,0.3,0,1.4,0.1,2.1c0.7,0,2.1-0.3,2.5,0.4s-0.3,1.4-0.2,2.1"/>
											</g>
										</g>
										<g id="Group_3667">
											<g id="Group_3658">
												<g id="Group_3657">
													<path id="Path_9465" class="st33" d="M424.1,567c0,0-2.9-3.8-2.3-7.2l-4.4,1.5l4,6.9
														C421.4,568.2,422.9,569.2,424.1,567z"/>
												</g>
											</g>
											<g id="Group_3660">
												<g id="Group_3659">
													<path id="Path_9466" class="st37" d="M421.8,561.6c-0.1-0.6-0.1-1.2,0-1.8l-4.4,1.5l4,6.9c0.1,0.1,0.3,0.1,0.5,0.2
														C421.1,566.2,421,563.8,421.8,561.6z"/>
												</g>
											</g>
											<g id="Group_3662">
												<g id="Group_3661">
													<path id="Path_9467" class="st38" d="M422.6,557.7c0,2.5-2,4.5-4.5,4.5c-2.5,0-4.5-2-4.5-4.5c0-2.5,2-4.5,4.5-4.5
														c0,0,0,0,0,0l0,0C420.6,553.2,422.6,555.2,422.6,557.7C422.6,557.7,422.6,557.7,422.6,557.7L422.6,557.7z"/>
												</g>
											</g>
											<g id="Group_3664">
												<g id="Group_3663">
													<path id="Path_9468" class="st39" d="M419.5,559.8c-2.2,0.7-4.6-0.2-5.9-2.1l0,0c-0.1,2.5,1.8,4.6,4.3,4.7
														c2.5,0.1,4.6-1.8,4.7-4.3c0-0.1,0-0.3,0-0.4c0-0.1,0-0.2,0-0.2C421.8,558.5,420.7,559.3,419.5,559.8z"/>
												</g>
											</g>
											<g id="Group_3666">
												<g id="Group_3665">
													<path id="Path_9469" class="st40" d="M420.4,554.9c0.2,0.7-0.3,1.5-1.1,1.6c-0.7,0.2-1.5-0.3-1.6-1.1
														c-0.2-0.7,0.3-1.5,1.1-1.6c0.1,0,0.2,0,0.3,0C419.7,553.7,420.3,554.2,420.4,554.9
														C420.4,554.9,420.4,554.9,420.4,554.9z"/>
												</g>
											</g>
										</g>
										<g id="Group_3678">
											<g id="Group_3669">
												<g id="Group_3668">
													<path id="Path_9470" class="st33" d="M436.9,566.7c0,0,2.9-3.8,2.3-7.2l4.4,1.5l-4,6.9
														C439.6,568,438.1,568.9,436.9,566.7z"/>
												</g>
											</g>
											<g id="Group_3671">
												<g id="Group_3670">
													<path id="Path_9471" class="st37" d="M439.2,561.4c0.1-0.6,0.1-1.2,0-1.8l4.4,1.5l-4,6.9c-0.1,0.1-0.3,0.1-0.5,0.2
														C440,565.9,440,563.5,439.2,561.4z"/>
												</g>
											</g>
											<g id="Group_3673">
												<g id="Group_3672">
													<path id="Path_9472" class="st38" d="M438.4,557.4c0,2.5,2,4.5,4.5,4.5h0l0,0c2.5,0,4.5-2,4.5-4.5c0,0,0,0,0,0l0,0
														c0.3-2.5-1.5-4.7-4-5c-2.5-0.3-4.7,1.5-5,4C438.4,556.7,438.4,557.1,438.4,557.4L438.4,557.4z"/>
												</g>
											</g>
											<g id="Group_3675">
												<g id="Group_3674">
													<path id="Path_9473" class="st39" d="M441.6,559.5c2.2,0.7,4.6-0.2,5.9-2.1l0,0c0.3,2.5-1.5,4.7-4,5
														c-2.5,0.3-4.7-1.5-5-4c0-0.3,0-0.7,0-1c0-0.1,0-0.2,0-0.2C439.2,558.2,440.3,559,441.6,559.5z"/>
												</g>
											</g>
											<g id="Group_3677">
												<g id="Group_3676">
													<path id="Path_9474" class="st40" d="M440.7,554.6c-0.2,0.7,0.3,1.5,1.1,1.6c0.7,0.2,1.5-0.3,1.6-1.1
														c0.2-0.7-0.3-1.5-1.1-1.6c-0.1,0-0.2,0-0.3,0C441.4,553.4,440.8,553.9,440.7,554.6z"/>
												</g>
											</g>
										</g>
										<g id="Group_3680">
											<g id="Group_3679">
												<path id="Path_9475" class="st17" d="M424,566.7c1-1.6,2.5-3.1,3.9-3.2c0.2,0,0.5,0,0.7,0c0.3,0.1,0.1,0.1,0.4,0.4
													c0.8,1,1.9,1,3.1,0.7c0.8-0.2,1.7-0.5,2.3,0c0.5,0.3,1,1.3,1.5,1.5"/>
											</g>
										</g>
										<g id="Group_3683">
											<g id="Group_3682">
												<g id="Group_3681">
													<path id="Path_9476" class="st41" d="M412.8,586.6c0,0.7,0,1.4,0,2.1c0,0.3,0.6,0.4,0.6,0c0-0.7,0-1.4,0-2.1
														c0-0.1-0.1-0.3-0.3-0.3c0,0,0,0,0,0C412.9,586.3,412.8,586.5,412.8,586.6z"/>
												</g>
											</g>
										</g>
										<g id="Group_3686">
											<g id="Group_3685">
												<g id="Group_3684">
													<path id="Path_9477" class="st41" d="M413.8,585.6c0.1,0.5,0.2,1,0.5,1.5c0.1,0.1,0.3,0.2,0.4,0.1
														c0.1-0.1,0.2-0.3,0.1-0.4c-0.2-0.4-0.3-0.9-0.4-1.3C414.3,585.1,413.7,585.3,413.8,585.6z"/>
												</g>
											</g>
										</g>
										<g id="Group_3689">
											<g id="Group_3688">
												<g id="Group_3687">
													<path id="Path_9478" class="st41" d="M412.7,583.5c0,0.4-0.1,0.9-0.1,1.3c0,0.2,0.1,0.3,0.3,0.3c0.2,0,0.3-0.1,0.3-0.3
														l0,0c0-0.4,0.1-0.9,0.1-1.3S412.8,583.2,412.7,583.5z"/>
												</g>
											</g>
										</g>
										<g id="Group_3692">
											<g id="Group_3691">
												<g id="Group_3690">
													<path id="Path_9479" class="st41" d="M413.2,580.1c0,0.2-0.1,0.4-0.1,0.7s0.5,0.5,0.5,0.2s0.1-0.4,0.1-0.7
														S413.3,579.7,413.2,580.1z"/>
												</g>
											</g>
										</g>
										<g id="Group_3695">
											<g id="Group_3694">
												<g id="Group_3693">
													<path id="Path_9480" class="st41" d="M413.9,583.2c0,0.2,0,0.4,0.1,0.7s0.6,0.2,0.5-0.2s0-0.4-0.1-0.7
														c0-0.1-0.2-0.2-0.3-0.2c0,0,0,0,0,0l0,0C413.9,582.9,413.8,583,413.9,583.2z"/>
												</g>
											</g>
										</g>
										<g id="Group_3698">
											<g id="Group_3697">
												<g id="Group_3696">
													<path id="Path_9481" class="st41" d="M414.3,578.5c0,0.4,0,0.8-0.1,1.2s0.5,0.4,0.6,0s0-0.8,0.1-1.2
														S414.4,578.1,414.3,578.5z"/>
												</g>
											</g>
										</g>
										<g id="Group_3701">
											<g id="Group_3700">
												<g id="Group_3699">
													<path id="Path_9482" class="st41" d="M414.5,575.7c-0.1,0.4-0.3,0.8-0.4,1.2s0.4,0.5,0.5,0.2s0.3-0.8,0.4-1.2
														S414.6,575.4,414.5,575.7z"/>
												</g>
											</g>
										</g>
										<g id="Group_3704">
											<g id="Group_3703">
												<g id="Group_3702">
													<path id="Path_9483" class="st41" d="M416.3,572.7c-0.1,0.2-0.1,0.3-0.2,0.5s0.3,0.6,0.5,0.3c0.1-0.2,0.1-0.3,0.2-0.5
														S416.5,572.3,416.3,572.7z"/>
												</g>
											</g>
										</g>
										<g id="Group_3707">
											<g id="Group_3706">
												<g id="Group_3705">
													<path id="Path_9484" class="st41" d="M419.1,569.2c-0.3,0.4-0.6,0.8-1,1.2c-0.2,0.2,0.1,0.7,0.4,0.4
														c0.4-0.4,0.8-0.9,1.1-1.3C419.8,569.2,419.3,569,419.1,569.2L419.1,569.2z"/>
												</g>
											</g>
										</g>
										<g id="Group_3710">
											<g id="Group_3709">
												<g id="Group_3708">
													<path id="Path_9485" class="st41" d="M415.1,582c0,0.5,0.1,1,0.2,1.4c0,0.1,0.2,0.2,0.3,0.2c0.1,0,0.2-0.2,0.2-0.3l0,0
														c-0.1-0.4-0.2-0.9-0.2-1.3C415.6,581.6,415,581.6,415.1,582L415.1,582z"/>
												</g>
											</g>
										</g>
										<g id="Group_3713">
											<g id="Group_3712">
												<g id="Group_3711">
													<path id="Path_9486" class="st41" d="M415.7,585.8c0,0.2,0.1,0.5,0.2,0.7c0.1,0.3,0.6,0.2,0.5-0.1
														c-0.1-0.2-0.1-0.5-0.2-0.7C416.2,585.3,415.7,585.5,415.7,585.8z"/>
												</g>
											</g>
										</g>
										<g id="Group_3716">
											<g id="Group_3715">
												<g id="Group_3714">
													<path id="Path_9487" class="st41" d="M426.3,563.4c0.2-0.4,0.5-0.8,0.8-1.1c0.3-0.2-0.1-0.6-0.4-0.4
														c-0.4,0.4-0.7,0.8-0.9,1.2C425.6,563.5,426.1,563.7,426.3,563.4z"/>
												</g>
											</g>
										</g>
										<g id="Group_3719">
											<g id="Group_3718">
												<g id="Group_3717">
													<path id="Path_9488" class="st41" d="M427.8,561.2c0.1-0.2,0.3-0.3,0.4-0.5s-0.2-0.7-0.4-0.4s-0.3,0.3-0.4,0.5
														S427.6,561.4,427.8,561.2z"/>
												</g>
											</g>
										</g>
										<g id="Group_3722">
											<g id="Group_3721">
												<g id="Group_3720">
													<path id="Path_9489" class="st41" d="M428.6,561.8c0.1-0.1,0.1-0.2,0.2-0.3c0.2-0.3-0.1-0.7-0.4-0.4
														c-0.1,0.1-0.2,0.3-0.3,0.4C428,561.8,428.4,562.1,428.6,561.8z"/>
												</g>
											</g>
										</g>
										<g id="Group_3725">
											<g id="Group_3724">
												<g id="Group_3723">
													<path id="Path_9490" class="st41" d="M428.4,563c0.1-0.1,0.3-0.3,0.5-0.4c0.3-0.2,0-0.7-0.3-0.5
														c-0.2,0.1-0.4,0.3-0.6,0.5C427.8,562.9,428.2,563.3,428.4,563L428.4,563z"/>
												</g>
											</g>
										</g>
										<g id="Group_3728">
											<g id="Group_3727">
												<g id="Group_3726">
													<path id="Path_9491" class="st41" d="M429.9,563.2c0.5-0.5,1.1-0.9,1.7-1.3c0.3-0.2,0-0.7-0.3-0.5
														c-0.7,0.4-1.3,0.9-1.9,1.4C429.2,563,429.6,563.4,429.9,563.2L429.9,563.2z"/>
												</g>
											</g>
										</g>
										<g id="Group_3731">
											<g id="Group_3730">
												<g id="Group_3729">
													<path id="Path_9492" class="st41" d="M431.4,563.8c0.2-0.2,0.4-0.4,0.7-0.5c0.1-0.1,0.2-0.2,0.1-0.4c0,0,0,0,0,0
														c-0.1-0.1-0.2-0.2-0.4-0.1c-0.3,0.2-0.5,0.4-0.8,0.6C430.8,563.6,431.2,564,431.4,563.8L431.4,563.8z"/>
												</g>
											</g>
										</g>
										<g id="Group_3734">
											<g id="Group_3733">
												<g id="Group_3732">
													<path id="Path_9493" class="st41" d="M433.3,563.8c0.2-0.1,0.4-0.2,0.7-0.3c0.3-0.1,0.2-0.7-0.1-0.5
														c-0.3,0.1-0.5,0.2-0.8,0.3C432.7,563.5,433,564,433.3,563.8z"/>
												</g>
											</g>
										</g>
										<g id="Group_3737">
											<g id="Group_3736">
												<g id="Group_3735">
													<path id="Path_9494" class="st41" d="M410.1,570.1c0.2,0.3,0.5,0.7,0.9,0.9c0.3,0.2,0.6-0.3,0.3-0.5
														c-0.3-0.2-0.5-0.4-0.7-0.7C410.3,569.5,409.9,569.8,410.1,570.1L410.1,570.1z"/>
												</g>
											</g>
										</g>
										<g id="Group_3740">
											<g id="Group_3739">
												<g id="Group_3738">
													<path id="Path_9495" class="st41" d="M412,572c0.3,0.3,0.7,0.4,1.1,0.5c0.4,0.1,0.5-0.5,0.1-0.5
														c-0.4-0.1-0.7-0.2-1-0.5C412,571.4,411.7,571.8,412,572L412,572z"/>
												</g>
											</g>
										</g>
										<g id="Group_3743">
											<g id="Group_3742">
												<g id="Group_3741">
													<path id="Path_9496" class="st41" d="M413.9,572.2c0.2,0,0.3-0.1,0.3-0.2s-0.1-0.3-0.2-0.3c0,0-0.1,0-0.1,0
														c-0.2,0-0.3,0.1-0.3,0.2s0.1,0.3,0.2,0.3C413.8,572.2,413.9,572.2,413.9,572.2z"/>
												</g>
											</g>
										</g>
										<g id="Group_3746">
											<g id="Group_3745">
												<g id="Group_3744">
													<path id="Path_9497" class="st41" d="M413.6,573.6c0.2,0,0.3-0.1,0.3-0.2s-0.1-0.3-0.2-0.3c0,0-0.1,0-0.1,0
														c-0.2,0-0.3,0.1-0.3,0.2s0.1,0.3,0.2,0.3C413.6,573.6,413.6,573.6,413.6,573.6z"/>
												</g>
											</g>
										</g>
										<g id="Group_3749">
											<g id="Group_3748">
												<g id="Group_3747">
													<path id="Path_9498" class="st41" d="M414.8,571.9c0.3,0.1,0.6,0.1,0.8,0.2s0.5-0.5,0.1-0.5s-0.6-0.1-0.8-0.2
														c-0.1,0-0.3,0-0.4,0.2C414.6,571.7,414.7,571.8,414.8,571.9z"/>
												</g>
											</g>
										</g>
										<g id="Group_3752">
											<g id="Group_3751">
												<g id="Group_3750">
													<path id="Path_9499" class="st41" d="M414.6,573c0.3,0,0.6-0.1,0.9-0.2c0.3-0.1,0.2-0.7-0.1-0.5
														c-0.2,0.1-0.5,0.1-0.7,0.1c-0.1,0-0.3,0.1-0.3,0.3c0,0,0,0,0,0C414.3,572.9,414.5,573,414.6,573L414.6,573L414.6,573z"
														/>
												</g>
											</g>
										</g>
										<g id="Group_3755">
											<g id="Group_3754">
												<g id="Group_3753">
													<path id="Path_9500" class="st41" d="M416.9,570.3c0.4-0.1,0.7-0.2,1.1-0.3c0.1,0,0.2-0.2,0.2-0.3
														c0-0.2-0.2-0.2-0.4-0.2c-0.4,0.1-0.7,0.2-1.1,0.3S416.6,570.4,416.9,570.3L416.9,570.3z"/>
												</g>
											</g>
										</g>
										<g id="Group_3758">
											<g id="Group_3757">
												<g id="Group_3756">
													<path id="Path_9501" class="st41" d="M408.9,568.1c0.3,0.4,0.6,0.7,1,1c0.3,0.2,0.7-0.2,0.4-0.4c-0.4-0.3-0.7-0.6-1-1
														C409,567.5,408.6,567.8,408.9,568.1z"/>
												</g>
											</g>
										</g>
										<g id="Group_3761">
											<g id="Group_3760">
												<g id="Group_3759">
													<path id="Path_9502" class="st41" d="M452.2,569.2c-0.2,0.3-0.5,0.6-0.9,0.8c-0.3,0.2,0,0.6,0.3,0.5
														c0.4-0.2,0.8-0.6,1.1-1C452.8,569.1,452.4,568.9,452.2,569.2L452.2,569.2z"/>
												</g>
											</g>
										</g>
										<g id="Group_3764">
											<g id="Group_3763">
												<g id="Group_3762">
													<path id="Path_9503" class="st41" d="M449.8,571.3c-0.2,0.2-0.5,0.3-0.7,0.5s0.1,0.6,0.4,0.4s0.5-0.3,0.7-0.5
														S450.1,571.1,449.8,571.3z"/>
												</g>
											</g>
										</g>
										<g id="Group_3767">
											<g id="Group_3766">
												<g id="Group_3765">
													<path id="Path_9504" class="st41" d="M449.3,570.3c-0.2,0.1-0.4,0.2-0.6,0.2c-0.3,0.1-0.2,0.7,0.1,0.5
														c0.3-0.1,0.5-0.2,0.8-0.3C449.9,570.6,449.6,570.2,449.3,570.3L449.3,570.3z"/>
												</g>
											</g>
										</g>
										<g id="Group_3770">
											<g id="Group_3769">
												<g id="Group_3768">
													<path id="Path_9505" class="st41" d="M448.2,572.8c-0.2,0-0.5,0-0.7,0c-0.1,0-0.3,0.1-0.3,0.3c0,0,0,0,0,0
														c0,0.2,0.1,0.3,0.3,0.3c0.3,0,0.6,0,0.8,0c0.1,0,0.2-0.2,0.2-0.3C448.5,572.8,448.3,572.7,448.2,572.8L448.2,572.8z"/>
												</g>
											</g>
										</g>
										<g id="Group_3773">
											<g id="Group_3772">
												<g id="Group_3771">
													<path id="Path_9506" class="st41" d="M447.4,571.6c-0.2,0-0.3,0-0.5,0c-0.2,0-0.3,0.1-0.3,0.3c0,0.2,0.1,0.3,0.3,0.3h0
														l0,0c0.2,0,0.4,0,0.6,0C447.9,572.1,447.8,571.5,447.4,571.6L447.4,571.6z"/>
												</g>
											</g>
										</g>
										<g id="Group_3776">
											<g id="Group_3775">
												<g id="Group_3774">
													<path id="Path_9507" class="st41" d="M444.9,569.5c-0.2,0-0.3-0.1-0.5-0.2c-0.1,0-0.3,0-0.3,0.2c0,0,0,0,0,0
														c0,0.1,0,0.3,0.2,0.3c0,0,0,0,0,0l0.5,0.2c0.1,0,0.3-0.1,0.3-0.2C445.2,569.7,445.1,569.6,444.9,569.5
														C445,569.5,445,569.5,444.9,569.5L444.9,569.5L444.9,569.5z"/>
												</g>
											</g>
										</g>
									</g>
									<g id="Group_3779">
										<g id="Group_3778">
											<path id="Path_9508" class="st19" d="M413.2,662.6c0,2.8-2.3,5.1-5.1,5.1c-2.8,0-5.1-2.3-5.1-5.1l0,0
												c0-2.8,2.3-5.1,5.1-5.1C410.9,657.5,413.2,659.8,413.2,662.6z"/>
										</g>
									</g>
									<g id="Group_3781">
										<g id="Group_3780">
											<path id="Path_9509" class="st17" d="M436.3,648.3c0,0,0.2,10.7,0.2,15.9s-0.8,7.6,5.3,7.3c4.8-0.2,3.7-8.2,3.7-8.2
												l0.1-16"/>
										</g>
									</g>
									<g id="Group_3783">
										<g id="Group_3782">
											<path id="Path_9510" class="st19" d="M436.3,648.3c0,0.4,0,3.5,0.1,7.1C438.6,653.4,439.1,649.6,436.3,648.3z"/>
										</g>
									</g>
									<g id="Group_3785">
										<g id="Group_3784">
											<path id="Path_9511" class="st19" d="M442.7,661.2c0.5,1.1,1.6,1.8,2.7,1.9l0.1-6.8C443.6,657.1,441.6,658.9,442.7,661.2
												z"/>
										</g>
									</g>
									<g id="Group_3787">
										<g id="Group_3786">
											<path id="Path_9512" class="st20" d="M443.2,664.5c-2.2,0.5-4.5,0.5-6.7,0c0,4.9-0.6,7.2,5.3,6.9c4.3-0.2,3.8-6.6,3.7-8
												C444.8,663.9,444,664.3,443.2,664.5z"/>
										</g>
									</g>
									<g id="Group_3789">
										<g id="Group_3788">
											<path id="Path_9513" class="st21" d="M445.5,663.6c-0.7,4.1-4.6,6.8-8.6,6.1c0,0,0,0,0,0h-0.1c0.5,1.4,1.8,2,5.1,1.8
												C446.1,671.3,445.7,665.1,445.5,663.6z"/>
										</g>
									</g>
									<g id="Group_3791">
										<g id="Group_3790">
											<path id="Path_9514" class="st42" d="M454.8,670.3c0.1-1.8-0.3-3.5-1.2-5.1c-1.2-2.2-3.1-2.9-5.9-3
												c-0.8,0-1.7,0.2-2.4,0.5c-0.6,1.3-1.3,2.4-2.2,3.6c-2,2.7,5.4,8.2,5.4,8.2S451.5,673.9,454.8,670.3z"/>
										</g>
									</g>
									<g id="Group_3793">
										<g id="Group_3792">
											<path id="Path_9515" class="st19" d="M452.2,669.5c0,2.8-2.3,5.1-5.1,5.1c-2.8,0-5.1-2.3-5.1-5.1c0-2.8,2.3-5.1,5.1-5.1
												h0C449.9,664.4,452.2,666.7,452.2,669.5z"/>
										</g>
									</g>
									<g id="Group_3795">
										<g id="Group_3794">
											<path id="Path_9516" class="st22" d="M437.3,668.6c0.2,0.2,0.6,0.6,0.8,0.2s-0.1-0.8-0.2-1.1c-0.1-0.6,0.4-1.2,0.7-1.7
												c0.1-0.3-0.4-0.4-0.6-0.4C436.8,665.6,436.8,667.8,437.3,668.6z"/>
										</g>
									</g>
									<g id="Group_3798">
										<g id="Group_3797">
											<g id="Group_3796">
												<path id="Path_9517" class="st23" d="M433.8,608.2c0,0.7,0.1,1.5,0.2,2.2c0,0.4,0.6,0.2,0.5-0.1
													c-0.1-0.7-0.2-1.4-0.2-2.1c0-0.2-0.2-0.3-0.3-0.2C433.9,608,433.8,608.1,433.8,608.2z"/>
											</g>
										</g>
									</g>
									<g id="Group_3801">
										<g id="Group_3800">
											<g id="Group_3799">
												<path id="Path_9518" class="st23" d="M434.6,613.2c0.1,0.4,0.2,0.8,0.2,1.2c0,0.2,0.1,0.3,0.3,0.3
													c0.1,0,0.3-0.1,0.3-0.3c0-0.4-0.1-0.9-0.2-1.3c0-0.1-0.2-0.2-0.3-0.2C434.7,612.9,434.6,613,434.6,613.2L434.6,613.2z"
													/>
											</g>
										</g>
									</g>
									<g id="Group_3804">
										<g id="Group_3803">
											<g id="Group_3802">
												<path id="Path_9519" class="st23" d="M433.2,612c0.1,0.4,0.2,0.8,0.2,1.2c0,0.2,0.1,0.3,0.2,0.3c0.2,0,0.3-0.1,0.3-0.2
													c0,0,0-0.1,0-0.1c0-0.4-0.1-0.9-0.2-1.3c0-0.1-0.2-0.2-0.3-0.2c0,0,0,0,0,0C433.3,611.6,433.2,611.8,433.2,612
													L433.2,612z"/>
											</g>
										</g>
									</g>
									<g id="Group_3807">
										<g id="Group_3806">
											<g id="Group_3805">
												<path id="Path_9520" class="st23" d="M432.6,607.6c-0.1,0.5-0.1,1,0.1,1.5c0.1,0.3,0.7,0.2,0.5-0.1
													c-0.1-0.5-0.2-0.9-0.1-1.4C433.2,607.2,432.7,607.2,432.6,607.6L432.6,607.6z"/>
											</g>
										</g>
									</g>
									<g id="Group_3810">
										<g id="Group_3809">
											<g id="Group_3808">
												<path id="Path_9521" class="st23" d="M435.7,616.2c0.1,0.3,0.2,0.7,0.4,1s0.6,0,0.5-0.3s-0.3-0.7-0.4-1
													S435.6,615.8,435.7,616.2L435.7,616.2z"/>
											</g>
										</g>
									</g>
									<g id="Group_3813">
										<g id="Group_3812">
											<g id="Group_3811">
												<path id="Path_9522" class="st23" d="M434.4,616c0.2,0.5,0.4,1,0.6,1.5c0.1,0.3,0.7,0.2,0.5-0.2c-0.2-0.5-0.4-1-0.6-1.5
													C434.8,615.5,434.3,615.7,434.4,616z"/>
											</g>
										</g>
									</g>
									<g id="Group_3816">
										<g id="Group_3815">
											<g id="Group_3814">
												<path id="Path_9523" class="st23" d="M441.5,623.8c0.4,0.4,0.8,0.8,1.2,1.2c0.3,0.2,0.7-0.2,0.4-0.4
													c-0.4-0.4-0.8-0.8-1.2-1.2C441.7,623.1,441.3,623.5,441.5,623.8z"/>
											</g>
										</g>
									</g>
									<g id="Group_3819">
										<g id="Group_3818">
											<g id="Group_3817">
												<path id="Path_9524" class="st23" d="M440.7,624.7c0.5,0.5,1,0.9,1.6,1.4c0.3,0.2,0.6-0.3,0.3-0.5
													c-0.5-0.4-1-0.8-1.5-1.3c-0.1-0.1-0.3-0.1-0.4,0.1C440.6,624.5,440.6,624.6,440.7,624.7L440.7,624.7z"/>
											</g>
										</g>
									</g>
									<g id="Group_3822">
										<g id="Group_3821">
											<g id="Group_3820">
												<path id="Path_9525" class="st23" d="M444.7,625.7l0.8,0.5c0.1,0.1,0.3,0,0.4-0.1c0.1-0.1,0-0.3-0.1-0.4c0,0,0,0,0,0
													l-0.8-0.5c-0.1-0.1-0.3,0-0.4,0.1C444.6,625.5,444.6,625.6,444.7,625.7z"/>
											</g>
										</g>
									</g>
									<g id="Group_3825">
										<g id="Group_3824">
											<g id="Group_3823">
												<path id="Path_9526" class="st23" d="M444.1,626.8c0.2,0.1,0.3,0.2,0.5,0.3c0.3,0.2,0.7-0.2,0.4-0.4
													c-0.2-0.2-0.4-0.3-0.6-0.4C444.1,626.1,443.8,626.6,444.1,626.8L444.1,626.8z"/>
											</g>
										</g>
									</g>
									<g id="Group_3828">
										<g id="Group_3827">
											<g id="Group_3826">
												<path id="Path_9527" class="st23" d="M454.1,634.4c0.3,0.3,0.5,0.6,0.6,0.9c0,0.2,0.2,0.3,0.3,0.3
													c0.2,0,0.3-0.2,0.3-0.3c0,0,0-0.1,0-0.1c-0.2-0.4-0.4-0.9-0.7-1.2C454.3,633.7,453.9,634.1,454.1,634.4L454.1,634.4z"/>
											</g>
										</g>
									</g>
									<g id="Group_3831">
										<g id="Group_3830">
											<g id="Group_3829">
												<path id="Path_9528" class="st23" d="M456,637.5c0.4,0.6,0.7,1.2,1.1,1.8c0.1,0.1,0.3,0.2,0.4,0.1c0,0,0,0,0,0
													c0.1-0.1,0.2-0.2,0.1-0.4c-0.3-0.6-0.7-1.2-1.1-1.8C456.3,636.9,455.8,637.2,456,637.5L456,637.5z"/>
											</g>
										</g>
									</g>
									<g id="Group_3834">
										<g id="Group_3833">
											<g id="Group_3832">
												<path id="Path_9529" class="st23" d="M454.2,637c0.3,0.4,0.5,0.7,0.8,1.1c0.2,0.3,0.7,0,0.5-0.3
													c-0.3-0.4-0.5-0.8-0.9-1.2C454.4,636.3,454,636.7,454.2,637z"/>
											</g>
										</g>
									</g>
									<g id="Group_3837">
										<g id="Group_3836">
											<g id="Group_3835">
												<path id="Path_9530" class="st23" d="M461.1,649.4c0,0.9,0.1,1.7,0.1,2.6c0,0.2,0.1,0.3,0.3,0.3c0.2,0,0.3-0.1,0.3-0.3
													c0-0.9,0-1.7-0.1-2.6C461.6,649.1,461.1,649.1,461.1,649.4z"/>
											</g>
										</g>
									</g>
									<g id="Group_3840">
										<g id="Group_3839">
											<g id="Group_3838">
												<path id="Path_9531" class="st23" d="M460,649.6c0,0.4,0.1,0.7,0.1,1.1c0,0.2,0.1,0.3,0.3,0.3c0.2,0,0.3-0.1,0.3-0.3
													l0,0c0-0.3,0-0.7-0.1-1.1c0-0.2-0.1-0.3-0.3-0.3C460.1,649.3,460,649.4,460,649.6C460,649.6,460,649.6,460,649.6z"/>
											</g>
										</g>
									</g>
									<g id="Group_3843">
										<g id="Group_3842">
											<g id="Group_3841">
												<path id="Path_9532" class="st23" d="M460.1,653.2c0,0.3,0,0.7-0.1,1c0,0.2,0.1,0.3,0.2,0.3c0.1,0,0.3-0.1,0.3-0.2
													c0.1-0.4,0.1-0.8,0.1-1.1c0-0.1-0.1-0.3-0.3-0.3c0,0,0,0,0,0C460.2,652.9,460.1,653,460.1,653.2L460.1,653.2z"/>
											</g>
										</g>
									</g>
									<g id="Group_3846">
										<g id="Group_3845">
											<g id="Group_3844">
												<path id="Path_9533" class="st23" d="M460.8,654.8c-0.1,0.4-0.3,0.8-0.4,1.1c0,0.1,0.1,0.3,0.2,0.3c0.1,0,0.3,0,0.3-0.2
													c0.1-0.4,0.2-0.8,0.4-1.1c0-0.2,0-0.3-0.2-0.3l0,0C461,654.6,460.8,654.6,460.8,654.8L460.8,654.8z"/>
											</g>
										</g>
									</g>
									<g id="Group_3849">
										<g id="Group_3848">
											<g id="Group_3847">
												<path id="Path_9534" class="st23" d="M456.3,665.9c-0.4,0.5-0.7,1-1.1,1.5c-0.1,0.1,0,0.3,0.1,0.4
													c0.1,0.1,0.3,0,0.4-0.1c0.3-0.5,0.6-0.9,1-1.4C456.9,666,456.5,665.6,456.3,665.9L456.3,665.9z"/>
											</g>
										</g>
									</g>
									<g id="Group_3852">
										<g id="Group_3851">
											<g id="Group_3850">
												<path id="Path_9535" class="st23" d="M454.9,666.6c0.2,0,0.3-0.1,0.3-0.3l0,0c0-0.1-0.1-0.3-0.3-0.3c0,0,0,0,0,0
													c-0.2,0-0.3,0.1-0.3,0.3l0,0C454.6,666.5,454.7,666.6,454.9,666.6z"/>
											</g>
										</g>
									</g>
									<g id="Group_3855">
										<g id="Group_3854">
											<g id="Group_3853">
												<path id="Path_9536" class="st23" d="M455.4,664.7c-0.1,0.3-0.3,0.6-0.5,0.8c-0.2,0.3,0.2,0.7,0.4,0.4
													c0.2-0.3,0.4-0.6,0.6-0.9C456.1,664.7,455.6,664.4,455.4,664.7L455.4,664.7z"/>
											</g>
										</g>
									</g>
									<g id="Group_3858">
										<g id="Group_3857">
											<g id="Group_3856">
												<path id="Path_9537" class="st23" d="M454.7,663.7c-0.2,0.3-0.3,0.6-0.6,0.9c-0.2,0.3,0.2,0.7,0.4,0.4
													c0.2-0.3,0.5-0.6,0.6-1c0.1-0.1,0-0.3-0.1-0.4C454.9,663.6,454.8,663.6,454.7,663.7L454.7,663.7z"/>
											</g>
										</g>
									</g>
									<g id="Group_3861">
										<g id="Group_3860">
											<g id="Group_3859">
												<path id="Path_9538" class="st23" d="M459.2,654c0,0.5-0.1,0.9-0.2,1.3s0.5,0.5,0.5,0.1s0.1-1,0.2-1.5
													S459.2,653.7,459.2,654L459.2,654z"/>
											</g>
										</g>
									</g>
									<g id="Group_3864">
										<g id="Group_3863">
											<g id="Group_3862">
												<path id="Path_9539" class="st23" d="M458.7,649.6c0,0.5,0.1,1,0.1,1.5c0,0.2,0.1,0.3,0.3,0.3c0.1,0,0.3-0.1,0.3-0.3
													c0,0,0,0,0,0c0-0.5,0-1-0.1-1.5C459.2,649.2,458.7,649.2,458.7,649.6z"/>
											</g>
										</g>
									</g>
									<g id="Group_3867">
										<g id="Group_3866">
											<g id="Group_3865">
												<path id="Path_9540" class="st23" d="M452.4,636.4c0.4,0.5,0.7,1,1,1.5c0.1,0.1,0.3,0.1,0.4,0.1
													c0.1-0.1,0.1-0.2,0.1-0.3c-0.3-0.5-0.7-1-1-1.5C452.6,635.9,452.2,636.1,452.4,636.4z"/>
											</g>
										</g>
									</g>
									<g id="Group_3870">
										<g id="Group_3869">
											<g id="Group_3868">
												<path id="Path_9541" class="st23" d="M454.9,640.3c0.1,0.2,0.2,0.3,0.3,0.5c0.2,0.3,0.6,0,0.5-0.3
													c-0.1-0.2-0.2-0.4-0.4-0.6C455,639.7,454.6,640,454.9,640.3L454.9,640.3z"/>
											</g>
										</g>
									</g>
									<g id="Group_3873">
										<g id="Group_3872">
											<g id="Group_3871">
												<path id="Path_9542" class="st23" d="M438.7,623.8c0.2,0.4,0.5,0.7,0.8,1c0.1,0.1,0.3,0.1,0.4-0.1
													c0.1-0.1,0.1-0.2,0-0.3c-0.3-0.3-0.5-0.6-0.7-0.9c-0.1-0.1-0.3-0.1-0.4-0.1C438.7,623.5,438.7,623.6,438.7,623.8
													L438.7,623.8z"/>
											</g>
										</g>
									</g>
									<g id="Group_3876">
										<g id="Group_3875">
											<g id="Group_3874">
												<path id="Path_9543" class="st23" d="M433.5,617.1c0.2,0.6,0.4,1.3,0.6,1.9c0.1,0.3,0.7,0.2,0.5-0.2
													c-0.2-0.6-0.4-1.2-0.6-1.9C433.9,616.6,433.4,616.7,433.5,617.1z"/>
											</g>
										</g>
									</g>
									<g id="Group_3879">
										<g id="Group_3878">
											<g id="Group_3877">
												<path id="Path_9544" class="st23" d="M432.7,614.2c0.1,0.4,0.2,0.8,0.4,1.1c0.1,0.1,0.2,0.2,0.4,0.2
													c0.1,0,0.2-0.2,0.2-0.3c0,0,0,0,0,0c-0.1-0.4-0.3-0.7-0.4-1.1c0-0.1-0.2-0.2-0.4-0.2C432.7,613.9,432.7,614,432.7,614.2
													z"/>
											</g>
										</g>
									</g>
									<g id="Group_3882">
										<g id="Group_3881">
											<g id="Group_3880">
												<path id="Path_9545" class="st23" d="M431.7,610.2c0,0.5,0,0.9,0,1.4s0.6,0.3,0.6,0c0-0.5-0.1-0.9,0-1.4
													c0-0.2-0.1-0.3-0.3-0.3C431.8,609.9,431.7,610,431.7,610.2z"/>
											</g>
										</g>
									</g>
									<g id="Group_3885">
										<g id="Group_3884">
											<g id="Group_3883">
												<path id="Path_9546" class="st23" d="M431.7,607.3c0.2,0,0.3-0.2,0.2-0.3c0-0.1-0.1-0.2-0.2-0.2c-0.2,0-0.3,0.1-0.3,0.2
													s0.1,0.3,0.2,0.3C431.6,607.3,431.6,607.3,431.7,607.3z"/>
											</g>
										</g>
									</g>
									<g id="Group_3888">
										<g id="Group_3887">
											<g id="Group_3886">
												<path id="Path_9547" class="st23" d="M437,656.7c0,0.4,0,0.9,0,1.3c0,0.2,0.1,0.3,0.3,0.3c0.1,0,0.3-0.1,0.3-0.3
													c0,0,0,0,0,0c0-0.4,0-0.9,0-1.3c0-0.1-0.1-0.3-0.3-0.3c0,0,0,0,0,0C437.1,656.5,437,656.6,437,656.7z"/>
											</g>
										</g>
									</g>
									<g id="Group_3891">
										<g id="Group_3890">
											<g id="Group_3889">
												<path id="Path_9548" class="st23" d="M437,660c0,0.3,0,0.7,0.1,1.1c0,0.2,0.1,0.3,0.3,0.3c0.1,0,0.3-0.1,0.3-0.3
													c0-0.4,0-0.7-0.1-1.1c0-0.2-0.1-0.3-0.3-0.3C437.2,659.8,437,659.9,437,660C437,660,437,660,437,660z"/>
											</g>
										</g>
									</g>
									<g id="Group_3894">
										<g id="Group_3893">
											<g id="Group_3892">
												<path id="Path_9549" class="st23" d="M437.1,662.9c0.2,0,0.3-0.1,0.3-0.3c0-0.1-0.1-0.3-0.3-0.3c-0.2,0-0.3,0.1-0.3,0.3
													c0,0,0,0,0,0C436.9,662.8,437,662.9,437.1,662.9z"/>
											</g>
										</g>
									</g>
									<g id="Group_3897">
										<g id="Group_3896">
											<g id="Group_3895">
												<path id="Path_9550" class="st23" d="M436.9,663.2c0,0.3,0,0.6,0,0.9c0,0.2,0.1,0.3,0.3,0.3c0.2,0,0.3-0.1,0.3-0.3
													c0-0.3,0-0.6,0-0.9c0-0.2-0.1-0.3-0.3-0.3C437,662.9,436.9,663,436.9,663.2z"/>
											</g>
										</g>
									</g>
									<g id="Group_3900">
										<g id="Group_3899">
											<g id="Group_3898">
												<path id="Path_9551" class="st23" d="M437.9,663.2c0,0.3,0.1,0.7,0.1,1s0.6,0.2,0.5-0.2s-0.1-0.6-0.2-1
													c0-0.1-0.2-0.2-0.3-0.2C437.9,662.9,437.9,663.1,437.9,663.2L437.9,663.2z"/>
											</g>
										</g>
									</g>
									<g id="Group_3903">
										<g id="Group_3902">
											<g id="Group_3901">
												<path id="Path_9552" class="st23" d="M437.9,655.2c0,0.5,0,0.9,0,1.4c0,0.1,0.1,0.3,0.3,0.3c0,0,0,0,0,0
													c0.2,0,0.3-0.1,0.3-0.3c0-0.5,0-0.9,0.1-1.4C438.5,654.9,437.9,654.9,437.9,655.2z"/>
											</g>
										</g>
									</g>
									<g id="Group_3906">
										<g id="Group_3905">
											<g id="Group_3904">
												<path id="Path_9553" class="st23" d="M438,659.5c0,0.3,0.1,0.6,0.1,0.9s0.6,0.2,0.5-0.2s0-0.6-0.1-0.9
													S438,659.1,438,659.5z"/>
											</g>
										</g>
									</g>
									<g id="Group_3909">
										<g id="Group_3908">
											<g id="Group_3907">
												<path id="Path_9554" class="st23" d="M444.6,650.7c0,0.8-0.1,1.5-0.1,2.2c0,0.2,0.1,0.3,0.3,0.3c0.2,0,0.3-0.1,0.3-0.3
													c0-0.8,0-1.5,0.1-2.2C445.2,650.4,444.6,650.4,444.6,650.7z"/>
											</g>
										</g>
									</g>
									<g id="Group_3912">
										<g id="Group_3911">
											<g id="Group_3910">
												<path id="Path_9555" class="st23" d="M444.8,654.2c0.2,0,0.3-0.1,0.3-0.3l0,0c0-0.2-0.1-0.3-0.3-0.3
													c-0.2,0-0.3,0.1-0.3,0.3c0,0,0,0,0,0C444.5,654,444.7,654.2,444.8,654.2L444.8,654.2z"/>
											</g>
										</g>
									</g>
									<g id="Group_3915">
										<g id="Group_3914">
											<g id="Group_3913">
												<path id="Path_9556" class="st23" d="M443.7,655c0,0.4-0.1,0.8,0,1.2c0,0.2,0.1,0.3,0.2,0.3c0.2,0,0.3-0.1,0.3-0.2
													c0,0,0-0.1,0-0.1c0-0.4,0-0.8,0-1.2S443.8,654.6,443.7,655z"/>
											</g>
										</g>
									</g>
									<g id="Group_3918">
										<g id="Group_3917">
											<g id="Group_3916">
												<path id="Path_9557" class="st23" d="M444.5,655.2v1c0,0.2,0.1,0.3,0.3,0.3c0.2,0,0.3-0.1,0.3-0.3v-0.9
													c0-0.2-0.1-0.3-0.3-0.3C444.7,655,444.6,655.1,444.5,655.2z"/>
											</g>
										</g>
									</g>
									<g id="Group_3921">
										<g id="Group_3920">
											<g id="Group_3919">
												<path id="Path_9558" class="st23" d="M443.7,652.5c0,0.2-0.1,0.5-0.1,0.7c0,0.2,0.1,0.3,0.3,0.3c0.1,0,0.3-0.1,0.3-0.3
													c0,0,0,0,0,0c0-0.2,0-0.4,0-0.5C444.3,652.3,443.8,652.2,443.7,652.5z"/>
											</g>
										</g>
									</g>
									<g id="Group_3923">
										<g id="Group_3922">
											<path id="Path_9559" class="st17" d="M422.7,624c-0.6,1-1.4,1.8-1.9,2.8c-0.2,0.2-0.3,0.5-0.3,0.8c0,0.2,0.2,0.3,0.2,0.6
												c-0.1,0.3-0.2,0.7-0.3,1l0,0c-0.3,0.3-0.5,0.7-0.6,1.2c-0.2,0.5,0.1,0.6,0.4,1c0.5,0.7,0,1.7-0.4,2.3
												c-0.4,0.7-0.5,1.5-0.1,2.3c0.1,0.2,0.3,0.3,0.5,0.2"/>
										</g>
									</g>
									<g id="Group_3928">
										<g id="Group_3925">
											<g id="Group_3924">
												<path id="Path_9560" class="st43" d="M464.8,637.8c0.8,0.5,1.7,0.6,2.6,0.4c0.8-0.2,1-1.1,1-1.8c0-1.1-0.4-2.2-1.1-3
													c-0.7-0.7-1.3-1.4-1.7-2.2c-0.2-0.7,0.2-1.3,0.8-1.6c-0.3-0.1-0.7,0-1,0c-0.7,0.3-1.3,1-1.5,1.8c0-0.2-0.2-0.3-0.2-0.5
													c-0.6,0.2-0.8,1.8-0.7,2.4c-0.1-0.1-0.4-0.1-0.5-0.2C461.4,634.7,463.5,637.2,464.8,637.8z"/>
											</g>
										</g>
										<g id="Group_3927">
											<g id="Group_3926">
												<path id="Path_9561" class="st44" d="M467.9,636.1c-1.1,1.2-1.5-0.8-2.5-1.2c-0.1,1,0,1.8-1.2,1c-1-0.5-1.7-1.4-1.9-2.5
													c-0.7,1.6,1.3,3.8,2.5,4.4c0.8,0.4,1.7,0.6,2.6,0.4c0.7-0.2,0.9-0.9,1-1.6C468.2,636.4,468,636.3,467.9,636.1z"/>
											</g>
										</g>
									</g>
								</g>
								<g id="Group_3965">
									<g id="Group_3931">
										<g id="Group_3930">
											<path id="Path_9562" class="st45" d="M470.8,628.5l1.1,20.3c0.1,1.1-0.8,2-1.8,2c-1.1,0.1-2-0.8-2-1.8v-0.2l1.1-20.3
												c0-0.4,0.4-0.8,0.8-0.8c0,0,0,0,0,0l0,0C470.5,627.7,470.8,628,470.8,628.5z"/>
										</g>
									</g>
									<g id="Group_3933">
										<g id="Group_3932">
											<path id="Path_9563" class="st46" d="M469.9,629.5h-0.3v-1.7c-0.2,0.1-0.4,0.4-0.4,0.7l-1.1,20.3v0.2
												c0.1,1.1,0.9,1.9,2,1.8l0,0c0.5,0,0.9-0.2,1.2-0.6c-1-1.9-1.7-4-1.9-6.2C468.8,639.3,469,634.3,469.9,629.5z"/>
										</g>
									</g>
									<g id="Group_3935">
										<g id="Group_3934">
											<path id="Path_9564" class="st45" d="M469.5,625.7l-1.1-20.3c0-1.1,0.8-1.9,1.8-2l0,0c1,0,1.9,0.8,2,1.8l0,0v0.2
												l-1.1,20.3c0,0.4-0.4,0.8-0.8,0.8c0,0,0,0,0,0l0,0C469.8,626.5,469.5,626.1,469.5,625.7z"/>
										</g>
									</g>
									<g id="Group_3937">
										<g id="Group_3936">
											<path id="Path_9565" class="st46" d="M469.3,614.6c-0.1-3.8-0.4-7.8,1.9-11.1c-0.3-0.2-0.6-0.2-1-0.2
												c-1.1,0.1-1.9,0.9-1.8,2l0,0l1.1,20.3c0,0.4,0.3,0.7,0.8,0.8c0.4,0,0.8-0.3,0.9-0.8l0,0l0.1-1.1
												C469.9,621.4,469.3,618.1,469.3,614.6z"/>
										</g>
									</g>
									<g id="Group_3939">
										<g id="Group_3938">
											<path id="Path_9566" class="st45" d="M470,627.8l-16.3-10.5c-0.9-0.6-1.2-1.8-0.6-2.7c0.6-0.9,1.8-1.2,2.7-0.6l0,0l0,0
												l0.2,0.1l15,12.4c0.3,0.3,0.4,0.8,0.1,1.1l0,0C470.8,628,470.4,628.1,470,627.8z"/>
										</g>
									</g>
									<g id="Group_3941">
										<g id="Group_3940">
											<path id="Path_9567" class="st46" d="M471,626.5l-1.3-1.1c-3.7-0.9-7.1-2.6-10-5c-2.4-1.8-4.7-3.7-5.6-6.6
												c-0.4,0.2-0.7,0.4-0.9,0.8c-0.6,0.9-0.3,2.1,0.6,2.7c0,0,0,0,0,0l16.3,10.5c0.4,0.3,0.9,0.2,1.1-0.1
												C471.4,627.3,471.4,626.8,471,626.5L471,626.5z"/>
										</g>
									</g>
									<g id="Group_3943">
										<g id="Group_3942">
											<path id="Path_9568" class="st45" d="M471.4,629l-15,12.4c-0.8,0.7-2.1,0.6-2.7-0.3c-0.7-0.8-0.6-2.1,0.3-2.7l0.2-0.1
												l16.3-10.5c0.4-0.2,0.9-0.1,1.1,0.2c0,0,0,0,0,0l0,0C471.8,628.3,471.7,628.8,471.4,629z"/>
										</g>
									</g>
									<g id="Group_3945">
										<g id="Group_3944">
											<path id="Path_9569" class="st46" d="M461.8,633.9c2.9-2.3,6.2-4,9.8-5c0.2-0.3,0.2-0.6,0-0.9c-0.2-0.4-0.7-0.5-1.1-0.2
												l0,0l-16.3,10.5l-0.2,0.1c-0.8,0.7-0.9,1.9-0.3,2.7c0.1,0.1,0.2,0.2,0.4,0.3C455.9,638.2,458.8,636,461.8,633.9z"/>
										</g>
									</g>
									<g id="Group_3947">
										<g id="Group_3946">
											<path id="Path_9570" class="st45" d="M470.4,626.1l13.1-12.4c0.6-0.6,1.6-0.6,2.2,0c0,0,0,0,0,0c0.1,0.1,0.1,0.2,0.2,0.2
												c0.6,0.8,0.5,2-0.2,2.7l-0.2,0.1l-14.2,10.6c-0.3,0.2-0.7,0.2-0.9-0.1c0,0,0,0,0,0l-0.1-0.1
												C470.1,626.8,470.2,626.4,470.4,626.1z"/>
										</g>
									</g>
									<g id="Group_3949">
										<g id="Group_3948">
											<path id="Path_9571" class="st46" d="M476.5,621.3c3.1-2.2,6.2-4.5,9.7-5.8h0.1c0.1-0.5-0.1-1.1-0.4-1.5
												c-0.5-0.7-1.4-0.9-2.1-0.5c0,0,0,0,0,0c-0.1,0.1-0.2,0.1-0.2,0.2l-13.1,12.4c-0.1,0.1-0.2,0.2-0.2,0.4
												C472.2,624.6,474.3,622.8,476.5,621.3z"/>
										</g>
									</g>
									<g id="Group_3951">
										<g id="Group_3950">
											<path id="Path_9572" class="st45" d="M470.9,627.3l14.3,10.5c0.8,0.6,1,1.8,0.5,2.7c-0.4,0.8-1.3,1.1-2.1,0.7
												c-0.1,0-0.2-0.1-0.2-0.2l-0.2-0.1L470,628.6c-0.3-0.3-0.3-0.8-0.1-1.1C470.1,627.1,470.5,627.1,470.9,627.3
												C470.8,627.2,470.8,627.2,470.9,627.3L470.9,627.3z"/>
										</g>
									</g>
									<g id="Group_3953">
										<g id="Group_3952">
											<path id="Path_9573" class="st46" d="M471.2,629.7l11.9,11.3l0.2,0.1c0.7,0.5,1.6,0.4,2.2-0.3c0,0,0,0,0,0
												c0,0,0.1-0.1,0.1-0.1c-4.9-3.8-9.5-8.1-14.3-12V629.7z"/>
										</g>
									</g>
									<g id="Group_3955">
										<g id="Group_3954">
											<path id="Path_9574" class="st47" d="M470.4,609.9c-6.4,0-11.6,8.1-11.6,18s5.2,18,11.6,18s11.6-8.1,11.6-18
												S476.8,609.9,470.4,609.9z M470.4,641c-4.1,0-7.4-5.9-7.4-13.2s3.3-13.2,7.4-13.2s7.4,5.9,7.4,13.2S474.5,641,470.4,641z
												"/>
										</g>
									</g>
									<g id="Group_3960">
										<g id="Group_3957">
											<g id="Group_3956">
												<path id="Path_9575" class="st46" d="M478.6,627c0-7.3-3.3-13.2-7.4-13.2c-1.6,0.1-3,0.8-4,2.1c0.9-0.8,2-1.2,3.2-1.3
													c4.1,0,7.4,5.9,7.4,13.2c0,4.7-1.4,8.8-3.4,11.1C476.9,636.8,478.6,632.3,478.6,627z"/>
											</g>
										</g>
										<g id="Group_3959">
											<g id="Group_3958">
												<path id="Path_9576" class="st48" d="M471.2,645c-6.4,0-11.6-8.1-11.6-18c0-6.1,2-11.5,4.9-14.7
													c-3.4,3.1-5.7,8.9-5.7,15.5c0,9.9,5.2,18,11.6,18c2.6-0.1,5-1.3,6.7-3.3C475.5,644.1,473.4,645,471.2,645z"/>
											</g>
										</g>
									</g>
									<g id="Group_3962">
										<g id="Group_3961">
											<path id="Path_9577" class="st48" d="M472.3,627.8c0.1-1.7-0.4-3.3-1.5-4.6v-0.7h-1.4c-1.6,0-2.9,2.4-2.9,5.3
												s1.3,5.3,2.9,5.3h1.4v-0.7C471.8,631.1,472.3,629.5,472.3,627.8z"/>
										</g>
									</g>
									<g id="Group_3964">
										<g id="Group_3963">
											<path id="Path_9578" class="st47" d="M470.9,633.1c-1.6,0-2.9-2.4-2.9-5.3s1.3-5.3,2.9-5.3s2.9,2.4,2.9,5.3
												S472.5,633.1,470.9,633.1z"/>
										</g>
									</g>
								</g>
								<g id="Group_3967">
									<g id="Group_3966">
										<path id="Path_9579" class="st49" d="M377.2,645.5c1.7,19.4,13.8,36,34.2,42.9c6.8,2.3,17.4,3.1,25.2,3.1
											s17.1-1.1,23.9-3.3c20.5-6.8,33.7-23.2,35.5-42.7H377.2z"/>
									</g>
								</g>
								<g id="Group_3969">
									<g id="Group_3968">
										<path id="Path_9580" class="st50" d="M394.5,661.6c12.1-0.8,24.4-0.8,36.5-1c11.6-0.2,23.1-0.2,34.5-2.4
											c10.7-1.9,21-5.8,30.3-11.3c0-0.5,0.1-1,0.2-1.4H377.2c0.5,6.2,2.2,12.3,5,17.9C386.3,662.5,390.4,661.9,394.5,661.6z"/>
									</g>
								</g>
								<g id="Group_3972">
									<g id="Group_3971">
										<g id="Group_3970">
											<path id="Path_9581" class="st51" d="M436.1,667.4c24.4,0,48.8-5.3,56-7c0.3-0.6,0.5-1.2,0.8-1.8
												c-5.3,1.3-31.6,7.3-57.5,7.2c-18.4-0.3-36.6-2.1-54.7-5.6c0.2,0.6,0.5,1.2,0.8,1.8c17.8,3.4,35.8,5.2,53.9,5.4H436.1z"/>
										</g>
									</g>
								</g>
								<g id="Group_3975">
									<g id="Group_3974">
										<g id="Group_3973">
											<path id="Path_9582" class="st51" d="M436.3,682.4c14.2-0.2,28.3-1.6,42.3-4.2c0.8-0.7,1.6-1.3,2.3-2
												c-11.3,2.1-28.4,4.7-45.4,4.6c-14.5-0.2-29-1.4-43.3-3.7c0.7,0.7,1.5,1.3,2.2,2c13.6,2,27.3,3.1,41,3.3L436.3,682.4z"/>
										</g>
									</g>
								</g>
								<g id="Group_3977">
									<g id="Group_3976">
										<path id="Path_9583" class="st10" d="M489.8,640.9L489.8,640.9c0,2.8-23.8,5-53.2,5s-53.2-2.2-53.2-5c0-0.1,0-0.1,0-0.2
											H377v0.2c0,2.6,0.2,5.2,0.7,7.7c2.4,0.7,4.8,1.3,7.3,1.8c22.6,4.9,61.9,6.8,106.7-0.2c1.2-0.2,2.6-0.5,3.8-0.7
											c0.5-2.8,0.8-5.7,0.8-8.7l0,0L489.8,640.9z"/>
									</g>
								</g>
								<g id="Group_3979">
									<g id="Group_3978">
										<path id="Path_9584" class="st52" d="M383.2,640.7L383.2,640.7c-1.2-0.1-2.3-0.1-3.5,0.2c-3.2,1,1.5,4.4,8.1,5.6
											c5.5,1,18.5,2,32.1,2.8c10.1,0.4,20.3,0.3,30.4-0.4c4-0.3,7.9-0.9,11.7-1.9c1.7-0.3,3.4-0.9,5-1.6
											c0.4-0.2,0.8-0.5,1.3-0.8c-8.9,0.6-20.6,0.7-32.6,0.7C406.4,645.5,383.2,643.5,383.2,640.7z"/>
									</g>
								</g>
							</g>
							<g id="Group_3981">
								<path id="Path_9585" class="st4" d="M349.7,704.3c0.1-1,0.2-2.1,0.2-3.1c0-12.5-9.3-23.1-22.2-27c0.2-1.6,0.4-3.3,0.4-4.9
									c0-19-15.4-34.3-34.4-34.3l0,0c-4.6,0-9.2,0.9-13.4,2.7c-5.7-13.3-20.4-22.8-37.7-22.8c-14.1,0-26.4,6.3-33.6,15.9
									c-19-7.4-40.3,2.1-47.7,21.1c-1,2.5-1.7,5.1-2.1,7.8c-1.5-0.2-3.1-0.3-4.6-0.3c-18.1,0-32.7,12.8-32.7,28.5
									c0,6,2.2,11.9,6.1,16.5L349.7,704.3z"/>
								<path id="Path_9586" class="st5" d="M344.9,704.3c-1.8-10.7-10.4-19.4-21.8-22.8c0.2-1.6,0.4-3.3,0.4-4.9
									c0-19-15.4-34.3-34.4-34.3l0,0c-4.6,0-9.2,0.9-13.4,2.7c-5.7-13.3-20.4-22.8-37.7-22.8c-14.1,0-26.4,6.3-33.6,15.9
									c-19-7.4-40.3,2.1-47.7,21c-1,2.5-1.7,5.1-2.1,7.8c-1.5-0.2-3.1-0.3-4.6-0.3c-18,0-32.7,12.8-32.7,28.5
									c0,3.2,0.6,6.3,1.8,9.2H344.9z"/>
							</g>
						</g>
					</g>
				</g>
			</g>
		</g>
	</g>
</g>
</svg>
