<svg xmlns="http://www.w3.org/2000/svg" viewBox="0 0 205.47 205.47"><defs><style>.cls-1{fill:none;stroke:#fff;stroke-miterlimit:10;stroke-width:4px;}.cls-2{fill:#fff;fill-rule:evenodd;}</style></defs><g id="圖層_2" data-name="圖層 2"><g id="圖層_1-2" data-name="圖層 1"><circle class="cls-1" cx="102.74" cy="102.74" r="100.74"/><path class="cls-2" d="M173.88,72.92A11.87,11.87,0,0,1,163,61.77c0-.55-.1-.73-.67-.73H43.18c-.58,0-.64.18-.67.73A11.86,11.86,0,0,1,31.59,72.92c-.69,0-.88.38-.88,1.06v57.51c0,.68.19,1,.88,1.06A11.86,11.86,0,0,1,42.51,143.7c0,.55.09.74.67.74H162.29c.57,0,.63-.19.67-.74a11.87,11.87,0,0,1,10.92-11.15c.69-.05.88-.38.88-1.06V74C174.76,73.3,174.57,73,173.88,72.92ZM153.74,70a2.18,2.18,0,1,1,2.17,2.18A2.17,2.17,0,0,1,153.74,70ZM47.38,70a2.18,2.18,0,1,1,2.17,2.18A2.17,2.17,0,0,1,47.38,70Zm4.35,65.39a2.18,2.18,0,1,1-2.18-2.17,2.19,2.19,0,0,1,2.18,2.17Zm106.36,0a2.18,2.18,0,1,1-2.18-2.17,2.19,2.19,0,0,1,2.18,2.17Zm-1.91-11.59H49.41a2.18,2.18,0,1,1,0-4.35H156.18a2.18,2.18,0,0,1,0,4.35Zm-92.55-13c0,.53-.2.69-.7.51l-5-1.76-5,1.76c-.5.18-.71,0-.7-.51l.11-5.38L49,101.18c-.32-.43-.24-.68.26-.83l5.11-1.57,3.05-4.4c.3-.44.57-.44.87,0l3,4.4,5.11,1.57c.51.15.58.4.26.83l-3.21,4.29Zm14.91-20a2.17,2.17,0,0,1,2.76,1.35l5,14.41L91,92.3a2.17,2.17,0,0,1,4.13,1.36l-6.34,19.25a2.62,2.62,0,0,1-2.46,1.79h0A2.62,2.62,0,0,1,83.83,113l-6.64-19.3A2.17,2.17,0,0,1,78.54,90.89Zm22,21.64V92.94a2.18,2.18,0,0,1,4.35,0v19.59a2.18,2.18,0,1,1-4.35,0Zm10.89,0V92.94a2.2,2.2,0,0,1,2.18-2.17H119a7.7,7.7,0,1,1,0,15.4l-3.23,0v6.34a2.18,2.18,0,1,1-4.35,0Zm41.87-1.68c0,.53-.19.69-.69.51l-5-1.76-5,1.76c-.51.18-.72,0-.71-.51l.11-5.38-3.22-4.29c-.32-.43-.24-.68.27-.83l5.1-1.57,3.05-4.4c.31-.44.56-.44.87,0l3,4.4,5.11,1.57c.51.15.59.4.27.83l-3.22,4.29ZM156.18,86H49.41a2.18,2.18,0,1,1,0-4.35H156.18a2.18,2.18,0,0,1,0,4.35Z"/><path class="cls-2" d="M115.82,101.84H119a3.36,3.36,0,1,0,0-6.71H115.8c0,1.25,0,2.7,0,3.36S115.82,100.64,115.82,101.84Z"/></g></g></svg>