<svg xmlns="http://www.w3.org/2000/svg" viewBox="0 0 90 90"><defs><style>.cls-1{fill:none;}.cls-2{fill:#fff;}</style></defs><g id="圖層_2" data-name="圖層 2"><g id="圖層_1-2" data-name="圖層 1"><circle class="cls-1" cx="45" cy="45" r="45"/><path class="cls-2" d="M61.85,31.14a5.53,5.53,0,0,0-4.28-6.09L56.2,19.58a4.49,4.49,0,0,0-4.37-3.41.41.41,0,0,1-.4-.41v-3a6.43,6.43,0,1,0-12.86,0v3a.41.41,0,0,1-.4.41,4.49,4.49,0,0,0-4.37,3.41l-1.37,5.47a5.52,5.52,0,0,0-4.28,6.09l1.7,13.32a51,51,0,0,1,0,13.12l-1.54,11.5a6.28,6.28,0,0,0,6.1,7.11H55.63a6.28,6.28,0,0,0,6.1-7.11l-1.54-11.5a51,51,0,0,1,0-13.12ZM37.77,20.58a.41.41,0,0,1,.4-.31,4.52,4.52,0,0,0,4.51-4.51v-3a2.32,2.32,0,1,1,4.64,0v3a4.52,4.52,0,0,0,4.51,4.51.41.41,0,0,1,.4.31l1.08,4.34H36.69Zm20,10L56.08,44a55.09,55.09,0,0,0,.05,14.17l1.53,11.51a2.16,2.16,0,0,1-2,2.45H34.37a2.16,2.16,0,0,1-2-2.45l.89-6.71h5.21a2,2,0,1,0,0-4.1H33.78A55.83,55.83,0,0,0,34.34,52h7.38a2,2,0,1,0,0-4.1H34.27c-.13-2.48-.36-4-.72-6.84h4.89a2,2,0,1,0,0-4.1H33l-.81-6.33A1.42,1.42,0,0,1,33.63,29H56.37a1.42,1.42,0,0,1,1.41,1.6Z"/></g></g></svg>