<svg xmlns="http://www.w3.org/2000/svg" viewBox="0 0 90 90"><defs><style>.cls-1{fill:none;}.cls-2{fill:#fff;}</style></defs><g id="圖層_2" data-name="圖層 2"><g id="圖層_1-2" data-name="圖層 1"><circle class="cls-1" cx="45" cy="45" r="45"/><path class="cls-2" d="M54.09,28.6a1.68,1.68,0,1,0,1.16-1.93A1.69,1.69,0,0,0,54.09,28.6Z"/><path class="cls-2" d="M72,29.16l-6-.82A15.11,15.11,0,1,0,42.3,44a12.11,12.11,0,0,1-17.65-1.74,1.69,1.69,0,0,0-2.5-.23c-3.73,3.51-5.79,7.84-5.79,12.19,0,10.85,11.84,19.69,26.4,19.69s26.29-8.84,26.29-19.69c0-4.71-2.19-9.15-6.21-12.67a14.65,14.65,0,0,0,1.27-1.77c5.28-.06,9.53-3.7,9.53-8.95A1.68,1.68,0,0,0,72,29.16ZM59.17,65.59a27.82,27.82,0,0,1-16.41,5c-17.29,0-29.38-13.65-19.54-24.8a15.44,15.44,0,0,0,23-1,1.68,1.68,0,0,0-.51-2.53A11.79,11.79,0,1,1,62.65,28.92a5.91,5.91,0,0,0-3.22,5.26v1.08a4.52,4.52,0,0,0,1.46,3.33,11.9,11.9,0,0,1-1.66,1.89,1.68,1.68,0,0,0,.14,2.58c8.51,6.34,8.43,16.2-.2,22.53ZM64,36.44a1.18,1.18,0,0,1-1.18-1.18V34.18a2.55,2.55,0,0,1,2.46-2.55l4.85.66C69.39,35,66.66,36.44,64,36.44Z"/><path class="cls-2" d="M54.14,49.79A6.77,6.77,0,0,0,46,51c-3.15,3-9.13,3.68-12.41,3.78A1.67,1.67,0,0,0,32,56.87c1.07,3.81,5.58,7.66,12.1,7.66A18.81,18.81,0,0,0,53,62.47C55.67,61,57.22,59,57.41,56.73c.34-4.08-1.59-6-3.27-6.94Zm-.07,6.65c-.19,2.29-4.24,4.73-10,4.73a9.9,9.9,0,0,1-7.77-3.25c3.82-.39,8.83-1.5,12-4.55a3.41,3.41,0,0,1,4.24-.63c.82.45,1.73,1.27,1.53,3.7Z"/></g></g></svg>