<?xml version="1.0" encoding="utf-8"?>
<!-- Generator: Adobe Illustrator 25.2.3, SVG Export Plug-In . SVG Version: 6.00 Build 0)  -->
<svg version="1.1" id="圖層_1" xmlns="http://www.w3.org/2000/svg" xmlns:xlink="http://www.w3.org/1999/xlink" x="0px" y="0px"
	 viewBox="0 0 39.7 39.7" style="enable-background:new 0 0 39.7 39.7;" xml:space="preserve">
<style type="text/css">
	.st0{fill:#FFFFFF;}
</style>
<path class="st0" d="M19.8,3.8c1.9,0,3.4,1.5,3.4,3.4s-1.5,3.4-3.4,3.4c-1.9,0-3.4-1.5-3.4-3.4l0,0C16.4,5.3,18,3.8,19.8,3.8
	 M19.8,2.5c-2.6,0-4.7,2.1-4.7,4.7s2.1,4.7,4.7,4.7s4.7-2.1,4.7-4.7C24.5,4.6,22.4,2.5,19.8,2.5z"/>
<path class="st0" d="M21.5,12.1c0.8,0,1.5,0.7,1.5,1.5c0,0,0,0,0,0l0.7,3c2.9,0,5.2,2.4,5.1,5.2c0,1.9-1.1,3.7-2.8,4.6l0.7,2.9H22v4
	c0,1.2-1,2.1-2.1,2.1c-1.2,0-2.1-1-2.1-2.1v-4h-4.8l3.7-15.8c0-0.8,0.7-1.5,1.5-1.5H21.5 M24.9,22.7c0.5,0,0.8-0.4,0.8-0.9
	c0-0.4-0.3-0.7-0.6-0.8c-2.4-0.7-4.1-2.8-4.4-5.3c0-0.4-0.4-0.8-0.9-0.8h-0.1c-0.5,0-0.8,0.5-0.8,0.9c0.3,3.2,2.6,5.9,5.7,6.8
	C24.7,22.7,24.8,22.7,24.9,22.7 M21.5,10.8h-3.4c-1.5,0-2.7,1.1-2.8,2.6l-3.7,15.6c-0.1,0.4,0,0.8,0.2,1.1c0.2,0.3,0.6,0.5,1,0.5
	h3.5v2.6c0.1,1.9,1.7,3.4,3.6,3.2c1.8-0.1,3.2-1.5,3.2-3.2v-2.7h3.5c0.4,0,0.8-0.2,1-0.5c0.3-0.3,0.3-0.7,0.2-1.1l-0.5-2
	c1.7-1.2,2.7-3.2,2.7-5.2c0-3.2-2.3-5.9-5.4-6.4l-0.5-2C24.2,12,22.9,10.8,21.5,10.8L21.5,10.8z"/>
</svg>
