<svg xmlns="http://www.w3.org/2000/svg" viewBox="0 0 142.4 142.4"><defs><style>.cls-1{fill:#00bccc;}.cls-2{fill:#fff;}</style></defs><g id="圖層_2" data-name="圖層 2"><g id="圖層_1-2" data-name="圖層 1"><circle id="Ellipse_340" data-name="Ellipse 340" class="cls-1" cx="71.2" cy="71.2" r="71.2"/><g id="Group_2329" data-name="Group 2329"><g id="Group_2328" data-name="Group 2328"><g id="Group_2305" data-name="Group 2305"><g id="Group_2304" data-name="Group 2304"><path id="Path_6705" data-name="Path 6705" class="cls-2" d="M111.65,41.44l-5.54-20.55A6.66,6.66,0,0,0,98,16.23L20.83,36.74a6.63,6.63,0,0,0-4.06,3.1,6.57,6.57,0,0,0-.65,5l11.3,41.83A1.65,1.65,0,0,0,29,87.9a1.59,1.59,0,0,0,.43-.06,1.65,1.65,0,0,0,1.17-2h0L19.33,44a3.23,3.23,0,0,1,.32-2.47,3.27,3.27,0,0,1,2-1.55L98.82,19.44a3.33,3.33,0,0,1,4.08,2.32l5.54,20.55a1.67,1.67,0,0,0,3.22-.85v0Z"/></g></g><g id="Group_2307" data-name="Group 2307"><g id="Group_2306" data-name="Group 2306"><path id="Path_6706" data-name="Path 6706" class="cls-2" d="M113.91,40.92H34.17a6.65,6.65,0,0,0-6.65,6.65V109a6.65,6.65,0,0,0,6.65,6.65h79.74a6.64,6.64,0,0,0,6.64-6.65V47.57A6.64,6.64,0,0,0,113.91,40.92Zm3.32,68.1a3.34,3.34,0,0,1-3.32,3.33H34.17A3.34,3.34,0,0,1,30.84,109V47.57a3.34,3.34,0,0,1,3.33-3.33h79.74a3.34,3.34,0,0,1,3.32,3.33V109Z"/></g></g><g id="Group_2309" data-name="Group 2309"><g id="Group_2308" data-name="Group 2308"><path id="Path_6707" data-name="Path 6707" class="cls-2" d="M65.73,74.14H37.49a1.66,1.66,0,0,0-1.66,1.66V92.42a1.66,1.66,0,0,0,1.66,1.66H65.73a1.66,1.66,0,0,0,1.66-1.66V75.8A1.66,1.66,0,0,0,65.73,74.14ZM64.07,90.76H39.15V77.47H64.07Z"/></g></g><g id="Group_2311" data-name="Group 2311"><g id="Group_2310" data-name="Group 2310"><rect id="Rectangle_841" data-name="Rectangle 841" class="cls-2" x="70.71" y="75.8" width="41.53" height="3.32"/></g></g><g id="Group_2313" data-name="Group 2313"><g id="Group_2312" data-name="Group 2312"><rect id="Rectangle_842" data-name="Rectangle 842" class="cls-2" x="70.71" y="89.09" width="41.53" height="3.32"/></g></g><g id="Group_2315" data-name="Group 2315"><g id="Group_2314" data-name="Group 2314"><rect id="Rectangle_843" data-name="Rectangle 843" class="cls-2" x="70.71" y="82.45" width="41.53" height="3.32"/></g></g><g id="Group_2317" data-name="Group 2317"><g id="Group_2316" data-name="Group 2316"><rect id="Rectangle_844" data-name="Rectangle 844" class="cls-2" x="37.49" y="95.74" width="74.75" height="3.32"/></g></g><g id="Group_2319" data-name="Group 2319"><g id="Group_2318" data-name="Group 2318"><rect id="Rectangle_845" data-name="Rectangle 845" class="cls-2" x="37.49" y="102.38" width="74.75" height="3.32"/></g></g><g id="Group_2321" data-name="Group 2321"><g id="Group_2320" data-name="Group 2320"><path id="Path_6708" data-name="Path 6708" class="cls-2" d="M48.46,53a1.17,1.17,0,0,0-.19-.51,1.11,1.11,0,0,0-.46-.34A2.08,2.08,0,0,0,47,52a1.75,1.75,0,0,0-.75.13,1,1,0,0,0-.41.34,1.48,1.48,0,0,0-.18.51c0,.2,0,.41,0,.62v8.5h-.24l-3.26-8.83a2.51,2.51,0,0,0-.36-.64,2.44,2.44,0,0,0-.53-.43,1.59,1.59,0,0,0-.83-.2H39a1.64,1.64,0,0,0-.89.2,1.16,1.16,0,0,0-.45.53,2.21,2.21,0,0,0-.17.76c0,.28,0,.57,0,.87V64.74a3.28,3.28,0,0,0,0,.62,1.13,1.13,0,0,0,.19.5,1.05,1.05,0,0,0,.46.35,2.42,2.42,0,0,0,.84.13,1.91,1.91,0,0,0,.75-.13,1,1,0,0,0,.41-.35,1.43,1.43,0,0,0,.18-.5c0-.21,0-.42,0-.62V56.23h.24l3.1,8.38c0,.14.11.3.2.5a2.33,2.33,0,0,0,.34.57,1.87,1.87,0,0,0,.54.47,1.57,1.57,0,0,0,.8.18H47a1.59,1.59,0,0,0,.88-.2,1.11,1.11,0,0,0,.45-.53,2.14,2.14,0,0,0,.16-.75q0-.42,0-.87V53.59A4.21,4.21,0,0,0,48.46,53Z"/></g></g><g id="Group_2323" data-name="Group 2323"><g id="Group_2322" data-name="Group 2322"><path id="Path_6709" data-name="Path 6709" class="cls-2" d="M59.47,59.07a4.15,4.15,0,0,0-.18-.85,3.3,3.3,0,0,0-.44-.8,2.64,2.64,0,0,0-.77-.68,4.62,4.62,0,0,0-1.23-.48,7,7,0,0,0-1.77-.19l-.73,0a5.29,5.29,0,0,0-.9.16,4,4,0,0,0-.94.37,3,3,0,0,0-.83.7,3.7,3.7,0,0,0-.59,1.13,5.11,5.11,0,0,0-.24,1.65v2.4a4.35,4.35,0,0,0,.35,1.78,3.28,3.28,0,0,0,.94,1.18,3.91,3.91,0,0,0,1.36.66,6.79,6.79,0,0,0,1.62.21,9.3,9.3,0,0,0,1.39-.11,6.15,6.15,0,0,0,1.38-.38,3.1,3.1,0,0,0,1-.71A1.57,1.57,0,0,0,59.36,64a1,1,0,0,0-.11-.52.92.92,0,0,0-.3-.32,1.3,1.3,0,0,0-.43-.15,2.74,2.74,0,0,0-.5,0,2.59,2.59,0,0,0-.83.1,1.4,1.4,0,0,0-.47.24,1.38,1.38,0,0,0-.28.31,1.33,1.33,0,0,1-.23.3.81.81,0,0,1-.34.24,1.56,1.56,0,0,1-.64.1,1.17,1.17,0,0,1-1-.51,2,2,0,0,1-.21-.49,2.22,2.22,0,0,1-.06-.51v-1H58a1.84,1.84,0,0,0,.84-.14,1,1,0,0,0,.44-.34.94.94,0,0,0,.16-.42c0-.15,0-.28,0-.39h0v-.63A5.45,5.45,0,0,0,59.47,59.07ZM54,60.25h0v-.72a2.69,2.69,0,0,1,0-.4,1.12,1.12,0,0,1,.16-.43,1,1,0,0,1,.36-.33,1.35,1.35,0,0,1,.66-.13,1.91,1.91,0,0,1,.78.13.89.89,0,0,1,.4.39,1.71,1.71,0,0,1,.15.63c0,.25,0,.54,0,.86Z"/></g></g><g id="Group_2325" data-name="Group 2325"><g id="Group_2324" data-name="Group 2324"><path id="Path_6710" data-name="Path 6710" class="cls-2" d="M74.36,57.06a1.49,1.49,0,0,0-.24-.49,1.1,1.1,0,0,0-.42-.35,1.33,1.33,0,0,0-.62-.13,1.36,1.36,0,0,0-.62.13,1.54,1.54,0,0,0-.44.33,2.46,2.46,0,0,0-.31.48,5.2,5.2,0,0,0-.21.55l-1.15,4h-.16L69.1,58.71a2.55,2.55,0,0,0-.68-1.12,1.26,1.26,0,0,0-.87-.31,1.5,1.5,0,0,0-.92.31A2.11,2.11,0,0,0,66,58.71L65,61.6h-.16l-1.29-4a3.76,3.76,0,0,0-.23-.55,2.46,2.46,0,0,0-.31-.48,1.5,1.5,0,0,0-.42-.33,1.06,1.06,0,0,0-.52-.13,1.58,1.58,0,0,0-.68.12,1.25,1.25,0,0,0-.45.33,1.52,1.52,0,0,0-.25.49,2.17,2.17,0,0,0,0,1.13c.06.19.11.37.17.53l2.3,6a6.52,6.52,0,0,0,.43.93,2.27,2.27,0,0,0,.41.47.8.8,0,0,0,.4.17,3,3,0,0,0,.43,0,2.56,2.56,0,0,0,.39,0,.71.71,0,0,0,.36-.17,2.07,2.07,0,0,0,.37-.47,6.41,6.41,0,0,0,.41-.93l1.11-3.69h.16l1.07,3.69a5.58,5.58,0,0,0,.43.93,2,2,0,0,0,.4.47.84.84,0,0,0,.4.17,3,3,0,0,0,.43,0,2.56,2.56,0,0,0,.39,0,.78.78,0,0,0,.37-.17,2.07,2.07,0,0,0,.37-.47,7.84,7.84,0,0,0,.43-.93l2.27-6c.06-.18.12-.35.17-.53a1.89,1.89,0,0,0,.08-.53A2.8,2.8,0,0,0,74.36,57.06Z"/></g></g><g id="Group_2327" data-name="Group 2327"><g id="Group_2326" data-name="Group 2326"><path id="Path_6711" data-name="Path 6711" class="cls-2" d="M83,62.17a3.27,3.27,0,0,0-.7-.87,4.75,4.75,0,0,0-1-.66c-.35-.19-.69-.37-1-.53l-.64-.31a4.07,4.07,0,0,1-.53-.31,1.42,1.42,0,0,1-.36-.33.68.68,0,0,1-.14-.38.91.91,0,0,1,.08-.37.66.66,0,0,1,.21-.23.7.7,0,0,1,.28-.12,1.32,1.32,0,0,1,.34,0,1.14,1.14,0,0,1,.71.21.72.72,0,0,1,.31.59.64.64,0,0,0,.08.3.85.85,0,0,0,.22.28,1.45,1.45,0,0,0,.34.2,1,1,0,0,0,.45.08,3.41,3.41,0,0,0,.55,0,1.38,1.38,0,0,0,.48-.17,1,1,0,0,0,.34-.31.92.92,0,0,0,.12-.51,3.87,3.87,0,0,0,0-.45,2.19,2.19,0,0,0-.14-.56,1.94,1.94,0,0,0-.32-.58,2.3,2.3,0,0,0-.6-.52,3.67,3.67,0,0,0-1-.37A6,6,0,0,0,79.68,56h-.16a9,9,0,0,0-1.64.16,3.36,3.36,0,0,0-1.23.48,2.07,2.07,0,0,0-.76.87,2.9,2.9,0,0,0-.26,1.33,1.91,1.91,0,0,0,.23,1,2.88,2.88,0,0,0,.62.77,5.63,5.63,0,0,0,.84.61c.32.19.62.36.93.52l.72.4a6.9,6.9,0,0,1,.63.42,1.83,1.83,0,0,1,.45.47.9.9,0,0,1,.17.53.7.7,0,0,1-.25.55,1,1,0,0,1-.65.21l-.4,0a1.64,1.64,0,0,1-.38-.1.9.9,0,0,1-.27-.2.52.52,0,0,1-.12-.33,1.13,1.13,0,0,0-.35-.89,1.29,1.29,0,0,0-.84-.28,1.57,1.57,0,0,0-1,.29,1.12,1.12,0,0,0-.35.9,3.57,3.57,0,0,0,.07.56,2.14,2.14,0,0,0,.21.6,2.08,2.08,0,0,0,.43.59,2.26,2.26,0,0,0,.69.5,4.42,4.42,0,0,0,1,.36,6.3,6.3,0,0,0,1.37.13,6,6,0,0,0,.85-.06,5.4,5.4,0,0,0,.89-.18,4.09,4.09,0,0,0,.83-.36,2.91,2.91,0,0,0,.69-.57,2.6,2.6,0,0,0,.48-.82,3.31,3.31,0,0,0,.18-1.08A2.44,2.44,0,0,0,83,62.17Z"/></g></g></g></g></g></g></svg>