<?xml version="1.0" encoding="utf-8"?>
<!-- Generator: Adobe Illustrator 25.2.3, SVG Export Plug-In . SVG Version: 6.00 Build 0)  -->
<svg version="1.1" id="圖層_1" xmlns="http://www.w3.org/2000/svg" xmlns:xlink="http://www.w3.org/1999/xlink" x="0px" y="0px"
	 viewBox="0 0 39.7 39.7" style="enable-background:new 0 0 39.7 39.7;" xml:space="preserve">
<style type="text/css">
	.st0{fill:#FFFFFF;}
</style>
<path class="st0" d="M26.4,6.5c2.4,0,4.4,2.3,4.4,5.2c0.1,1.9-0.9,3.7-2.5,4.7l0,0c-0.5,0.3-0.6,1.1-0.6,2.2v13
	c0.1,0.7-0.3,1.4-1,1.6c-0.7,0.1-1.4-0.3-1.6-1c0-0.2,0-0.3,0-0.5v-13c0-1.1-0.1-1.9-0.6-2.2l0,0c-1.6-1-2.6-2.8-2.5-4.7
	C22,8.8,24,6.5,26.4,6.5 M26.4,5.2c-3.1,0-5.7,2.9-5.7,6.5c-0.1,2.3,1.1,4.5,3,5.7c0.1,0.4,0.1,0.8,0.1,1.2v13
	c-0.1,1.5,1,2.7,2.5,2.9c0,0,0.1,0,0.1,0h0.1c1.5-0.1,2.6-1.3,2.6-2.8c0,0,0-0.1,0-0.1v-13c0-0.4,0-0.8,0.1-1.2
	c1.9-1.3,3.1-3.4,3-5.7C32.1,8.1,29.5,5.2,26.4,5.2z"/>
<path class="st0" d="M15.4,6.5c0.6,0,0.7,0.7,0.7,2.2c0,0.8,0,1.5,0,2c0,0.2,0.2,0.4,0.4,0.4c0.2,0,0.4-0.1,0.5-0.3
	c0.2-0.8,0.3-1.5,0.2-2.3c-0.1-1.3,0.2-1.6,0.4-1.6l0,0c0.2,0,0.6,0,0.7,1.5s0.2,2.6,0.2,3.3l0,0V12l0,0c0,1.8-1,3.5-2.5,4.4l0,0
	c-0.5,0.3-0.6,1.1-0.6,2.2v13c0.1,0.8-0.4,1.5-1.2,1.6c0,0-0.1,0-0.1,0c-0.8,0-1.4-0.7-1.3-1.5c0,0,0-0.1,0-0.1v-13
	c0-1.1-0.1-1.9-0.6-2.2l0,0c-1.5-1-2.5-2.6-2.5-4.4l0,0v-0.3l0,0c0-0.7,0-1.9,0.2-3.3s0.5-1.5,0.7-1.5l0,0c0.2,0,0.5,0.3,0.4,1.6
	c-0.1,0.8,0,1.6,0.2,2.3c0.1,0.2,0.3,0.3,0.5,0.3c0.2,0,0.4-0.2,0.4-0.4c0-0.5,0-1.2,0-2c0-1.5,0.1-2.2,0.6-2.2s0.6,0.5,0.6,1.2
	c0,0.9,0,1.8,0.1,2.7c0,0.4,0.2,0.7,0.6,0.7c0.4,0,0.6-0.4,0.6-0.7c0.1-0.9,0.1-1.8,0.1-2.6C14.8,7,14.9,6.5,15.4,6.5 M15.4,5.2
	c-0.5,0-0.9,0.2-1.3,0.5c-0.3-0.3-0.8-0.5-1.3-0.5c-0.5,0-1.1,0.2-1.4,0.6c-0.2-0.2-0.5-0.2-0.8-0.2l0,0c-1.8,0-2,2.1-2,2.7
	c-0.1,1.3-0.2,2.6-0.2,3.4V12c0,0.1,0,0.2,0,0.2c0.1,2.1,1.2,4.1,3,5.2c0.1,0.4,0.1,0.8,0.1,1.2v13c-0.1,1.5,1,2.7,2.5,2.9
	c0,0,0.1,0,0.1,0h0.1c1.5-0.1,2.6-1.3,2.6-2.8c0,0,0-0.1,0-0.1v-13c0-0.4,0-0.8,0.1-1.2c1.8-1.2,2.9-3.1,3-5.2c0-0.1,0-0.2,0-0.2
	v-0.4c0-0.8,0-2-0.2-3.3c-0.1-0.7-0.3-2.7-2-2.7c-0.3,0-0.6,0.1-0.9,0.2C16.5,5.4,16,5.2,15.4,5.2L15.4,5.2z"/>
</svg>
