<svg xmlns="http://www.w3.org/2000/svg" viewBox="0 0 90 90"><defs><style>.cls-1{fill:#dbdbdb;}.cls-2{fill:#fff;}</style></defs><g id="圖層_2" data-name="圖層 2"><g id="圖層_1-2" data-name="圖層 1"><circle class="cls-1" cx="45" cy="45" r="45"/><path class="cls-2" d="M77.46,58.05a1.92,1.92,0,0,0-2.71-.26,28.92,28.92,0,0,1-3.14,2.09V22.25a1.93,1.93,0,0,0-3.86,0v2.19H22.25V22.25a1.93,1.93,0,0,0-3.86,0V59.88a28.92,28.92,0,0,1-3.14-2.09,1.93,1.93,0,0,0-2.46,3,38.82,38.82,0,0,0,8.51,4.91,61,61,0,0,0,47.4,0,38.82,38.82,0,0,0,8.51-4.91,1.92,1.92,0,0,0,.25-2.71ZM46.93,51.18v-5.4h8.48v5.4Zm-12.34,0v-5.4h8.48v5.4Zm-12.34,0v-5.4h8.48v5.4Zm20.82-9.26H34.59V28.3h8.48ZM46.93,28.3h8.48V41.92H46.93ZM59.27,45.78h8.48v5.4H59.27Zm8.48-3.86H59.27V28.3h8.48Zm-37-13.62V41.92H22.25V28.3ZM22.25,61.87V55h45.5v6.84A57,57,0,0,1,22.25,61.87Z"/></g></g></svg>