<svg xmlns="http://www.w3.org/2000/svg" viewBox="0 0 90 90"><defs><style>.cls-1{fill:#dbdbdb;}.cls-2{fill:#fff;}</style></defs><g id="圖層_2" data-name="圖層 2"><g id="圖層_1-2" data-name="圖層 1"><circle class="cls-1" cx="45" cy="45" r="45"/><path class="cls-2" d="M75.46,29.42c-13.66-15.74-12.75-14.77-13.13-15a1.78,1.78,0,0,0-.69-.24c-.17,0-33.09,0-33.36,0a1.86,1.86,0,0,0-.67.25c-.34.22.46-.65-13.07,15a1.81,1.81,0,0,0-.18,2.13l5.92,9.66a1.81,1.81,0,0,0,2.65.49l3.84-3V57.79A18.09,18.09,0,0,0,37.93,74.5a17.25,17.25,0,0,0,13.67.19A18.1,18.1,0,0,0,63.23,58.23V38.72l3.84,3a1.81,1.81,0,0,0,2.65-.49l5.92-9.66a1.81,1.81,0,0,0-.18-2.13ZM49.81,17.81C49.27,21.25,47.25,24,45,24s-4.27-2.72-4.81-6.16ZM38.31,70.69a14.47,14.47,0,0,1-7.92-12.9V56.6a9.8,9.8,0,0,1,7.92,14.09Zm-16-33.09-4.17-6.81L28.5,18.85c2.59,4.34,2.43,12.14-1.38,15-.26.19,1.06-.82-4.81,3.74ZM41.72,72A13.42,13.42,0,0,0,30.39,53V35.78c4.16-4.33,4.44-12.54,1.67-18h4.47a13.58,13.58,0,0,0,2.2,6.11c3.34,4.86,9.14,4.94,12.54,0a13.58,13.58,0,0,0,2.2-6.11h4.47c-2.77,5.44-2.49,13.65,1.67,18V53A13.43,13.43,0,0,0,48.28,72a12.9,12.9,0,0,1-6.56,0Zm10-1.27A9.8,9.8,0,0,1,59.61,56.6v1.19a14.44,14.44,0,0,1-7.92,12.9Zm16-33.09-4.81-3.74c-3.82-2.87-4-10.68-1.38-15L71.86,30.79Z"/></g></g></svg>