<svg xmlns="http://www.w3.org/2000/svg" width="199" height="178.563" viewBox="0 0 199 178.563">
  <g id="Group_4600" data-name="Group 4600" transform="translate(0 1)">
    <g id="Group_4554" data-name="Group 4554" transform="translate(55.05 0.001)">
      <ellipse id="Ellipse_507" data-name="Ellipse 507" cx="15.503" cy="15.503" rx="15.503" ry="15.503" transform="translate(29.164 50.615) rotate(-76.765)" fill="#8b8b8b" stroke="#8b8b8b" stroke-linecap="round" stroke-linejoin="round" stroke-width="2"/>
      <path id="Path_10215" data-name="Path 10215" d="M291.115,55.733a48.09,48.09,0,1,1-68.009,68.011Z" transform="translate(-214.685 -45.286)" fill="#fff" stroke="#8b8b8b" stroke-linecap="round" stroke-linejoin="round" stroke-width="2"/>
      <ellipse id="Ellipse_508" data-name="Ellipse 508" cx="15.661" cy="15.661" rx="15.661" ry="15.661" transform="translate(0 76.522)" fill="#8b8b8b" stroke="#8b8b8b" stroke-linecap="round" stroke-linejoin="round" stroke-width="2"/>
      <ellipse id="Ellipse_509" data-name="Ellipse 509" cx="6.17" cy="6.17" rx="6.17" ry="6.17" transform="translate(9.491 86.014)" fill="#fff" stroke="#8b8b8b" stroke-linecap="round" stroke-linejoin="round" stroke-width="2"/>
      <ellipse id="Ellipse_510" data-name="Ellipse 510" cx="15.661" cy="15.661" rx="15.661" ry="15.661" transform="translate(53.974 76.522)" fill="#8b8b8b" stroke="#8b8b8b" stroke-linecap="round" stroke-linejoin="round" stroke-width="2"/>
      <ellipse id="Ellipse_511" data-name="Ellipse 511" cx="6.17" cy="6.17" rx="6.17" ry="6.17" transform="translate(63.465 86.014)" fill="#fff" stroke="#8b8b8b" stroke-linecap="round" stroke-linejoin="round" stroke-width="2"/>
      <path id="Path_10216" data-name="Path 10216" d="M258.932,60.677l7.876-7.874a8.782,8.782,0,0,1,12.421,0h0" transform="translate(-182.502 -50.23)" fill="none" stroke="#8b8b8b" stroke-linecap="round" stroke-linejoin="round" stroke-width="2"/>
    </g>
    <text id="BABY_LOGO" data-name="BABY LOGO" transform="translate(0 150.128)" fill="#8b8b8b" font-size="31" font-family="Helvetica"><tspan x="0" y="0" letter-spacing="0.075em">BABY LOG</tspan><tspan y="0">O</tspan></text>
    <text id="AMAZING_SLOGAN" data-name="AMAZING SLOGAN" transform="translate(18.983 173.564)" fill="#8b8b8b" font-size="16" font-family="Helvetica" letter-spacing="0.075em"><tspan x="0" y="0">AMAZING SLOGAN</tspan></text>
  </g>
</svg>
