<svg xmlns="http://www.w3.org/2000/svg" width="218.536" height="137.678" viewBox="0 0 218.536 137.678">
  <g id="Group_4592" data-name="Group 4592" transform="translate(1.041 1.03)">
    <g id="Group_4590" data-name="Group 4590" transform="translate(0 -0.001)">
      <g id="Group_4589" data-name="Group 4589">
        <path id="Path_10259" data-name="Path 10259" d="M276.973,292.739c-3.233-17.043-5.368-35.217-25.151-40.814,1.559-7.857,5.418-30.242,4.8-39.568-.03-.459-.065-.921-.106-1.378-.368-4.131-3.034-9.192-7.007-10.875-5.12-2.17-9.212,2.813-10.378,7.3-1.9,7.348,1.576,33.275,3.9,42.752-1.764-.218-3.559-.368-5.4-.435v-.013l-.135.008-.135-.008v.013c-1.836.066-3.633.216-5.395.435,2.325-9.476,5.805-35.4,3.9-42.752-1.166-4.491-5.258-9.474-10.378-7.3-3.971,1.684-6.638,6.745-7.007,10.875-.04.457-.076.919-.106,1.378-.729,11.02,4.438,37.418,5.03,39.4.01.036.028.066.04.1-19.928,5.532-23.48,23.765-26.728,40.884-7.551,17.855-5.642,37.877,33.365,40.607a4.036,4.036,0,0,1,1.346.412,13.484,13.484,0,0,0,11.944-.013,2.806,2.806,0,0,1,1.017-.365C285.7,331.324,285.018,310.961,276.973,292.739Z" transform="translate(-193.214 -199.579)" fill="#fff" stroke="#8b8b8b" stroke-linecap="round" stroke-linejoin="round" stroke-width="2"/>
        <g id="Group_4588" data-name="Group 4588" transform="translate(20.298 88.469)">
          <g id="Group_4586" data-name="Group 4586">
            <path id="Path_10260" data-name="Path 10260" d="M214.5,252.5c0,3.491-2.371,6.321-5.294,6.321s-5.3-2.83-5.3-6.321,2.371-6.321,5.3-6.321S214.5,249.013,214.5,252.5Z" transform="translate(-203.907 -246.183)" fill="#8b8b8b"/>
            <path id="Path_10261" data-name="Path 10261" d="M233.936,252.5c0,3.491-2.371,6.321-5.294,6.321s-5.3-2.83-5.3-6.321,2.371-6.321,5.3-6.321S233.936,249.013,233.936,252.5Z" transform="translate(-186.446 -246.183)" fill="#8b8b8b"/>
          </g>
          <g id="Group_4587" data-name="Group 4587" transform="translate(1.181 16.4)">
            <path id="Path_10262" data-name="Path 10262" d="M236.149,254.822a13.725,13.725,0,0,0-9.1,3.407,13.734,13.734,0,0,0-9.106-3.407c-7.405,0-13.41,5.706-13.41,12.743s6,12.743,13.41,12.743a13.742,13.742,0,0,0,9.106-3.405,13.734,13.734,0,0,0,9.1,3.405c7.405,0,13.41-5.7,13.41-12.743S243.554,254.822,236.149,254.822Z" transform="translate(-204.529 -254.822)" fill="#fff" stroke="#8b8b8b" stroke-linecap="round" stroke-linejoin="round" stroke-width="2"/>
            <path id="Path_10263" data-name="Path 10263" d="M224.04,258.62c0,1.725-2.318,5.469-5.175,5.469s-5.177-3.744-5.177-5.469,2.318-3.125,5.177-3.125S224.04,256.894,224.04,258.62Z" transform="translate(-196.301 -254.217)" fill="#8b8b8b"/>
          </g>
        </g>
      </g>
    </g>
    <g id="Group_4591" data-name="Group 4591" transform="translate(107.495 12.536)">
      <text id="BABY_LOGO" data-name="BABY
LOGO" transform="translate(0 27)" fill="#8b8b8b" font-size="35" font-family="Helvetica" letter-spacing="0.075em"><tspan x="0" y="0">BABY</tspan><tspan x="0" y="42">LOGO</tspan></text>
      <text id="SLOGAN" transform="translate(3.025 103.235)" fill="#8b8b8b" font-size="22" font-family="Helvetica" letter-spacing="0.075em"><tspan x="0" y="0">SLOGAN</tspan></text>
    </g>
  </g>
</svg>
