<svg xmlns="http://www.w3.org/2000/svg" width="170.243" height="190.493" viewBox="0 0 170.243 190.493">
  <g id="Group_4579" data-name="Group 4579" transform="translate(0)">
    <g id="Group_4576" data-name="Group 4576" transform="translate(20.882 49.648)">
      <path id="Path_10231" data-name="Path 10231" d="M178.339,390.7a15.39,15.39,0,0,0-2.308.194,49.368,49.368,0,0,0-94.1,0,15.386,15.386,0,0,0-2.306-.194,15.135,15.135,0,1,0,2.306,30.075,49.367,49.367,0,0,0,94.1,0,15.127,15.127,0,1,0,2.308-30.075Z" transform="translate(-64.492 -345.247)" fill="#fff" stroke="#8b8b8b" stroke-linecap="round" stroke-linejoin="round" stroke-width="2"/>
      <path id="Path_10232" data-name="Path 10232" d="M85.544,393.31a26.926,26.926,0,0,0,49.056,0Z" transform="translate(-45.581 -312.159)" fill="none" stroke="#8b8b8b" stroke-linecap="round" stroke-linejoin="round" stroke-width="2"/>
      <g id="Group_4573" data-name="Group 4573" transform="translate(39.156 55.641)">
        <path id="Path_10233" data-name="Path 10233" d="M85.119,384.817a4.944,4.944,0,1,1,4.943,4.943A4.944,4.944,0,0,1,85.119,384.817Z" transform="translate(-85.119 -379.872)" fill="#8b8b8b"/>
        <path id="Path_10234" data-name="Path 10234" d="M106.6,384.817a4.944,4.944,0,1,1,4.945,4.943A4.944,4.944,0,0,1,106.6,384.817Z" transform="translate(-65.822 -379.872)" fill="#8b8b8b"/>
      </g>
      <g id="Group_4575" data-name="Group 4575" transform="translate(28.784)">
        <g id="Group_4574" data-name="Group 4574">
          <path id="Path_10235" data-name="Path 10235" d="M79.655,361.791a11.231,11.231,0,0,1,11.228-11.23c6.2,0,24.781,11.23,24.781,11.23S97.085,373.02,90.883,373.02A11.23,11.23,0,0,1,79.655,361.791Z" transform="translate(-79.655 -350.561)" fill="#8b8b8b" stroke="#8b8b8b" stroke-linecap="round" stroke-linejoin="round" stroke-width="2"/>
          <path id="Path_10236" data-name="Path 10236" d="M134.314,361.791a11.23,11.23,0,0,0-11.228-11.23c-6.2,0-24.781,11.23-24.781,11.23s18.579,11.229,24.781,11.229A11.229,11.229,0,0,0,134.314,361.791Z" transform="translate(-62.902 -350.561)" fill="#8b8b8b" stroke="#8b8b8b" stroke-linecap="round" stroke-linejoin="round" stroke-width="2"/>
        </g>
        <path id="Path_10237" data-name="Path 10237" d="M95.138,359.322a6.012,6.012,0,1,1,6.012,6.01A6.012,6.012,0,0,1,95.138,359.322Z" transform="translate(-65.746 -348.092)" fill="#8b8b8b" stroke="#8b8b8b" stroke-linecap="round" stroke-linejoin="round" stroke-width="2"/>
      </g>
    </g>
    <g id="Group_4578" data-name="Group 4578" transform="translate(1.899 0)">
      <g id="Group_4577" data-name="Group 4577">
        <path id="Path_10238" data-name="Path 10238" d="M53.048,341.493l4.419-3.03c3.434-2.354,6.758-2.872,9.294.829a5.2,5.2,0,0,1,.089,6.238l.072.1c2.53-.989,4.793-.427,6.674,2.314,2.718,3.967,1.369,7.591-2.225,10.055l-4.767,3.267Zm9.94,5.08c1.41-.966,1.511-2.248.27-4.057-1.259-1.838-2.371-1.976-3.675-1.082l-.532.366,3.485,5.084Zm6.046,8.535c1.729-1.186,1.934-2.773.547-4.8-1.333-1.942-2.787-2.238-4.463-1.088l-.666.456,4,5.83Z" transform="translate(-53.048 -313.449)" fill="#8b8b8b"/>
        <path id="Path_10239" data-name="Path 10239" d="M76.64,347.462l-4.119,2L74.33,355.4l-4.093,1.988L63.849,333.84l5.919-2.878,14.575,19.574-4.152,2.018Zm-2.187-3.1L72.932,342.2c-1.492-2.037-3.011-4.349-4.529-6.517l-.116.057c.852,2.492,1.644,5.156,2.354,7.574l.765,2.534Z" transform="translate(-43.345 -318.519)" fill="#8b8b8b"/>
        <path id="Path_10240" data-name="Path 10240" d="M72.7,329.605l5.11-1.6c3.973-1.245,7.3-.767,8.641,3.514a5.192,5.192,0,0,1-1.741,5.989l.038.123c2.709-.205,4.708.993,5.7,4.165,1.437,4.588-.915,7.656-5.072,8.96l-5.511,1.726Zm8.013,7.77c1.631-.511,2.1-1.707,1.447-3.8-.666-2.124-1.688-2.582-3.2-2.109l-.617.192,1.843,5.883Zm3.278,9.93c2-.628,2.661-2.086,1.929-4.425-.7-2.25-2.008-2.956-3.948-2.348l-.769.241,2.113,6.743Z" transform="translate(-35.396 -321.712)" fill="#8b8b8b"/>
        <path id="Path_10241" data-name="Path 10241" d="M90.355,341.518,82.667,326.81l4.848-.759,2.54,5.811c.74,1.813,1.348,3.189,2,5.046l.127-.021c.116-1.978.275-3.472.421-5.456l.655-6.276,4.784-.748-2.933,16.369,1.276,8.165-4.751.742Z" transform="translate(-26.441 -324.407)" fill="#8b8b8b"/>
        <path id="Path_10242" data-name="Path 10242" d="M107.625,324.459l4.761.664-2.76,19.777,7.381,1.031-.552,3.96L104.312,348.2Z" transform="translate(-6.997 -324.36)" fill="#8b8b8b"/>
        <path id="Path_10243" data-name="Path 10243" d="M115.084,336.888c2.4-8.1,6.232-10.942,10.378-9.714s5.816,5.691,3.421,13.8-6.3,11.155-10.441,9.93S112.687,344.994,115.084,336.888Zm9.127,2.7c1.931-6.526,1.386-8.1.089-8.485s-2.612.64-4.545,7.168c-1.923,6.5-1.443,8.286-.142,8.671S122.289,346.086,124.212,339.588Z" transform="translate(1.675 -322.167)" fill="#8b8b8b"/>
        <path id="Path_10244" data-name="Path 10244" d="M125.208,339.393c3.369-7.227,8.717-9.755,13.076-7.722a6.882,6.882,0,0,1,3.631,4.97l-3.713,1.545c-.254-1.365-.511-2.268-1.65-2.8-1.932-.9-4.522,1.061-6.786,5.919-2.318,4.974-2.217,8.189-.431,9.023a1.808,1.808,0,0,0,1.416.093l2.126-4.638-1.931-.9,1.665-3.569,5.822,2.713-4.695,10.065a7.229,7.229,0,0,1-6.1-.065C123.518,352.1,121.838,346.62,125.208,339.393Z" transform="translate(10.158 -318.491)" fill="#8b8b8b"/>
        <path id="Path_10245" data-name="Path 10245" d="M135.251,343.237c4.668-7.05,9.165-8.641,12.77-6.253s3.9,7.149-.769,14.2-9.287,8.827-12.893,6.439S130.585,350.288,135.251,343.237Zm7.939,5.256c3.759-5.68,3.7-7.343,2.57-8.092s-2.686-.152-6.447,5.526c-3.74,5.651-3.8,7.5-2.675,8.252S139.45,354.143,143.19,348.494Z" transform="translate(17.603 -314.041)" fill="#8b8b8b"/>
      </g>
    </g>
    <text id="AMAZING_SLOGAN" data-name="AMAZING SLOGAN" transform="translate(0 186.493)" fill="#8b8b8b" font-size="16" font-family="Helvetica" letter-spacing="0.075em"><tspan x="0" y="0">AMAZING SLOGAN</tspan></text>
  </g>
</svg>
