<svg xmlns="http://www.w3.org/2000/svg" width="423" height="205.996" viewBox="0 0 423 205.996">
  <g id="Group_4500" data-name="Group 4500" transform="translate(-1334.55 -87.975)">
    <path id="Path_10197" data-name="Path 10197" d="M1414.084,159.566c-24.153-9.315-39.951-20.421-39.951-20.421-7.336,4.949,12.575,47.506,9.431,54.432s-44.014,23.754-44.014,23.754c75.451,81.156,192.82,42.556,247.312,22.765s162.43,13.855,165.573,7.915-47.157-43.547-44.012-54.434,44.012-30.682,44.012-30.682c-105.842-59.381-197.021,4.189-266.486,8.88-3.734.251-7.438.343-11.1.3a15.951,15.951,0,0,0-13.837-8.092h-8.844" transform="translate(4.973 27.177)" fill="#f2eeeb"/>
    <g id="Group_4505" data-name="Group 4505" transform="translate(1334.55 110.374)">
      <path id="Path_10198" data-name="Path 10198" d="M1369.133,134.145s52.07,36.664,111.816,32.63c69.465-4.691,160.644-68.261,266.486-8.88,0,0-40.87,19.795-44.012,30.682s47.155,48.5,44.012,54.434-111.082-27.71-165.573-7.915S1410,293.487,1334.55,212.331c0,0,40.87-16.825,44.014-23.754S1361.8,139.094,1369.133,134.145Z" transform="translate(-1334.55 -88.171)" fill="#4aa9ff"/>
      <g id="Group_4501" data-name="Group 4501" transform="translate(145.716 74.123)">
        <g id="Group_4500-2" data-name="Group 4500">
          <path id="Path_10199" data-name="Path 10199" d="M1420.951,164.055a2.509,2.509,0,0,1,1.732-.123,1.594,1.594,0,0,1,.907.695l9.078-3.112q2.756-.948,3.486,1.182l.452,1.316a1.722,1.722,0,0,1-.076,1.636,1.847,1.847,0,0,1-.974.868.906.906,0,0,1-.007.474.948.948,0,0,1-.669.6l-3.714,1.275.32.926,4.672-1.6a1.2,1.2,0,0,1,.892-.037,1.245,1.245,0,0,1,.526.755,1.33,1.33,0,0,1,.078.812,1.128,1.128,0,0,1-.745.658l-.18.063a1.155,1.155,0,0,1,.866.773l.5,1.439q.523,1.529-1.431,2.2l-9.371,3.212a1.6,1.6,0,0,1-2.335-1.039l-.494-1.441a1.051,1.051,0,0,1,.1-.972,1.251,1.251,0,0,1-.839-.013c-.227-.078-.414-.327-.556-.745a1.188,1.188,0,0,1-.047-.822,1.521,1.521,0,0,1-.738-.115,1.1,1.1,0,0,1-.857-.744l-.039-.119a1.025,1.025,0,0,1-.435.284l-2.591.887.4,1.169,2.4-.825a1.215,1.215,0,0,1,.862-.026c.238.052.435.3.586.736a1.442,1.442,0,0,1,.108.9,1.166,1.166,0,0,1-.777.669l-2.4.82.34.991,2.926-1.138a1.624,1.624,0,0,1,1.082-.069,1.408,1.408,0,0,1,.647.816,1.031,1.031,0,0,1-.558,1.4l-10.113,4.1a1.36,1.36,0,0,1-1.041-.013,1.186,1.186,0,0,1-.569-.777,1.241,1.241,0,0,1,.023-1.013,1.051,1.051,0,0,1,.617-.545l3.651-1.452-.389-1.138-2.874.987a1.2,1.2,0,0,1-.874,0,1.221,1.221,0,0,1-.619-.827,1.138,1.138,0,0,1,0-.974,1.265,1.265,0,0,1,.708-.476l2.876-.987-.4-1.167-3.209,1.1a1.15,1.15,0,0,1-.911-.024,1.055,1.055,0,0,1-.515-.625,1.573,1.573,0,0,1-.552-.143,2.11,2.11,0,0,1-1.043-1.283l-.413-1.2q-.724-2.126,2.03-3.071l8.839-3.03a2.442,2.442,0,0,1,.221-1.117A2.559,2.559,0,0,1,1420.951,164.055Zm.89,6.895a14.74,14.74,0,0,0,1.366-3.244l-10.007,3.43c-.342.115-.472.283-.4.5l.3.87,7.189-2.467a1.4,1.4,0,0,1,.881-.069c.242.052.441.309.6.768Zm-4.822,11.331,18.428-6.317a1.79,1.79,0,0,1,2.593,1.221l2.22,6.473a1.818,1.818,0,0,1-1.279,2.612l-2.069.71a42.85,42.85,0,0,0,4.614-.71q.649-.156,1.368-.3c.686-.147,1.112.022,1.277.5a2.06,2.06,0,0,1,.108,1,2.132,2.132,0,0,1-.422.816,2.556,2.556,0,0,1-1.258.731,19.36,19.36,0,0,1-3.149.677,50.969,50.969,0,0,1-6.138.361,2.646,2.646,0,0,1-1.134-.279,1.065,1.065,0,0,1-.506-.6.763.763,0,0,1,0-.4l-4.257,1.454a1.08,1.08,0,0,1,.377.509,1.132,1.132,0,0,1-.063.993,12.757,12.757,0,0,1-1.98,1.549q-1.565,1.2-4.383,2.941a10.041,10.041,0,0,1-2.523,1.234,2.106,2.106,0,0,1-1.664-.167,1.836,1.836,0,0,1-.76-1.043,1.329,1.329,0,0,1,.42-1.216q3.541-1.883,5.6-3.092l-1.887.647a1.821,1.821,0,0,1-2.616-1.281l-2.216-6.471A1.791,1.791,0,0,1,1417.02,182.281Zm3.114,2.147,14.173-4.859-.217-.63c-.054-.158-.173-.208-.353-.145l-13.634,4.672c-.178.061-.24.173-.186.333Zm.943,2.757,14.173-4.858-.34-.989L1420.74,186.2Zm14.8-2.16c.182-.063.247-.162.2-.3l-.217-.625-14.171,4.856.214.63c.048.141.16.18.34.117Zm-7.5-14.169-.318-.931-2.755.946-.135-.39a7.32,7.32,0,0,1-.71,1.448.757.757,0,0,1-.067.292Zm-2.573-2.433,6.952-2.385-.381-1.108c-.075-.219-.322-.26-.742-.113l-5.752,1.972a.97.97,0,0,1,.1.2,2.14,2.14,0,0,1-.091,1.1A3.132,3.132,0,0,1,1425.8,168.424Zm1.167,5.358a1.216,1.216,0,0,1,.617.725l.277.809c.028.078.123.091.286.035l1.584-.543-.606-1.766Zm5.88-.039,1.43-.491c.325-.113.474-.206.446-.286l-.236-.69a1.148,1.148,0,0,1,.218-1.114l.052-.05-2.517.863Z" transform="translate(-1408.285 -136.371)" fill="#fff"/>
          <path id="Path_10200" data-name="Path 10200" d="M1437.766,158.5a2.461,2.461,0,0,1,1.736-.015,1.6,1.6,0,0,1,.861.751l9.256-2.541q2.811-.769,3.406,1.4l.366,1.344a1.711,1.711,0,0,1-.177,1.627,1.852,1.852,0,0,1-1.026.809.835.835,0,0,1-.037.467.943.943,0,0,1-.7.552l-3.79,1.041.26.948,4.766-1.307a1.181,1.181,0,0,1,.892.015,1.232,1.232,0,0,1,.478.788,1.311,1.311,0,0,1,.028.816,1.13,1.13,0,0,1-.788.61l-.182.05a1.163,1.163,0,0,1,.818.827l.4,1.465q.429,1.558-1.565,2.106l-9.55,2.621a1.6,1.6,0,0,1-2.268-1.186l-.4-1.467a1.048,1.048,0,0,1,.16-.961,1.264,1.264,0,0,1-.835-.069c-.221-.091-.39-.353-.509-.779a1.192,1.192,0,0,1,0-.82,1.517,1.517,0,0,1-.727-.16,1.1,1.1,0,0,1-.807-.8l-.035-.123a.96.96,0,0,1-.452.255l-2.638.725.325,1.19,2.445-.669a1.211,1.211,0,0,1,.861.028c.238.065.418.325.539.768a1.428,1.428,0,0,1,.052.907,1.172,1.172,0,0,1-.816.617l-2.443.673.277,1.006,2.991-.952a1.633,1.633,0,0,1,1.082,0,1.407,1.407,0,0,1,.6.853,1.232,1.232,0,0,1-.013.794,1.2,1.2,0,0,1-.634.569l-10.347,3.463a1.371,1.371,0,0,1-1.039-.078,1.19,1.19,0,0,1-.519-.812,1.251,1.251,0,0,1,.084-1.008,1.069,1.069,0,0,1,.649-.506l3.74-1.221-.32-1.162-2.932.805a1.063,1.063,0,0,1-1.433-.92,1.127,1.127,0,0,1,.061-.972,1.262,1.262,0,0,1,.736-.431l2.93-.805-.324-1.19-3.268.9a1.163,1.163,0,0,1-.911-.08,1.038,1.038,0,0,1-.474-.656,1.522,1.522,0,0,1-.541-.18,2.1,2.1,0,0,1-.963-1.346l-.333-1.223q-.6-2.168,2.214-2.939l9.011-2.474a2.462,2.462,0,0,1,.288-1.1A2.557,2.557,0,0,1,1437.766,158.5Zm.457,6.938a14.546,14.546,0,0,0,1.564-3.155l-10.2,2.8c-.346.093-.487.255-.426.478l.244.885,7.33-2.011a1.367,1.367,0,0,1,.883-.013c.238.065.422.333.55.8Zm-5.519,11.007,18.785-5.153a1.793,1.793,0,0,1,2.515,1.379l1.809,6.6a1.82,1.82,0,0,1-1.439,2.53l-2.108.578a43.137,43.137,0,0,0,4.644-.42c.442-.078.9-.149,1.388-.216.692-.1,1.11.091,1.242.58a2.032,2.032,0,0,1,.047,1,2.154,2.154,0,0,1-.474.786,2.547,2.547,0,0,1-1.3.654,19.415,19.415,0,0,1-3.183.478,50.459,50.459,0,0,1-6.148-.022,2.594,2.594,0,0,1-1.117-.351,1.07,1.07,0,0,1-.468-.628.834.834,0,0,1,.022-.4l-4.339,1.19a1.075,1.075,0,0,1,.346.528,1.136,1.136,0,0,1-.125.987,12.766,12.766,0,0,1-2.071,1.424,52.743,52.743,0,0,1-4.56,2.662,10.024,10.024,0,0,1-2.594,1.073,2.12,2.12,0,0,1-1.651-.268,1.846,1.846,0,0,1-.693-1.093,1.323,1.323,0,0,1,.5-1.184q3.652-1.662,5.787-2.738l-1.926.528a1.82,1.82,0,0,1-2.53-1.443l-1.811-6.6A1.793,1.793,0,0,1,1432.7,176.445Zm2.973,2.337,14.448-3.965-.176-.641c-.047-.164-.16-.221-.344-.171l-13.9,3.815c-.184.052-.255.158-.21.322Zm.771,2.811,14.448-3.965-.277-1.008-14.448,3.965Zm14.9-1.234c.184-.048.253-.145.216-.288l-.175-.643-14.45,3.967.175.643c.041.143.149.188.333.139Zm-6.6-14.608-.26-.95-2.811.773-.106-.4a7.218,7.218,0,0,1-.8,1.4.7.7,0,0,1-.084.288Zm-2.417-2.59,7.087-1.941-.312-1.132c-.06-.225-.305-.279-.733-.16l-5.865,1.61a.926.926,0,0,1,.089.206,2.125,2.125,0,0,1-.158,1.1C1442.4,162.956,1442.367,163.065,1442.328,163.162Zm.831,5.421a1.2,1.2,0,0,1,.571.764l.225.825c.023.082.117.1.283.054l1.615-.441-.494-1.8Zm5.871.327,1.459-.4c.329-.089.482-.177.463-.258l-.195-.7a1.141,1.141,0,0,1,.29-1.1l.054-.05-2.567.706Z" transform="translate(-1389.216 -141.875)" fill="#fff"/>
          <path id="Path_10201" data-name="Path 10201" d="M1442.59,158.134l10.336-2.1a1.815,1.815,0,0,1,.238-1.214,2.3,2.3,0,0,1,1.552-.8,2.263,2.263,0,0,1,1.77.126,1.794,1.794,0,0,1,.723,1.017l10.74-2.181a1.439,1.439,0,0,1,1.02.084q.454.166.623,1a1.673,1.673,0,0,1-.033,1.108,1.377,1.377,0,0,1-1.028.66l-10.71,2.175.208,1.024,8.475-1.723a1.892,1.892,0,0,1,2.508,1.692l1.085,5.339a2.012,2.012,0,0,1-.362,1.883,16.027,16.027,0,0,1,1.433,1.162c1.023.913,1.578,1.567,1.656,1.959a.938.938,0,0,1-.115.866,2.032,2.032,0,0,1-1.448,1.132,1.152,1.152,0,0,1-1.251-.422c-.219-.214-.431-.42-.643-.615l-2.508.543a1.5,1.5,0,0,1,.626,1l.093.467,4.5-.915a1.685,1.685,0,0,1,1.147.089c.3.113.517.478.645,1.1a1.83,1.83,0,0,1-.022,1.169,1.547,1.547,0,0,1-1.143.749l-4.5.915.528,2.606a3.068,3.068,0,0,1-.509,2.59,4.6,4.6,0,0,1-3,1.772,11.18,11.18,0,0,1-3.056.234,2.16,2.16,0,0,1-1.787-1.965,1.422,1.422,0,0,1,1.132-1.909l.466-.1a11.077,11.077,0,0,0,1.7-.216c.472-.1.667-.361.58-.8l-.277-1.366-9.964,2.023a12.834,12.834,0,0,1,3.463,1.623,1.7,1.7,0,0,1,.755,1.173,2.23,2.23,0,0,1-.275,1.506,2.1,2.1,0,0,1-1.476,1.173.96.96,0,0,1-.8-.126q-2.486-1.276-4.454-2.2a.672.672,0,0,1-.331-.19,1.314,1.314,0,0,1-.543-.926,1.854,1.854,0,0,1,.34-1.361l-4.1.831a1.512,1.512,0,0,1-1.13-.158c-.333-.147-.561-.532-.688-1.154a1.494,1.494,0,0,1,.189-1.3,1.609,1.609,0,0,1,1-.491l17.382-3.532-.1-.465a1.373,1.373,0,0,1,.229-1.112l-16.993,3.709a1.5,1.5,0,0,1-1.13-.158,1.512,1.512,0,0,1-.513-.933,1.479,1.479,0,0,1,.158-1.13,1.3,1.3,0,0,1,.807-.487l10.007-2.127-.208-1.026-8.288,1.684a1.907,1.907,0,0,1-2.567-1.647l-1.082-5.339a1.92,1.92,0,0,1,1.714-2.547l8.289-1.679-.207-1.026-10.308,2.095a1.4,1.4,0,0,1-1.03-.147c-.307-.132-.521-.489-.636-1.067a1.354,1.354,0,0,1,.177-1.2A1.493,1.493,0,0,1,1442.59,158.134Zm5.646,6.644,6.176-1.253-.225-1.119-5.558,1.127a.546.546,0,0,0-.5.716Zm6.878,2.19-.251-1.24-6.178,1.251.132.654a.547.547,0,0,0,.74.465Zm3.419-5.445.227,1.117,6.332-1.285-.108-.526a.533.533,0,0,0-.71-.47Zm6.668,3.4a.534.534,0,0,0,.472-.71l-.134-.651-6.332,1.283.253,1.242Zm1.5,3.251a3.294,3.294,0,0,0-.268-.206.942.942,0,0,1-.361-.511l-.026-.123-6.083,1.236.2,1Z" transform="translate(-1369.68 -146.017)" fill="#fff"/>
          <path id="Path_10202" data-name="Path 10202" d="M1474.577,157.645l-10.667,1.24.411,3.523a67.625,67.625,0,0,1,.64,12.9,15.134,15.134,0,0,1-.786,5.577,1.638,1.638,0,0,1-1.4,1.089,2.3,2.3,0,0,1-1.751-.242,1.315,1.315,0,0,1-.736-1.127,5.125,5.125,0,0,1,.043-1.534,37.171,37.171,0,0,0,.556-7.016,77.15,77.15,0,0,0-.591-9.178l-.952-8.18q-.181-1.542,2.465-1.85l21.393-2.489c1.407-.164,2.166.268,2.287,1.294l.338,2.9q.2,1.766-2.06,2.023l-7.3.85a1.526,1.526,0,0,1,.468.171,1.775,1.775,0,0,1,.491,1.218l.281,2.424a1.565,1.565,0,0,1-.268,1.242,1.016,1.016,0,0,1-.47.34l8.085-.939a1.443,1.443,0,0,1,1.794,1.45l.19,1.634a1.455,1.455,0,0,1-1.411,1.855l-13.275,1.543c-.141.273-.29.535-.452.788l13.026-1.515a3.776,3.776,0,0,1,2.391.262,2.966,2.966,0,0,1,1.123,2.264,19.731,19.731,0,0,1-.063,6.863,4.05,4.05,0,0,1-3.7,2.759,9.139,9.139,0,0,1-2.683-.041.73.73,0,0,1-.2-.1,1.348,1.348,0,0,1-.844-.126.977.977,0,0,1-.3-.411c-.073-.1-.138-.186-.188-.266a.907.907,0,0,1-.186.054q-7.587,1.678-11.9,2.181a1.067,1.067,0,0,1-.92-.245,1.634,1.634,0,0,1-.359-.883,1.186,1.186,0,0,1,.21-.95,1.153,1.153,0,0,1,.79-.312q2.785-.454,5.505-.928l-.13-1.1-4.153.485a1.444,1.444,0,0,1-1.8-1.448l-.143-1.262a2.166,2.166,0,0,1,.032-.8l-.126.015a1.662,1.662,0,0,1-1.246-.3,1.4,1.4,0,0,1-.576-1.115,1.357,1.357,0,0,1,.338-.933,18.786,18.786,0,0,0,2.8-2.5l-.251.03a1.456,1.456,0,0,1-1.8-1.48l-.19-1.636a1.441,1.441,0,0,1,1.413-1.822l7.457-.87a1.223,1.223,0,0,1-.536-.223,1.521,1.521,0,0,1-.517-1.151l-.279-2.422a1.745,1.745,0,0,1,.18-1.171A1.229,1.229,0,0,1,1474.577,157.645Zm-10.961-1.307,17.618-2.052c.316-.037.457-.171.431-.4l-.043-.377c-.033-.273-.162-.394-.394-.368l-17.367,2.021c-.251.028-.361.18-.329.454Zm2.162,3.222,6.415-.747a.751.751,0,0,1,.554.1c.136.069.221.251.253.543a1.082,1.082,0,0,1-.05.645.673.673,0,0,1-.567.351l-6.417.749a.761.761,0,0,1-.593-.156.883.883,0,0,1-.3-.664.707.707,0,0,1,.151-.625A.945.945,0,0,1,1465.777,159.56Zm.26,2.236,6.291-.734a.736.736,0,0,1,.552.1.808.808,0,0,1,.262.606.928.928,0,0,1-.058.582.616.616,0,0,1-.563.385l-6.291.729a.768.768,0,0,1-.593-.154.84.84,0,0,1-.3-.634.731.731,0,0,1,.147-.654A.791.791,0,0,1,1466.037,161.8Zm6.8,9.442-2.612.305a8.579,8.579,0,0,1-.935.97l3.647-.424Zm-.167-4.731-.162-1.385-2.108.245c-.251.03-.362.18-.329.454l.069.6a.337.337,0,0,0,.42.335Zm.606,8.505-.145-1.257-1.731.2a.335.335,0,0,0-.333.422l.054.472c.033.273.173.394.429.366Zm4.679-9.12-.16-1.387-2.517.294.16,1.385Zm5.674,11.2c.584-.067.907-.7.959-1.9a36.428,36.428,0,0,0-.212-4.82c-.035-.316-.275-.448-.717-.4l-7.014.818.1.848,4.118-.478a1.472,1.472,0,0,1,1.833,1.476l.145,1.257a1.458,1.458,0,0,1-1.446,1.829l-.062,0a8.846,8.846,0,0,1,1.171,1.3l.041.061A5.035,5.035,0,0,0,1483.634,177.094Zm-4.815-2.725a.366.366,0,0,0,.364-.457l-.056-.472c-.03-.251-.179-.361-.452-.329l-1.731.2.147,1.257Zm.032,2.452-.074-.054a1.283,1.283,0,0,1-.06-.251,2.285,2.285,0,0,1,.011-.476l-1.448.167.106.913C1477.908,177.038,1478.395,176.938,1478.851,176.821Zm.266-18.813,6.008-.7a.813.813,0,0,1,.587.093c.156.067.251.247.283.541a1.085,1.085,0,0,1-.052.643.746.746,0,0,1-.627.361l-6.008.7a.781.781,0,0,1-.593-.154.9.9,0,0,1-.3-.669.7.7,0,0,1,.154-.623A.937.937,0,0,1,1479.117,158.009Zm.258,2.233,6.01-.7a.816.816,0,0,1,.584.091.744.744,0,0,1,.294.606.96.96,0,0,1-.061.582.715.715,0,0,1-.623.392l-6.01.7a.767.767,0,0,1-.593-.152.853.853,0,0,1-.3-.636.733.733,0,0,1,.147-.656A.81.81,0,0,1,1479.375,160.242Zm3.621,5.064a.335.335,0,0,0,.331-.422l-.067-.6c-.032-.271-.175-.394-.426-.364l-2.266.264.162,1.385Z" transform="translate(-1348.862 -149.058)" fill="#fff"/>
          <path id="Path_10203" data-name="Path 10203" d="M1477.973,158.127a2.211,2.211,0,0,1,.95.221,16.853,16.853,0,0,1,3.645,2.307,1.769,1.769,0,0,1,.729,1.394,2.557,2.557,0,0,1-.441,1.519,1.946,1.946,0,0,1-1.678,1.017,1.532,1.532,0,0,1-.792-.188,1.608,1.608,0,0,1-.6-.351,35.048,35.048,0,0,0-3.013-2.114.69.69,0,0,1-.316-.255,1.376,1.376,0,0,1-.6-1.266,2.275,2.275,0,0,1,.632-1.584A1.716,1.716,0,0,1,1477.973,158.127Zm2.954,8.393a3.36,3.36,0,0,1,1.647.377,1.81,1.81,0,0,1,.857,1.74,4.1,4.1,0,0,1-.314,1.521q-.789,2.756-1.357,4.564a25.7,25.7,0,0,1-.98,2.564,2.15,2.15,0,0,1-2.121,1.649,2.993,2.993,0,0,1-1.677-.755,2.259,2.259,0,0,1-.636-1.647q.377-1.367,2.3-6.785a12.012,12.012,0,0,1,.6-1.707Q1479.756,166.519,1480.927,166.52Zm-2.077-16.376a2.48,2.48,0,0,1,1.047.251,18.938,18.938,0,0,1,3.93,2.4,1.765,1.765,0,0,1,.729,1.394,2.71,2.71,0,0,1-.441,1.552,1.966,1.966,0,0,1-1.677.985,1.765,1.765,0,0,1-.855-.19,3.214,3.214,0,0,1-.669-.377,30.714,30.714,0,0,0-3.264-2.216.481.481,0,0,1-.286-.253,1.344,1.344,0,0,1-.667-1.268,2.161,2.161,0,0,1,.664-1.582A1.671,1.671,0,0,1,1478.849,150.144Zm23.725-.4a1.8,1.8,0,0,1,1.584.63,2.211,2.211,0,0,1,.667,1.679,1.563,1.563,0,0,1-.727,1.489,37.976,37.976,0,0,1-6.966,1.465l0,3.389,6.428-.009a2.43,2.43,0,0,1,1.617.444,2.018,2.018,0,0,1,.446,1.552,2.12,2.12,0,0,1-.377,1.394,2.047,2.047,0,0,1-1.682.667l-6.428.007,0,3.264,5.164,0a2.251,2.251,0,0,1,2.536,2.56l.009,7.445a2.236,2.236,0,0,1-2.532,2.534l-14.662.02a2.241,2.241,0,0,1-2.539-2.532l-.009-7.442a2.254,2.254,0,0,1,2.53-2.569l5.038-.007,0-3.264-6.429.011a2.173,2.173,0,0,1-1.552-.506,1.922,1.922,0,0,1-.508-1.554,1.864,1.864,0,0,1,.5-1.552,2.236,2.236,0,0,1,1.551-.444l6.43-.009,0-2.88q-2.6.286-5.573.48a1.846,1.846,0,0,1-2-2.058q.029-1.646,1.391-1.87,9.119-.961,14.346-2.043A10.285,10.285,0,0,1,1502.575,149.739Zm-2.761,24.327c.338,0,.506-.158.506-.476l0-3.2a.448.448,0,0,0-.509-.5l-9.661.009a.448.448,0,0,0-.5.509l0,3.2q0,.474.506.474Z" transform="translate(-1329.625 -149.739)" fill="#fff"/>
          <path id="Path_10204" data-name="Path 10204" d="M1511.736,151.9a1.23,1.23,0,0,1,.922.638,1.561,1.561,0,0,1,.2,1.093,1.294,1.294,0,0,1-1.2,1.21q-2.318.029-4.988-.134l-.262,1.567,4.871.816a1.7,1.7,0,0,1,1.1.539,1.559,1.559,0,0,1-1.6,2.463l-4.874-.822-.232,1.374,4.469.753a1.819,1.819,0,0,1,1.688,2.372l-.961,5.716a1.82,1.82,0,0,1-2.374,1.688l-4.465-.751-.19,1.123,4.343.731a1.677,1.677,0,0,1,1.043.463,1.519,1.519,0,0,1,.1,1.143,1.419,1.419,0,0,1-.4.863,1.308,1.308,0,0,1-1.2.281l-4.343-.731-.21,1.249,4.263.428a1.9,1.9,0,0,1,1.243.628.432.432,0,0,1,.127.212,28.968,28.968,0,0,0,3.865-6.927,40.718,40.718,0,0,0,2.287-8.066l-.751-.126a1.775,1.775,0,0,1-1.264-.692,2.064,2.064,0,0,1-.247-1.582,2.041,2.041,0,0,1,.745-1.387,1.872,1.872,0,0,1,1.42-.21l.779.132.673-4a1.9,1.9,0,0,1,.684-1.2,2.69,2.69,0,0,1,2.709.519,1.684,1.684,0,0,1,.229,1.292q-.374,2.22-.673,4l1.844.309q2.311.39,2.8,1.69.549,1.506-.264,6.35-1.737,10.3-2.658,12.175a4.585,4.585,0,0,1-5.283,2.93,5.675,5.675,0,0,1-2.316-.933,2.058,2.058,0,0,1-.58-1.9,2.291,2.291,0,0,1,.772-1.346,1.809,1.809,0,0,1,1.34-.322,1.144,1.144,0,0,1,.275.08,6.508,6.508,0,0,0,1.182.422c.751.126,1.242-.262,1.48-1.162q.348-.714,2.24-11.959a4.259,4.259,0,0,0,.043-1.985,1.248,1.248,0,0,0-.807-.359l-.779-.132a45.74,45.74,0,0,1-1.853,7.174,38.026,38.026,0,0,1-5.791,10.94,1.947,1.947,0,0,1-1.61.4,1.9,1.9,0,0,1-1.435-.82,1.446,1.446,0,0,1-.374-1.026l-.03-.007-13.918-1.476a1.725,1.725,0,0,1-1.168-.68,1.622,1.622,0,0,1-.182-1.214,1.567,1.567,0,0,1,.695-1.073,1.707,1.707,0,0,1,1.054-.145l5.674.634.242-1.437-4.718-.792a1.47,1.47,0,0,1-1-.526,1.36,1.36,0,0,1-.139-1.08,1.462,1.462,0,0,1,.5-1.041,1.6,1.6,0,0,1,1.106-.1l4.718.794.188-1.125-4.248-.716a1.791,1.791,0,0,1-1.625-2.361l.961-5.718a1.793,1.793,0,0,1,2.311-1.7l4.248.716.232-1.376-5.623-.946a1.714,1.714,0,0,1-1.067-.535,1.989,1.989,0,0,1,.389-2.311,1.654,1.654,0,0,1,1.184-.154l5.618.946.212-1.251q-3.136-.269-5.008-.582-1.532-.26-1.22-2.1.256-1.146,1.621-1.047a103.161,103.161,0,0,0,12.433,1.132A6.729,6.729,0,0,1,1511.736,151.9Zm-10.821,15.426.212-1.249-2.751-.459-.166,1a.223.223,0,0,0,.208.292Zm-2.153-3.991,2.751.463.208-1.251-2.5-.42a.224.224,0,0,0-.292.208Zm8.4,5.045a.227.227,0,0,0,.292-.21l.167-1-2.967-.5-.21,1.249Zm-1.913-5.237-.212,1.249,2.969.5.169-1a.229.229,0,0,0-.21-.294Z" transform="translate(-1310.653 -148.633)" fill="#fff"/>
        </g>
      </g>
      <g id="Group_4504" data-name="Group 4504" transform="translate(0 -22.399)">
        <path id="Path_10205" data-name="Path 10205" d="M1471.371,183.827c0,4.851-28.223,8.785-63.041,8.785s-63.042-3.934-63.042-8.785,28.225-8.785,63.042-8.785S1471.371,178.976,1471.371,183.827Z" transform="translate(-1342.705 -26.015)" fill="#1c65e5"/>
        <g id="Group_4503" data-name="Group 4503">
          <path id="Path_10206" data-name="Path 10206" d="M1440.87,180.981l-87.707-.325a49.045,49.045,0,0,1,28.553-24.778,25.439,25.439,0,1,1,30.795.108A49,49,0,0,1,1440.87,180.981Z" transform="translate(-1332.432 -110.374)" fill="#f7c434"/>
          <g id="Group_4502" data-name="Group 4502" transform="translate(0 62.507)">
            <path id="Path_10207" data-name="Path 10207" d="M1396.759,159.738a15.734,15.734,0,1,1-15.8-15.666A15.774,15.774,0,0,1,1396.759,159.738Z" transform="translate(-1316.611 -128.922)" fill="#eab7d5"/>
            <path id="Path_10208" data-name="Path 10208" d="M1441.557,181.929c-.087-20.515-20.042-37.114-44.474-37s-44.235,16.878-44.147,37.393,20.04,37.109,44.474,37S1441.648,202.438,1441.557,181.929Zm-10.757.048c.067,14.578-14.939,26.506-33.442,26.587s-33.607-11.714-33.667-26.3,14.931-26.508,33.438-26.591S1430.733,167.394,1430.8,181.977Z" transform="translate(-1332.728 -127.81)" fill="#eab7d5"/>
            <path id="Path_10209" data-name="Path 10209" d="M1472.833,149.1a11.654,11.654,0,0,1-11.6,11.709l-105.361.459a11.654,11.654,0,0,1-11.7-11.6h0a11.655,11.655,0,0,1,11.605-11.709l105.359-.461a11.655,11.655,0,0,1,11.7,11.605Z" transform="translate(-1344.167 -137.498)" fill="#eab7d5"/>
          </g>
        </g>
      </g>
    </g>
  </g>
</svg>
