<svg xmlns="http://www.w3.org/2000/svg" viewBox="0 0 78 78"><defs><style>.cls-1{fill:none;}.cls-2{fill:#ffcc94;}.cls-3{fill:#ffbd7d;}.cls-4{fill:#fefefe;opacity:0.3;isolation:isolate;}.cls-5{fill:#f06280;}.cls-6{fill:#f5a0b8;}.cls-7{fill:#df5b76;}.cls-8{fill:#ea99b0;}.cls-9{fill:#d2556f;}.cls-10{fill:#f5b7c6;}.cls-11{fill:#ebafbe;}</style></defs><g id="圖層_2" data-name="圖層 2"><g id="圖層_1-2" data-name="圖層 1"><rect class="cls-1" width="78" height="78"/><g id="Group_4540" data-name="Group 4540"><path id="Path_9823" data-name="Path 9823" class="cls-2" d="M54.15,3.11a14.08,14.08,0,0,0-3.71.52,11.6,11.6,0,0,0-3.5,1.61,9.87,9.87,0,0,0-1.32,1.1,10,10,0,0,0-1,1.29,11.72,11.72,0,0,0-1.42,2.91,21,21,0,0,0-.8,3.22c-.2,1.17-.36,2.35-.51,3.49l-.05.41-.06.42a26.06,26.06,0,0,1-1.57,6.8,11.68,11.68,0,0,1-1,1.81.46.46,0,0,0-.26.17,4.4,4.4,0,0,0-.55.87A8.93,8.93,0,0,1,37,29l.13,0L36,29.65a.49.49,0,0,0-.24.32.51.51,0,0,0,.5.66.43.43,0,0,0,.25-.07,10.41,10.41,0,0,0,1.42-1,5.05,5.05,0,0,0,0,1.4,10.57,10.57,0,0,0,.48,2.3,12.14,12.14,0,0,0,.89,2.1,11.12,11.12,0,0,0,1.13,1.75,9.28,9.28,0,0,0,1.81,1.67,8.55,8.55,0,0,0,4.62,1.6h.21a7.22,7.22,0,0,0,4.19-1.33,6.93,6.93,0,0,0,.12,1.28.53.53,0,0,0,.52.39l.12,0a.53.53,0,0,0,.38-.63l-.09-.56a10.85,10.85,0,0,1-.06-1.4,6.56,6.56,0,0,0,.66-1,5.06,5.06,0,0,0,.56-2.32.54.54,0,0,0-.11-.39.47.47,0,0,0-.1-.1,14.35,14.35,0,0,1,1.23-1.87,37,37,0,0,1,4.82-4.71l.93-.81a38.22,38.22,0,0,0,2.87-2.72,15.22,15.22,0,0,0,2.43-3.41,12.61,12.61,0,0,0,.84-2,12.39,12.39,0,0,0,.43-2.08,11.28,11.28,0,0,0-.24-4,12.45,12.45,0,0,0-4.1-6.59A13.82,13.82,0,0,0,60.8,5a13.08,13.08,0,0,0-5.9-1.83l-.75,0"/><path id="Path_9824" data-name="Path 9824" class="cls-3" d="M60.4,5.4a9.14,9.14,0,0,1,1.35,2,7.27,7.27,0,0,1,.64,2,7.36,7.36,0,0,1,.09,1.48,8.31,8.31,0,0,1-.18,1.5,12.81,12.81,0,0,1-1.08,3.06,24,24,0,0,1-1.87,3.11c-.75,1.06-1.56,2.08-2.4,3.07-1.77,2.08-3.67,4-5.55,6-.89.94-1.78,1.87-2.65,2.83s-1.54,1.74-2.25,2.67l0,0a26.22,26.22,0,0,0-1.78,2.66,23.55,23.55,0,0,0-1.52,3.06s0,0,0,0c-.06.17-.13.34-.2.51a8.41,8.41,0,0,0,3.82,1.08h.21a7.12,7.12,0,0,0,4.18-1.33,6.85,6.85,0,0,0,.12,1.28.55.55,0,0,0,.52.39H52a.53.53,0,0,0,.38-.64l-.09-.55a11.09,11.09,0,0,1-.06-1.41,5,5,0,0,0,.66-1,5.24,5.24,0,0,0,.57-2.33.61.61,0,0,0-.11-.39l-.11-.1a15.42,15.42,0,0,1,1.24-1.86,36.44,36.44,0,0,1,4.82-4.72l.93-.81c.82-.72,1.9-1.68,2.86-2.71a15.17,15.17,0,0,0,2.44-3.41,12.71,12.71,0,0,0,.84-2.06,12.17,12.17,0,0,0,.42-2.08,11.05,11.05,0,0,0-.24-4,12.39,12.39,0,0,0-4.1-6.59A12.71,12.71,0,0,0,60.8,5a11.63,11.63,0,0,0-1.8-.9,12.48,12.48,0,0,1,1.39,1.33"/><path id="Path_9825" data-name="Path 9825" class="cls-4" d="M55.38,4.58a12.58,12.58,0,0,0-4.67,1.07A10,10,0,0,0,48.8,6.79a10.73,10.73,0,0,0-1.61,1.55,14.23,14.23,0,0,0-2.34,3.86,19.07,19.07,0,0,0-1.25,4.64c-.05.41-.09.82-.11,1.23,0,.09,0,.17,0,.26a.93.93,0,0,0,.17.48,1,1,0,0,0,.65.43,1,1,0,0,0,.74-.16,1,1,0,0,0,.43-.66A25.26,25.26,0,0,1,46.4,13,14.55,14.55,0,0,1,47.84,9.8l-.05.07.06-.08,0-.08,0,.08a10.76,10.76,0,0,1,1.63-1.93A10.42,10.42,0,0,1,51.6,6.39a9.86,9.86,0,0,1,2.18-.75,11.71,11.71,0,0,1,1.67-.2A.44.44,0,0,0,55.86,5a.44.44,0,0,0-.46-.4h0m-9,8.41,0,.11a.49.49,0,0,0,0-.11m1.46-3.2h0"/><path id="Path_9826" data-name="Path 9826" class="cls-4" d="M43.2,21.6a.69.69,0,0,0,.25.48.75.75,0,0,0,.5.16.69.69,0,0,0,.4-1.22.72.72,0,0,0-.51-.17.7.7,0,0,0-.64.75"/><path id="Path_9827" data-name="Path 9827" class="cls-4" d="M53.69,7.21a10.28,10.28,0,0,0-4.94,5.37.5.5,0,0,0,0,.36.44.44,0,0,0,.25.28.48.48,0,0,0,.65-.24.36.36,0,0,0,0-.11,6.6,6.6,0,0,1,.17-.77,6.52,6.52,0,0,1,.67-1.38A9.53,9.53,0,0,1,52,9a12.28,12.28,0,0,1,1.9-1.38.21.21,0,0,0,.06-.3.2.2,0,0,0-.18-.1.28.28,0,0,0-.13,0"/><path id="Path_9828" data-name="Path 9828" class="cls-5" d="M27.51,15.47a15.45,15.45,0,0,0-9.89,4.12,19,19,0,0,0-3.84,4.5,18.44,18.44,0,0,0-2.15,5.1,23.08,23.08,0,0,0,.06,11,31.34,31.34,0,0,0,4.76,10.45,35.38,35.38,0,0,0,3.94,4.71,42.16,42.16,0,0,0,5,4.29A38.08,38.08,0,0,0,37,65.51,31.61,31.61,0,0,0,46,66.83a28.21,28.21,0,0,0,4-.28A22.55,22.55,0,0,0,60,62.2a25,25,0,0,0,4.13-3.89,20.15,20.15,0,0,0,2.95-4.62,14.87,14.87,0,0,0,1.33-5.06,12.67,12.67,0,0,0-2.11-7.89,14.08,14.08,0,0,0-1.9-2.38,12.71,12.71,0,0,0-4.74-3,21.84,21.84,0,0,0-5.19-1c-.71-.08-1.42-.13-2.13-.19-1-.08-2-.17-3-.3-.55-.07-1.13-.16-1.73-.28l-.09,0h-.05a13.69,13.69,0,0,1-3.06-1.06A11.22,11.22,0,0,1,42.25,31l-.32-.32c-.19-.24-.37-.5-.54-.76a33,33,0,0,1-2.17-4.33l-.28-.65a33.31,33.31,0,0,0-1.74-3.61,12,12,0,0,0-4-4.28,10.57,10.57,0,0,0-5.06-1.56l-.59,0"/><path id="Path_9829" data-name="Path 9829" class="cls-5" d="M39.36,29.24a.84.84,0,0,0-.23,1.16,31.87,31.87,0,0,0,3.51,4.27.83.83,0,0,0,1.17-.09A.77.77,0,0,0,44,34a.88.88,0,0,0-.29-.58c-.29-.3-.57-.6-.85-.91a29.91,29.91,0,0,1-2.35-3,.82.82,0,0,0-.7-.36.79.79,0,0,0-.47.14"/><path id="Path_9830" data-name="Path 9830" class="cls-5" d="M38.92,28.3a.85.85,0,0,0-.23,1.16,34.91,34.91,0,0,0,4.24,5A.84.84,0,0,0,44,33.2c-.5-.49-1-1-1.46-1.51a38,38,0,0,1-2.48-3.17.84.84,0,0,0-.7-.36.86.86,0,0,0-.46.14"/><path id="Path_9831" data-name="Path 9831" class="cls-5" d="M39.08,28.14a.85.85,0,0,0-.23,1.16,29.35,29.35,0,0,0,4.7,5.43.84.84,0,1,0,1.14-1.23l0,0a25.76,25.76,0,0,1-2.09-2.09,30.77,30.77,0,0,1-2.31-3,.84.84,0,0,0-.7-.36.74.74,0,0,0-.46.14m3.56,3.33,0,.06Z"/><path id="Path_9832" data-name="Path 9832" class="cls-5" d="M39.19,28.36A.84.84,0,0,0,39,29.52,30.57,30.57,0,0,0,43.1,34.4a.84.84,0,0,0,1.18-.09.83.83,0,0,0,.2-.6.86.86,0,0,0-.29-.58c-.59-.59-1.17-1.19-1.73-1.81h0a24.42,24.42,0,0,1-2.12-2.74.85.85,0,0,0-1.16-.23"/><path id="Path_9833" data-name="Path 9833" class="cls-5" d="M39.44,28.63a.85.85,0,0,0-.22,1.17,34.71,34.71,0,0,0,4.12,4.62.77.77,0,0,0,.6.2.84.84,0,0,0,.78-.89h0a.92.92,0,0,0-.29-.58c-.85-.89-1.73-1.74-2.56-2.65a17.05,17.05,0,0,1-1.27-1.64.84.84,0,0,0-.7-.37.86.86,0,0,0-.46.14m2.46,1.9,0,.06,0-.06"/><path id="Path_9834" data-name="Path 9834" class="cls-6" d="M22.67,16.44h.23a10.54,10.54,0,0,1,3.06.45,12.16,12.16,0,0,1,2.33,1,13.37,13.37,0,0,1,2.09,1.4A15.69,15.69,0,0,1,32.2,21a20.76,20.76,0,0,1,1.53,2,41,41,0,0,1,2.42,4.29c.76,1.51,1.5,3,2.34,4.49h0a17.27,17.27,0,0,0,1.1,1.72,12,12,0,0,0,1.18,1.39,9.17,9.17,0,0,0,2,1.51h0a9.32,9.32,0,0,0,1.2.56,10.12,10.12,0,0,0,1.18.38h0a21.31,21.31,0,0,0,5.28.51l2.1,0h1c.37,0,.73,0,1.1.05a16.52,16.52,0,0,1,4.12.8,14.22,14.22,0,0,1,7.45,5.71,13.2,13.2,0,0,1,1.32,2.49,10.64,10.64,0,0,1,.64,2.54,8.89,8.89,0,0,1,.07.89,12.29,12.29,0,0,0,.21-1.6,12.47,12.47,0,0,0-.78-5.31,13.16,13.16,0,0,0-1.32-2.59,15.11,15.11,0,0,0-1.9-2.39,12.84,12.84,0,0,0-4.76-3,22.37,22.37,0,0,0-5.18-1.05c-.71-.08-1.42-.13-2.14-.19-1-.08-2-.16-3-.3-.57-.07-1.15-.16-1.73-.28l-.09,0a13.71,13.71,0,0,1-3.1-1.07,11.34,11.34,0,0,1-1.7-1.12c-.26-.27-.52-.55-.77-.83s-.29-.33-.43-.5l-.05-.07a33.67,33.67,0,0,1-2.17-4.33L39,24.93a32.16,32.16,0,0,0-1.73-3.6,12,12,0,0,0-4-4.29,10.61,10.61,0,0,0-5.07-1.56l-.59,0a13.19,13.19,0,0,0-4.84,1m20.1,19.91h0"/><path id="Path_9835" data-name="Path 9835" class="cls-7" d="M11.68,40.21a31.06,31.06,0,0,0,4.76,10.45,34.76,34.76,0,0,0,3.94,4.71,41.24,41.24,0,0,0,5,4.29A37.82,37.82,0,0,0,37,65.52,31.61,31.61,0,0,0,46,66.84a28.21,28.21,0,0,0,4-.28,22.65,22.65,0,0,0,10-4.35,25,25,0,0,0,4.13-3.89,19.88,19.88,0,0,0,3-4.63,14.91,14.91,0,0,0,1.13-3.52v-.05s0,0,0,0c0-.27,0-.55-.07-.82a10.52,10.52,0,0,0-.64-2.54,12.9,12.9,0,0,0-1.32-2.49,14.55,14.55,0,0,0-3.32-3.55,14.35,14.35,0,0,0-2.11-1.32,10.66,10.66,0,0,1,2.19,3.2,9.13,9.13,0,0,1,.71,3.21,12.37,12.37,0,0,1-.52,3.82,16.45,16.45,0,0,1-1.8,4.07A15.59,15.59,0,0,1,58.65,57a17.77,17.77,0,0,1-1.58,1.29,18.28,18.28,0,0,1-5.6,2.67,24.3,24.3,0,0,1-8.4.88,26.56,26.56,0,0,1-4.25-.62c-.77-.19-1.53-.39-2.29-.63s-1.52-.5-2.26-.79A40.82,40.82,0,0,1,18.4,48.46a42.56,42.56,0,0,1-7.3-11.8,25,25,0,0,0,.59,3.55"/><path id="Path_9836" data-name="Path 9836" class="cls-8" d="M52,34.06h0l.13.07.14.06c1.33.58,2.41,1.1,3.4,1.63a26.87,26.87,0,0,1,3,1.88,16.3,16.3,0,0,1,2,1.71,14.14,14.14,0,0,1,2.16,1.34,14.55,14.55,0,0,1,3.32,3.55,13.43,13.43,0,0,1,1.31,2.49,10.54,10.54,0,0,1,.65,2.54c0,.27.05.55.06.82a8.8,8.8,0,0,0,.23-1.54,12.49,12.49,0,0,0-.78-5.31,12.68,12.68,0,0,0-1.33-2.59,14.56,14.56,0,0,0-1.9-2.39,12.67,12.67,0,0,0-4.75-3,22.55,22.55,0,0,0-5.2-1.06l-2.1-.19H52Z"/><path id="Path_9837" data-name="Path 9837" class="cls-9" d="M23.19,28.21a3.52,3.52,0,0,0-.44,4.95h0a3.42,3.42,0,0,0,2.43,1.24,3.71,3.71,0,0,0,2.52-.81,3.51,3.51,0,0,0,.44-5h0a3.46,3.46,0,0,0-2.44-1.24,3.71,3.71,0,0,0-2.52.81"/><path id="Path_9838" data-name="Path 9838" class="cls-9" d="M49.88,48.52A3.52,3.52,0,1,0,53.34,45h0a3.55,3.55,0,0,0-3.46,3.57"/><path id="Path_9839" data-name="Path 9839" class="cls-10" d="M24.83,40.27c-.55,0-1.15,0-1.75.08a16.38,16.38,0,0,0-6.69,2.06,13.61,13.61,0,0,0-5,4.93,14,14,0,0,0-1.85,7.09A16.47,16.47,0,0,0,10,58.07a16.75,16.75,0,0,0,1.08,3.25,21.89,21.89,0,0,0,4,6.1A23.78,23.78,0,0,0,20.91,72,23.16,23.16,0,0,0,28,74.54a20.3,20.3,0,0,0,3.73.34,16.27,16.27,0,0,0,9.8-3,13.53,13.53,0,0,0,4.2-5.08A14.21,14.21,0,0,0,47,60.65a16.6,16.6,0,0,0-.46-3.71A20.3,20.3,0,0,0,45,52.81L45,52.72a20.11,20.11,0,0,0-1.2-2.06l-.22-.33c-.22-.31-.41-.58-.61-.84l-.07-.09,0-.06-.07-.1,0-.05-.07-.09-.07-.1-.05-.06-.08-.1c-.2-.25-.4-.47-.59-.69a.75.75,0,0,0-.48-.27.8.8,0,0,0-.47-.15,5.49,5.49,0,0,0-1.83.38,5.4,5.4,0,0,0-1.61,1,.7.7,0,0,0-.24.55.89.89,0,0,0,.26.67.87.87,0,0,0,.55.24c.19.21.38.43.56.66a15.66,15.66,0,0,1,2,3.3,13.66,13.66,0,0,1,.92,3.06,11.87,11.87,0,0,1,.1,2.73,9,9,0,0,1-1.67,4.45,10,10,0,0,1-1.62,1.7,11.34,11.34,0,0,1-2.17,1.3,12.76,12.76,0,0,1-2.71.79,15.25,15.25,0,0,1-2.13.15c-.44,0-.87,0-1.3,0a17.27,17.27,0,0,1-4.07-1,17.91,17.91,0,0,1-4-2.2,18.14,18.14,0,0,1-3.13-3,16.32,16.32,0,0,1-2-3.25,13.09,13.09,0,0,1-.92-3.07,11.5,11.5,0,0,1-.1-2.75A10.59,10.59,0,0,1,16.37,51a8.81,8.81,0,0,1,2.7-3.7A11.27,11.27,0,0,1,21.23,46a12.7,12.7,0,0,1,2.72-.8A13.92,13.92,0,0,1,26.09,45c.45,0,.9,0,1.31.06a17.13,17.13,0,0,1,3.75.85.63.63,0,0,0,.19,0,.79.79,0,0,0,.45-.13.84.84,0,0,0,.29-1.17h0a.48.48,0,0,0-.12-.16,2.22,2.22,0,0,0,.23-1.16,2.64,2.64,0,0,0-.8-1.66.76.76,0,0,0-.57-.24,1,1,0,0,0-.38.08.79.79,0,0,0-.61-.64,21.06,21.06,0,0,0-5-.61"/><path id="Path_9840" data-name="Path 9840" class="cls-11" d="M9.55,54.43A16.63,16.63,0,0,0,10,58.08a18.81,18.81,0,0,0,1.09,3.25,21.89,21.89,0,0,0,4,6.1A23.83,23.83,0,0,0,20.91,72,23.22,23.22,0,0,0,28,74.55a21.22,21.22,0,0,0,3.73.35,16.49,16.49,0,0,0,9.81-3,13.63,13.63,0,0,0,4.19-5.09A14.09,14.09,0,0,0,47,60.64a16.61,16.61,0,0,0-.47-3.71A20.08,20.08,0,0,0,45,52.8L45,52.71c-.18-.37-.38-.73-.59-1.1a21,21,0,0,1,.5,5.41,19,19,0,0,1-.83,5,13.72,13.72,0,0,1-1.9,3.76,12.61,12.61,0,0,1-2.82,2.78,13.34,13.34,0,0,1-3.53,1.79,16.18,16.18,0,0,1-4.08.78,20.26,20.26,0,0,1-8.79-1.45,18.69,18.69,0,0,1-3.78-2.12,19.72,19.72,0,0,1-5.62-6.33A20.82,20.82,0,0,1,11,48.69c0-.31.09-.61.14-.92a14,14,0,0,0-1.61,6.66"/><path id="Path_9841" data-name="Path 9841" class="cls-6" d="M32.62,38.34a7.54,7.54,0,0,0-6.46,3.17,7.29,7.29,0,0,0-.7,6.33A11.14,11.14,0,0,0,30,53.66a11.44,11.44,0,0,0,6.23,2,7.51,7.51,0,0,0,6.46-3.16,7.29,7.29,0,0,0,.7-6.33,11.16,11.16,0,0,0-4.55-5.83,11.51,11.51,0,0,0-6.23-1.94"/><path id="Path_9842" data-name="Path 9842" class="cls-8" d="M39.8,41.21a11.47,11.47,0,0,1,1.32,1.71,8,8,0,0,1,.85,1.8,5.79,5.79,0,0,1,.28,1.84,5,5,0,0,1-.4,1.88,6.48,6.48,0,0,1-1.22,1.84,6.77,6.77,0,0,1-2.55,1.8,7,7,0,0,1-2.74.48,8,8,0,0,1-1.88-.25,9.23,9.23,0,0,1-1.85-.65,12.09,12.09,0,0,1-3.36-2.3,11.51,11.51,0,0,1-2.38-3.2,9.12,9.12,0,0,1-.67-1.83l-.06-.27a8,8,0,0,0,.31,3.79A11.15,11.15,0,0,0,30,53.68a11.44,11.44,0,0,0,6.23,2,7.55,7.55,0,0,0,6.48-3.18,7.31,7.31,0,0,0,.7-6.34,11.19,11.19,0,0,0-4.52-5.81c.31.29.62.6.91.91"/></g></g></g></svg>