<svg xmlns="http://www.w3.org/2000/svg" viewBox="0 0 547.48 547.48"><defs><style>.cls-1{fill:#f14336;}.cls-2{fill:#d32e2a;}.cls-3{fill:none;}</style></defs><g id="圖層_2" data-name="圖層 2"><g id="圖層_1-2" data-name="圖層 1"><path class="cls-1" d="M77.45,173.23V468.76H41.88a24.14,24.14,0,0,1-24.14-24.14V129.71l39,1.06Z"/><path class="cls-2" d="M529.74,129.71V444.62a24.14,24.14,0,0,1-24.15,24.14H470V173.23l19.69-46.52Z"/><path class="cls-1" d="M529.74,102.86v26.85L470,173.23,273.74,316.3,77.45,173.23,17.74,129.71V102.86A24.15,24.15,0,0,1,41.88,78.72h14L273.74,237.53,491.63,78.72h14A24.14,24.14,0,0,1,529.74,102.86Z"/><polygon class="cls-2" points="77.45 173.23 17.74 163.97 17.74 129.71 77.45 173.23"/><rect class="cls-3" width="547.48" height="547.48"/></g></g></svg>