<svg xmlns="http://www.w3.org/2000/svg" viewBox="0 0 78 78"><defs><style>.cls-1{fill:none;}.cls-2{fill:#b6efe0;}.cls-3{fill:#8bd5c4;}.cls-4{fill:#f7c434;}</style></defs><g id="圖層_2" data-name="圖層 2"><g id="圖層_1-2" data-name="圖層 1"><rect class="cls-1" width="78" height="78"/><g id="Group_4536" data-name="Group 4536"><g id="Group_4120" data-name="Group 4120"><g id="Group_4119" data-name="Group 4119"><rect id="Rectangle_1195" data-name="Rectangle 1195" class="cls-2" x="11.17" y="23.44" width="55.65" height="43.84" rx="13" transform="translate(-17.15 66) rotate(-69.49)"/><path id="Path_9794" data-name="Path 9794" class="cls-3" d="M30.74,15a4.07,4.07,0,0,0,2.38,5.23l26.78,10a4.06,4.06,0,0,0,5.23-2.38h0a4.06,4.06,0,0,0-2.38-5.22h0L36,12.66A4.07,4.07,0,0,0,30.74,15Z"/></g><path id="Path_9795" data-name="Path 9795" class="cls-4" d="M58.49,21.08,40.23,14.25a10.94,10.94,0,0,1,7.86-3,5.66,5.66,0,1,1,7.8,1.77,5.82,5.82,0,0,1-1.39.63A10.93,10.93,0,0,1,58.49,21.08Z"/></g><path id="Path_9796" data-name="Path 9796" class="cls-3" d="M40.35,30.83l-3.1-1.16.94-2.52A1.65,1.65,0,1,0,35.09,26h0l-.94,2.53-3.1-1.16a1.39,1.39,0,1,0-1,2.6l3.1,1.16-3.9,10.43-3.1-1.16a1.39,1.39,0,0,0-1,2.61l3.1,1.16L24.4,54.59l-3.1-1.16a1.39,1.39,0,1,0-1,2.6l3.1,1.16-.95,2.53a1.65,1.65,0,0,0,3.1,1.16l1-2.53,3.1,1.16a1.39,1.39,0,0,0,1-2.61l-3.1-1.16,3.9-10.42,3.1,1.15a1.39,1.39,0,0,0,1-2.6l-3.1-1.16,3.9-10.43,3.1,1.16a1.39,1.39,0,0,0,1-2.61Z"/></g></g></g></svg>