<svg xmlns="http://www.w3.org/2000/svg" viewBox="0 0 43.3 43.31"><defs><style>.cls-1{fill:#5b5b5b;stroke:#fff;stroke-width:0.45px;}</style></defs><g id="圖層_2" data-name="圖層 2"><g id="圖層_1-2" data-name="圖層 1"><path id="Path_9365" data-name="Path 9365" class="cls-1" d="M30.52,7.76a5,5,0,1,0,5,5A5,5,0,0,0,30.52,7.76Zm0,7.53A2.51,2.51,0,1,1,33,12.78,2.52,2.52,0,0,1,30.52,15.29ZM29.27.23A13.8,13.8,0,0,0,16.14,18.31l-2.82,2.82A1.26,1.26,0,0,0,13,22v3.32H9.63a1.25,1.25,0,0,0-.88.36L7,27.41a1.26,1.26,0,0,0-.37.89v3.32H3.19A1.23,1.23,0,0,0,2.3,32L.59,33.69a1.23,1.23,0,0,0-.36.89v7.25a1.25,1.25,0,0,0,1.25,1.25H8.72a1.26,1.26,0,0,0,.9-.37L25,27.17A13.81,13.81,0,1,0,29.27.23Zm0,25.11a11.18,11.18,0,0,1-4.12-.79,1.27,1.27,0,0,0-1.37.28L8.21,40.57H2.74V35.1l1-1H7.92a1.26,1.26,0,0,0,1.26-1.26v-4l1-1h4a1.25,1.25,0,0,0,1.26-1.26V22.54l3-3a1.25,1.25,0,0,0,.28-1.36A10.78,10.78,0,0,1,18,14a11.3,11.3,0,1,1,11.3,11.3Z"/></g></g></svg>