<svg xmlns="http://www.w3.org/2000/svg" viewBox="0 0 83 83"><defs><style>.cls-1{fill:none;stroke:#22ba4f;stroke-miterlimit:10;stroke-width:3px;}.cls-2{fill:#22ba4f;}.cls-2,.cls-3{isolation:isolate;}.cls-4{fill:#fff;}</style></defs><g id="圖層_2" data-name="圖層 2"><g id="圖層_1-2" data-name="圖層 1"><g id="Group_4700" data-name="Group 4700"><circle id="Ellipse_326" data-name="Ellipse 326" class="cls-1" cx="41.5" cy="41.5" r="40"/></g><path class="cls-2" d="M68.93,38.62c0-12.27-12.31-22.25-27.43-22.25s-27.43,10-27.43,22.25c0,11,9.76,20.22,22.94,22,.89.2,2.11.59,2.42,1.36a5.77,5.77,0,0,1,.09,2.48l-.4,2.35c-.12.69-.55,2.71,2.38,1.47s15.8-9.3,21.55-15.92h0c4-4.36,5.88-8.78,5.88-13.7"/><g class="cls-3"><path class="cls-4" d="M35.93,32.69H34a.54.54,0,0,0-.53.54v12a.53.53,0,0,0,.53.53h1.93a.53.53,0,0,0,.53-.53v-12a.54.54,0,0,0-.53-.54"/><path class="cls-4" d="M49.17,32.69H47.25a.54.54,0,0,0-.54.54v7.1l-5.48-7.4a.1.1,0,0,0,0,0h0l0,0h0l0,0h0l0,0h0l0,0H38.87a.54.54,0,0,0-.54.54v12a.54.54,0,0,0,.54.53h1.92a.53.53,0,0,0,.53-.53v-7.1l5.49,7.41.13.13h0l0,0h.13l.14,0h1.92a.53.53,0,0,0,.53-.53v-12a.54.54,0,0,0-.53-.54"/><path class="cls-4" d="M31.29,42.72H26.06V33.23a.54.54,0,0,0-.53-.54H23.6a.54.54,0,0,0-.53.54v12h0a.56.56,0,0,0,.15.37h0a.56.56,0,0,0,.37.15h7.69a.53.53,0,0,0,.53-.53V43.25a.53.53,0,0,0-.53-.53"/><path class="cls-4" d="M59.79,35.69a.54.54,0,0,0,.54-.54V33.23a.54.54,0,0,0-.54-.54H52.11a.52.52,0,0,0-.37.15h0a.52.52,0,0,0-.15.37h0v12h0a.56.56,0,0,0,.15.37h0a.52.52,0,0,0,.37.15h7.68a.54.54,0,0,0,.54-.53V43.25a.54.54,0,0,0-.54-.53H54.57v-2h5.22a.54.54,0,0,0,.54-.54V38.24a.54.54,0,0,0-.54-.53H54.57v-2Z"/></g></g></g></svg>