<svg xmlns="http://www.w3.org/2000/svg" viewBox="0 0 70.46 38.72"><defs><style>.cls-1{fill:#5b5b5b;}</style></defs><g id="圖層_2" data-name="圖層 2"><g id="圖層_1-2" data-name="圖層 1"><g id="Group_2500" data-name="Group 2500"><g id="Group_2499" data-name="Group 2499"><path id="Path_7134" data-name="Path 7134" class="cls-1" d="M69,21.76A2.44,2.44,0,0,1,69,17a1.77,1.77,0,0,0,1.47-1.74V7.08a1.78,1.78,0,0,0-1.52-1.76,3.56,3.56,0,0,1-3.08-3.53A1.76,1.76,0,0,0,65.34.52,1.73,1.73,0,0,0,64.09,0H6.36A1.72,1.72,0,0,0,5.12.52,1.72,1.72,0,0,0,4.6,1.79,3.58,3.58,0,0,1,1.52,5.32,1.78,1.78,0,0,0,0,7.08v8.14A1.77,1.77,0,0,0,1.46,17a2.44,2.44,0,0,1,0,4.8A1.77,1.77,0,0,0,0,23.5v8.15A1.77,1.77,0,0,0,1.52,33.4,3.59,3.59,0,0,1,4.6,36.94a1.75,1.75,0,0,0,.52,1.27,1.71,1.71,0,0,0,1.24.51h10.1a1,1,0,0,0,1-1h0a1,1,0,0,0-1-1H6.65A5.65,5.65,0,0,0,2.06,31.4V23.75a4.5,4.5,0,0,0,3.47-4.38A4.48,4.48,0,0,0,2.06,15V7.33A5.64,5.64,0,0,0,6.65,2.07H63.8a5.66,5.66,0,0,0,4.59,5.26V15a4.5,4.5,0,0,0,0,8.76V31.4a5.66,5.66,0,0,0-4.59,5.26H16.14a1,1,0,0,0-1,1h0a1,1,0,0,0,1,1h48a1.72,1.72,0,0,0,1.25-.51,1.84,1.84,0,0,0,.52-1.28,3.57,3.57,0,0,1,3.08-3.53,1.76,1.76,0,0,0,1.51-1.75V23.5A1.77,1.77,0,0,0,69,21.76Z"/></g></g><g id="Group_2502" data-name="Group 2502"><g id="Group_2501" data-name="Group 2501"><path id="Path_7135" data-name="Path 7135" class="cls-1" d="M58.7,4.93H45.62a1,1,0,0,0,0,2.07H58.36V31.74H12.1V7H45.69a1,1,0,0,0,0-2.07H11.76A1.72,1.72,0,0,0,10,6.65V32.08a1.72,1.72,0,0,0,1.72,1.72H58.7a1.72,1.72,0,0,0,1.72-1.72V6.65A1.72,1.72,0,0,0,58.7,4.93Z"/></g></g><g id="Group_2504" data-name="Group 2504"><g id="Group_2503" data-name="Group 2503"><path id="Path_7136" data-name="Path 7136" class="cls-1" d="M20.15,14H15.49a1,1,0,0,0,0,1.94h1.36V23a.94.94,0,0,0,.94.94h0a1,1,0,0,0,1-.92V16h1.33a.94.94,0,0,0,.94-.94v0a.94.94,0,0,0-.92-1Z"/></g></g><g id="Group_2506" data-name="Group 2506"><g id="Group_2505" data-name="Group 2505"><path id="Path_7137" data-name="Path 7137" class="cls-1" d="M23.27,14a.94.94,0,0,0-1,.89V23a.94.94,0,0,0,1,.94h0a.93.93,0,0,0,1-.9V15a.94.94,0,0,0-.94-.94Z"/></g></g><g id="Group_2508" data-name="Group 2508"><g id="Group_2507" data-name="Group 2507"><path id="Path_7138" data-name="Path 7138" class="cls-1" d="M31.24,20.37a.92.92,0,0,0-1,.85c-.09.56-.15.89-1,.89s-1.16-.3-1.16-1.21V17.17c0-.77.19-1.22,1.13-1.22s1,.41,1.06.82a.93.93,0,0,0,.95.91h0a1,1,0,0,0,1-.92.92.92,0,0,0,0-.16A2.72,2.72,0,0,0,29.38,14H29.2a2.9,2.9,0,0,0-3.09,2.69,2.46,2.46,0,0,0,0,.47V20.9a2.88,2.88,0,0,0,2.58,3.15h.47c2,0,3.06-1.3,3.06-2.59a1,1,0,0,0-.83-1.08Z"/></g></g><g id="Group_2510" data-name="Group 2510"><g id="Group_2509" data-name="Group 2509"><path id="Path_7139" data-name="Path 7139" class="cls-1" d="M40,22.47l-2.66-4,2.27-2.83a.84.84,0,0,0,.24-.61,1,1,0,0,0-1-1,.92.92,0,0,0-.75.37l-2.37,3V15a1,1,0,0,0-.94-.94h-.05a.94.94,0,0,0-1,.89V23a1,1,0,0,0,1,.94h0a.94.94,0,0,0,1-.9.06.06,0,0,0,0,0V20.47l.32-.4,2.32,3.47a.93.93,0,0,0,.79.45,1,1,0,0,0,1-1A.86.86,0,0,0,40,22.47Z"/></g></g><g id="Group_2512" data-name="Group 2512"><g id="Group_2511" data-name="Group 2511"><path id="Path_7140" data-name="Path 7140" class="cls-1" d="M46.42,22H43.23V20h1.18a.93.93,0,0,0,.94-.93v0a1,1,0,0,0-.92-1h-1.2V16h3.19a1,1,0,0,0,.94-1v0a.93.93,0,0,0-.89-1H42.24a1,1,0,0,0-1,.93V23a.93.93,0,0,0,.95.94h4.2a.92.92,0,0,0,.94-.91v0a1,1,0,0,0-.92-1Z"/></g></g><g id="Group_2514" data-name="Group 2514"><g id="Group_2513" data-name="Group 2513"><path id="Path_7141" data-name="Path 7141" class="cls-1" d="M53.49,14H48.84a1,1,0,0,0,0,1.94h1.35V23a.94.94,0,0,0,.94.94h0a1,1,0,0,0,1-.92V16h1.33a.94.94,0,0,0,.94-.94v0a.94.94,0,0,0-.92-1Z"/></g></g></g></g></svg>