<svg xmlns="http://www.w3.org/2000/svg" width="80" height="80" viewBox="0 0 80 80">
  <g id="Group_4697" data-name="Group 4697" transform="translate(19034.795 7083.846)">
    <path id="Path_9935" data-name="Path 9935" d="M40,0A40,40,0,1,1,0,40,40,40,0,0,1,40,0Z" transform="translate(-19034.795 -7083.846)" fill="#fff"/>
    <g id="Group_4140" data-name="Group 4140" transform="translate(170.141 42.828)">
      <path id="Path_9917" data-name="Path 9917" d="M9739.814,13389.638v9.414a34.836,34.836,0,0,1-29.255,12.24c-19.039-1.361-28.56-8.158-28.56-14.959v-6.8s9.521-14.961,31.279-12.242S9739.814,13389.638,9739.814,13389.638Z" transform="translate(-28875.877 -20478.496)" fill="#fff"/>
      <path id="Path_9927" data-name="Path 9927" d="M9682.033,13393.479c9.3,19.393,48.491,17.979,57.722.625.306-.52-.293-1.541,0-2.047-10.367,17.916-48.391,18.768-57.722-.625C9682.3,13391.978,9681.769,13392.921,9682.033,13393.479Z" transform="translate(-28875.891 -20473.734)" fill="#009844"/>
      <path id="Path_9928" data-name="Path 9928" d="M9681.945,13391.857a14.385,14.385,0,0,1,1.94-2.83,26.17,26.17,0,0,1,6.751-5.742,34.6,34.6,0,0,1,12.932-4.373,48.763,48.763,0,0,1,9.1-.385,44.537,44.537,0,0,1,8.373,1.184,34.451,34.451,0,0,1,11.655,5.182,27.157,27.157,0,0,1,5.835,5.477,13.226,13.226,0,0,1,1.235,1.809,1.755,1.755,0,0,1,0-.32v-1.568a1.087,1.087,0,0,0,0-.318,16.064,16.064,0,0,0-2.1-2.8,29,29,0,0,0-7.044-5.781,36.757,36.757,0,0,0-13.131-4.545,49.218,49.218,0,0,0-9.064-.518,43.205,43.205,0,0,0-8.347,1.063,32,32,0,0,0-11.416,5.037,24.66,24.66,0,0,0-5.556,5.422,12.08,12.08,0,0,0-1.144,1.795,1.335,1.335,0,0,0,0,.318v1.568a1.446,1.446,0,0,1,0,.318Z" transform="translate(-28875.895 -20478.719)" fill="#6a3906"/>
      <path id="Path_9929" data-name="Path 9929" d="M9709.725,13379.649h-.066a13.813,13.813,0,0,0-13.08,14.5l0,.01a13.176,13.176,0,0,0,2.525,6.832c.238.387.438.678.557.852-.5-.107-9-3.4-9.408-8.932s6.844-11.137,6.844-11.137-9.994,4.742-14.514,11.668c.107.133,10.766,14.7,29.094,13.49h0a13.811,13.811,0,0,0,13.078-14.488,13.193,13.193,0,0,0-2.539-6.83c-.24-.385-.437-.678-.557-.85.492.105,9,3.4,9.408,8.93s-6.766,11.1-6.766,11.1,10-4.73,14.488-11.654C9738.711,13393.007,9728.051,13378.44,9709.725,13379.649Z" transform="translate(-28875.684 -20477.635)" fill="#ef8200"/>
      <path id="Path_9930" data-name="Path 9930" d="M9716.509,13391.556a10.023,10.023,0,0,1-9.464,10.551l-.065,0a10.153,10.153,0,0,1-10.99-9.145,10.017,10.017,0,0,1,9.463-10.547l.066,0A10.166,10.166,0,0,1,9716.509,13391.556Z" transform="translate(-28871.279 -20476.715)" fill="#1b1c80"/>
      <path id="Path_9931" data-name="Path 9931" d="M9706.607,13390.21a2.288,2.288,0,0,1-2.113,2.406,2.311,2.311,0,0,1-2.5-2.088,2.272,2.272,0,0,1,2.132-2.4l.034,0A2.315,2.315,0,0,1,9706.607,13390.21Z" transform="translate(-28869.299 -20474.824)" fill="#fff"/>
      <path id="Path_9932" data-name="Path 9932" d="M9707.389,13401.85a8.466,8.466,0,0,1-8.626-8.281,8.639,8.639,0,0,1,17.277,0,7.965,7.965,0,0,1-1.409,4.531,9.564,9.564,0,0,0,1.927-5.74,10.286,10.286,0,0,0-20.572,0,10.087,10.087,0,0,0,10.281,9.889h0a10.549,10.549,0,0,0,5.158-1.33A8.87,8.87,0,0,1,9707.389,13401.85Z" transform="translate(-28871.275 -20476.814)" fill="#004da0"/>
      <path id="Path_9933" data-name="Path 9933" d="M9741.958,13384.57l-3.349,2.658a16.6,16.6,0,0,1,1.223,1.541l3.762-1.98A14.669,14.669,0,0,0,9741.958,13384.57Zm-20.692-7.271c.744.172,1.475.359,2.192.572l1.21-3.986c-.807-.232-1.617-.434-2.433-.611Zm-6.911-1.01a18.79,18.79,0,0,1,2.285.213l.5-3.986q-1.233-.146-2.483-.227Zm13.45,3.137c.69.293,1.329.611,2.02.957l2.021-3.7c-.758-.385-1.516-.73-2.285-1.062Zm5.888,3.309q.889.639,1.741,1.33l2.844-3.137c-.639-.545-1.329-1.051-1.993-1.582Zm-24.88-10.633-1.742.082.28,4.053,1.688-.041h.651l-.119-4.078Zm-9.078,1.131h-.2l.971,3.988h.186c.679-.16,1.329-.293,2.047-.414l-.73-3.986C9701.211,13372.926,9700.452,13373.072,9699.734,13373.232Zm-12.691,5.316c-.515.346-1.017.711-1.5,1.09l2.658,3.256,1-.73.783-.531-2.432-3.457Zm-6.313,5.848c-.2.252-.412.531-.624.838l3.549,2.285h0a20.723,20.723,0,0,1,1.328-1.594l-3.3-2.658A6.026,6.026,0,0,0,9680.729,13384.4Zm13.8-9.648q-1.2.439-2.354.957l1.821,3.76c.672-.309,1.36-.592,2.061-.85l-1.528-3.855Z" transform="translate(-28876.5 -20480.094)" fill="#ef8200"/>
    </g>
  </g>
</svg>
