<svg xmlns="http://www.w3.org/2000/svg" viewBox="0 0 78 78"><defs><style>.cls-1{fill:none;}.cls-2{fill:#fff;}.cls-3{fill:#ffcc94;}</style></defs><g id="圖層_2" data-name="圖層 2"><g id="圖層_1-2" data-name="圖層 1"><rect class="cls-1" width="78" height="78"/><g id="Group_4541" data-name="Group 4541"><path id="Path_9915" data-name="Path 9915" class="cls-2" d="M15.3,40.25a5.46,5.46,0,0,0-1.7.28,8.29,8.29,0,0,0-4.86,4.72,12.13,12.13,0,0,0-.59,6.23,29.31,29.31,0,0,0,2,7.17,56.06,56.06,0,0,0,3.49,7,61.61,61.61,0,0,0,3.77,5.78,34.73,34.73,0,0,0,2.42,3,1,1,0,0,0,.67.28,1,1,0,0,0,.6-.2,39.37,39.37,0,0,0,6.55-3.13,48.2,48.2,0,0,0,7.18-5.11,35.53,35.53,0,0,0,5.93-6.38,15.66,15.66,0,0,0,3-7.12,13.36,13.36,0,0,0-.2-4A7,7,0,0,0,42.34,46a5.17,5.17,0,0,0-2.26-1.71,6.58,6.58,0,0,0-2.41-.42H37.2a11.05,11.05,0,0,0-2.9.63,19.29,19.29,0,0,0-3,1.36A26.92,26.92,0,0,0,26,49.8a21.26,21.26,0,0,0-1.73,1.82A18.82,18.82,0,0,0,23.15,48a16.27,16.27,0,0,0-3.7-5.92,7.22,7.22,0,0,0-2.72-1.64,4.64,4.64,0,0,0-1.43-.22"/><path id="Path_9916" data-name="Path 9916" class="cls-3" d="M64.76,3.27a3.57,3.57,0,0,0-1,.16,5,5,0,0,0-1.95,1.18,11.79,11.79,0,0,0-2.66,4.25,16.55,16.55,0,0,0-.81,2.59,9.41,9.41,0,0,0-1.2-1.32,19.61,19.61,0,0,0-3.83-2.82,14.3,14.3,0,0,0-2.15-1A8.2,8.2,0,0,0,49,5.89H48.7a4.64,4.64,0,0,0-1.73.3,3.78,3.78,0,0,0-1.62,1.23,4.72,4.72,0,0,0-.86,2,9.41,9.41,0,0,0-.15,2.9,11.1,11.1,0,0,0,2.13,5.1A24.42,24.42,0,0,0,50.73,22a34,34,0,0,0,5.16,3.67,27.75,27.75,0,0,0,4.7,2.24A.66.66,0,0,0,61,28a.67.67,0,0,0,.48-.2,25.4,25.4,0,0,0,1.74-2.14A45.46,45.46,0,0,0,66,21.55a38.22,38.22,0,0,0,2.5-5.05,20.56,20.56,0,0,0,1.44-5.15,8.72,8.72,0,0,0-.41-4.47A5.72,5.72,0,0,0,68.24,5,5.81,5.81,0,0,0,66,3.49a3.45,3.45,0,0,0-1.23-.2"/></g></g></g></svg>