<svg xmlns="http://www.w3.org/2000/svg" viewBox="0 0 46.9 50.03"><defs><style>.cls-1{fill:#5b5b5b;}</style></defs><g id="圖層_2" data-name="圖層 2"><g id="圖層_1-2" data-name="圖層 1"><path class="cls-1" d="M11.72,28a1.47,1.47,0,0,1-2.93,0,1.47,1.47,0,1,1,2.93,0Z"/><path class="cls-1" d="M46.25,20.86,37.46,15A1.46,1.46,0,0,0,36,14.93a1.45,1.45,0,0,0-.77,1.29v1.47H32.25V1.47A1.47,1.47,0,0,0,30.78,0H1.45A1.47,1.47,0,0,0,0,1.47v38.3A1.49,1.49,0,0,0,.71,41l14.66,8.79a1.47,1.47,0,0,0,2.22-1.26V41.23H30.78a1.46,1.46,0,0,0,1.47-1.46V26.48h2.93V28A1.46,1.46,0,0,0,36,29.24a1.49,1.49,0,0,0,1.51-.07l8.79-5.87a1.47,1.47,0,0,0,0-2.44ZM14.66,46l-11.73-7V4.05l11.73,7ZM29.31,38.3H17.59v-28A1.49,1.49,0,0,0,16.88,9L6.76,2.93H29.31V17.69H22a1.46,1.46,0,0,0-1.47,1.46V25A1.47,1.47,0,0,0,22,26.48h7.32Zm8.8-13.09V25a1.47,1.47,0,0,0-1.47-1.46H23.45V20.62H36.64a1.47,1.47,0,0,0,1.47-1.47V19l4.68,3.12Z"/></g></g></svg>