<svg xmlns="http://www.w3.org/2000/svg" viewBox="0 0 137 57"><defs><style>.cls-1{fill:#23ba4f;}.cls-2{fill:#fff;}.cls-3{isolation:isolate;}</style></defs><g id="圖層_2" data-name="圖層 2"><g id="圖層_1-2" data-name="圖層 1"><rect class="cls-1" width="137" height="57" rx="7.71"/><g id="Group_1475" data-name="Group 1475"><path id="Path_4645" data-name="Path 4645" class="cls-2" d="M38.93,23.22h0v-.08h0l0-.32,0-.21v-.07h0a12.35,12.35,0,0,0-3.17-6.23,16.22,16.22,0,0,0-6.32-4.16A19.2,19.2,0,0,0,22.71,11,18.57,18.57,0,0,0,14,13.1C9,15.75,6.06,20.64,6.5,25.54a12.77,12.77,0,0,0,2.87,7A15.6,15.6,0,0,0,15.46,37,24.54,24.54,0,0,0,20,38.22l.18,0c.43.09.55.2.58.25a.69.69,0,0,1,0,.35,2.5,2.5,0,0,1-.07.26,5.14,5.14,0,0,0-.2,2.17A1.51,1.51,0,0,0,22,42.69h0a5.75,5.75,0,0,0,2.55-1l.09-.05c1.59-.93,3.08-2,4.2-2.79a36.63,36.63,0,0,0,7.34-6.38A12.63,12.63,0,0,0,38.93,23.22Zm-22.34,5H13.78a.78.78,0,0,1-.77-.77h0v-5.9a.77.77,0,0,1,.77-.76h0a.76.76,0,0,1,.76.76h0v5.13h2.05a.76.76,0,0,1,.76.77h0a.77.77,0,0,1-.76.77Zm2.93-.79a.76.76,0,0,1-.76.76h0A.76.76,0,0,1,18,27.4h0V21.5a.77.77,0,0,1,.77-.77h0a.77.77,0,0,1,.76.77h0Zm7,0a.78.78,0,0,1-.53.73,1,1,0,0,1-.24,0,.78.78,0,0,1-.62-.32L22.31,24V27.4a.76.76,0,0,1-.76.76h0a.76.76,0,0,1-.77-.76h0V21.67a.76.76,0,0,1,.53-.73.77.77,0,0,1,.86.28L24.94,25V21.5a.77.77,0,0,1,.76-.77h0a.77.77,0,0,1,.77.77h0Zm5.6.64h-3.8a.76.76,0,0,1-.77-.76h0v-5.9a.76.76,0,0,1,.77-.76H32a.77.77,0,0,1,.77.76h0a.77.77,0,0,1-.77.77H29v1.4H31.4a.78.78,0,0,1,.77.77h0a.78.78,0,0,1-.77.77H29v1.4h3a.77.77,0,0,1,.77.77h0a.77.77,0,0,1-.75.78Z"/></g><g id="立即串接" class="cls-3"><g class="cls-3"><path class="cls-2" d="M50.14,12.35v6h6q0,13.8-.44,17.08c-.29,2.42-1.74,3.66-4.34,3.66-.44,0-1.18-.06-2.24-.12l-.53-2c.94.06,1.77.12,2.48.12,1.5,0,2.39-.85,2.63-2.54.17-1.53.29-6.28.35-14.19H50.14Q50,33.43,44.29,39.43l-1.56-1.38Q47.86,32.52,48,20.37H43.29V18.31H48v-6ZM68.52,38.87H66.45v-2H60.9v2h-2V16.65h9.65Zm-2.07-4V18.69H60.9V34.86Z"/><path class="cls-2" d="M80.11,12.11c-.35,2.07-.71,4-1.06,5.78h5.1V19.1a32.29,32.29,0,0,1-2.89,12.19,50.7,50.7,0,0,1,4.19,3.6L84,36.57a46.26,46.26,0,0,0-3.74-3.42,22.56,22.56,0,0,1-5.64,6.28l-1.44-1.77a19.67,19.67,0,0,0,5.42-5.87c-1.35-1.09-2.89-2.24-4.54-3.45a81,81,0,0,0,2.42-8.41H73.35v-2h3.57c.42-1.94.77-3.92,1.09-6Zm2,7.82H78.6a60.82,60.82,0,0,1-2.21,7.79c1.12.79,2.19,1.56,3.16,2.27A27.27,27.27,0,0,0,82.06,19.93Zm9.76,4.72V20.93a29.85,29.85,0,0,0,4.55-5.07H86V13.79H98.79v2.07A42.86,42.86,0,0,1,94,21.58v3.07h6v2.07H94v9.44c0,1.89-.8,2.83-2.33,2.83H87.4l-.56-2c1.21,0,2.53,0,4,0,.68,0,1-.5,1-1.5V26.72H85.16V24.65Z"/><path class="cls-2" d="M112.12,16.33c.18-1.3.32-2.66.47-4h2.13c-.15,1.41-.3,2.77-.47,4h15.31v2.06H114c-.27,1.6-.53,3.07-.83,4.43h13.52v1.86A21,21,0,0,1,121,33.09a25.75,25.75,0,0,0,9,4.19l-1.06,1.95a26.94,26.94,0,0,1-9.56-4.76A34.26,34.26,0,0,1,110,39.31l-1.12-2a31.27,31.27,0,0,0,9-4.22,19.24,19.24,0,0,1-5-8.29h-.21a36.77,36.77,0,0,1-1.18,3.8A30.21,30.21,0,0,1,104.57,39l-1.33-1.71a29.78,29.78,0,0,0,6.28-9.53,48.46,48.46,0,0,0,2.3-9.39H104V16.33Zm7.32,15.46a18.08,18.08,0,0,0,5-7h-9.57A17.74,17.74,0,0,0,119.44,31.79Z"/></g></g></g></g></svg>