<svg xmlns="http://www.w3.org/2000/svg" viewBox="0 0 81.65 81.65"><defs><style>.cls-1{fill:#22ba4f;}.cls-2{fill:#fff;}.cls-2,.cls-3{isolation:isolate;}</style></defs><g id="圖層_2" data-name="圖層 2"><g id="圖層_1-2" data-name="圖層 1"><rect class="cls-1" width="81.65" height="81.65"/><path class="cls-2" d="M68.39,38.48c0-12.28-12.3-22.26-27.43-22.26s-27.43,10-27.43,22.26c0,11,9.76,20.21,22.94,22,.89.19,2.11.59,2.42,1.35A5.77,5.77,0,0,1,39,64.27s-.32,1.94-.39,2.35c-.12.69-.56,2.71,2.37,1.48s15.8-9.3,21.55-15.93h0c4-4.36,5.88-8.78,5.88-13.69"/><g class="cls-3"><path class="cls-1" d="M35.39,32.55H33.46a.53.53,0,0,0-.53.53V45a.53.53,0,0,0,.53.53h1.93a.53.53,0,0,0,.53-.53v-12a.53.53,0,0,0-.53-.53"/><path class="cls-1" d="M48.63,32.55H46.71a.53.53,0,0,0-.54.53v7.1l-5.47-7.4-.05-.05h0l0,0h0l0,0h0l0,0h0l0,0h0l0,0H38.33a.53.53,0,0,0-.54.53V45a.54.54,0,0,0,.54.53h1.92a.54.54,0,0,0,.54-.53v-7.1l5.48,7.41a.53.53,0,0,0,.13.13h0l0,0h0l0,0h2.15a.54.54,0,0,0,.54-.53v-12a.53.53,0,0,0-.54-.53"/><path class="cls-1" d="M30.75,42.57H25.52V33.08a.53.53,0,0,0-.53-.53H23.06a.53.53,0,0,0-.53.53V45h0a.56.56,0,0,0,.15.37h0a.48.48,0,0,0,.36.15h7.69a.53.53,0,0,0,.53-.53V43.11a.53.53,0,0,0-.53-.54"/><path class="cls-1" d="M59.26,35.54a.54.54,0,0,0,.53-.54V33.08a.53.53,0,0,0-.53-.53H51.57a.48.48,0,0,0-.37.15h0a.55.55,0,0,0-.14.37h0V45h0a.55.55,0,0,0,.14.37h0a.51.51,0,0,0,.37.15h7.69a.53.53,0,0,0,.53-.53V43.11a.54.54,0,0,0-.53-.54H54v-2h5.23a.53.53,0,0,0,.53-.53V38.09a.53.53,0,0,0-.53-.53H54v-2Z"/></g></g></g></svg>