<svg xmlns="http://www.w3.org/2000/svg" viewBox="0 0 137 57"><defs><style>.cls-1{fill:#23ba4f;}.cls-2{fill:#fff;}.cls-3{isolation:isolate;}</style></defs><g id="圖層_2" data-name="圖層 2"><g id="圖層_1-2" data-name="圖層 1"><rect class="cls-1" width="137" height="57" rx="7.71"/><g id="Group_1475" data-name="Group 1475"><path id="Path_4645" data-name="Path 4645" class="cls-2" d="M42.93,23.22h0v-.08h0l0-.32,0-.21v-.07h0a12.35,12.35,0,0,0-3.17-6.23,16.22,16.22,0,0,0-6.32-4.16A19.2,19.2,0,0,0,26.71,11,18.57,18.57,0,0,0,18,13.1c-5,2.65-8,7.54-7.51,12.44a12.77,12.77,0,0,0,2.87,7A15.6,15.6,0,0,0,19.46,37,24.54,24.54,0,0,0,24,38.22l.18,0c.43.09.55.2.58.25a.69.69,0,0,1,0,.35,2.5,2.5,0,0,1-.07.26,5.14,5.14,0,0,0-.2,2.17A1.51,1.51,0,0,0,26,42.69h0a5.75,5.75,0,0,0,2.55-1l.09-.05c1.59-.93,3.08-2,4.2-2.79a36.63,36.63,0,0,0,7.34-6.38A12.63,12.63,0,0,0,42.93,23.22Zm-22.34,5H17.78a.78.78,0,0,1-.77-.77h0v-5.9a.77.77,0,0,1,.77-.76h0a.76.76,0,0,1,.76.76h0v5.13h2.05a.76.76,0,0,1,.76.77h0a.77.77,0,0,1-.76.77Zm2.93-.79a.76.76,0,0,1-.76.76h0A.76.76,0,0,1,22,27.4h0V21.5a.77.77,0,0,1,.77-.77h0a.77.77,0,0,1,.76.77h0Zm7,0a.78.78,0,0,1-.53.73,1,1,0,0,1-.24,0,.78.78,0,0,1-.62-.32L26.31,24V27.4a.76.76,0,0,1-.76.76h0a.76.76,0,0,1-.77-.76h0V21.67a.76.76,0,0,1,.53-.73.77.77,0,0,1,.86.28L28.94,25V21.5a.77.77,0,0,1,.76-.77h0a.77.77,0,0,1,.77.77h0Zm5.6.64h-3.8a.76.76,0,0,1-.77-.76h0v-5.9a.76.76,0,0,1,.77-.76H36a.77.77,0,0,1,.77.76h0a.77.77,0,0,1-.77.77H33v1.4H35.4a.78.78,0,0,1,.77.77h0a.78.78,0,0,1-.77.77H33v1.4h3a.77.77,0,0,1,.77.77h0a.77.77,0,0,1-.75.78Z"/></g><g id="立即串接" class="cls-3"><g class="cls-3"><path class="cls-2" d="M68.74,13.77c-2.59,5.76-6,10.15-10.22,13.18l-2.06-1.77A28.33,28.33,0,0,0,66.37,12.8Zm-6.87,14.3V25.58H83.26c-.11,4.5-.33,8.14-.69,10.91s-.93,4.68-1.76,5.76A5,5,0,0,1,76.92,44h-6.7l-.72-2.55c2.16.07,4.18.1,6.09.1a3.67,3.67,0,0,0,3.82-2.48c.64-1.73,1-5.37,1.22-11H71.77a27.43,27.43,0,0,1-3.6,9.36,25.05,25.05,0,0,1-8.39,7l-1.66-2.16a24,24,0,0,0,7.64-5.94,22.11,22.11,0,0,0,3.38-8.21ZM79.33,12.4a24.83,24.83,0,0,0,10,12.39l-1.65,2.3a27.49,27.49,0,0,1-10-12.17H72.49V12.4Z"/><path class="cls-2" d="M108.93,35.27V33.86c2.23-.86,4.86-1.9,7.89-3.16H96.65V28.35h25.28v1.88c-3,1.4-6.52,2.84-10.44,4.35v.69H126v2.37H111.49V41c0,2.17-1.08,3.28-3.21,3.28H103.2l-.68-2.37c2,.1,3.6.18,4.75.18s1.66-.62,1.66-1.84v-2.6H93.16V35.27Zm1.87-21h14.41v2.45H94V14.27h14a25.44,25.44,0,0,0-1.73-2.63l3-.46A23.46,23.46,0,0,1,110.8,14.27Zm9.58,4.61v7.28H98.81V18.88Zm-2.48,2.24H101.3v2.8h16.6Z"/></g></g></g></g></svg>