<svg xmlns="http://www.w3.org/2000/svg" viewBox="0 0 90 90"><defs><style>.cls-1{fill:none;}.cls-2{fill:#fff;}</style></defs><g id="圖層_2" data-name="圖層 2"><g id="圖層_1-2" data-name="圖層 1"><circle class="cls-1" cx="45" cy="45" r="45"/><path class="cls-2" d="M69.27,53.47C75.29,53,80,48.82,80,43.82s-4.71-9.12-10.73-9.65a26.19,26.19,0,0,0-12.38-13.6,11.89,11.89,0,0,0-23.78,0,26.19,26.19,0,0,0-12.38,13.6C14.71,34.7,10,38.82,10,43.82S14.71,53,20.73,53.47a26.35,26.35,0,0,0,9.7,12,22.48,22.48,0,0,0-7.51,10.64,2,2,0,1,0,3.89,1.28,18.55,18.55,0,0,1,7.59-9.72A26.15,26.15,0,0,0,56,67.52a18.52,18.52,0,0,1,7.85,9.89,2.05,2.05,0,1,0,3.9-1.28,22.45,22.45,0,0,0-7.81-10.87,26.18,26.18,0,0,0,9.35-11.79Zm6.63-9.65c0,2.4-2.26,4.5-5.32,5.28a26.44,26.44,0,0,0,0-10.56C73.64,39.33,75.9,41.43,75.9,43.82ZM45,12.92a7.85,7.85,0,0,1,7.72,6.88,11.91,11.91,0,0,0-10.35,8.39,7.77,7.77,0,0,1-5.16-7.34A7.87,7.87,0,0,1,45,12.92ZM14.1,43.82c0-2.39,2.26-4.49,5.32-5.28a26.44,26.44,0,0,0,0,10.56C16.36,48.32,14.1,46.22,14.1,43.82Zm41,19.55A22,22,0,0,1,33.8,24.87a11.85,11.85,0,0,0,9.94,7.81A2.06,2.06,0,0,0,46,30.85a7.76,7.76,0,0,1,8.34-7,22,22,0,0,1,.79,39.48Z"/><path class="cls-2" d="M40,41.41a2.05,2.05,0,0,0,0-2.9,7.52,7.52,0,0,0-10.64,0,2.05,2.05,0,0,0,2.9,2.9,3.42,3.42,0,0,1,4.84,0A2.05,2.05,0,0,0,40,41.41Z"/><path class="cls-2" d="M60.75,38.51a7.52,7.52,0,0,0-10.64,0,2.05,2.05,0,0,0,2.9,2.9,3.42,3.42,0,0,1,4.84,0,2.05,2.05,0,0,0,2.9-2.9Z"/><path class="cls-2" d="M49,52.22a5.61,5.61,0,0,1-7.92,0,2.05,2.05,0,0,0-2.9,2.9,9.72,9.72,0,0,0,13.72,0,2.05,2.05,0,0,0-2.9-2.9Z"/></g></g></svg>