<svg xmlns="http://www.w3.org/2000/svg" viewBox="0 0 90 90"><defs><style>.cls-1{fill:none;}.cls-2{fill:#fff;}</style></defs><g id="圖層_2" data-name="圖層 2"><g id="圖層_1-2" data-name="圖層 1"><circle class="cls-1" cx="45" cy="45" r="45"/><path class="cls-2" d="M77.58,39.36a2,2,0,0,0,.06-.48c0-14.87-11.3-26.52-24.48-26.52H50.1a1.93,1.93,0,0,0-1.82,1.31L40.56,37H24l-2.46-8a7.59,7.59,0,0,0-7.24-5.25,1.92,1.92,0,0,0,0,3.83,3.77,3.77,0,0,1,3.58,2.55c3.17,10.29,3.28,10.49,6.5,19.49,1.17,3.29,4.87,5.5,9.19,5.5h6.59l-1.78,4.46a9.06,9.06,0,0,0-10.56,8.92,9,9,0,0,0,17.9,1.92h6.78a9.23,9.23,0,0,0,2.43,4.53,8.9,8.9,0,0,0,12.84,0,9.18,9.18,0,0,0,2.63-6.45,9.06,9.06,0,0,0-10.56-8.92L58,55.08h6.6c4.32,0,8-2.21,9.19-5.49,4-10.69,3.73-10.08,3.77-10.23ZM51.48,16.19h1.68c10.8,0,19.7,9.16,20.58,20.78H44.59ZM36.84,73.82a5.37,5.37,0,0,1-5.23-5.36,5.23,5.23,0,0,1,10.46,0A5.37,5.37,0,0,1,36.84,73.82Zm29.71-5.36a5.23,5.23,0,1,1-10.46,0,5.23,5.23,0,0,1,10.46,0ZM56.26,61a9.11,9.11,0,0,0-3.79,5.59H45.69A9.11,9.11,0,0,0,41.9,61l2.35-5.88h9.66Zm14-12.69c-.75,2-3.41,3-5.6,3H33.54c-2.62,0-5-1.24-5.59-3L25.27,40.8H73Z"/></g></g></svg>