<svg xmlns="http://www.w3.org/2000/svg" viewBox="0 0 90 90"><defs><style>.cls-1{fill:none;}.cls-2{fill:#fff;}</style></defs><g id="圖層_2" data-name="圖層 2"><g id="圖層_1-2" data-name="圖層 1"><circle class="cls-1" cx="45" cy="45" r="45"/><path class="cls-2" d="M70.74,45.63a54.52,54.52,0,0,0-14.59-3.49,3.41,3.41,0,0,1,1-2.61,17.43,17.43,0,0,0,0-24.89,17.17,17.17,0,0,0-12.37-5A17.51,17.51,0,0,0,27.64,27.08a17.19,17.19,0,0,0,5.24,12.49,3.3,3.3,0,0,1,1,2.57,54.52,54.52,0,0,0-14.59,3.49c-6.09,2.6-7.37,5.65-7.37,7.76s1.13,4.85,6.5,7.37a47.8,47.8,0,0,0,12.53,3.48v1.18a14.08,14.08,0,1,0,28.16,0V64.24a47.8,47.8,0,0,0,12.53-3.48c5.37-2.52,6.5-5.4,6.5-7.37s-1.28-5.16-7.37-7.76Zm-39-18.54A13.39,13.39,0,0,1,44.81,13.74a13.07,13.07,0,0,1,9.43,3.82,13.34,13.34,0,0,1,0,19.05,7.48,7.48,0,0,0-2.12,6.73c3,16.28,0-.16,1.43,7.6A30.45,30.45,0,0,1,45,52.43a30.45,30.45,0,0,1-8.6-1.49c.31-1.63-.69,3.72,1.43-7.6a7.42,7.42,0,0,0-2.09-6.7,13.19,13.19,0,0,1-4-9.55ZM45,75.54A10.06,10.06,0,0,1,35,65.42v-.65a97.19,97.19,0,0,0,20,0v.65A10.06,10.06,0,0,1,45,75.54Zm11.76-15.1a93,93,0,0,1-23.52,0C21.34,58.85,16,55.36,16,53.39c0-.92,1.28-2.45,4.88-4a48.86,48.86,0,0,1,12.22-3l-1,5.55A2,2,0,0,0,33.3,54.2,35.56,35.56,0,0,0,45,56.54,35.56,35.56,0,0,0,56.7,54.2,2,2,0,0,0,58,51.92l-1-5.55a48.86,48.86,0,0,1,12.22,3c3.6,1.53,4.88,3.06,4.88,4,0,2-5.35,5.46-17.25,7Z"/></g></g></svg>