<svg xmlns="http://www.w3.org/2000/svg" viewBox="0 0 90 90"><defs><style>.cls-1{fill:none;}.cls-2{fill:#fff;}</style></defs><g id="圖層_2" data-name="圖層 2"><g id="圖層_1-2" data-name="圖層 1"><circle id="Ellipse_338" data-name="Ellipse 338" class="cls-1" cx="45" cy="45" r="45"/><g id="Group_2303" data-name="Group 2303"><g id="Group_2302" data-name="Group 2302"><g id="Group_2298" data-name="Group 2298"><path id="Path_6703" data-name="Path 6703" class="cls-2" d="M44.83,49.08A4.09,4.09,0,0,1,40.75,45h0V28.82a4.09,4.09,0,0,1,8.17,0V45a4.09,4.09,0,0,1-4.08,4.09Z"/></g><g id="Group_2299" data-name="Group 2299"><circle id="Ellipse_339" data-name="Ellipse 339" class="cls-2" cx="44.87" cy="56.96" r="4.09"/></g><g id="Group_2301" data-name="Group 2301"><g id="Group_2300" data-name="Group 2300"><path id="Path_6704" data-name="Path 6704" class="cls-2" d="M70.49,59.43a30.3,30.3,0,1,0-8.92,9l11.61,4.14a1.16,1.16,0,0,0,1.47-.7,1.23,1.23,0,0,0,0-.76ZM61.8,66a1.11,1.11,0,0,0-1,.13,28,28,0,1,1,7.51-7.53,1.12,1.12,0,0,0-.13,1l3.53,9.9Z"/></g></g></g></g></g></g></svg>