<svg xmlns="http://www.w3.org/2000/svg" viewBox="0 0 90 90"><defs><style>.cls-1{fill:#dbdbdb;}.cls-2{fill:#fff;}</style></defs><g id="圖層_2" data-name="圖層 2"><g id="圖層_1-2" data-name="圖層 1"><circle class="cls-1" cx="45" cy="45" r="45"/><path class="cls-2" d="M76.23,25.2H73.9V18.85A1.94,1.94,0,0,0,72,16.91H61.59a1.94,1.94,0,0,0-1.94,1.94V25.2H53.16V18.85a1.94,1.94,0,0,0-1.94-1.94H40.85a1.94,1.94,0,0,0-1.94,1.94V25.2h-2.2a2,2,0,0,0-2,1.95V43.87H30.35V37.52a1.94,1.94,0,0,0-1.94-2H18a1.94,1.94,0,0,0-1.94,2v6.35H13.77a1.94,1.94,0,0,0-1.95,1.94V64.47a2,2,0,0,0,1.95,2H76.23a2,2,0,0,0,2-2V27.15A2,2,0,0,0,76.23,25.2Zm-12.7-4.4H70v4.4H63.53Zm-20.73,0h6.48v4.4H42.8Zm-4.15,8.29H74.29V43.87H38.65ZM20,39.46h6.48v4.41H20Zm-4.28,8.29H54.46V62.53H15.71ZM74.29,62.53H58.35V47.75H74.29Z"/></g></g></svg>