<svg xmlns="http://www.w3.org/2000/svg" viewBox="0 0 90 90"><defs><style>.cls-1{fill:#dbdbdb;}.cls-2{fill:#fff;}</style></defs><g id="圖層_2" data-name="圖層 2"><g id="圖層_1-2" data-name="圖層 1"><circle class="cls-1" cx="45" cy="45" r="45"/><path class="cls-2" d="M70.58,53V36.46a29.29,29.29,0,0,1,4.27,2.39,1.93,1.93,0,1,0,2.25-3.13,41.15,41.15,0,0,0-8.59-4.35,65.23,65.23,0,0,0-21.58-4.22c0-5.74,0-5.41,0-5.68a7.09,7.09,0,0,0,5.18-6.81,7.07,7.07,0,1,0-14.14,0,7.09,7.09,0,0,0,5.18,6.81c0,.27,0-.06,0,5.68a65.23,65.23,0,0,0-21.58,4.22,41.15,41.15,0,0,0-8.59,4.35,1.93,1.93,0,1,0,2.25,3.13,31.07,31.07,0,0,1,4.27-2.39v12.7a10.15,10.15,0,0,0,3,19.87,10.08,10.08,0,0,0,7.29-3.09A1.93,1.93,0,0,0,29,62.81a4.25,4.25,0,0,1,0-7.87,1.92,1.92,0,0,0,.66-3.12,10,10,0,0,0-6.39-3.06V34.82A60.74,60.74,0,0,1,43.08,31c0,.15,0-.87.19,12.69a6.29,6.29,0,0,0-6.58,10.37l7.2,7.2a1.93,1.93,0,0,0,2.72,0l7.2-7.2a6.29,6.29,0,0,0-6.68-10.33c-.22-13.9-.2-12.58-.21-12.73a61.16,61.16,0,0,1,19.8,3.81V53L60,61.23a1.93,1.93,0,0,0,0,2.45l7.2,8.85a1.92,1.92,0,0,0,3,0l7.2-8.85a1.94,1.94,0,0,0,0-2.45ZM24.91,64.65a6.3,6.3,0,1,1,0-11.54A8.12,8.12,0,0,0,24.91,64.65Zm16.88-50a3.21,3.21,0,1,1,6.42,0,3.21,3.21,0,0,1-6.42,0Zm7.57,32.53a2.43,2.43,0,0,1,1.72,4.15l-5.83,5.84-5.84-5.84a2.44,2.44,0,0,1,1.73-4.15,2.41,2.41,0,0,1,1.72.71l1,1a1.93,1.93,0,0,0,2.72,0l1-1A2.41,2.41,0,0,1,49.36,47.19ZM68.65,68.26,64,62.47l4.7-5.7,4.71,5.7Z"/></g></g></svg>