<svg xmlns="http://www.w3.org/2000/svg" width="170.243" height="190.493" viewBox="0 0 170.243 190.493">
  <g id="Group_4585" data-name="Group 4585" transform="translate(0)">
    <g id="Group_4581" data-name="Group 4581" transform="translate(20.882 36.47)">
      <path id="Path_10246" data-name="Path 10246" d="M479.1,390.7a15.391,15.391,0,0,0-2.308.194,49.368,49.368,0,0,0-94.1,0,15.386,15.386,0,0,0-2.306-.194,15.135,15.135,0,1,0,2.306,30.075,49.367,49.367,0,0,0,94.1,0A15.127,15.127,0,1,0,479.1,390.7Z" transform="translate(-365.25 -332.068)" fill="#fff" stroke="#8b8b8b" stroke-linecap="round" stroke-linejoin="round" stroke-width="2"/>
      <path id="Path_10247" data-name="Path 10247" d="M386.3,393.31a26.926,26.926,0,0,0,49.056,0Z" transform="translate(-346.339 -298.981)" fill="#fff" stroke="#8b8b8b" stroke-linecap="round" stroke-linejoin="round" stroke-width="2"/>
      <g id="Group_4580" data-name="Group 4580" transform="translate(39.156 68.82)">
        <path id="Path_10248" data-name="Path 10248" d="M385.877,384.817a4.944,4.944,0,1,1,4.943,4.943A4.944,4.944,0,0,1,385.877,384.817Z" transform="translate(-385.877 -379.872)" fill="#8b8b8b"/>
        <path id="Path_10249" data-name="Path 10249" d="M407.359,384.817a4.944,4.944,0,1,1,4.945,4.943A4.944,4.944,0,0,1,407.359,384.817Z" transform="translate(-366.58 -379.872)" fill="#8b8b8b"/>
      </g>
      <path id="Path_10250" data-name="Path 10250" d="M406.748,358.671a7.526,7.526,0,1,0-7.525-7.527v16.884" transform="translate(-334.732 -343.619)" fill="none" stroke="#8b8b8b" stroke-linecap="round" stroke-linejoin="round" stroke-width="2"/>
    </g>
    <g id="Group_4584" data-name="Group 4584" transform="translate(1.901 0)">
      <g id="Group_4583" data-name="Group 4583" transform="translate(0)">
        <g id="Group_4582" data-name="Group 4582">
          <path id="Path_10251" data-name="Path 10251" d="M353.807,341.493l4.417-3.03c3.434-2.354,6.756-2.872,9.294.829a5.193,5.193,0,0,1,.089,6.238l.072.1c2.53-.989,4.8-.427,6.675,2.314,2.718,3.967,1.369,7.591-2.225,10.055l-4.767,3.267Zm9.938,5.08c1.41-.966,1.511-2.248.272-4.057-1.261-1.838-2.371-1.976-3.677-1.082l-.532.366,3.485,5.084Zm6.048,8.535c1.729-1.186,1.932-2.773.545-4.8-1.333-1.942-2.787-2.238-4.463-1.088l-.666.456,4,5.83Z" transform="translate(-353.807 -313.449)" fill="#8b8b8b"/>
          <path id="Path_10252" data-name="Path 10252" d="M377.4,347.462l-4.121,2,1.809,5.938L371,357.392l-6.39-23.552,5.923-2.878L385.1,350.536l-4.15,2.018Zm-2.189-3.1-1.519-2.168c-1.494-2.037-3.011-4.349-4.531-6.517l-.118.057c.854,2.492,1.648,5.156,2.356,7.574l.765,2.534Z" transform="translate(-344.106 -318.519)" fill="#8b8b8b"/>
          <path id="Path_10253" data-name="Path 10253" d="M373.456,329.605l5.11-1.6c3.973-1.245,7.3-.767,8.641,3.514a5.192,5.192,0,0,1-1.741,5.989l.04.123c2.705-.205,4.706.993,5.7,4.165,1.437,4.588-.915,7.656-5.07,8.96l-5.513,1.726Zm8.013,7.77c1.631-.511,2.1-1.707,1.447-3.8-.666-2.124-1.688-2.582-3.2-2.109l-.615.192,1.841,5.883Zm3.278,9.93c2-.628,2.661-2.086,1.929-4.425-.7-2.25-2.008-2.956-3.948-2.348l-.769.241,2.113,6.743Z" transform="translate(-336.156 -321.712)" fill="#8b8b8b"/>
          <path id="Path_10254" data-name="Path 10254" d="M391.115,341.518l-7.69-14.708,4.848-.759,2.54,5.811c.74,1.813,1.348,3.189,2,5.046l.129-.021c.114-1.978.273-3.472.42-5.456l.655-6.276,4.782-.748-2.929,16.369,1.274,8.165-4.751.742Z" transform="translate(-327.201 -324.407)" fill="#8b8b8b"/>
          <path id="Path_10255" data-name="Path 10255" d="M408.383,324.459l4.761.664-2.76,19.777,7.381,1.031-.552,3.96L405.07,348.2Z" transform="translate(-307.757 -324.36)" fill="#8b8b8b"/>
          <path id="Path_10256" data-name="Path 10256" d="M415.842,336.888c2.4-8.1,6.234-10.942,10.378-9.714s5.818,5.691,3.421,13.8-6.295,11.155-10.441,9.93S413.446,344.994,415.842,336.888Zm9.127,2.7c1.932-6.526,1.388-8.1.089-8.485s-2.612.64-4.545,7.168c-1.921,6.5-1.441,8.286-.142,8.671S423.046,346.086,424.969,339.588Z" transform="translate(-299.085 -322.167)" fill="#8b8b8b"/>
          <path id="Path_10257" data-name="Path 10257" d="M425.966,339.393c3.371-7.227,8.717-9.755,13.076-7.722a6.882,6.882,0,0,1,3.631,4.97l-3.713,1.545c-.254-1.365-.511-2.268-1.65-2.8-1.932-.9-4.522,1.061-6.785,5.919-2.32,4.974-2.217,8.189-.433,9.023a1.808,1.808,0,0,0,1.416.093l2.126-4.638-1.929-.9,1.665-3.569,5.82,2.713L434.5,354.092a7.229,7.229,0,0,1-6.1-.065C424.278,352.1,422.6,346.62,425.966,339.393Z" transform="translate(-290.601 -318.491)" fill="#8b8b8b"/>
          <path id="Path_10258" data-name="Path 10258" d="M436.009,343.237c4.668-7.05,9.165-8.641,12.772-6.253s3.9,7.149-.771,14.2-9.286,8.827-12.893,6.439S431.343,350.288,436.009,343.237Zm7.941,5.256c3.757-5.68,3.7-7.343,2.568-8.092s-2.686-.152-6.445,5.526c-3.742,5.651-3.806,7.5-2.675,8.252S440.208,354.143,443.95,348.494Z" transform="translate(-283.157 -314.041)" fill="#8b8b8b"/>
        </g>
      </g>
    </g>
    <text id="AMAZING_SLOGAN" data-name="AMAZING SLOGAN" transform="translate(0 186.493)" fill="#8b8b8b" font-size="16" font-family="Helvetica" letter-spacing="0.075em"><tspan x="0" y="0">AMAZING SLOGAN</tspan></text>
  </g>
</svg>
