<svg xmlns="http://www.w3.org/2000/svg" width="227.977" height="146.627" viewBox="0 0 227.977 146.627">
  <g id="Group_4595" data-name="Group 4595" transform="translate(0.999 1)">
    <g id="Group_4567" data-name="Group 4567" transform="translate(0.001 0.001)">
      <g id="Group_4565" data-name="Group 4565" transform="translate(0 14.567)">
        <path id="Path_10224" data-name="Path 10224" d="M349.164,281.973v-47.5A37.24,37.24,0,0,1,386.4,197.23h0a37.238,37.238,0,0,1,37.237,37.239v47.5" transform="translate(-335.737 -197.23)" fill="none" stroke="#8b8b8b" stroke-linecap="round" stroke-linejoin="round" stroke-width="2"/>
        <g id="Group_4564" data-name="Group 4564" transform="translate(0 68.392)">
          <path id="Path_10225" data-name="Path 10225" d="M342.091,246.687a13.427,13.427,0,1,1,13.427,13.427A13.428,13.428,0,0,1,342.091,246.687Z" transform="translate(-342.091 -233.258)" fill="#8b8b8b" stroke="#8b8b8b" stroke-linecap="round" stroke-linejoin="round" stroke-width="2"/>
          <path id="Path_10226" data-name="Path 10226" d="M381.324,246.687a13.427,13.427,0,1,1,13.427,13.427A13.428,13.428,0,0,1,381.324,246.687Z" transform="translate(-306.848 -233.258)" fill="#8b8b8b" stroke="#8b8b8b" stroke-linecap="round" stroke-linejoin="round" stroke-width="2"/>
        </g>
      </g>
      <g id="Group_4566" data-name="Group 4566" transform="translate(32.672)">
        <path id="Path_10227" data-name="Path 10227" d="M385.449,215.2a9.824,9.824,0,0,0-8.153,4.332,9.84,9.84,0,0,0-17.994,5.509c0,11.3,17.994,20.623,17.994,20.623s17.992-9.818,17.992-20.623A9.841,9.841,0,0,0,385.449,215.2Z" transform="translate(-359.302 -166.525)" fill="#8b8b8b" stroke="#8b8b8b" stroke-linecap="round" stroke-linejoin="round" stroke-width="2"/>
        <line id="Line_379" data-name="Line 379" y1="53.002" transform="translate(17.993)" fill="none" stroke="#8b8b8b" stroke-linecap="round" stroke-linejoin="round" stroke-width="2"/>
      </g>
    </g>
    <text id="BABY_LOGO" data-name="BABY
LOGO" transform="translate(116.978 58.108)" fill="#8b8b8b" font-size="35" font-family="Helvetica"><tspan letter-spacing="0.075em"><tspan x="0" y="0">BABY</tspan></tspan><tspan x="0" y="42" letter-spacing="0.075em">LOG</tspan><tspan y="42">O</tspan></text>
    <text id="AMAZING_SLOGAN" data-name="AMAZING SLOGAN" transform="translate(0 140.628)" fill="#8b8b8b" font-size="21" font-family="Helvetica" letter-spacing="0.075em"><tspan x="0" y="0">AMAZING SLOGAN</tspan></text>
  </g>
</svg>
