<svg xmlns="http://www.w3.org/2000/svg" width="199" height="176.391" viewBox="0 0 199 176.391">
  <g id="Group_4553" data-name="Group 4553" transform="translate(0 1)">
    <g id="Group_4552" data-name="Group 4552" transform="translate(36.068 0)">
      <rect id="Rectangle_1376" data-name="Rectangle 1376" width="136.678" height="37.017" rx="9.75" transform="translate(0 68.655)" fill="#8b8b8b" stroke="#8b8b8b" stroke-linecap="round" stroke-linejoin="round" stroke-width="2"/>
      <path id="Path_10212" data-name="Path 10212" d="M156.253,100.715H81.294a13.922,13.922,0,0,1-13.922-13.92h0a13.922,13.922,0,0,1,13.922-13.92h74.958a13.92,13.92,0,0,1,13.92,13.92h0A13.92,13.92,0,0,1,156.253,100.715Z" transform="translate(-50.434 -32.06)" fill="#fff" stroke="#8b8b8b" stroke-linecap="round" stroke-linejoin="round" stroke-width="2"/>
      <path id="Path_10213" data-name="Path 10213" d="M137.993,82.157H85.181a9.81,9.81,0,0,1-9.809-9.809h0a9.81,9.81,0,0,1,9.809-9.809h52.813a9.809,9.809,0,0,1,9.807,9.809h0A9.809,9.809,0,0,1,137.993,82.157Z" transform="translate(-43.247 -41.343)" fill="#8b8b8b" stroke="#8b8b8b" stroke-linecap="round" stroke-linejoin="round" stroke-width="2"/>
      <path id="Path_10214" data-name="Path 10214" d="M104.587,72.571H90.824V58.255a6.881,6.881,0,0,1,6.881-6.881h0a6.881,6.881,0,0,1,6.881,6.881Z" transform="translate(-29.367 -51.374)" fill="#fff" stroke="#8b8b8b" stroke-linecap="round" stroke-linejoin="round" stroke-width="2"/>
    </g>
    <text id="BABY_LOGO" data-name="BABY LOGO" transform="translate(0 147.956)" fill="#8b8b8b" font-size="31" font-family="Helvetica" letter-spacing="0.075em"><tspan x="0" y="0">BABY LOGO</tspan></text>
    <text id="AMAZING_SLOGAN" data-name="AMAZING SLOGAN" transform="translate(18.983 171.391)" fill="#8b8b8b" font-size="16" font-family="Helvetica" letter-spacing="0.075em"><tspan x="0" y="0">AMAZING SLOGAN</tspan></text>
  </g>
</svg>
